<svg xmlns="http://www.w3.org/2000/svg" fill="none" viewBox="0 0 41 42"><path fill="#5d6c63" d="M18.823.131c-.23.23-.142.449.427 1.029l.558.568-.908.077c-4.256.35-8.008 1.772-11.158 4.234C6.505 7 4.569 9.025 3.705 10.26c-2.79 3.982-4.08 8.85-3.61 13.598.963 9.506 8.412 16.989 17.962 18.028 4.847.536 9.955-.853 13.926-3.763 4.737-3.479 7.69-8.785 8.183-14.736.131-1.586.087-1.848-.295-1.925-.372-.076-.47.175-.547 1.378-.526 7.866-5.383 14.44-12.646 17.12-4.672 1.729-10.196 1.467-14.714-.678-9.66-4.605-13.75-15.95-9.233-25.598 2.866-6.126 8.861-10.294 15.72-10.95 1.74-.164 1.674-.208.92.59-.373.383-.68.777-.68.854 0 .208.22.416.438.416.22 0 2.298-2.079 2.298-2.298S19.337 0 19.119 0a.48.48 0 0 0-.296.131"/><path fill="#5d6c63" d="M17.871 7.34c-4.879.712-9.025 3.72-11.268 8.172-1.028 2.046-1.498 4.059-1.51 6.477 0 1.86.198 3.14.745 4.78 1.706 5.087 5.885 8.763 11.245 9.89 1.444.306 3.928.339 5.394.065 4.813-.875 8.784-3.916 10.884-8.325 1.04-2.188 1.466-4.255 1.379-6.793-.055-1.718-.22-2.702-.7-4.157-1.434-4.398-4.978-7.964-9.408-9.474-1.948-.656-4.76-.93-6.761-.634m4.606 2.014c5.163 1.072 9.08 4.999 10.173 10.228.24 1.116.263 3.73.055 4.813-.92 4.66-4.223 8.478-8.631 9.955-2.615.875-5.744.875-8.325 0-3.107-1.05-5.864-3.446-7.362-6.4-1.05-2.067-1.466-4.014-1.368-6.443.12-3.325 1.368-6.18 3.741-8.554A13.1 13.1 0 0 1 18.308 9.2c.996-.142 3.118-.054 4.169.154"/><path fill="#5d6c63" d="M18.473 10.076c-1.094.13-2.57.557-3.687 1.082-.951.449-2.34 1.346-2.767 1.806l-.252.273.503.536c.536.569.602.755.383.974-.24.24-.569.13-1.083-.372l-.503-.493-.492.558c-1.368 1.554-2.45 4.168-2.659 6.367l-.076.842.787.033c.613.022.82.077.92.219.087.142.087.252 0 .383-.1.153-.307.208-.92.23l-.787.032.076.777c.22 2.243 1.17 4.518 2.68 6.421l.46.58.59-.58c.537-.535.602-.568.865-.448.405.186.34.46-.273 1.061-.296.285-.515.58-.47.635.032.054.458.393.95.755 1.653 1.236 4.016 2.166 5.996 2.351l.744.066v-.678c0-.755.13-1.105.415-1.105.35 0 .46.24.46 1.017v.766l.798-.077c2.276-.207 4.814-1.28 6.695-2.855l.328-.273-.525-.525c-.514-.525-.634-.843-.383-1.094.23-.23.405-.153 1.007.416l.569.535.612-.776c.678-.854 1.575-2.516 1.926-3.534.23-.689.503-2.001.612-2.931l.066-.515h-.766c-.645 0-.777-.032-.919-.24-.12-.164-.131-.285-.055-.438.088-.164.241-.197.92-.197h.82l-.066-.634c-.262-2.483-1.302-4.967-2.778-6.695l-.427-.492-.536.525c-.394.394-.613.525-.799.492-.47-.066-.404-.481.175-1.072.285-.295.493-.58.449-.635-.142-.23-1.685-1.323-2.472-1.75-1.357-.722-3.195-1.269-4.65-1.345l-.547-.033-.032.787c-.022.657-.066.81-.252.908-.175.088-.274.077-.438-.076s-.207-.34-.207-.94c0-.406-.033-.734-.077-.734-.055.011-.46.055-.908.11m-1.149 7.044c.886.515 1.4 1.444 1.39 2.506 0 .525-.077.798-.438 1.531-.394.777-1.86 2.92-3.282 4.78l-.448.591 2.264.055c2.265.055 2.265.055 2.297.306.077.547-.032.57-2.79.57-1.553 0-2.646-.044-2.778-.11-.405-.23-.24-.613 1.029-2.32 2.69-3.62 3.249-4.561 3.249-5.48 0-.602-.175-.985-.624-1.4-.46-.427-.722-.536-1.346-.536-.973 0-1.728.569-1.98 1.477-.12.404-.448.59-.7.382-.339-.284-.11-1.094.493-1.794.897-1.017 2.472-1.258 3.664-.558m8.238.515c.098.087.13.831.13 3.052v2.932l.504.032c.963.066.963.766 0 .832l-.503.032v1.204c0 1.323-.088 1.63-.492 1.63-.405 0-.482-.263-.416-1.608l.066-1.236h-2.363c-3.184 0-3.096.175-1.247-2.506 2.198-3.205 3.04-4.386 3.227-4.496.208-.12.875-.043 1.094.132"/><path fill="#5d6c63" d="M23.165 20.752c-.853 1.258-1.651 2.407-1.76 2.57l-.209.307h3.621v-2.57c0-1.412-.022-2.572-.044-2.572s-.743 1.018-1.608 2.265"/></svg>