<svg preserveAspectRatio="none" width="100%" height="100%" overflow="visible" style="display: block;" viewBox="0 0 752 468" fill="none" xmlns="http://www.w3.org/2000/svg">
<g id="Group 2630">
<circle id="Ellipse 164" cx="376.5" cy="195.5" r="111" stroke="var(--stroke-0, #5D6C63)" stroke-width="3"/>
<circle id="Ellipse 165" cx="103.5" cy="41.5" r="40" stroke="var(--stroke-0, #5D6C63)" stroke-width="3"/>
<circle id="Ellipse 170" cx="184" cy="175" r="9.5" stroke="var(--stroke-0, #5D6C63)" stroke-width="3"/>
<circle id="Ellipse 171" cx="471" cy="18" r="9.5" stroke="var(--stroke-0, #5D6C63)" stroke-width="3"/>
<circle id="Ellipse 175" cx="357" cy="35" r="9.5" stroke="var(--stroke-0, #5D6C63)" stroke-width="3"/>
<circle id="Ellipse 173" cx="276" cy="329" r="9.5" stroke="var(--stroke-0, #5D6C63)" stroke-width="3"/>
<circle id="Ellipse 172" cx="504" cy="345" r="9.5" stroke="var(--stroke-0, #5D6C63)" stroke-width="3"/>
<circle id="Ellipse 174" cx="573" cy="175" r="9.5" stroke="var(--stroke-0, #5D6C63)" stroke-width="3"/>
<circle id="Ellipse 167" cx="41.5" cy="41.5" r="40" transform="matrix(-1 0 0 1 690 0)" stroke="var(--stroke-0, #5D6C63)" stroke-width="3"/>
<circle id="Ellipse 166" cx="41.5" cy="268.5" r="40" stroke="var(--stroke-0, #5D6C63)" stroke-width="3"/>
<circle id="Ellipse 169" cx="376.5" cy="426.5" r="40" stroke="var(--stroke-0, #5D6C63)" stroke-width="3"/>
<circle id="Ellipse 168" cx="41.5" cy="41.5" r="40" transform="matrix(-1 0 0 1 752 227)" stroke="var(--stroke-0, #5D6C63)" stroke-width="3"/>
<line id="Line 9" x1="139.78" y1="58.7187" x2="277.78" y2="142.719" stroke="var(--stroke-0, #5D6C63)" stroke-width="3"/>
<line id="Line 14" x1="194.166" y1="176.509" x2="266.166" y2="184.509" stroke="var(--stroke-0, #5D6C63)" stroke-width="3"/>
<path id="Line 16" d="M446.116 281.998L497.5 337.5" stroke="var(--stroke-0, #5D6C63)" stroke-width="3"/>
<line id="Line 15" x1="436.619" y1="101.414" x2="467.619" y2="28.4137" stroke="var(--stroke-0, #5D6C63)" stroke-width="3"/>
<path id="Line 19" d="M365.62 86.4138L358.5 44.5002" stroke="var(--stroke-0, #5D6C63)" stroke-width="3"/>
<line id="Line 17" x1="280.762" y1="321.153" x2="306.762" y2="283.153" stroke="var(--stroke-0, #5D6C63)" stroke-width="3"/>
<line id="Line 18" x1="488.779" y1="187.516" x2="562.779" y2="176.516" stroke="var(--stroke-0, #5D6C63)" stroke-width="3"/>
<line id="Line 10" x1="80.7118" y1="267.528" x2="269.712" y2="230.528" stroke="var(--stroke-0, #5D6C63)" stroke-width="3"/>
<line id="Line 11" y1="-1.5" x2="161.555" y2="-1.5" transform="matrix(-0.854199 0.519947 0.519947 0.854199 613 60)" stroke="var(--stroke-0, #5D6C63)" stroke-width="3"/>
<line id="Line 12" y1="-1.5" x2="192.588" y2="-1.5" transform="matrix(-0.981371 -0.19212 -0.19212 0.981371 671 269)" stroke="var(--stroke-0, #5D6C63)" stroke-width="3"/>
<line id="Line 13" x1="377.5" y1="308" x2="377.5" y2="385" stroke="var(--stroke-0, #5D6C63)" stroke-width="3"/>
<path id="Vector 5" d="M144 44L345 88" stroke="var(--stroke-0, #5D6C63)" stroke-opacity="0.3"/>
<path id="Vector 10" d="M607 44L438.5 104" stroke="var(--stroke-0, #5D6C63)" stroke-opacity="0.3"/>
<path id="Vector 6" d="M123 77L219.5 179" stroke="var(--stroke-0, #5D6C63)" stroke-opacity="0.3"/>
<path id="Vector 11" d="M628 77L528.5 182" stroke="var(--stroke-0, #5D6C63)" stroke-opacity="0.3"/>
<path id="Vector 13" d="M671 274L465 261" stroke="var(--stroke-0, #5D6C63)" stroke-opacity="0.3"/>
<path id="Vector 7" d="M76 290L290.5 306" stroke="var(--stroke-0, #5D6C63)" stroke-opacity="0.3"/>
<path id="Vector 8" d="M335 299L363 388.5" stroke="var(--stroke-0, #5D6C63)" stroke-opacity="0.3"/>
<path id="Vector 15" d="M64 302L336 426.5" stroke="var(--stroke-0, #5D6C63)" stroke-opacity="0.3"/>
<path id="Vector 16" d="M688 302L416 426.5" stroke="var(--stroke-0, #5D6C63)" stroke-opacity="0.3"/>
<path id="Vector 12" d="M459.5 298L412 409" stroke="var(--stroke-0, #5D6C63)" stroke-opacity="0.3"/>
<path id="Vector 14" d="M582 179.5L678 243.5" stroke="var(--stroke-0, #5D6C63)" stroke-opacity="0.3"/>
<path id="Vector 9" d="M461 21L402.5 86.5" stroke="var(--stroke-0, #5D6C63)" stroke-opacity="0.3"/>
<g id="Group 159">
<path id="Vector" d="M104.703 27.4959V32.4838H113.5C114.725 32.4838 116.362 34.0072 116.362 35.2202V40.8661H119.4C119.948 36.9112 124.499 35.0075 127.832 37.3449C130.933 39.5194 130.658 44.2863 127.316 46.0978C123.981 47.9045 119.917 45.9205 119.4 42.2516H116.362V48.0362C116.362 49.0275 114.798 50.5647 113.783 50.5647H104.703V55.5526C108.845 56.043 110.856 60.9214 108.164 64.106C105.95 66.7246 101.69 66.6152 99.6576 63.8594C97.2665 60.6159 99.2895 56.0576 103.29 55.5526V50.5647H94.2105C93.2093 50.5647 91.6315 49.0268 91.6315 48.0362V42.2516H88.5931C88.0759 45.9898 83.8731 47.9558 80.5366 46.0285C76.986 43.978 77.2156 38.6812 80.8899 36.8814C84.1847 35.2673 88.1056 37.3324 88.5931 40.8661H91.6315V35.0123C91.6315 33.9199 93.4177 32.4838 94.4931 32.4838H103.29V27.4959C99.2379 27.0581 97.2495 22.3599 99.6576 19.1198C101.931 16.0599 106.822 16.3751 108.697 19.6664C110.545 22.9092 108.475 27.0976 104.703 27.4959ZM103.557 18.3703C100.655 18.6841 99.0789 21.8396 100.575 24.303C102.105 26.8205 105.831 26.833 107.402 24.3564C109.171 21.5687 106.854 18.0135 103.557 18.3696L103.557 18.3703ZM94.5836 33.8887C93.6982 33.9871 93.0376 34.6999 92.9747 35.5672V47.5498C93.0757 48.4137 93.6466 49.1002 94.5603 49.1813H113.432C114.201 49.1266 114.883 48.5197 114.951 47.7611V35.3553C114.873 34.4928 114.063 33.9095 113.22 33.8658L94.5836 33.888V33.8887ZM82.5716 37.7674C80.4787 38.0134 79.0485 40.3022 79.4265 42.2669C80.1522 46.032 85.494 46.5162 86.9581 43.0379C88.2003 40.0854 85.6912 37.4003 82.5716 37.7674ZM123.978 37.7681C121.951 38.0057 120.588 40.0092 120.752 41.9309C120.972 44.5038 123.699 46.0521 126.133 45.1453C130.249 43.6115 129.011 37.1779 123.978 37.7681H123.978ZM103.415 56.8861C101.906 57.0725 100.512 58.3416 100.146 59.7777C99.2089 63.4472 103.564 66.1032 106.504 63.795C109.668 61.3107 107.455 56.388 103.415 56.8868L103.415 56.8861Z" fill="var(--fill-0, #5D6C63)"/>
<path id="Vector_2" d="M106.029 46.1835C105.883 46.3269 104.821 46.3159 104.636 46.1628C104.332 45.912 103.999 44.3761 103.793 43.9549L99.8379 43.9231C99.6521 44.3893 99.2804 45.9057 98.9144 46.1704C98.7222 46.3089 98.0022 46.3062 97.7407 46.2729C97.4793 46.2397 97.4129 46.142 97.4221 45.8919C98.0234 44.239 98.6883 42.5999 99.3164 40.9525C99.7814 39.7333 100.18 38.3533 100.694 37.177C100.773 36.9983 100.814 36.814 101.032 36.7496C101.25 36.6852 102.311 36.6678 102.547 36.7115C102.729 36.7447 102.824 36.9082 102.906 37.0523L106.12 45.887C106.107 45.9778 106.095 46.1191 106.03 46.1842L106.029 46.1835ZM103.22 42.5286L101.842 38.3713L100.323 42.5286H103.22Z" fill="var(--fill-0, #5D6C63)"/>
<path id="Vector_3" d="M108.358 36.6547C108.653 36.5903 109.402 36.6007 109.585 36.8778L109.654 45.8226C109.647 46.4454 108.025 46.4011 107.954 46.027L107.953 37.1583C107.958 36.9283 108.125 36.706 108.359 36.6554L108.358 36.6547Z" fill="var(--fill-0, #5D6C63)"/>
</g>
<g id="Group 160">
<path id="Vector_4" d="M633.758 51.9761C633.69 52.3633 633.222 52.701 632.846 52.7523C631.969 52.8717 629.701 52.838 628.784 52.7598C627.595 52.6585 627.826 51.7222 627.817 50.8185C626.453 50.9998 625.163 50.4626 625 48.976V33.4612C625.087 32.3585 625.864 31.6018 626.97 31.5536H656.808C657.777 31.5911 658.593 32.3129 658.712 33.2767L658.715 48.9766C658.617 50.2894 657.466 50.9917 656.21 50.8185C656.165 51.5146 656.457 52.4658 655.589 52.7304L651.054 52.7535C650.78 52.7341 650.331 52.292 650.331 52.038V50.8185H633.758C633.715 51.1687 633.817 51.644 633.758 51.9755V51.9761ZM626.862 32.8214C626.573 32.8701 626.388 33.1109 626.282 33.3673L626.25 48.7884C626.292 49.2674 626.47 49.5226 626.969 49.5708H656.745C657.153 49.562 657.456 49.2593 657.464 48.8515V33.5237C657.461 33.029 657.135 32.8445 656.682 32.8045L626.862 32.822V32.8214ZM632.508 50.8191H629.13V51.5071H632.508V50.8191ZM654.96 50.8191H651.583V51.5071H654.96V50.8191Z" fill="var(--fill-0, #5D6C63)"/>
<path id="Vector_5" d="M662.325 31.5099C664.956 31.6356 667.838 31.2872 670.441 31.4917C671.279 31.5574 672.048 32.1003 672.152 32.9708C672.242 33.7257 672.241 35.6439 672.159 36.4044C672.077 37.1649 671.415 37.7953 670.69 37.8742C667.987 37.6928 664.971 38.1143 662.306 37.876C661.56 37.8091 660.897 37.1093 660.792 36.3875C660.688 35.6658 660.705 33.817 660.777 33.0897C660.862 32.2228 661.483 31.6525 662.325 31.5105V31.5099ZM662.511 32.7588C662.217 32.8389 662.062 33.034 662.026 33.3373C661.964 33.8552 661.953 35.6552 662.031 36.1499C662.063 36.3531 662.221 36.5101 662.4 36.5945L670.379 36.6239C670.608 36.6164 670.787 36.4482 670.881 36.2506L670.905 33.2173C670.877 33.0328 670.741 32.8702 670.569 32.8026L662.512 32.7588H662.511Z" fill="var(--fill-0, #5D6C63)"/>
<path id="Vector_6" d="M662.199 38.7635C664.878 38.9086 667.86 38.519 670.504 38.746C671.309 38.8148 672.054 39.4021 672.152 40.2251C672.242 40.9731 672.235 42.7744 672.159 43.5324C672.069 44.4167 671.297 45.0115 670.442 45.0678C667.873 44.8977 665.03 45.286 662.495 45.0678C661.652 44.9952 660.91 44.4436 660.793 43.5799C660.697 42.8725 660.698 40.9994 660.777 40.2808C660.857 39.5409 661.483 38.9161 662.199 38.7642L662.199 38.7635ZM662.447 40.0125C662.16 40.1188 662.051 40.2946 662.024 40.5904C661.97 41.1895 661.952 42.7037 662.033 43.2772C662.066 43.5142 662.177 43.69 662.4 43.7863L670.378 43.8157C670.608 43.8082 670.786 43.6399 670.88 43.4423L670.905 40.4716C670.873 40.2683 670.715 40.1113 670.536 40.0269L662.447 40.0119V40.0125Z" fill="var(--fill-0, #5D6C63)"/>
<path id="Vector_7" d="M671.699 51.6722C671.378 51.9974 670.892 52.1619 670.441 52.1969C667.886 52.3971 665.076 52.0406 662.494 52.1969C661.765 52.1569 661.112 51.7735 660.872 51.0668C660.695 50.5458 660.718 48.1198 660.775 47.47C660.841 46.6982 661.418 46.0641 662.184 45.9396C664.926 46.1241 667.989 45.6944 670.692 45.9371C671.364 45.9971 672.06 46.6094 672.154 47.2899C672.247 47.9703 672.232 49.9342 672.159 50.6609C672.125 50.9893 671.931 51.4364 671.7 51.6716L671.699 51.6722ZM662.447 47.1423C662.206 47.2273 662.056 47.4025 662.026 47.6595C661.959 48.2349 661.958 49.8404 662.026 50.4145C662.048 50.599 662.149 50.8554 662.336 50.9173L670.441 50.9461C670.64 50.9411 670.808 50.8179 670.88 50.6353L670.907 47.5376L670.569 47.1873L662.448 47.1429L662.447 47.1423Z" fill="var(--fill-0, #5D6C63)"/>
<path id="Vector_8" d="M628.612 34.9466L636.355 34.9322C636.657 34.9534 636.901 35.2186 636.888 35.5251L636.837 47.1135C636.704 47.3687 636.5 47.42 636.231 47.445C633.892 47.6632 631.22 47.2749 628.846 47.445C628.488 47.4475 628.179 47.2311 628.188 46.8514L628.19 35.4644C628.2 35.2199 628.387 35.0229 628.611 34.9472L628.612 34.9466ZM635.635 36.1217H629.443V46.191H635.635V36.1217Z" fill="var(--fill-0, #5D6C63)"/>
<path id="Vector_9" d="M639.37 37.5746L654.617 37.5589C655.471 37.7722 655.229 38.8479 654.368 38.8135H639.729C638.877 38.8498 638.536 37.901 639.37 37.5752V37.5746Z" fill="var(--fill-0, #5D6C63)"/>
<path id="Vector_10" d="M639.369 43.0145L649.253 43.0489C649.86 43.4323 649.648 44.214 648.925 44.2522H639.544C638.772 44.1646 638.664 43.3041 639.369 43.0145Z" fill="var(--fill-0, #5D6C63)"/>
<path id="Vector_11" d="M649.435 40.459C649.783 40.8005 649.56 41.4747 649.051 41.5016H639.417C638.722 41.4209 638.686 40.3521 639.606 40.2489C642.579 40.4384 645.865 39.9975 648.802 40.247C649.005 40.2645 649.287 40.3133 649.435 40.4584L649.435 40.459Z" fill="var(--fill-0, #5D6C63)"/>
<path id="Vector_12" d="M652.442 39.7016C655.298 39.2551 655.429 43.4948 652.742 43.3772C650.483 43.2784 650.367 40.0256 652.442 39.7016ZM652.628 40.8874C651.883 41.0563 652.079 42.2959 652.911 42.1758C653.758 42.0532 653.597 40.6673 652.628 40.8874Z" fill="var(--fill-0, #5D6C63)"/>
<path id="Vector_13" d="M667.011 34.2023C667.629 34.7483 666.805 35.784 666.096 35.2111C665.451 34.6895 666.313 33.585 667.011 34.2023Z" fill="var(--fill-0, #5D6C63)"/>
<path id="Vector_14" d="M663.949 34.0716C665.098 33.842 665.001 35.5019 664.014 35.3587C663.32 35.258 663.27 34.2073 663.949 34.0716Z" fill="var(--fill-0, #5D6C63)"/>
<path id="Vector_15" d="M664.076 41.2614C664.938 41.1626 665.13 42.6974 664.003 42.5579C663.256 42.4654 663.296 41.3509 664.076 41.2614Z" fill="var(--fill-0, #5D6C63)"/>
<path id="Vector_16" d="M666.05 41.4572C666.671 40.7917 667.794 41.9106 666.903 42.4666C666.177 42.9188 665.57 41.9706 666.05 41.4572Z" fill="var(--fill-0, #5D6C63)"/>
<path id="Vector_17" d="M664.076 48.3956C664.901 48.3437 665.023 49.5276 664.36 49.6796C663.249 49.9342 663.184 48.4513 664.076 48.3956Z" fill="var(--fill-0, #5D6C63)"/>
<path id="Vector_18" d="M666.051 48.5888C666.657 47.9772 667.627 48.8847 667.058 49.502C666.448 50.1655 665.445 49.2011 666.051 48.5888Z" fill="var(--fill-0, #5D6C63)"/>
<path id="Vector_19" d="M631.053 43.0164C631.541 42.935 633.537 42.935 634.025 43.0164C634.775 43.1414 634.774 44.1427 634.034 44.2466C633.529 44.3179 631.473 44.3247 630.99 44.2372C630.306 44.1133 630.337 43.1352 631.053 43.0164Z" fill="var(--fill-0, #5D6C63)"/>
<path id="Vector_20" d="M630.926 37.5733H634.152C634.725 37.7566 634.754 38.6635 634.106 38.751C633.149 38.8805 631.903 38.6503 630.915 38.7466C630.364 38.5134 630.351 37.7835 630.927 37.5727L630.926 37.5733Z" fill="var(--fill-0, #5D6C63)"/>
<path id="Vector_21" d="M634.426 41.3553C634.343 41.4322 634.157 41.4891 634.041 41.5022C633.092 41.6086 631.95 41.4228 630.979 41.4972C630.342 41.3784 630.347 40.4159 630.979 40.3158C631.454 40.2408 633.623 40.2408 634.099 40.3158C634.56 40.3884 634.751 41.0594 634.427 41.3553H634.426Z" fill="var(--fill-0, #5D6C63)"/>
</g>
<g id="Group 161">
<path id="Vector_22" d="M715.946 251.99C716.076 251.044 717.045 250.167 718.006 250.081C720.838 249.826 724.066 250.274 726.939 250.086C728.481 249.855 729.802 250.955 729.925 252.472C730.164 255.449 729.739 258.73 729.925 261.739C729.803 262.857 728.789 263.681 727.677 263.767C725.102 263.967 722.059 263.74 719.422 263.763C719.089 263.766 718.751 263.85 718.376 263.828C718.024 263.807 717.663 263.728 717.34 263.593L711.206 269.516C711.806 269.701 712.172 270.241 712.62 270.638C713.821 271.699 714.974 272.8 716.114 273.926C716.43 274.017 716.781 273.615 717.061 273.489C717.788 273.165 718.386 273.329 719.114 273.334C722.112 273.355 725.11 273.313 728.108 273.329C728.902 273.355 729.835 274.301 729.922 275.056L729.925 285.412C729.796 286.296 729.135 287.131 728.223 287.311L717.839 287.301C717.442 287.22 717.059 287.059 716.745 286.802C715.202 285.54 716.212 282.967 715.888 281.288L705.049 281.201V285.712C705.049 286.801 703.731 287.842 702.681 287.924C699.62 288.162 696.237 287.746 693.142 287.915C692.028 287.756 691.152 286.891 691.07 285.775C690.844 282.703 691.247 279.365 691.07 276.265C691.559 273.245 695.146 274.42 697.291 274.179V263.826H693.135C692.35 263.826 691.102 262.673 691.08 261.852L691.071 252.169C691.19 251.149 692.069 250.335 693.074 250.144L702.924 250.145C703.683 250.147 704.987 251.267 704.987 251.991V256.229L715.946 256.259V251.99ZM718.456 251.37C717.785 251.488 717.373 251.776 717.301 252.475L717.359 261.801C717.526 262.127 717.783 262.447 718.191 262.436C721.211 262.235 724.575 262.696 727.554 262.436C728.118 262.387 728.52 261.995 728.57 261.437C728.824 258.602 728.372 255.405 728.57 252.533C728.507 251.834 727.986 251.443 727.305 251.355L718.456 251.37ZM693.211 251.489C692.748 251.639 692.478 252.069 692.427 252.534C692.168 254.874 692.673 257.608 692.363 259.979C692.429 261.211 692.069 262.325 693.686 262.436C696.599 262.636 699.744 262.278 702.681 262.436C703.785 262.259 703.586 261.465 703.63 260.645C703.675 259.824 703.634 259.011 703.63 258.167C703.623 256.471 703.752 254.56 703.635 252.895C703.604 252.453 703.466 251.718 702.959 251.563C702.822 251.521 702.308 251.483 702.127 251.472C699.215 251.31 696.139 251.587 693.211 251.489V251.489ZM715.946 257.651H704.987V261.98C704.987 262.015 704.846 262.409 704.814 262.475C704.729 262.645 704.313 263.027 704.399 263.16L710.255 268.37C710.395 268.382 710.939 267.917 711.084 267.792C712.686 266.411 714.118 264.563 715.729 263.219C715.963 263.024 716.236 262.931 716.438 262.705C716.25 262.63 715.947 262.214 715.947 262.039V257.65L715.946 257.651ZM702.943 263.78C701.776 263.801 700.141 263.701 699.045 263.825C698.931 263.838 698.758 263.867 698.717 263.987C698.623 264.263 698.721 265.51 698.71 265.917C698.647 268.16 698.63 270.389 698.71 272.633C698.724 273.033 698.639 273.676 698.707 274.028C698.743 274.219 699.006 274.228 699.167 274.242C700.519 274.351 702.284 274.004 703.542 274.42C703.654 274.457 704.002 274.662 704.065 274.635L709.099 269.476C709.117 269.378 709.014 269.284 708.959 269.213C707.986 267.974 706.022 266.479 704.801 265.371C704.403 265.009 704.038 264.567 703.633 264.219C703.464 264.074 703.151 263.776 702.943 263.78ZM704.987 279.87H715.792C715.9 279.692 715.935 279.291 715.949 279.055C715.997 278.228 716.023 276.894 715.949 276.083C715.93 275.876 715.877 275.709 715.774 275.529C715.066 274.891 714.45 274.169 713.762 273.512C712.616 272.418 711.327 271.462 710.312 270.245C709.827 271.09 708.972 271.636 708.279 272.301C707.585 272.966 706.895 273.647 706.216 274.329C705.748 274.799 705.388 275.405 704.74 275.664C704.816 275.836 704.938 275.964 704.972 276.162C705.135 277.128 705.077 278.594 705.052 279.602C705.049 279.705 705.032 279.78 704.987 279.87L704.987 279.87ZM718.706 274.617C718.517 274.621 718.129 274.641 717.951 274.667C717.459 274.74 717.336 275.25 717.302 275.663C717.051 278.652 717.49 281.965 717.298 284.989C717.358 285.567 717.705 285.995 718.314 286.048C721.295 286.307 724.657 285.848 727.677 286.048C728.417 285.98 728.586 285.455 728.632 284.808C728.841 281.866 728.468 278.688 728.632 275.721C728.604 275.285 728.432 274.722 727.924 274.663C724.858 274.759 721.763 274.559 718.707 274.617H718.706ZM696.786 275.529C696.715 275.53 696.621 275.572 696.525 275.574C695.559 275.59 694.088 275.441 693.201 275.576C692.684 275.654 692.382 276.284 692.364 276.75C692.502 279.448 692.188 282.31 692.364 284.989C692.408 285.656 692.568 286.463 693.38 286.532H702.682C703.191 286.489 703.579 286.084 703.633 285.592L703.636 276.508C703.484 275.266 702.177 275.605 701.26 275.574C699.767 275.523 698.289 275.507 696.787 275.529H696.786Z" fill="var(--fill-0, #5D6C63)"/>
<path id="Vector_23" d="M720.919 254.156C722.55 253.948 722.544 256.289 721.143 256.313C719.742 256.337 719.527 254.333 720.919 254.156Z" fill="var(--fill-0, #5D6C63)"/>
<path id="Vector_24" d="M721.898 258.337C722.25 258.682 722.161 259.479 721.798 259.803C720.973 260.542 719.75 259.662 720.068 258.646C720.304 257.893 721.393 257.843 721.898 258.337Z" fill="var(--fill-0, #5D6C63)"/>
<path id="Vector_25" d="M695.736 278.311C697.305 278.061 697.85 280.624 695.845 280.415C694.718 280.297 694.755 278.467 695.736 278.311Z" fill="var(--fill-0, #5D6C63)"/>
<path id="Vector_26" d="M696.654 283.966C696.151 284.414 695.159 284.302 695.074 283.595C695 282.979 695.005 282.193 695.783 282.111C697.02 281.98 697.576 283.145 696.654 283.966Z" fill="var(--fill-0, #5D6C63)"/>
<path id="Vector_27" d="M695.859 258.029C697.508 257.779 697.633 260.074 696.088 260.135C695.606 260.154 695.035 259.815 695.01 259.313C695.001 259.105 695.087 258.515 695.207 258.356C695.327 258.198 695.67 258.058 695.859 258.029H695.859Z" fill="var(--fill-0, #5D6C63)"/>
<path id="Vector_28" d="M699.368 254.214C699.954 254.097 700.535 254.22 700.769 254.806C701.122 255.692 700.138 256.586 699.259 256.171C698.49 255.809 698.453 254.397 699.369 254.214H699.368Z" fill="var(--fill-0, #5D6C63)"/>
<path id="Vector_29" d="M695.737 254.153C696.01 254.107 696.436 254.218 696.679 254.348C697.707 254.902 696.785 256.788 695.524 256.149C694.777 255.771 695.01 254.274 695.736 254.153H695.737Z" fill="var(--fill-0, #5D6C63)"/>
<path id="Vector_30" d="M719.783 277.043C719.978 276.826 720.393 276.785 720.661 276.899C720.906 277.003 721.361 277.649 721.579 277.873C721.763 278.063 722.894 279.224 723.049 279.198C723.466 278.801 723.888 278.406 724.29 277.994C724.636 277.641 725.119 276.791 725.698 276.846C726.009 276.876 726.253 277.04 726.292 277.356C726.385 278.123 725.859 278.246 725.426 278.687C724.943 279.177 724.489 279.71 724.017 280.211C724.008 280.268 724.511 280.865 724.597 280.961C724.974 281.377 726.036 282.215 726.255 282.6C726.627 283.252 725.981 283.977 725.247 283.531C724.67 283.18 723.873 282.002 723.245 281.504C723.163 281.439 723.095 281.359 722.987 281.333C722.892 281.324 721.777 282.456 721.611 282.624C721.213 283.026 720.593 284.094 719.884 283.538C719.453 283.2 719.774 282.611 720.041 282.292C720.272 282.016 721.945 280.373 721.916 280.212L719.775 277.954C719.594 277.718 719.581 277.271 719.784 277.044L719.783 277.043Z" fill="var(--fill-0, #5D6C63)"/>
</g>
<g id="Group 162">
<path id="Vector_31" d="M42.3852 270.115V273.213H54.8555C54.9349 273.213 55.2618 273.53 55.2618 273.607V277.829H58.856C59.3154 277.829 59.9967 278.676 59.9423 279.142C59.8436 281.055 60.1005 283.135 59.9523 285.028C59.8986 285.718 59.4248 286.575 58.6059 286.575H55.2618V287.85H56.7307C56.8213 287.85 57.0751 288.222 57.0764 288.365C57.0795 288.771 56.7845 288.913 56.42 288.946C55.5531 289.025 53.9166 289.013 53.0396 288.946C52.5815 288.911 52.1977 288.721 52.3389 288.2C52.3645 288.106 52.5777 287.85 52.6671 287.85H54.136V286.575H50.6043C50.5606 286.575 50.1168 286.421 50.0511 286.383C49.6248 286.144 49.3673 285.604 49.3467 285.137C49.2573 283.088 49.4911 280.901 49.3892 278.834C49.4317 278.474 50.068 277.829 50.4168 277.829H54.136V274.306H42.3846V277.829C46.3251 278.243 47.8027 283.036 44.7299 285.543C42.6152 287.269 39.3405 286.728 37.9359 284.429C36.2732 281.706 38.0434 278.175 41.2594 277.829V274.306H29.5086V277.829H32.1652C32.2008 277.829 32.6959 278.05 32.7678 278.093C33.1972 278.351 33.5498 278.845 33.6179 279.332C33.8592 281.071 33.471 283.242 33.6341 285.027C33.4635 285.946 32.7415 286.511 31.7927 286.578C29.8368 286.715 27.7066 286.474 25.7319 286.57C24.8906 286.413 24.2911 285.844 24.1324 285.027C24.3011 283.244 23.9048 281.057 24.138 279.322C24.213 278.764 25.0062 277.829 25.6019 277.829H28.2897L28.3685 277.741C28.2972 276.861 28.3022 275.951 28.3185 275.063C28.3216 274.874 28.3848 274.707 28.3891 274.519C28.3973 274.19 28.2129 273.901 28.4198 273.522C28.4591 273.449 28.7317 273.213 28.7898 273.213H41.2601V270.115L30.6625 270.118C27.3609 269.944 24.558 267.566 24.0792 264.367C23.4767 260.343 26.3776 256.877 30.5094 256.571C30.5038 253.532 32.5565 250.606 35.4775 249.524C38.8804 248.264 42.6171 249.338 44.798 252.127C47.739 251.293 50.8362 252.729 52.1702 255.354C52.3846 255.777 52.5046 256.233 52.6983 256.663C56.2794 256.605 59.3854 259.529 59.5786 262.976C59.7948 266.836 56.7145 269.95 52.7927 270.115H42.3858H42.3852ZM37.8722 250.089C34.758 250.331 31.9352 252.859 31.697 255.933C31.6633 256.366 31.8339 257.228 31.5114 257.514C31.2195 257.772 30.8351 257.626 30.4781 257.664C23.3717 258.421 23.4717 268.197 30.4125 268.963C37.3527 268.986 44.2929 268.924 51.2332 268.957C52.6396 268.964 53.5778 269.122 54.9474 268.563C60.6499 266.239 59.0141 257.96 52.7927 257.675C52.5033 257.661 52.2445 257.832 51.9164 257.603C51.6757 257.435 51.4732 256.422 51.315 256.061C50.4418 254.074 48.3484 252.777 46.1057 252.926C45.6187 252.958 44.6836 253.311 44.3198 253.201C44.0629 253.124 43.8498 252.691 43.6679 252.499C42.1483 250.896 40.1843 249.909 37.8728 250.088L37.8722 250.089ZM25.8663 278.874C25.5163 278.998 25.3019 279.187 25.2581 279.559C25.065 281.217 25.4031 283.211 25.2569 284.905C25.3056 285.246 25.5657 285.452 25.912 285.483C27.8147 285.654 29.985 285.349 31.9171 285.482C32.1565 285.471 32.3502 285.29 32.4515 285.09L32.4815 279.343C32.3309 279.053 32.0583 278.895 31.7283 278.86L25.867 278.874L25.8663 278.874ZM41.1826 278.876C40.2243 279.003 39.1892 279.833 38.7679 280.66C37.3971 283.348 40.0037 286.236 42.9459 285.327C46.7357 284.156 45.6787 278.285 41.1832 278.877L41.1826 278.876ZM58.8247 283.72V279.134C58.8247 279.021 58.5559 278.831 58.4197 278.86C56.0062 279.025 53.2922 278.644 50.915 278.858C50.7587 278.872 50.4493 278.947 50.4493 279.134V283.72H58.8253H58.8247ZM58.8247 284.813H50.5425C50.3081 285.065 50.4943 285.488 50.8537 285.483C53.2772 285.308 56.0394 285.711 58.4222 285.485C58.8691 285.443 58.8435 285.195 58.8247 284.813Z" fill="var(--fill-0, #5D6C63)"/>
<path id="Vector_32" d="M41.7764 265.969C41.5401 265.718 41.2876 264.257 41.0126 263.886L37.424 263.867C37.2165 263.935 36.8433 265.748 36.5426 265.986C36.3164 266.166 35.1725 266.208 35.08 265.881L38.3991 257.097C38.6154 257.011 39.8962 257.019 40.0712 257.148L43.3203 265.719C43.4247 266.275 41.9552 266.16 41.7751 265.969H41.7764ZM40.5725 262.583L39.2592 258.818L37.8222 262.583H40.5725Z" fill="var(--fill-0, #5D6C63)"/>
<path id="Vector_33" d="M45.3074 257.071C45.7187 256.998 46.4932 256.962 46.5126 257.511V265.652C46.5307 266.278 44.9436 266.306 44.9474 265.712V257.45C44.9568 257.206 45.0718 257.113 45.3074 257.071Z" fill="var(--fill-0, #5D6C63)"/>
<path id="Vector_34" d="M29.9281 280.453C31.0839 280.197 31.117 281.74 30.1681 281.718C29.3743 281.7 29.3205 280.588 29.9281 280.453Z" fill="var(--fill-0, #5D6C63)"/>
<path id="Vector_35" d="M27.6022 280.411C28.5279 280.411 28.4354 281.721 27.6022 281.721C26.7496 281.721 26.7171 280.411 27.6022 280.411Z" fill="var(--fill-0, #5D6C63)"/>
</g>
<g id="Group 163">
<path id="Vector_36" d="M388.728 420.796H390.918C390.939 420.796 391.21 421.016 391.239 421.078C391.369 421.35 391.247 421.994 390.918 421.994H388.728V424.988H390.985C391.007 424.988 391.256 425.24 391.274 425.301C391.375 425.63 391.154 426.186 390.783 426.186H388.728V429.047H390.918C391.404 429.047 391.404 430.245 390.918 430.245H388.728V431.475C388.728 432.12 388.2 432.945 387.629 433.251C387.547 433.295 387.048 433.505 387.01 433.505H377.544V436.299H388.223C388.47 436.299 389.19 436.634 389.422 436.778C390.302 437.325 390.96 438.374 390.888 439.423C391.057 439.429 391.217 439.485 391.387 439.496C392.885 439.592 394.754 438.842 394.929 441.054C395.031 442.343 395.015 444.418 394.929 445.717C394.851 446.913 394.214 447.817 392.938 447.942C391.111 448.121 389.002 447.81 387.145 447.942C386.105 447.798 385.265 447.118 385.157 446.046C384.993 444.409 385.279 442.521 385.156 440.856C385.256 440.28 385.53 439.748 386.118 439.544C386.187 439.52 386.566 439.426 386.605 439.426H389.671C389.701 438.771 389.293 438.049 388.707 437.749C388.588 437.688 388.054 437.496 387.953 437.496H377.543V439.293C380.762 439.827 382.393 443.508 380.429 446.168C378.723 448.477 375.216 448.488 373.473 446.207C371.758 443.965 372.706 440.58 375.369 439.575C375.715 439.445 376.091 439.415 376.398 439.26V437.496H365.921C365.857 437.496 365.311 437.68 365.21 437.726C364.574 438.018 364.08 438.795 364.204 439.493C364.907 439.408 365.915 439.328 366.598 439.556C367.345 439.805 367.975 440.613 368.046 441.386C368.15 442.501 368.165 445.015 368.044 446.114C367.942 447.029 367.105 447.83 366.183 447.936C364.557 448.123 362.603 447.817 360.943 447.936C359.934 447.782 359.197 447.047 359.091 446.038C358.974 444.924 358.969 442.437 359.084 441.323C359.284 439.374 361.385 439.316 362.923 439.425C362.962 438.312 363.551 437.218 364.562 436.686C364.767 436.578 365.522 436.299 365.72 436.299H376.399V433.504H366.864C366.271 433.504 365.214 432.46 365.214 431.874V430.244H362.957C362.797 430.244 362.581 429.858 362.579 429.679C362.577 429.5 362.822 429.046 362.957 429.046H365.214V426.185H363.091C362.719 426.185 362.506 425.653 362.616 425.316C362.64 425.244 362.851 424.987 362.889 424.987H365.113L365.214 424.888V421.993H362.957C362.769 421.993 362.577 421.546 362.579 421.36C362.58 421.175 362.798 420.796 362.957 420.796H365.214V419.232C365.214 418.597 366.249 417.594 366.931 417.601L386.877 417.599C387.819 417.638 388.727 418.661 388.727 419.565V420.796L388.728 420.796ZM387.223 432.085C387.387 431.921 387.51 431.577 387.518 431.345V419.695C387.499 419.227 387.083 418.817 386.609 418.797L366.984 418.852C366.672 419.016 366.426 419.251 366.423 419.629V431.479C366.437 431.931 366.806 432.296 367.265 432.311L386.912 432.277C387.004 432.213 387.147 432.16 387.223 432.085ZM377.05 440.45C372.639 440.332 372.821 447.112 377.24 446.744C381.144 446.42 380.924 440.554 377.05 440.45ZM366.605 446.456C366.732 446.317 366.809 446.101 366.831 445.914C366.944 444.928 366.932 442.519 366.834 441.519C366.792 441.084 366.519 440.744 366.057 440.69C364.525 440.507 362.637 440.833 361.065 440.687C360.596 440.749 360.336 441.06 360.292 441.521C360.191 442.583 360.188 444.858 360.292 445.918C360.337 446.376 360.619 446.657 361.068 446.748C362.637 446.643 364.376 446.882 365.923 446.749C366.172 446.728 366.433 446.644 366.604 446.457L366.605 446.456ZM393.714 445.149V440.99C393.714 440.91 393.48 440.641 393.347 440.688L386.505 440.724C386.474 440.742 386.37 440.905 386.37 440.924V445.149H393.714ZM393.579 446.347H386.505C386.64 446.601 386.935 446.715 387.212 446.746C388.971 446.941 391.079 446.597 392.875 446.749C393.157 446.744 393.44 446.587 393.579 446.347Z" fill="var(--fill-0, #5D6C63)"/>
<path id="Vector_37" d="M383.877 407.156H380.104V416.238C380.104 416.292 379.905 416.582 379.818 416.622C379.366 416.83 378.881 416.591 378.83 416.099L378.821 406.721C378.88 406.336 378.869 406.01 379.328 405.957C380.939 405.769 382.874 406.127 384.519 405.925C384.872 405.957 385.051 406.186 385.091 406.522L385.09 416.105C384.984 417.034 383.877 416.651 383.877 416.304V407.156Z" fill="var(--fill-0, #5D6C63)"/>
<path id="Vector_38" d="M376.331 402.166C375.823 402.459 374.905 403.776 374.432 403.919C373.932 404.07 373.481 403.589 373.666 403.093L376.732 400L377.245 400.033C378.051 400.988 379.268 401.844 380.039 402.796C380.336 403.162 380.458 403.456 380.039 403.797C379.733 404.047 379.454 403.972 379.159 403.732C378.663 403.331 378.19 402.568 377.645 402.166C377.438 402.149 377.612 402.238 377.612 402.266V416.172C377.612 416.566 377.026 416.784 376.67 416.636C376.603 416.608 376.331 416.29 376.331 416.238V402.166H376.331Z" fill="var(--fill-0, #5D6C63)"/>
<path id="Vector_39" d="M373.838 410.816H370.065V416.238C370.065 416.29 369.793 416.608 369.727 416.636C369.322 416.805 368.845 416.624 368.789 416.168C368.914 414.264 368.607 412.122 368.781 410.247C368.814 409.895 368.985 409.66 369.355 409.617C370.983 409.731 372.809 409.47 374.413 409.615C374.725 409.644 374.991 409.702 375.046 410.054L375.051 416.173C374.958 416.97 373.837 416.68 373.837 416.305V410.816H373.838Z" fill="var(--fill-0, #5D6C63)"/>
<path id="Vector_40" d="M376.459 427.789L372.939 427.793C372.688 427.878 372.364 429.628 372.017 429.877C371.825 430.016 370.805 430.038 370.633 429.917C370.388 429.744 370.534 429.434 370.602 429.211C371.383 426.608 372.711 423.994 373.517 421.378C373.512 420.674 375.282 420.772 375.558 420.994C375.745 421.144 376.189 422.452 376.314 422.776C377.188 425.041 377.982 427.339 378.829 429.614C378.979 430.17 377.471 430.016 377.275 429.877C376.997 429.677 376.613 428.184 376.459 427.789V427.789ZM373.366 426.319H375.927L374.613 422.858L373.366 426.319Z" fill="var(--fill-0, #5D6C63)"/>
<path id="Vector_41" d="M382.042 421.011L382.129 421.359L382.124 429.677C382.067 430.085 381.053 430.033 380.746 429.976C380.439 429.92 380.393 429.533 380.371 429.282C380.158 426.777 380.53 423.972 380.381 421.436C380.47 420.706 380.83 420.91 381.351 420.929C381.572 420.937 381.787 420.812 382.042 421.011Z" fill="var(--fill-0, #5D6C63)"/>
</g>
<g id="Vector_42">
<path d="M340.006 195.664C340.021 177.76 352.492 162.849 369.992 159.608C389.547 155.993 408.635 168.879 412.263 188.403C414.894 202.535 410.441 214.346 399.574 223.742C399.122 224.131 398.204 224.458 397.768 224.24C397.316 224.022 397.067 223.15 396.974 222.511C396.6 220.158 397.378 218.366 399.122 216.543C405.646 209.718 408.246 201.413 407.343 192.064C406.082 179.147 396.024 167.959 383.413 165.264C366.365 161.618 350.11 171.761 346.296 188.745C343.805 199.793 346.887 209.484 354.812 217.587C355.715 218.506 356.213 219.379 356.073 220.641C355.995 221.295 356.167 221.981 356.027 222.62C355.902 223.212 355.684 224.038 355.264 224.256C354.843 224.458 353.971 224.194 353.536 223.835C348.117 219.457 344.241 213.956 341.968 207.365C340.629 203.517 339.928 199.559 340.006 195.664Z" fill="var(--fill-0, #5D6C63)"/>
<path d="M385.251 209.485C385.251 203.065 385.251 196.661 385.251 190.241C385.251 189.13 385.822 188.574 386.963 188.574C388.007 188.574 389.065 188.589 390.108 188.574C390.809 188.558 391.105 188.87 391.089 189.556C391.089 189.789 391.089 190.023 391.089 190.257C391.089 202.66 391.074 215.063 391.12 227.45C391.12 228.759 390.762 229.491 389.439 229.772C388.645 229.928 387.898 230.27 387.119 230.504C385.718 230.909 385.266 230.582 385.266 229.086C385.266 223.337 385.266 217.587 385.266 211.822C385.266 211.043 385.266 210.264 385.266 209.485H385.251Z" fill="var(--fill-0, #5D6C63)"/>
<path d="M367.719 209.531C367.719 215.951 367.719 222.371 367.719 228.79C367.719 230.691 367.376 230.972 365.57 230.395C361.009 228.93 361.912 229.694 361.896 225.487C361.849 213.738 361.88 201.99 361.88 190.226C361.88 189.124 362.415 188.574 363.484 188.574C364.496 188.574 365.508 188.636 366.52 188.574C367.579 188.496 367.734 189.057 367.734 189.93C367.719 195.305 367.734 200.665 367.734 206.041C367.734 207.21 367.734 208.378 367.734 209.547L367.719 209.531Z" fill="var(--fill-0, #5D6C63)"/>
<path d="M379.411 217.899C379.411 222.106 379.411 226.297 379.411 230.504C379.411 231.922 379.334 232 377.87 232C377.014 232 376.157 232 375.301 232C374.149 232 373.573 231.403 373.573 230.208C373.573 224.801 373.573 219.394 373.573 213.988C373.573 211.183 373.573 208.378 373.573 205.589C373.573 203.891 373.604 203.86 375.363 203.86C376.189 203.86 376.998 203.86 377.823 203.86C379.365 203.86 379.427 203.906 379.427 205.402C379.427 209.562 379.427 213.723 379.427 217.899H379.411Z" fill="var(--fill-0, #5D6C63)"/>
<path d="M371.783 193.295C371.783 190.615 373.823 188.589 376.501 188.589C379.179 188.589 381.203 190.631 381.203 193.295C381.203 195.975 379.148 198.016 376.485 198.016C373.807 198.016 371.783 195.975 371.783 193.295Z" fill="var(--fill-0, #5D6C63)"/>
</g>
</g>
</svg>
