<svg width="1219" height="31" viewBox="0 0 1219 31" fill="none" xmlns="http://www.w3.org/2000/svg">
<path d="M0.0312545 1.92174C0.00512531 2.01097 -0.0079393 3.22196 0.00512531 4.62416L0.0443192 7.17361L1.76885 7.25009L2.06933 8.23163C2.23917 8.76702 2.42208 9.26416 2.4874 9.3279C2.53966 9.40438 2.59192 9.58284 2.59192 9.74856C2.59192 9.91427 2.64418 10.1437 2.7095 10.2712C2.78789 10.3859 3.04918 11.1762 3.31047 12.0176C3.57177 12.8589 3.98983 14.1464 4.225 14.8857C4.68226 16.2752 5.77969 19.6787 6.34146 21.4505C6.5113 22.0114 6.70727 22.5723 6.78566 22.687C6.85099 22.8145 6.90324 23.0312 6.90324 23.1714C6.90324 23.3116 6.9555 23.5283 7.02083 23.6558C7.08615 23.7705 7.36051 24.5609 7.6218 25.4022C7.89615 26.2435 8.23584 27.327 8.39261 27.8242L8.6931 28.7165L13.1481 28.7547L17.6162 28.7802L17.7469 28.4998C17.8122 28.3341 18.0735 27.5182 18.3348 26.6769C18.5961 25.8356 18.8835 24.9178 18.988 24.6374C19.0795 24.3569 19.38 23.4391 19.6412 22.5978C19.9025 21.7565 20.19 20.8387 20.2945 20.5582C20.3859 20.2778 20.6864 19.36 20.9477 18.5187C21.4442 16.938 21.5879 16.4536 22.6853 13.0373C23.2601 11.2272 24.1224 8.52482 24.3968 7.61976C24.4882 7.32658 24.5666 7.30108 25.4289 7.26284L26.3695 7.2246V1.75602H15.5259V7.23735H16.7148C17.773 7.23735 17.8906 7.26284 17.8253 7.45405C17.577 8.29537 17.3419 9.14943 17.3027 9.35339C17.2766 9.49361 16.9107 10.7683 16.5057 12.2088C15.8133 14.618 15.1078 17.1292 14.0496 20.9024C13.8144 21.731 13.5923 22.4066 13.5401 22.4066C13.5009 22.4066 13.3572 22.0242 13.2396 21.5398C12.8085 19.8316 12.6647 19.2708 12.4165 18.3275C11.9462 16.5938 9.67294 7.81097 9.62068 7.55603C9.58149 7.32658 9.67294 7.30108 10.7573 7.23735L11.9331 7.17361L11.9723 4.45844L11.9984 1.75602H6.05404C1.33772 1.75602 0.083513 1.79427 0.0312545 1.92174Z" fill="#F4F4F4"/>
<path d="M142.906 7.23735H145.258V23.2989H142.906V28.7802H150.261C158.087 28.7675 159.367 28.691 161.066 28.1429C162.477 27.684 163.535 26.9574 164.319 25.9248C165.403 24.5099 165.691 23.6048 165.678 21.7055C165.678 20.1503 165.521 19.513 164.841 18.1362C164.11 16.6703 163.457 16.1477 161 15.0897L160.608 14.9239L161.392 14.516C163.274 13.56 164.24 12.4765 164.737 10.7683C165.273 8.91998 164.841 6.42152 163.679 4.77712C162.686 3.36218 161.601 2.71207 159.237 2.12569C158.178 1.858 157.786 1.84526 150.523 1.79427L142.906 1.73053V7.23735ZM155.866 7.23735C156.977 7.54328 157.695 8.57581 157.708 9.85053C157.721 10.8321 157.316 11.5842 156.519 12.145C155.971 12.5147 155.879 12.5275 154.246 12.5912C153.318 12.6294 152.535 12.6294 152.535 12.5912C152.521 12.553 152.521 11.3037 152.548 9.81229L152.587 7.10987H153.985C154.756 7.10987 155.605 7.17361 155.866 7.23735ZM156.95 18.2255C158.009 18.7609 158.531 19.9209 158.322 21.2083C158.178 22.0242 157.773 22.5978 157.094 22.942C156.689 23.1459 156.232 23.2097 154.638 23.2607C153.331 23.3116 152.652 23.2989 152.6 23.2097C152.548 23.1332 152.521 21.8839 152.548 20.4308L152.587 17.7921L154.442 17.8431C156.14 17.8813 156.349 17.9195 156.95 18.2255Z" fill="#F4F4F4"/>
<path d="M75.4272 3.03075C74.8523 3.17097 73.5851 3.46416 72.6183 3.68086C71.6515 3.89756 70.7108 4.11427 70.5279 4.16526L70.2013 4.26723L70.0707 8.95823L67.7844 9.03471V14.5033H69.6134V20.0228C69.6134 25.9886 69.6265 26.1543 70.345 27.2633C70.6194 27.6967 71.4294 28.2703 72.2786 28.6272C72.9449 28.9204 74.4343 29.1626 75.4664 29.1626C76.394 29.1626 79.2551 28.8567 79.647 28.7165C79.7646 28.6782 79.8038 28.0536 79.8038 26.1925V23.7323L79.0069 23.7578C78.0532 23.796 77.5175 23.5538 77.1256 22.9037C76.8773 22.4958 76.8643 22.2409 76.8643 18.5187V14.567L79.9998 14.4395L80.039 11.7371L80.0651 9.03471L76.8643 8.95823L76.8251 5.86064C76.799 3.51515 76.7598 2.7758 76.6291 2.78855C76.5507 2.78855 76.002 2.90328 75.4272 3.03075Z" fill="#F4F4F4"/>
<path d="M216.068 3.0435C215.454 3.18372 214.16 3.4769 213.194 3.68086C210.555 4.26723 210.855 3.89756 210.816 6.62548L210.777 8.95823L208.49 9.03471V14.5033H210.163L210.215 20.1376C210.28 26.4347 210.293 26.4602 211.195 27.5055C212.018 28.4488 214.147 29.1626 216.107 29.1626C217.008 29.1626 219.778 28.8567 220.275 28.7037C220.484 28.64 220.51 28.4233 220.51 26.1798V23.7323L219.543 23.745C218.681 23.745 218.524 23.7068 218.223 23.4264C217.531 22.8145 217.505 22.6105 217.505 18.3912V14.5033H220.51V9.03471L217.57 8.95823L217.505 5.91163C217.466 4.03778 217.374 2.83954 217.309 2.82679C217.244 2.81405 216.682 2.90328 216.068 3.0435Z" fill="#F4F4F4"/>
<path d="M58.1819 8.55031C56.4835 8.89449 54.6936 9.99075 53.9228 11.1508C53.6746 11.5204 53.4394 11.8136 53.3872 11.8264C53.348 11.8264 53.2565 11.189 53.2173 10.4242L53.1128 9.02196H45.0519V14.4905L46.6327 14.567L46.6197 18.7991C46.6197 21.1319 46.6197 23.0949 46.6197 23.1714C46.6197 23.2479 46.2669 23.2989 45.8358 23.2989H45.0519V28.7802H55.373L55.3469 26.065L55.3077 23.3626L54.0012 23.2352V20.1758C54.0012 16.5046 54.0535 16.1094 54.6675 15.4211C55.4775 14.4905 56.6533 14.4013 57.4894 15.1916C57.8553 15.5486 57.9598 15.7525 58.0251 16.3134C58.0774 16.6831 58.1165 19.6404 58.1165 22.891V28.7802L62.5977 28.7547L67.0658 28.7165V23.3626L65.4981 23.2352L65.4197 17.945C65.3674 14.2228 65.3021 12.4892 65.1845 12.0813C64.675 10.3349 63.5514 9.21317 61.7877 8.69053C60.9254 8.43559 59.1095 8.3591 58.1819 8.55031Z" fill="#F4F4F4"/>
<path d="M195.36 8.53757C194.028 8.67779 192.565 9.07295 191.585 9.55735C190.566 10.0545 189.351 11.2017 188.893 12.0813C188.475 12.8971 188.07 14.4141 188.136 14.9494L188.175 15.3319L191.519 15.3701L194.864 15.3956L194.942 14.9622C195.243 13.1521 196.85 12.4127 198.208 13.4708C198.509 13.713 198.666 14.3758 198.705 15.5103L198.731 16.4664L197.96 16.4281C196.745 16.3771 193.897 16.6703 192.813 16.938C190.592 17.4989 188.867 18.7099 188.149 20.2268C187.509 21.6035 187.43 21.9222 187.43 23.1714C187.43 25.1982 187.966 26.7152 189.05 27.7349C190.017 28.6527 191.219 29.0989 193.022 29.2391C194.995 29.3793 196.811 28.7292 198.182 27.3908L198.927 26.6642L199.11 28.7802H207.576V23.2989H205.877V18.8628C205.877 15.0132 205.838 14.3121 205.629 13.458C204.95 10.6664 202.363 8.99647 197.973 8.51207C197.333 8.44834 196.706 8.39735 196.602 8.39735C196.497 8.41009 195.935 8.47383 195.36 8.53757ZM198.692 21.3868C198.692 22.636 198.653 22.8655 198.365 23.4136C197.634 24.8413 195.752 25.0453 195.086 23.7705C194.733 23.1332 194.707 22.1516 195.008 21.4888C195.465 20.469 196.353 20.0356 198.012 19.9974L198.692 19.9846V21.3868Z" fill="#F4F4F4"/>
<path d="M32.4446 8.58855C29.2307 8.91998 26.3173 10.7683 25.1676 13.2158C24.5405 14.5543 24.4229 14.9112 24.1616 16.1349C23.7174 18.2127 23.8481 21.3103 24.4621 23.1842C24.6973 23.9363 25.4681 25.3767 26.0168 26.1033C28.1855 28.9714 34.0123 30.1187 38.3759 28.538C40.2964 27.8369 42.1646 26.0395 42.8048 24.2804C43.0138 23.6941 43.3405 22.4321 43.3535 22.1771C43.3535 22.0624 42.5827 22.0242 39.9175 22.0242H36.4815L36.2464 22.738C35.8806 23.8598 35.0444 24.4461 33.7772 24.4461C33.1501 24.4461 32.6536 24.2039 32.1441 23.6303C31.6476 23.0822 31.4778 22.5213 31.3733 21.2211L31.2949 20.2395H43.7455V18.9903C43.7455 16.6831 43.1837 14.3248 42.2561 12.7187C42.034 12.3362 41.4461 11.6097 40.9366 11.1125C39.3557 9.5446 37.0825 8.67778 34.3389 8.58855C33.5812 8.56306 32.732 8.56306 32.4446 8.58855ZM34.953 13.6365C35.3972 13.8404 36.0112 14.4268 36.1549 14.7965C36.2202 14.9494 36.3117 15.3701 36.364 15.7398L36.4554 16.4026L34.0907 16.4409C32.7842 16.4664 31.6738 16.4664 31.6215 16.4409C31.4647 16.3899 31.6476 15.1151 31.8828 14.6945C32.1049 14.2866 32.536 13.8659 32.9672 13.6365C33.3199 13.4453 34.5088 13.4453 34.953 13.6365Z" fill="#F4F4F4"/>
<path d="M129.449 8.63954C128.313 8.75427 126.836 9.21317 125.765 9.7868C124.851 10.2712 123.191 11.8646 122.682 12.7569C120.748 16.1094 120.657 21.4505 122.473 24.8413C123.139 26.0778 124.615 27.5055 125.883 28.1301C128.3 29.3156 131.997 29.5833 134.845 28.7802C137.301 28.0919 139.169 26.5239 140.006 24.4461C140.241 23.8343 140.685 22.3301 140.685 22.1006C140.685 22.0497 139.117 22.0369 137.197 22.0497L133.708 22.0879L133.617 22.5086C133.382 23.6431 132.35 24.4461 131.109 24.4461C129.698 24.4461 128.901 23.4774 128.705 21.527C128.639 20.8897 128.613 20.3288 128.652 20.3033C128.679 20.265 131.461 20.2395 134.832 20.2395H140.946V18.6461C140.946 14.4013 139.209 11.1253 136.217 9.69757C135.616 9.41713 134.871 9.12394 134.545 9.02196C134.218 8.93273 133.787 8.818 133.565 8.74152C133.003 8.57581 130.599 8.51207 129.449 8.63954ZM132.506 13.7767C133.147 14.1209 133.604 14.9494 133.656 15.8162L133.682 16.4281H131.278C129.802 16.4281 128.848 16.3771 128.822 16.3006C128.705 15.9565 129.084 14.669 129.436 14.2483C130.09 13.458 131.54 13.2286 132.506 13.7767Z" fill="#F4F4F4"/>
<path d="M175.241 8.63954C173.425 8.85625 172.079 9.37888 170.511 10.5134C169.989 10.8831 169.558 11.24 169.558 11.291C169.558 11.3547 169.453 11.5077 169.336 11.6479C167.48 13.6365 166.566 17.5626 167.115 21.1319C167.676 24.7266 169.1 26.8299 171.883 28.1938C174.47 29.4558 178.494 29.596 181.433 28.538C183.863 27.6585 185.588 25.7336 186.202 23.2352C186.32 22.738 186.45 22.2664 186.476 22.1771C186.516 22.0624 185.771 22.0242 183.04 22.0242H179.539L179.356 22.6233C179.265 22.9675 179.056 23.3881 178.912 23.5921C178.35 24.3314 176.822 24.6883 175.986 24.2677C175.594 24.0637 175.019 23.5028 174.81 23.0949C174.627 22.7508 174.339 20.6985 174.431 20.4435C174.509 20.265 175.175 20.2395 180.663 20.2395H186.803V18.7864C186.803 16.5556 186.346 14.6053 185.405 12.8206C184.896 11.8391 183.158 10.1947 182.1 9.69757C179.97 8.67779 177.762 8.34636 175.241 8.63954ZM178.167 13.6747C178.951 14.0699 179.487 15.0132 179.487 15.9947V16.4154H177.201C175.946 16.4154 174.875 16.4281 174.823 16.4409C174.653 16.5046 174.627 15.7015 174.784 15.1534C174.966 14.4905 175.594 13.7767 176.142 13.6237C176.782 13.4453 177.762 13.4708 178.167 13.6747Z" fill="#F4F4F4"/>
<path d="M115.941 8.95823C114.569 9.3279 113.419 10.4114 112.975 11.7626C112.805 12.2598 112.805 12.247 112.661 10.6791L112.531 9.0857L108.585 9.04746L104.627 9.02196V14.5033H106.325L106.299 18.8628L106.26 23.2352L104.627 23.3116V28.7802L110.218 28.7547L115.797 28.7165L115.836 26.0141L115.862 23.3116L113.445 23.2352L113.484 20.8769C113.511 19.5767 113.589 18.2 113.667 17.8176C113.85 16.8488 114.451 16.1604 115.575 15.625C116.411 15.2171 116.502 15.2044 118.044 15.2044H119.651V9.02196L119.311 8.89449C118.841 8.71603 116.698 8.75427 115.941 8.95823Z" fill="#F4F4F4"/>
<path d="M81.2017 9.11119C81.0842 9.21317 81.0842 14.0189 81.1887 14.2993C81.254 14.4523 81.45 14.5033 82.0248 14.5033H82.7826L82.8479 19.5639C82.9001 24.2167 82.9393 24.7138 83.1745 25.5042C83.6579 27.0466 84.494 28.0026 86.0356 28.7547C87.6818 29.5578 90.5952 29.4048 92.581 28.4105C92.8946 28.2576 93.4825 27.8114 93.8875 27.429C94.2925 27.0466 94.6322 26.7406 94.6583 26.7406C94.6844 26.7406 94.6975 27.1996 94.6975 27.7604V28.7802H103.059V23.2989H101.36V9.02196L96.9577 9.04745L92.5418 9.0857L92.5026 11.5077C92.4896 12.8334 92.5026 14.0571 92.5418 14.2101C92.5941 14.4523 92.7117 14.4905 93.2996 14.5288L93.9789 14.567V18.0725C93.9789 21.3741 93.9659 21.6035 93.7046 22.0879C93.1689 23.0822 92.0976 23.4519 91.2092 22.9165C90.2947 22.3683 90.3339 22.6743 90.2555 15.5231L90.1902 9.0857L85.7352 9.04745C83.2921 9.03471 81.254 9.0602 81.2017 9.11119Z" fill="#F4F4F4"/>
<path d="M407.591 23.22C406.491 23.22 405.479 23.022 404.555 22.626C403.646 22.2153 402.854 21.6433 402.179 20.91C401.505 20.162 400.977 19.2893 400.595 18.292C400.229 17.2947 400.045 16.202 400.045 15.014C400.045 13.4447 400.368 12.0513 401.013 10.834C401.659 9.61667 402.546 8.66333 403.675 7.974C404.819 7.28467 406.117 6.94 407.569 6.94C409.051 6.94 410.356 7.28467 411.485 7.974C412.629 8.66333 413.524 9.61667 414.169 10.834C414.815 12.0513 415.137 13.452 415.137 15.036C415.137 16.224 414.947 17.3167 414.565 18.314C414.199 19.3113 413.678 20.1767 413.003 20.91C412.329 21.6433 411.529 22.2153 410.605 22.626C409.681 23.022 408.677 23.22 407.591 23.22ZM407.569 21.592C408.699 21.592 409.689 21.3133 410.539 20.756C411.405 20.184 412.079 19.3993 412.563 18.402C413.047 17.4047 413.289 16.268 413.289 14.992C413.289 13.7307 413.047 12.616 412.563 11.648C412.094 10.68 411.427 9.92467 410.561 9.382C409.711 8.83933 408.713 8.568 407.569 8.568C406.425 8.568 405.428 8.83933 404.577 9.382C403.727 9.92467 403.067 10.68 402.597 11.648C402.128 12.6013 401.893 13.716 401.893 14.992C401.893 16.2827 402.128 17.4267 402.597 18.424C403.081 19.4067 403.749 20.184 404.599 20.756C405.45 21.3133 406.44 21.592 407.569 21.592ZM423.544 23.198C422.488 23.198 421.601 22.9413 420.882 22.428C420.164 21.9147 419.672 21.1887 419.408 20.25L419.76 20.206V27.51H418V11.78H419.65V14.398L419.408 14.332C419.687 13.4667 420.215 12.792 420.992 12.308C421.77 11.8093 422.672 11.56 423.698 11.56C424.696 11.56 425.561 11.802 426.294 12.286C427.042 12.77 427.622 13.4447 428.032 14.31C428.443 15.1753 428.648 16.1873 428.648 17.346C428.648 18.5193 428.436 19.546 428.01 20.426C427.585 21.306 426.991 21.988 426.228 22.472C425.466 22.956 424.571 23.198 423.544 23.198ZM423.28 21.658C424.395 21.658 425.268 21.2767 425.898 20.514C426.529 19.7367 426.844 18.6807 426.844 17.346C426.844 16.026 426.529 14.992 425.898 14.244C425.268 13.4813 424.395 13.1 423.28 13.1C422.166 13.1 421.286 13.4887 420.64 14.266C419.995 15.0287 419.672 16.0773 419.672 17.412C419.672 18.7173 419.995 19.7513 420.64 20.514C421.286 21.2767 422.166 21.658 423.28 21.658ZM435.94 23.22C434.869 23.22 433.923 22.9707 433.102 22.472C432.281 21.9587 431.635 21.262 431.166 20.382C430.697 19.502 430.462 18.49 430.462 17.346C430.462 16.202 430.689 15.1973 431.144 14.332C431.613 13.452 432.266 12.77 433.102 12.286C433.938 11.802 434.899 11.56 435.984 11.56C437.025 11.56 437.927 11.7873 438.69 12.242C439.467 12.6967 440.061 13.3347 440.472 14.156C440.897 14.9773 441.11 15.9453 441.11 17.06C441.11 17.2067 441.103 17.346 441.088 17.478C441.088 17.61 441.073 17.7567 441.044 17.918H431.782V16.444H439.966L439.394 17.258C439.394 15.9087 439.093 14.8747 438.492 14.156C437.905 13.4227 437.069 13.056 435.984 13.056C434.869 13.056 433.967 13.4447 433.278 14.222C432.603 14.9847 432.266 16.0187 432.266 17.324C432.266 18.6587 432.603 19.7293 433.278 20.536C433.967 21.328 434.884 21.724 436.028 21.724C436.747 21.724 437.377 21.57 437.92 21.262C438.463 20.9393 438.859 20.4847 439.108 19.898H440.78C440.413 20.9247 439.797 21.7387 438.932 22.34C438.081 22.9267 437.084 23.22 435.94 23.22ZM443.76 23V11.78H445.41V14.42H445.52V23H443.76ZM451.79 23V15.652C451.79 14.8013 451.577 14.1633 451.152 13.738C450.727 13.3127 450.096 13.1 449.26 13.1C448.527 13.1 447.874 13.2613 447.302 13.584C446.745 13.9067 446.305 14.354 445.982 14.926C445.674 15.498 445.52 16.1653 445.52 16.928L445.234 14.266C445.615 13.43 446.195 12.77 446.972 12.286C447.764 11.802 448.659 11.56 449.656 11.56C450.829 11.56 451.768 11.8973 452.472 12.572C453.191 13.232 453.55 14.1047 453.55 15.19V23H451.79ZM457.062 23V7.16H458.866V23H457.062ZM462.516 23V11.78H464.166V14.42H464.276V23H462.516ZM470.546 23V15.652C470.546 14.8013 470.333 14.1633 469.908 13.738C469.483 13.3127 468.852 13.1 468.016 13.1C467.283 13.1 466.63 13.2613 466.058 13.584C465.501 13.9067 465.061 14.354 464.738 14.926C464.43 15.498 464.276 16.1653 464.276 16.928L463.99 14.266C464.371 13.43 464.951 12.77 465.728 12.286C466.52 11.802 467.415 11.56 468.412 11.56C469.585 11.56 470.524 11.8973 471.228 12.572C471.947 13.232 472.306 14.1047 472.306 15.19V23H470.546ZM476.309 23V10.196C476.309 9.16933 476.602 8.37 477.189 7.798C477.79 7.226 478.7 6.94 479.917 6.94C480.21 6.94 480.438 6.95467 480.599 6.984C480.775 7.01333 480.922 7.05 481.039 7.094V8.48C480.936 8.45067 480.79 8.42133 480.599 8.392C480.423 8.36267 480.232 8.348 480.027 8.348C479.352 8.348 478.854 8.51667 478.531 8.854C478.223 9.19133 478.069 9.668 478.069 10.284V23H476.309ZM473.999 13.276V11.78H480.797V13.276H473.999ZM487.331 23.22C486.26 23.22 485.314 22.9707 484.493 22.472C483.671 21.9587 483.026 21.262 482.557 20.382C482.087 19.502 481.853 18.49 481.853 17.346C481.853 16.202 482.08 15.1973 482.535 14.332C483.004 13.452 483.657 12.77 484.493 12.286C485.329 11.802 486.289 11.56 487.375 11.56C488.416 11.56 489.318 11.7873 490.081 12.242C490.858 12.6967 491.452 13.3347 491.863 14.156C492.288 14.9773 492.501 15.9453 492.501 17.06C492.501 17.2067 492.493 17.346 492.479 17.478C492.479 17.61 492.464 17.7567 492.435 17.918H483.173V16.444H491.357L490.785 17.258C490.785 15.9087 490.484 14.8747 489.883 14.156C489.296 13.4227 488.46 13.056 487.375 13.056C486.26 13.056 485.358 13.4447 484.669 14.222C483.994 14.9847 483.657 16.0187 483.657 17.324C483.657 18.6587 483.994 19.7293 484.669 20.536C485.358 21.328 486.275 21.724 487.419 21.724C488.137 21.724 488.768 21.57 489.311 21.262C489.853 20.9393 490.249 20.4847 490.499 19.898H492.171C491.804 20.9247 491.188 21.7387 490.323 22.34C489.472 22.9267 488.475 23.22 487.331 23.22ZM495.151 23V11.78H496.801V14.64H496.911V23H495.151ZM496.911 17.148L496.625 14.486C496.889 13.5327 497.358 12.8067 498.033 12.308C498.707 11.8093 499.485 11.56 500.365 11.56C500.731 11.56 500.981 11.5893 501.113 11.648V13.342C501.039 13.3127 500.937 13.298 500.805 13.298C500.673 13.2833 500.511 13.276 500.321 13.276C499.206 13.276 498.355 13.6133 497.769 14.288C497.197 14.948 496.911 15.9013 496.911 17.148ZM507.937 23V7.16H509.741V23H507.937ZM508.861 16.202V14.618H517.397V16.202H508.861ZM508.861 8.744V7.16H518.013V8.744H508.861ZM524.885 23.22C523.815 23.22 522.869 22.9707 522.047 22.472C521.226 21.9587 520.581 21.262 520.111 20.382C519.642 19.502 519.407 18.49 519.407 17.346C519.407 16.202 519.635 15.1973 520.089 14.332C520.559 13.452 521.211 12.77 522.047 12.286C522.883 11.802 523.844 11.56 524.929 11.56C525.971 11.56 526.873 11.7873 527.635 12.242C528.413 12.6967 529.007 13.3347 529.417 14.156C529.843 14.9773 530.055 15.9453 530.055 17.06C530.055 17.2067 530.048 17.346 530.033 17.478C530.033 17.61 530.019 17.7567 529.989 17.918H520.727V16.444H528.911L528.339 17.258C528.339 15.9087 528.039 14.8747 527.437 14.156C526.851 13.4227 526.015 13.056 524.929 13.056C523.815 13.056 522.913 13.4447 522.223 14.222C521.549 14.9847 521.211 16.0187 521.211 17.324C521.211 18.6587 521.549 19.7293 522.223 20.536C522.913 21.328 523.829 21.724 524.973 21.724C525.692 21.724 526.323 21.57 526.865 21.262C527.408 20.9393 527.804 20.4847 528.053 19.898H529.725C529.359 20.9247 528.743 21.7387 527.877 22.34C527.027 22.9267 526.029 23.22 524.885 23.22ZM539.527 23C539.468 22.7507 539.424 22.4647 539.395 22.142C539.38 21.8193 539.373 21.4087 539.373 20.91H539.263V15.542C539.263 14.6913 539.065 14.068 538.669 13.672C538.288 13.2613 537.664 13.056 536.799 13.056C535.948 13.056 535.266 13.232 534.753 13.584C534.254 13.9213 533.976 14.4053 533.917 15.036H532.223C532.296 13.9507 532.751 13.1 533.587 12.484C534.423 11.868 535.516 11.56 536.865 11.56C538.258 11.56 539.292 11.89 539.967 12.55C540.642 13.21 540.979 14.2 540.979 15.52V20.91C540.979 21.2327 541.001 21.57 541.045 21.922C541.089 22.2593 541.148 22.6187 541.221 23H539.527ZM535.677 23.22C534.518 23.22 533.594 22.9413 532.905 22.384C532.23 21.812 531.893 21.0347 531.893 20.052C531.893 19.0693 532.23 18.3067 532.905 17.764C533.58 17.2213 534.562 16.84 535.853 16.62L539.769 15.96V17.412L536.117 17.984C535.296 18.116 534.672 18.336 534.247 18.644C533.822 18.952 533.609 19.3993 533.609 19.986C533.609 20.558 533.8 20.9907 534.181 21.284C534.577 21.5773 535.156 21.724 535.919 21.724C536.902 21.724 537.701 21.504 538.317 21.064C538.948 20.6093 539.263 20.0227 539.263 19.304L539.549 20.866C539.314 21.614 538.852 22.1933 538.163 22.604C537.488 23.0147 536.66 23.22 535.677 23.22ZM548.559 23.198C547.312 23.198 546.403 22.9193 545.831 22.362C545.273 21.79 544.995 20.9687 544.995 19.898V9.162L546.755 8.502V19.876C546.755 20.5067 546.916 20.9687 547.239 21.262C547.561 21.5553 548.089 21.702 548.823 21.702C549.116 21.702 549.365 21.6873 549.571 21.658C549.791 21.614 549.967 21.5627 550.099 21.504V23C549.952 23.0587 549.739 23.1027 549.461 23.132C549.197 23.176 548.896 23.198 548.559 23.198ZM542.685 13.276V11.78H550.099V13.276H542.685ZM555.908 23.22C555.175 23.22 554.522 23.0733 553.95 22.78C553.378 22.472 552.931 22.0467 552.608 21.504C552.285 20.9467 552.124 20.3087 552.124 19.59V11.78H553.884V19.128C553.884 19.9787 554.089 20.6167 554.5 21.042C554.925 21.4673 555.527 21.68 556.304 21.68C557.008 21.68 557.631 21.5187 558.174 21.196C558.717 20.8733 559.142 20.426 559.45 19.854C559.773 19.2673 559.934 18.6 559.934 17.852L560.22 20.514C559.853 21.35 559.281 22.01 558.504 22.494C557.727 22.978 556.861 23.22 555.908 23.22ZM560.044 23V20.36H559.934V11.78H561.694V23H560.044ZM565.211 23V11.78H566.861V14.64H566.971V23H565.211ZM566.971 17.148L566.685 14.486C566.949 13.5327 567.419 12.8067 568.093 12.308C568.768 11.8093 569.545 11.56 570.425 11.56C570.792 11.56 571.041 11.5893 571.173 11.648V13.342C571.1 13.3127 570.997 13.298 570.865 13.298C570.733 13.2833 570.572 13.276 570.381 13.276C569.267 13.276 568.416 13.6133 567.829 14.288C567.257 14.948 566.971 15.9013 566.971 17.148ZM577.672 23.22C576.602 23.22 575.656 22.9707 574.834 22.472C574.013 21.9587 573.368 21.262 572.898 20.382C572.429 19.502 572.194 18.49 572.194 17.346C572.194 16.202 572.422 15.1973 572.876 14.332C573.346 13.452 573.998 12.77 574.834 12.286C575.67 11.802 576.631 11.56 577.716 11.56C578.758 11.56 579.66 11.7873 580.422 12.242C581.2 12.6967 581.794 13.3347 582.204 14.156C582.63 14.9773 582.842 15.9453 582.842 17.06C582.842 17.2067 582.835 17.346 582.82 17.478C582.82 17.61 582.806 17.7567 582.776 17.918H573.514V16.444H581.698L581.126 17.258C581.126 15.9087 580.826 14.8747 580.224 14.156C579.638 13.4227 578.802 13.056 577.716 13.056C576.602 13.056 575.7 13.4447 575.01 14.222C574.336 14.9847 573.998 16.0187 573.998 17.324C573.998 18.6587 574.336 19.7293 575.01 20.536C575.7 21.328 576.616 21.724 577.76 21.724C578.479 21.724 579.11 21.57 579.652 21.262C580.195 20.9393 580.591 20.4847 580.84 19.898H582.512C582.146 20.9247 581.53 21.7387 580.664 22.34C579.814 22.9267 578.816 23.22 577.672 23.22ZM593.654 23V20.382L593.874 20.448C593.596 21.2987 593.082 21.9733 592.334 22.472C591.601 22.9707 590.721 23.22 589.694 23.22C588.682 23.22 587.795 22.978 587.032 22.494C586.284 22.01 585.698 21.3353 585.272 20.47C584.862 19.6047 584.656 18.5927 584.656 17.434C584.656 16.2607 584.869 15.234 585.294 14.354C585.72 13.474 586.314 12.792 587.076 12.308C587.839 11.824 588.734 11.582 589.76 11.582C590.816 11.582 591.704 11.8387 592.422 12.352C593.141 12.8653 593.632 13.5913 593.896 14.53L593.544 14.574V7.16H595.304V23H593.654ZM590.024 21.68C591.154 21.68 592.034 21.2987 592.664 20.536C593.31 19.7587 593.632 18.7027 593.632 17.368C593.632 16.0627 593.31 15.0287 592.664 14.266C592.019 13.5033 591.139 13.122 590.024 13.122C588.91 13.122 588.037 13.5033 587.406 14.266C586.776 15.0287 586.46 16.0847 586.46 17.434C586.46 18.754 586.776 19.7953 587.406 20.558C588.037 21.306 588.91 21.68 590.024 21.68ZM603.239 23V11.78H604.999V23H603.239ZM603.107 9.228V7.16H605.131V9.228H603.107ZM608.524 23V11.78H610.174V14.42H610.284V23H608.524ZM616.554 23V15.652C616.554 14.8013 616.341 14.1633 615.916 13.738C615.49 13.3127 614.86 13.1 614.024 13.1C613.29 13.1 612.638 13.2613 612.066 13.584C611.508 13.9067 611.068 14.354 610.746 14.926C610.438 15.498 610.284 16.1653 610.284 16.928L609.998 14.266C610.379 13.43 610.958 12.77 611.736 12.286C612.528 11.802 613.422 11.56 614.42 11.56C615.593 11.56 616.532 11.8973 617.236 12.572C617.954 13.232 618.314 14.1047 618.314 15.19V23H616.554ZM631.246 23L625.13 7.16H627.066L632.742 22.208H632.082L637.736 7.16H639.562L633.446 23H631.246ZM645.133 23.22C644.063 23.22 643.117 22.9707 642.295 22.472C641.474 21.9587 640.829 21.262 640.359 20.382C639.89 19.502 639.655 18.49 639.655 17.346C639.655 16.202 639.883 15.1973 640.337 14.332C640.807 13.452 641.459 12.77 642.295 12.286C643.131 11.802 644.092 11.56 645.177 11.56C646.219 11.56 647.121 11.7873 647.883 12.242C648.661 12.6967 649.255 13.3347 649.665 14.156C650.091 14.9773 650.303 15.9453 650.303 17.06C650.303 17.2067 650.296 17.346 650.281 17.478C650.281 17.61 650.267 17.7567 650.237 17.918H640.975V16.444H649.159L648.587 17.258C648.587 15.9087 648.287 14.8747 647.685 14.156C647.099 13.4227 646.263 13.056 645.177 13.056C644.063 13.056 643.161 13.4447 642.471 14.222C641.797 14.9847 641.459 16.0187 641.459 17.324C641.459 18.6587 641.797 19.7293 642.471 20.536C643.161 21.328 644.077 21.724 645.221 21.724C645.94 21.724 646.571 21.57 647.113 21.262C647.656 20.9393 648.052 20.4847 648.301 19.898H649.973C649.607 20.9247 648.991 21.7387 648.125 22.34C647.275 22.9267 646.277 23.22 645.133 23.22ZM652.953 23V11.78H654.603V14.42H654.713V23H652.953ZM660.983 23V15.652C660.983 14.8013 660.771 14.1633 660.345 13.738C659.92 13.3127 659.289 13.1 658.453 13.1C657.72 13.1 657.067 13.2613 656.495 13.584C655.938 13.9067 655.498 14.354 655.175 14.926C654.867 15.498 654.713 16.1653 654.713 16.928L654.427 14.266C654.809 13.43 655.388 12.77 656.165 12.286C656.957 11.802 657.852 11.56 658.849 11.56C660.023 11.56 660.961 11.8973 661.665 12.572C662.384 13.232 662.743 14.1047 662.743 15.19V23H660.983ZM670.311 23.198C669.064 23.198 668.155 22.9193 667.583 22.362C667.025 21.79 666.747 20.9687 666.747 19.898V9.162L668.507 8.502V19.876C668.507 20.5067 668.668 20.9687 668.991 21.262C669.313 21.5553 669.841 21.702 670.575 21.702C670.868 21.702 671.117 21.6873 671.323 21.658C671.543 21.614 671.719 21.5627 671.851 21.504V23C671.704 23.0587 671.491 23.1027 671.213 23.132C670.949 23.176 670.648 23.198 670.311 23.198ZM664.437 13.276V11.78H671.851V13.276H664.437ZM677.66 23.22C676.927 23.22 676.274 23.0733 675.702 22.78C675.13 22.472 674.683 22.0467 674.36 21.504C674.037 20.9467 673.876 20.3087 673.876 19.59V11.78H675.636V19.128C675.636 19.9787 675.841 20.6167 676.252 21.042C676.677 21.4673 677.279 21.68 678.056 21.68C678.76 21.68 679.383 21.5187 679.926 21.196C680.469 20.8733 680.894 20.426 681.202 19.854C681.525 19.2673 681.686 18.6 681.686 17.852L681.972 20.514C681.605 21.35 681.033 22.01 680.256 22.494C679.479 22.978 678.613 23.22 677.66 23.22ZM681.796 23V20.36H681.686V11.78H683.446V23H681.796ZM686.963 23V11.78H688.613V14.64H688.723V23H686.963ZM688.723 17.148L688.437 14.486C688.701 13.5327 689.17 12.8067 689.845 12.308C690.52 11.8093 691.297 11.56 692.177 11.56C692.544 11.56 692.793 11.5893 692.925 11.648V13.342C692.852 13.3127 692.749 13.298 692.617 13.298C692.485 13.2833 692.324 13.276 692.133 13.276C691.018 13.276 690.168 13.6133 689.581 14.288C689.009 14.948 688.723 15.9013 688.723 17.148ZM699.424 23.22C698.354 23.22 697.408 22.9707 696.586 22.472C695.765 21.9587 695.12 21.262 694.65 20.382C694.181 19.502 693.946 18.49 693.946 17.346C693.946 16.202 694.174 15.1973 694.628 14.332C695.098 13.452 695.75 12.77 696.586 12.286C697.422 11.802 698.383 11.56 699.468 11.56C700.51 11.56 701.412 11.7873 702.174 12.242C702.952 12.6967 703.546 13.3347 703.956 14.156C704.382 14.9773 704.594 15.9453 704.594 17.06C704.594 17.2067 704.587 17.346 704.572 17.478C704.572 17.61 704.558 17.7567 704.528 17.918H695.266V16.444H703.45L702.878 17.258C702.878 15.9087 702.578 14.8747 701.976 14.156C701.39 13.4227 700.554 13.056 699.468 13.056C698.354 13.056 697.452 13.4447 696.762 14.222C696.088 14.9847 695.75 16.0187 695.75 17.324C695.75 18.6587 696.088 19.7293 696.762 20.536C697.452 21.328 698.368 21.724 699.512 21.724C700.231 21.724 700.862 21.57 701.404 21.262C701.947 20.9393 702.343 20.4847 702.592 19.898H704.264C703.898 20.9247 703.282 21.7387 702.416 22.34C701.566 22.9267 700.568 23.22 699.424 23.22ZM708.435 23V21.504H713.495C714.463 21.504 715.233 21.24 715.805 20.712C716.377 20.184 716.663 19.4727 716.663 18.578C716.663 17.6247 716.363 16.862 715.761 16.29C715.16 15.718 714.353 15.432 713.341 15.432H708.435V13.98H713.099C714.097 13.98 714.874 13.738 715.431 13.254C715.989 12.77 716.267 12.088 716.267 11.208C716.267 10.3867 716.003 9.756 715.475 9.316C714.962 8.876 714.207 8.656 713.209 8.656H708.435V7.16H713.363C714.815 7.16 715.959 7.50467 716.795 8.194C717.646 8.88333 718.071 9.822 718.071 11.01C718.071 11.758 717.903 12.4253 717.565 13.012C717.228 13.5987 716.766 14.0607 716.179 14.398C715.593 14.7207 714.918 14.882 714.155 14.882L714.265 14.42C715.072 14.42 715.791 14.6107 716.421 14.992C717.067 15.3733 717.573 15.894 717.939 16.554C718.321 17.1993 718.511 17.94 718.511 18.776C718.511 19.612 718.306 20.3527 717.895 20.998C717.499 21.6287 716.935 22.12 716.201 22.472C715.468 22.824 714.617 23 713.649 23H708.435ZM707.247 23V7.16H709.051V23H707.247ZM725.7 23.22C724.629 23.22 723.683 22.9707 722.862 22.472C722.04 21.9587 721.395 21.262 720.926 20.382C720.456 19.502 720.222 18.49 720.222 17.346C720.222 16.202 720.449 15.1973 720.904 14.332C721.373 13.452 722.026 12.77 722.862 12.286C723.698 11.802 724.658 11.56 725.744 11.56C726.785 11.56 727.687 11.7873 728.45 12.242C729.227 12.6967 729.821 13.3347 730.232 14.156C730.657 14.9773 730.87 15.9453 730.87 17.06C730.87 17.2067 730.862 17.346 730.848 17.478C730.848 17.61 730.833 17.7567 730.804 17.918H721.542V16.444H729.726L729.154 17.258C729.154 15.9087 728.853 14.8747 728.252 14.156C727.665 13.4227 726.829 13.056 725.744 13.056C724.629 13.056 723.727 13.4447 723.038 14.222C722.363 14.9847 722.026 16.0187 722.026 17.324C722.026 18.6587 722.363 19.7293 723.038 20.536C723.727 21.328 724.644 21.724 725.788 21.724C726.506 21.724 727.137 21.57 727.68 21.262C728.222 20.9393 728.618 20.4847 728.868 19.898H730.54C730.173 20.9247 729.557 21.7387 728.692 22.34C727.841 22.9267 726.844 23.22 725.7 23.22ZM740.341 23C740.283 22.7507 740.239 22.4647 740.209 22.142C740.195 21.8193 740.187 21.4087 740.187 20.91H740.077V15.542C740.077 14.6913 739.879 14.068 739.483 13.672C739.102 13.2613 738.479 13.056 737.613 13.056C736.763 13.056 736.081 13.232 735.567 13.584C735.069 13.9213 734.79 14.4053 734.731 15.036H733.037C733.111 13.9507 733.565 13.1 734.401 12.484C735.237 11.868 736.33 11.56 737.679 11.56C739.073 11.56 740.107 11.89 740.781 12.55C741.456 13.21 741.793 14.2 741.793 15.52V20.91C741.793 21.2327 741.815 21.57 741.859 21.922C741.903 22.2593 741.962 22.6187 742.035 23H740.341ZM736.491 23.22C735.333 23.22 734.409 22.9413 733.719 22.384C733.045 21.812 732.707 21.0347 732.707 20.052C732.707 19.0693 733.045 18.3067 733.719 17.764C734.394 17.2213 735.377 16.84 736.667 16.62L740.583 15.96V17.412L736.931 17.984C736.11 18.116 735.487 18.336 735.061 18.644C734.636 18.952 734.423 19.3993 734.423 19.986C734.423 20.558 734.614 20.9907 734.995 21.284C735.391 21.5773 735.971 21.724 736.733 21.724C737.716 21.724 738.515 21.504 739.131 21.064C739.762 20.6093 740.077 20.0227 740.077 19.304L740.363 20.866C740.129 21.614 739.667 22.1933 738.977 22.604C738.303 23.0147 737.474 23.22 736.491 23.22ZM749.373 23.198C748.126 23.198 747.217 22.9193 746.645 22.362C746.088 21.79 745.809 20.9687 745.809 19.898V9.162L747.569 8.502V19.876C747.569 20.5067 747.73 20.9687 748.053 21.262C748.376 21.5553 748.904 21.702 749.637 21.702C749.93 21.702 750.18 21.6873 750.385 21.658C750.605 21.614 750.781 21.5627 750.913 21.504V23C750.766 23.0587 750.554 23.1027 750.275 23.132C750.011 23.176 749.71 23.198 749.373 23.198ZM743.499 13.276V11.78H750.913V13.276H743.499ZM753.09 23V20.734H755.356V23H753.09ZM753.09 14.64V12.374H755.356V14.64H753.09ZM767.546 7.688V4.74H768.998V7.688H767.546ZM768.998 22.56V25.398H767.546V22.56H768.998ZM768.69 23.198C766.842 23.198 765.368 22.7433 764.268 21.834C763.182 20.9247 762.544 19.6267 762.354 17.94H764.114C764.275 19.1573 764.737 20.074 765.5 20.69C766.262 21.306 767.318 21.614 768.668 21.614C769.812 21.614 770.67 21.4013 771.242 20.976C771.828 20.536 772.122 19.898 772.122 19.062C772.122 18.3433 771.924 17.7713 771.528 17.346C771.132 16.9207 770.516 16.5687 769.68 16.29L767.018 15.366C765.668 14.8967 764.671 14.332 764.026 13.672C763.38 12.9973 763.058 12.1467 763.058 11.12C763.058 10.2693 763.27 9.536 763.696 8.92C764.121 8.28933 764.722 7.798 765.5 7.446C766.277 7.094 767.179 6.918 768.206 6.918C769.79 6.918 771.058 7.336 772.012 8.172C772.965 8.99333 773.515 10.1667 773.662 11.692H771.902C771.711 10.592 771.315 9.78533 770.714 9.272C770.127 8.75867 769.276 8.502 768.162 8.502C767.106 8.502 766.284 8.71467 765.698 9.14C765.111 9.56533 764.818 10.1667 764.818 10.944C764.818 11.604 765.023 12.132 765.434 12.528C765.844 12.924 766.482 13.2687 767.348 13.562L770.186 14.552C771.418 14.9773 772.342 15.5567 772.958 16.29C773.574 17.0087 773.882 17.9253 773.882 19.04C773.882 20.36 773.427 21.3867 772.518 22.12C771.623 22.8387 770.347 23.198 768.69 23.198ZM781.754 23.22C780.639 23.22 779.671 23.022 778.85 22.626C778.043 22.23 777.42 21.6873 776.98 20.998C776.54 20.3087 776.32 19.5387 776.32 18.688C776.32 17.896 776.496 17.1773 776.848 16.532C777.2 15.8867 777.669 15.3733 778.256 14.992C778.857 14.6107 779.517 14.42 780.236 14.42L780.28 14.882C779.605 14.882 778.996 14.7207 778.454 14.398C777.911 14.0607 777.486 13.606 777.178 13.034C776.87 12.462 776.716 11.8313 776.716 11.142C776.716 10.3207 776.928 9.59467 777.354 8.964C777.779 8.33333 778.373 7.842 779.136 7.49C779.898 7.12333 780.778 6.94 781.776 6.94C782.773 6.94 783.646 7.12333 784.394 7.49C785.142 7.842 785.728 8.33333 786.154 8.964C786.579 9.59467 786.792 10.3133 786.792 11.12C786.792 11.824 786.638 12.462 786.33 13.034C786.022 13.5913 785.596 14.0387 785.054 14.376C784.511 14.7133 783.895 14.882 783.206 14.882L783.272 14.42C784.005 14.42 784.665 14.6107 785.252 14.992C785.838 15.3733 786.308 15.8867 786.66 16.532C787.012 17.1773 787.188 17.896 787.188 18.688C787.188 19.5387 786.968 20.3087 786.528 20.998C786.088 21.6873 785.457 22.23 784.636 22.626C783.829 23.022 782.868 23.22 781.754 23.22ZM781.754 21.636C782.824 21.636 783.668 21.35 784.284 20.778C784.914 20.206 785.23 19.4507 785.23 18.512C785.23 17.5733 784.922 16.8327 784.306 16.29C783.69 15.7473 782.839 15.476 781.754 15.476C780.668 15.476 779.818 15.7473 779.202 16.29C778.586 16.8327 778.278 17.5733 778.278 18.512C778.278 19.4507 778.586 20.206 779.202 20.778C779.832 21.35 780.683 21.636 781.754 21.636ZM781.754 13.936C782.722 13.936 783.477 13.694 784.02 13.21C784.577 12.726 784.856 12.0807 784.856 11.274C784.856 10.438 784.57 9.77067 783.998 9.272C783.426 8.77333 782.678 8.524 781.754 8.524C780.815 8.524 780.06 8.77333 779.488 9.272C778.93 9.77067 778.652 10.438 778.652 11.274C778.652 12.0807 778.93 12.726 779.488 13.21C780.045 13.694 780.8 13.936 781.754 13.936ZM790.048 23V7.16H792.82L798.54 22.428H797.704L803.38 7.16H806.196V23H804.414V8.106H804.656L799.134 23H796.978L791.456 8.238H791.698V23H790.048ZM818.746 23.198C817.499 23.198 816.59 22.9193 816.018 22.362C815.461 21.79 815.182 20.9687 815.182 19.898V9.162L816.942 8.502V19.876C816.942 20.5067 817.103 20.9687 817.426 21.262C817.749 21.5553 818.277 21.702 819.01 21.702C819.303 21.702 819.553 21.6873 819.758 21.658C819.978 21.614 820.154 21.5627 820.286 21.504V23C820.139 23.0587 819.927 23.1027 819.648 23.132C819.384 23.176 819.083 23.198 818.746 23.198ZM812.872 13.276V11.78H820.286V13.276H812.872ZM826.957 23.22C825.857 23.22 824.889 22.9633 824.053 22.45C823.217 21.9367 822.565 21.24 822.095 20.36C821.641 19.4653 821.413 18.4607 821.413 17.346C821.413 16.2167 821.648 15.2193 822.117 14.354C822.587 13.4887 823.232 12.8067 824.053 12.308C824.889 11.8093 825.857 11.56 826.957 11.56C828.072 11.56 829.04 11.8093 829.861 12.308C830.697 12.8067 831.343 13.4887 831.797 14.354C832.267 15.2193 832.501 16.2167 832.501 17.346C832.501 18.4607 832.267 19.4653 831.797 20.36C831.343 21.24 830.697 21.9367 829.861 22.45C829.04 22.9633 828.072 23.22 826.957 23.22ZM826.957 21.724C827.72 21.724 828.38 21.5407 828.937 21.174C829.495 20.7927 829.927 20.272 830.235 19.612C830.543 18.952 830.697 18.1893 830.697 17.324C830.697 16.0333 830.353 14.9993 829.663 14.222C828.989 13.4447 828.087 13.056 826.957 13.056C825.843 13.056 824.941 13.4447 824.251 14.222C823.562 14.9993 823.217 16.0333 823.217 17.324C823.217 18.1893 823.371 18.952 823.679 19.612C823.987 20.272 824.42 20.7927 824.977 21.174C825.549 21.5407 826.209 21.724 826.957 21.724ZM839.677 23V7.16H845.529C846.658 7.16 847.619 7.34333 848.411 7.71C849.203 8.07667 849.804 8.59 850.215 9.25C850.64 9.89533 850.853 10.6653 850.853 11.56C850.853 12.4547 850.64 13.2393 850.215 13.914C849.804 14.574 849.203 15.0947 848.411 15.476C847.619 15.8427 846.658 16.026 845.529 16.026H840.997V14.442H845.463C846.636 14.442 847.524 14.1853 848.125 13.672C848.741 13.1587 849.049 12.4547 849.049 11.56C849.049 10.68 848.748 9.99067 848.147 9.492C847.546 8.99333 846.651 8.744 845.463 8.744H841.481V23H839.677ZM848.961 23L840.535 15.146H842.999L851.689 23H848.961ZM857.915 23.22C856.844 23.22 855.898 22.9707 855.077 22.472C854.255 21.9587 853.61 21.262 853.141 20.382C852.671 19.502 852.437 18.49 852.437 17.346C852.437 16.202 852.664 15.1973 853.119 14.332C853.588 13.452 854.241 12.77 855.077 12.286C855.913 11.802 856.873 11.56 857.959 11.56C859 11.56 859.902 11.7873 860.665 12.242C861.442 12.6967 862.036 13.3347 862.447 14.156C862.872 14.9773 863.085 15.9453 863.085 17.06C863.085 17.2067 863.077 17.346 863.063 17.478C863.063 17.61 863.048 17.7567 863.019 17.918H853.757V16.444H861.941L861.369 17.258C861.369 15.9087 861.068 14.8747 860.467 14.156C859.88 13.4227 859.044 13.056 857.959 13.056C856.844 13.056 855.942 13.4447 855.253 14.222C854.578 14.9847 854.241 16.0187 854.241 17.324C854.241 18.6587 854.578 19.7293 855.253 20.536C855.942 21.328 856.859 21.724 858.003 21.724C858.721 21.724 859.352 21.57 859.895 21.262C860.437 20.9393 860.833 20.4847 861.083 19.898H862.755C862.388 20.9247 861.772 21.7387 860.907 22.34C860.056 22.9267 859.059 23.22 857.915 23.22ZM868.755 23L864.113 11.78H866.005L869.877 21.812H869.173L873.023 11.78H874.827L870.185 23H868.755ZM881.377 23.22C880.277 23.22 879.309 22.9633 878.473 22.45C877.637 21.9367 876.984 21.24 876.515 20.36C876.06 19.4653 875.833 18.4607 875.833 17.346C875.833 16.2167 876.068 15.2193 876.537 14.354C877.006 13.4887 877.652 12.8067 878.473 12.308C879.309 11.8093 880.277 11.56 881.377 11.56C882.492 11.56 883.46 11.8093 884.281 12.308C885.117 12.8067 885.762 13.4887 886.217 14.354C886.686 15.2193 886.921 16.2167 886.921 17.346C886.921 18.4607 886.686 19.4653 886.217 20.36C885.762 21.24 885.117 21.9367 884.281 22.45C883.46 22.9633 882.492 23.22 881.377 23.22ZM881.377 21.724C882.14 21.724 882.8 21.5407 883.357 21.174C883.914 20.7927 884.347 20.272 884.655 19.612C884.963 18.952 885.117 18.1893 885.117 17.324C885.117 16.0333 884.772 14.9993 884.083 14.222C883.408 13.4447 882.506 13.056 881.377 13.056C880.262 13.056 879.36 13.4447 878.671 14.222C877.982 14.9993 877.637 16.0333 877.637 17.324C877.637 18.1893 877.791 18.952 878.099 19.612C878.407 20.272 878.84 20.7927 879.397 21.174C879.969 21.5407 880.629 21.724 881.377 21.724ZM889.561 23V7.16H891.321V23H889.561ZM898.498 23.22C897.765 23.22 897.112 23.0733 896.54 22.78C895.968 22.472 895.521 22.0467 895.198 21.504C894.875 20.9467 894.714 20.3087 894.714 19.59V11.78H896.474V19.128C896.474 19.9787 896.679 20.6167 897.09 21.042C897.515 21.4673 898.117 21.68 898.894 21.68C899.598 21.68 900.221 21.5187 900.764 21.196C901.307 20.8733 901.732 20.426 902.04 19.854C902.363 19.2673 902.524 18.6 902.524 17.852L902.81 20.514C902.443 21.35 901.871 22.01 901.094 22.494C900.317 22.978 899.451 23.22 898.498 23.22ZM902.634 23V20.36H902.524V11.78H904.284V23H902.634ZM912.225 23.198C910.978 23.198 910.069 22.9193 909.497 22.362C908.939 21.79 908.661 20.9687 908.661 19.898V9.162L910.421 8.502V19.876C910.421 20.5067 910.582 20.9687 910.905 21.262C911.227 21.5553 911.755 21.702 912.489 21.702C912.782 21.702 913.031 21.6873 913.237 21.658C913.457 21.614 913.633 21.5627 913.765 21.504V23C913.618 23.0587 913.405 23.1027 913.127 23.132C912.863 23.176 912.562 23.198 912.225 23.198ZM906.351 13.276V11.78H913.765V13.276H906.351ZM916.03 23V11.78H917.79V23H916.03ZM915.898 9.228V7.16H917.922V9.228H915.898ZM925.936 23.22C924.836 23.22 923.868 22.9633 923.032 22.45C922.196 21.9367 921.543 21.24 921.074 20.36C920.619 19.4653 920.392 18.4607 920.392 17.346C920.392 16.2167 920.626 15.2193 921.096 14.354C921.565 13.4887 922.21 12.8067 923.032 12.308C923.868 11.8093 924.836 11.56 925.936 11.56C927.05 11.56 928.018 11.8093 928.84 12.308C929.676 12.8067 930.321 13.4887 930.776 14.354C931.245 15.2193 931.48 16.2167 931.48 17.346C931.48 18.4607 931.245 19.4653 930.776 20.36C930.321 21.24 929.676 21.9367 928.84 22.45C928.018 22.9633 927.05 23.22 925.936 23.22ZM925.936 21.724C926.698 21.724 927.358 21.5407 927.916 21.174C928.473 20.7927 928.906 20.272 929.214 19.612C929.522 18.952 929.676 18.1893 929.676 17.324C929.676 16.0333 929.331 14.9993 928.642 14.222C927.967 13.4447 927.065 13.056 925.936 13.056C924.821 13.056 923.919 13.4447 923.23 14.222C922.54 14.9993 922.196 16.0333 922.196 17.324C922.196 18.1893 922.35 18.952 922.658 19.612C922.966 20.272 923.398 20.7927 923.956 21.174C924.528 21.5407 925.188 21.724 925.936 21.724ZM934.119 23V11.78H935.769V14.42H935.879V23H934.119ZM942.149 23V15.652C942.149 14.8013 941.937 14.1633 941.511 13.738C941.086 13.3127 940.455 13.1 939.619 13.1C938.886 13.1 938.233 13.2613 937.661 13.584C937.104 13.9067 936.664 14.354 936.341 14.926C936.033 15.498 935.879 16.1653 935.879 16.928L935.593 14.266C935.975 13.43 936.554 12.77 937.331 12.286C938.123 11.802 939.018 11.56 940.015 11.56C941.189 11.56 942.127 11.8973 942.831 12.572C943.55 13.232 943.909 14.1047 943.909 15.19V23H942.149ZM947.289 23V11.78H949.049V23H947.289ZM947.157 9.228V7.16H949.181V9.228H947.157ZM951.702 23V21.724L958.522 12.462L959.182 13.276H951.922V11.78H960.194V13.056L953.374 22.318L952.714 21.504H960.414V23H951.702ZM967.27 23.22C966.199 23.22 965.253 22.9707 964.432 22.472C963.611 21.9587 962.965 21.262 962.496 20.382C962.027 19.502 961.792 18.49 961.792 17.346C961.792 16.202 962.019 15.1973 962.474 14.332C962.943 13.452 963.596 12.77 964.432 12.286C965.268 11.802 966.229 11.56 967.314 11.56C968.355 11.56 969.257 11.7873 970.02 12.242C970.797 12.6967 971.391 13.3347 971.802 14.156C972.227 14.9773 972.44 15.9453 972.44 17.06C972.44 17.2067 972.433 17.346 972.418 17.478C972.418 17.61 972.403 17.7567 972.374 17.918H963.112V16.444H971.296L970.724 17.258C970.724 15.9087 970.423 14.8747 969.822 14.156C969.235 13.4227 968.399 13.056 967.314 13.056C966.199 13.056 965.297 13.4447 964.608 14.222C963.933 14.9847 963.596 16.0187 963.596 17.324C963.596 18.6587 963.933 19.7293 964.608 20.536C965.297 21.328 966.214 21.724 967.358 21.724C968.077 21.724 968.707 21.57 969.25 21.262C969.793 20.9393 970.189 20.4847 970.438 19.898H972.11C971.743 20.9247 971.127 21.7387 970.262 22.34C969.411 22.9267 968.414 23.22 967.27 23.22ZM978.526 23L984.642 7.16H986.226L980.264 23H978.526ZM991.11 23L985.148 7.16H986.842L992.958 23H991.11ZM981.562 16.598H989.834V18.182H981.562V16.598ZM995.632 23V7.16H997.436V23H995.632ZM1005.62 23V7.16H1007.43V23H1005.62ZM1011.08 23V11.78H1012.73V14.42H1012.84V23H1011.08ZM1019.11 23V15.652C1019.11 14.8013 1018.89 14.1633 1018.47 13.738C1018.04 13.3127 1017.41 13.1 1016.58 13.1C1015.84 13.1 1015.19 13.2613 1014.62 13.584C1014.06 13.9067 1013.62 14.354 1013.3 14.926C1012.99 15.498 1012.84 16.1653 1012.84 16.928L1012.55 14.266C1012.93 13.43 1013.51 12.77 1014.29 12.286C1015.08 11.802 1015.98 11.56 1016.97 11.56C1018.15 11.56 1019.08 11.8973 1019.79 12.572C1020.51 13.232 1020.87 14.1047 1020.87 15.19V23H1019.11ZM1024.87 23V10.196C1024.87 9.16933 1025.16 8.37 1025.75 7.798C1026.35 7.226 1027.26 6.94 1028.48 6.94C1028.77 6.94 1029 6.95467 1029.16 6.984C1029.34 7.01333 1029.48 7.05 1029.6 7.094V8.48C1029.5 8.45067 1029.35 8.42133 1029.16 8.392C1028.98 8.36267 1028.79 8.348 1028.59 8.348C1027.91 8.348 1027.41 8.51667 1027.09 8.854C1026.78 9.19133 1026.63 9.668 1026.63 10.284V23H1024.87ZM1022.56 13.276V11.78H1029.36V13.276H1022.56ZM1035.89 23.22C1034.82 23.22 1033.87 22.9707 1033.05 22.472C1032.23 21.9587 1031.59 21.262 1031.12 20.382C1030.65 19.502 1030.41 18.49 1030.41 17.346C1030.41 16.202 1030.64 15.1973 1031.1 14.332C1031.56 13.452 1032.22 12.77 1033.05 12.286C1033.89 11.802 1034.85 11.56 1035.94 11.56C1036.98 11.56 1037.88 11.7873 1038.64 12.242C1039.42 12.6967 1040.01 13.3347 1040.42 14.156C1040.85 14.9773 1041.06 15.9453 1041.06 17.06C1041.06 17.2067 1041.05 17.346 1041.04 17.478C1041.04 17.61 1041.02 17.7567 1041 17.918H1031.73V16.444H1039.92L1039.35 17.258C1039.35 15.9087 1039.04 14.8747 1038.44 14.156C1037.86 13.4227 1037.02 13.056 1035.94 13.056C1034.82 13.056 1033.92 13.4447 1033.23 14.222C1032.55 14.9847 1032.22 16.0187 1032.22 17.324C1032.22 18.6587 1032.55 19.7293 1033.23 20.536C1033.92 21.328 1034.84 21.724 1035.98 21.724C1036.7 21.724 1037.33 21.57 1037.87 21.262C1038.41 20.9393 1038.81 20.4847 1039.06 19.898H1040.73C1040.36 20.9247 1039.75 21.7387 1038.88 22.34C1038.03 22.9267 1037.04 23.22 1035.89 23.22ZM1043.71 23V11.78H1045.36V14.64H1045.47V23H1043.71ZM1045.47 17.148L1045.19 14.486C1045.45 13.5327 1045.92 12.8067 1046.59 12.308C1047.27 11.8093 1048.05 11.56 1048.93 11.56C1049.29 11.56 1049.54 11.5893 1049.67 11.648V13.342C1049.6 13.3127 1049.5 13.298 1049.37 13.298C1049.23 13.2833 1049.07 13.276 1048.88 13.276C1047.77 13.276 1046.92 13.6133 1046.33 14.288C1045.76 14.948 1045.47 15.9013 1045.47 17.148ZM1056.17 23.22C1055.1 23.22 1054.16 22.9707 1053.33 22.472C1052.51 21.9587 1051.87 21.262 1051.4 20.382C1050.93 19.502 1050.69 18.49 1050.69 17.346C1050.69 16.202 1050.92 15.1973 1051.38 14.332C1051.85 13.452 1052.5 12.77 1053.33 12.286C1054.17 11.802 1055.13 11.56 1056.22 11.56C1057.26 11.56 1058.16 11.7873 1058.92 12.242C1059.7 12.6967 1060.29 13.3347 1060.7 14.156C1061.13 14.9773 1061.34 15.9453 1061.34 17.06C1061.34 17.2067 1061.34 17.346 1061.32 17.478C1061.32 17.61 1061.31 17.7567 1061.28 17.918H1052.01V16.444H1060.2L1059.63 17.258C1059.63 15.9087 1059.33 14.8747 1058.72 14.156C1058.14 13.4227 1057.3 13.056 1056.22 13.056C1055.1 13.056 1054.2 13.4447 1053.51 14.222C1052.84 14.9847 1052.5 16.0187 1052.5 17.324C1052.5 18.6587 1052.84 19.7293 1053.51 20.536C1054.2 21.328 1055.12 21.724 1056.26 21.724C1056.98 21.724 1057.61 21.57 1058.15 21.262C1058.7 20.9393 1059.09 20.4847 1059.34 19.898H1061.01C1060.65 20.9247 1060.03 21.7387 1059.16 22.34C1058.31 22.9267 1057.32 23.22 1056.17 23.22ZM1063.99 23V11.78H1065.64V14.42H1065.75V23H1063.99ZM1072.02 23V15.652C1072.02 14.8013 1071.81 14.1633 1071.38 13.738C1070.96 13.3127 1070.33 13.1 1069.49 13.1C1068.76 13.1 1068.11 13.2613 1067.53 13.584C1066.98 13.9067 1066.54 14.354 1066.21 14.926C1065.91 15.498 1065.75 16.1653 1065.75 16.928L1065.47 14.266C1065.85 13.43 1066.43 12.77 1067.2 12.286C1068 11.802 1068.89 11.56 1069.89 11.56C1071.06 11.56 1072 11.8973 1072.7 12.572C1073.42 13.232 1073.78 14.1047 1073.78 15.19V23H1072.02ZM1081.61 23.22C1080.58 23.22 1079.66 22.9707 1078.86 22.472C1078.06 21.9587 1077.43 21.262 1076.96 20.382C1076.51 19.4873 1076.28 18.4753 1076.28 17.346C1076.28 16.2167 1076.51 15.2193 1076.96 14.354C1077.43 13.4887 1078.06 12.8067 1078.86 12.308C1079.66 11.8093 1080.57 11.56 1081.58 11.56C1082.42 11.56 1083.17 11.7213 1083.83 12.044C1084.5 12.3667 1085.05 12.8287 1085.48 13.43C1085.92 14.0167 1086.2 14.706 1086.31 15.498H1084.69C1084.54 14.7793 1084.2 14.1927 1083.67 13.738C1083.15 13.2833 1082.46 13.056 1081.63 13.056C1080.91 13.056 1080.29 13.232 1079.76 13.584C1079.23 13.936 1078.82 14.4347 1078.53 15.08C1078.23 15.7253 1078.09 16.4807 1078.09 17.346C1078.09 18.2113 1078.23 18.974 1078.53 19.634C1078.82 20.294 1079.23 20.8073 1079.76 21.174C1080.3 21.5407 1080.93 21.724 1081.65 21.724C1082.46 21.724 1083.13 21.504 1083.67 21.064C1084.22 20.6093 1084.56 20.0227 1084.71 19.304H1086.34C1086.2 20.0813 1085.91 20.7707 1085.46 21.372C1085.02 21.9587 1084.47 22.4133 1083.81 22.736C1083.15 23.0587 1082.41 23.22 1081.61 23.22ZM1093.45 23.22C1092.38 23.22 1091.43 22.9707 1090.61 22.472C1089.79 21.9587 1089.14 21.262 1088.67 20.382C1088.2 19.502 1087.97 18.49 1087.97 17.346C1087.97 16.202 1088.2 15.1973 1088.65 14.332C1089.12 13.452 1089.77 12.77 1090.61 12.286C1091.45 11.802 1092.41 11.56 1093.49 11.56C1094.53 11.56 1095.44 11.7873 1096.2 12.242C1096.98 12.6967 1097.57 13.3347 1097.98 14.156C1098.41 14.9773 1098.62 15.9453 1098.62 17.06C1098.62 17.2067 1098.61 17.346 1098.6 17.478C1098.6 17.61 1098.58 17.7567 1098.55 17.918H1089.29V16.444H1097.47L1096.9 17.258C1096.9 15.9087 1096.6 14.8747 1096 14.156C1095.41 13.4227 1094.58 13.056 1093.49 13.056C1092.38 13.056 1091.48 13.4447 1090.79 14.222C1090.11 14.9847 1089.77 16.0187 1089.77 17.324C1089.77 18.6587 1090.11 19.7293 1090.79 20.536C1091.48 21.328 1092.39 21.724 1093.54 21.724C1094.25 21.724 1094.89 21.57 1095.43 21.262C1095.97 20.9393 1096.37 20.4847 1096.62 19.898H1098.29C1097.92 20.9247 1097.31 21.7387 1096.44 22.34C1095.59 22.9267 1094.59 23.22 1093.45 23.22ZM1112.56 23C1112.5 22.7507 1112.46 22.4647 1112.43 22.142C1112.41 21.8193 1112.4 21.4087 1112.4 20.91H1112.29V15.542C1112.29 14.6913 1112.1 14.068 1111.7 13.672C1111.32 13.2613 1110.7 13.056 1109.83 13.056C1108.98 13.056 1108.3 13.232 1107.78 13.584C1107.29 13.9213 1107.01 14.4053 1106.95 15.036H1105.25C1105.33 13.9507 1105.78 13.1 1106.62 12.484C1107.45 11.868 1108.55 11.56 1109.9 11.56C1111.29 11.56 1112.32 11.89 1113 12.55C1113.67 13.21 1114.01 14.2 1114.01 15.52V20.91C1114.01 21.2327 1114.03 21.57 1114.08 21.922C1114.12 22.2593 1114.18 22.6187 1114.25 23H1112.56ZM1108.71 23.22C1107.55 23.22 1106.63 22.9413 1105.94 22.384C1105.26 21.812 1104.92 21.0347 1104.92 20.052C1104.92 19.0693 1105.26 18.3067 1105.94 17.764C1106.61 17.2213 1107.59 16.84 1108.88 16.62L1112.8 15.96V17.412L1109.15 17.984C1108.33 18.116 1107.7 18.336 1107.28 18.644C1106.85 18.952 1106.64 19.3993 1106.64 19.986C1106.64 20.558 1106.83 20.9907 1107.21 21.284C1107.61 21.5773 1108.19 21.724 1108.95 21.724C1109.93 21.724 1110.73 21.504 1111.35 21.064C1111.98 20.6093 1112.29 20.0227 1112.29 19.304L1112.58 20.866C1112.35 21.614 1111.88 22.1933 1111.19 22.604C1110.52 23.0147 1109.69 23.22 1108.71 23.22ZM1121.59 23.198C1120.34 23.198 1119.43 22.9193 1118.86 22.362C1118.3 21.79 1118.03 20.9687 1118.03 19.898V9.162L1119.79 8.502V19.876C1119.79 20.5067 1119.95 20.9687 1120.27 21.262C1120.59 21.5553 1121.12 21.702 1121.85 21.702C1122.15 21.702 1122.4 21.6873 1122.6 21.658C1122.82 21.614 1123 21.5627 1123.13 21.504V23C1122.98 23.0587 1122.77 23.1027 1122.49 23.132C1122.23 23.176 1121.93 23.198 1121.59 23.198ZM1115.72 13.276V11.78H1123.13V13.276H1115.72ZM1134.29 23.198C1133.04 23.198 1132.13 22.9193 1131.56 22.362C1131 21.79 1130.72 20.9687 1130.72 19.898V9.162L1132.48 8.502V19.876C1132.48 20.5067 1132.64 20.9687 1132.97 21.262C1133.29 21.5553 1133.82 21.702 1134.55 21.702C1134.84 21.702 1135.09 21.6873 1135.3 21.658C1135.52 21.614 1135.7 21.5627 1135.83 21.504V23C1135.68 23.0587 1135.47 23.1027 1135.19 23.132C1134.93 23.176 1134.62 23.198 1134.29 23.198ZM1128.41 13.276V11.78H1135.83V13.276H1128.41ZM1138.09 23V7.16H1139.85V23H1138.09ZM1146.12 23V15.652C1146.12 14.8013 1145.91 14.1633 1145.48 13.738C1145.06 13.3127 1144.43 13.1 1143.59 13.1C1142.86 13.1 1142.21 13.2613 1141.63 13.584C1141.08 13.9067 1140.64 14.354 1140.31 14.926C1140.01 15.498 1139.85 16.1653 1139.85 16.928L1139.57 14.266C1139.95 13.43 1140.53 12.77 1141.3 12.286C1142.1 11.802 1142.99 11.56 1143.99 11.56C1145.16 11.56 1146.1 11.8973 1146.8 12.572C1147.52 13.232 1147.88 14.1047 1147.88 15.19V23H1146.12ZM1155.86 23.22C1154.79 23.22 1153.84 22.9707 1153.02 22.472C1152.2 21.9587 1151.56 21.262 1151.09 20.382C1150.62 19.502 1150.38 18.49 1150.38 17.346C1150.38 16.202 1150.61 15.1973 1151.06 14.332C1151.53 13.452 1152.19 12.77 1153.02 12.286C1153.86 11.802 1154.82 11.56 1155.9 11.56C1156.95 11.56 1157.85 11.7873 1158.61 12.242C1159.39 12.6967 1159.98 13.3347 1160.39 14.156C1160.82 14.9773 1161.03 15.9453 1161.03 17.06C1161.03 17.2067 1161.02 17.346 1161.01 17.478C1161.01 17.61 1160.99 17.7567 1160.96 17.918H1151.7V16.444H1159.89L1159.31 17.258C1159.31 15.9087 1159.01 14.8747 1158.41 14.156C1157.83 13.4227 1156.99 13.056 1155.9 13.056C1154.79 13.056 1153.89 13.4447 1153.2 14.222C1152.52 14.9847 1152.19 16.0187 1152.19 17.324C1152.19 18.6587 1152.52 19.7293 1153.2 20.536C1153.89 21.328 1154.8 21.724 1155.95 21.724C1156.67 21.724 1157.3 21.57 1157.84 21.262C1158.38 20.9393 1158.78 20.4847 1159.03 19.898H1160.7C1160.33 20.9247 1159.72 21.7387 1158.85 22.34C1158 22.9267 1157 23.22 1155.86 23.22ZM1168.22 23V7.16H1170.02V23H1168.22ZM1169.14 23V21.416H1178.82V23H1169.14ZM1169.14 15.542V13.958H1178.03V15.542H1169.14ZM1169.14 8.744V7.16H1178.64V8.744H1169.14ZM1189.33 23V20.382L1189.55 20.448C1189.27 21.2987 1188.76 21.9733 1188.01 22.472C1187.28 22.9707 1186.4 23.22 1185.37 23.22C1184.36 23.22 1183.47 22.978 1182.71 22.494C1181.96 22.01 1181.37 21.3353 1180.95 20.47C1180.54 19.6047 1180.33 18.5927 1180.33 17.434C1180.33 16.2607 1180.54 15.234 1180.97 14.354C1181.4 13.474 1181.99 12.792 1182.75 12.308C1183.51 11.824 1184.41 11.582 1185.44 11.582C1186.49 11.582 1187.38 11.8387 1188.1 12.352C1188.82 12.8653 1189.31 13.5913 1189.57 14.53L1189.22 14.574V7.16H1190.98V23H1189.33ZM1185.7 21.68C1186.83 21.68 1187.71 21.2987 1188.34 20.536C1188.99 19.7587 1189.31 18.7027 1189.31 17.368C1189.31 16.0627 1188.99 15.0287 1188.34 14.266C1187.69 13.5033 1186.81 13.122 1185.7 13.122C1184.59 13.122 1183.71 13.5033 1183.08 14.266C1182.45 15.0287 1182.14 16.0847 1182.14 17.434C1182.14 18.754 1182.45 19.7953 1183.08 20.558C1183.71 21.306 1184.59 21.68 1185.7 21.68ZM1198.98 27.73C1197.64 27.73 1196.53 27.4147 1195.63 26.784C1194.75 26.168 1194.22 25.3467 1194.03 24.32H1195.7C1195.86 24.9067 1196.22 25.3687 1196.78 25.706C1197.35 26.058 1198.12 26.234 1199.09 26.234C1200.23 26.234 1201.1 25.9187 1201.68 25.288C1202.27 24.672 1202.56 23.7627 1202.56 22.56V20.162L1202.78 20.206C1202.53 21.0567 1202.03 21.7387 1201.29 22.252C1200.54 22.7507 1199.65 23 1198.62 23C1197.64 23 1196.78 22.7653 1196.03 22.296C1195.28 21.812 1194.7 21.1447 1194.29 20.294C1193.88 19.4433 1193.67 18.4533 1193.67 17.324C1193.67 16.18 1193.89 15.1753 1194.31 14.31C1194.74 13.4447 1195.33 12.7773 1196.09 12.308C1196.87 11.824 1197.77 11.582 1198.8 11.582C1199.86 11.582 1200.74 11.8387 1201.44 12.352C1202.16 12.8653 1202.64 13.5987 1202.87 14.552L1202.67 14.574V11.78H1204.32V22.56C1204.32 24.1587 1203.85 25.42 1202.89 26.344C1201.94 27.268 1200.63 27.73 1198.98 27.73ZM1199.06 21.482C1200.16 21.482 1201.04 21.1007 1201.68 20.338C1202.33 19.5753 1202.65 18.5413 1202.65 17.236C1202.65 15.96 1202.33 14.9553 1201.68 14.222C1201.04 13.474 1200.16 13.1 1199.06 13.1C1197.95 13.1 1197.07 13.474 1196.42 14.222C1195.79 14.97 1195.48 15.9967 1195.48 17.302C1195.48 18.578 1195.8 19.5973 1196.45 20.36C1197.09 21.108 1197.96 21.482 1199.06 21.482ZM1212.45 23.22C1211.38 23.22 1210.43 22.9707 1209.61 22.472C1208.79 21.9587 1208.15 21.262 1207.68 20.382C1207.21 19.502 1206.97 18.49 1206.97 17.346C1206.97 16.202 1207.2 15.1973 1207.65 14.332C1208.12 13.452 1208.78 12.77 1209.61 12.286C1210.45 11.802 1211.41 11.56 1212.49 11.56C1213.54 11.56 1214.44 11.7873 1215.2 12.242C1215.98 12.6967 1216.57 13.3347 1216.98 14.156C1217.41 14.9773 1217.62 15.9453 1217.62 17.06C1217.62 17.2067 1217.61 17.346 1217.6 17.478C1217.6 17.61 1217.58 17.7567 1217.55 17.918H1208.29V16.444H1216.48L1215.9 17.258C1215.9 15.9087 1215.6 14.8747 1215 14.156C1214.42 13.4227 1213.58 13.056 1212.49 13.056C1211.38 13.056 1210.48 13.4447 1209.79 14.222C1209.11 14.9847 1208.78 16.0187 1208.78 17.324C1208.78 18.6587 1209.11 19.7293 1209.79 20.536C1210.48 21.328 1211.39 21.724 1212.54 21.724C1213.26 21.724 1213.89 21.57 1214.43 21.262C1214.97 20.9393 1215.37 20.4847 1215.62 19.898H1217.29C1216.92 20.9247 1216.31 21.7387 1215.44 22.34C1214.59 22.9267 1213.59 23.22 1212.45 23.22Z" fill="#F4F4F4"/>
<path d="M398.945 27.378H417.166V28.214H398.945V27.378ZM420.596 27.378H1195.94V28.214H420.596V27.378ZM1202.06 27.378H1218.5V28.214H1202.06V27.378Z" fill="#F4F4F4"/>
</svg>
