<svg width="419" height="116" viewBox="0 0 419 116" fill="none" xmlns="http://www.w3.org/2000/svg">
<path d="M0.0312545 0.191209C0.00512531 0.28044 -0.0079393 1.49143 0.00512531 2.89363L0.0443192 5.44308L1.76885 5.51956L2.06933 6.5011C2.23917 7.03649 2.42208 7.53363 2.4874 7.59737C2.53966 7.67385 2.59192 7.85231 2.59192 8.01803C2.59192 8.18374 2.64418 8.41319 2.7095 8.54066C2.78789 8.65539 3.04918 9.44572 3.31047 10.287C3.57177 11.1284 3.98983 12.4158 4.225 13.1552C4.68226 14.5446 5.77969 17.9481 6.34146 19.72C6.5113 20.2809 6.70727 20.8418 6.78566 20.9565C6.85099 21.084 6.90324 21.3007 6.90324 21.4409C6.90324 21.5811 6.9555 21.7978 7.02083 21.9253C7.08615 22.04 7.36051 22.8303 7.6218 23.6717C7.89615 24.513 8.23584 25.5965 8.39261 26.0936L8.6931 26.9859L13.1481 27.0242L17.6162 27.0497L17.7469 26.7692C17.8122 26.6035 18.0735 25.7877 18.3348 24.9464C18.5961 24.1051 18.8835 23.1873 18.988 22.9068C19.0795 22.6264 19.38 21.7086 19.6412 20.8673C19.9025 20.0259 20.19 19.1081 20.2945 18.8277C20.3859 18.5473 20.6864 17.6295 20.9477 16.7881C21.4442 15.2075 21.5879 14.7231 22.6853 11.3068C23.2601 9.49671 24.1224 6.79429 24.3968 5.88923C24.4882 5.59605 24.5666 5.57055 25.4289 5.53231L26.3695 5.49407V0.0254945H15.5259V5.50682H16.7148C17.773 5.50682 17.8906 5.53231 17.8253 5.72352C17.577 6.56484 17.3419 7.4189 17.3027 7.62286C17.2766 7.76308 16.9107 9.03781 16.5057 10.4782C15.8133 12.8875 15.1078 15.3987 14.0496 19.1719C13.8144 20.0004 13.5923 20.6761 13.5401 20.6761C13.5009 20.6761 13.3572 20.2936 13.2396 19.8092C12.8085 18.1011 12.6647 17.5402 12.4165 16.5969C11.9462 14.8633 9.67294 6.08044 9.62068 5.8255C9.58149 5.59605 9.67294 5.57055 10.7573 5.50682L11.9331 5.44308L11.9723 2.72791L11.9984 0.0254945H6.05404C1.33772 0.0254945 0.083513 0.0637363 0.0312545 0.191209Z" fill="#F4F4F4"/>
<path d="M142.906 5.50682H145.258V21.5684H142.906V27.0497H150.261C158.087 27.0369 159.367 26.9605 161.066 26.4123C162.477 25.9534 163.535 25.2268 164.319 24.1943C165.403 22.7794 165.691 21.8743 165.678 19.975C165.678 18.4198 165.521 17.7824 164.841 16.4057C164.11 14.9398 163.457 14.4171 161 13.3591L160.608 13.1934L161.392 12.7855C163.274 11.8295 164.24 10.7459 164.737 9.03781C165.273 7.18945 164.841 4.69099 163.679 3.04659C162.686 1.63165 161.601 0.981539 159.237 0.395165C158.178 0.127473 157.786 0.114725 150.523 0.0637363L142.906 0V5.50682ZM155.866 5.50682C156.977 5.81275 157.695 6.84528 157.708 8.12C157.721 9.10154 157.316 9.85363 156.519 10.4145C155.971 10.7842 155.879 10.7969 154.246 10.8607C153.318 10.8989 152.535 10.8989 152.535 10.8607C152.521 10.8224 152.521 9.57319 152.548 8.08176L152.587 5.37934H153.985C154.756 5.37934 155.605 5.44308 155.866 5.50682ZM156.95 16.495C158.009 17.0303 158.531 18.1903 158.322 19.4778C158.178 20.2936 157.773 20.8673 157.094 21.2114C156.689 21.4154 156.232 21.4791 154.638 21.5301C153.331 21.5811 152.652 21.5684 152.6 21.4791C152.548 21.4026 152.521 20.1534 152.548 18.7002L152.587 16.0615L154.442 16.1125C156.14 16.1508 156.349 16.189 156.95 16.495Z" fill="#F4F4F4"/>
<path d="M75.4272 1.30022C74.8523 1.44044 73.5851 1.73363 72.6183 1.95033C71.6515 2.16703 70.7108 2.38374 70.5279 2.43473L70.2013 2.5367L70.0707 7.2277L67.7844 7.30418V12.7728H69.6134V18.2923C69.6134 24.258 69.6265 24.4237 70.345 25.5328C70.6194 25.9662 71.4294 26.5398 72.2786 26.8967C72.9449 27.1899 74.4343 27.4321 75.4664 27.4321C76.394 27.4321 79.2551 27.1262 79.647 26.9859C79.7646 26.9477 79.8038 26.3231 79.8038 24.462V22.0018L79.0069 22.0273C78.0532 22.0655 77.5175 21.8233 77.1256 21.1732C76.8773 20.7653 76.8643 20.5103 76.8643 16.7881V12.8365L79.9998 12.709L80.039 10.0066L80.0651 7.30418L76.8643 7.2277L76.8251 4.13011C76.799 1.78462 76.7598 1.04528 76.6291 1.05802C76.5507 1.05802 76.002 1.17275 75.4272 1.30022Z" fill="#F4F4F4"/>
<path d="M216.068 1.31297C215.454 1.45319 214.16 1.74637 213.194 1.95033C210.555 2.5367 210.855 2.16703 210.816 4.89495L210.777 7.2277L208.49 7.30418V12.7728H210.163L210.215 18.407C210.28 24.7042 210.293 24.7297 211.195 25.775C212.018 26.7183 214.147 27.4321 216.107 27.4321C217.008 27.4321 219.778 27.1262 220.275 26.9732C220.484 26.9095 220.51 26.6928 220.51 24.4492V22.0018L219.543 22.0145C218.681 22.0145 218.524 21.9763 218.223 21.6958C217.531 21.084 217.505 20.88 217.505 16.6607V12.7728H220.51V7.30418L217.57 7.2277L217.505 4.1811C217.466 2.30725 217.374 1.10901 217.309 1.09626C217.244 1.08352 216.682 1.17275 216.068 1.31297Z" fill="#F4F4F4"/>
<path d="M58.1819 6.81978C56.4835 7.16396 54.6936 8.26022 53.9228 9.42022C53.6746 9.78989 53.4394 10.0831 53.3872 10.0958C53.348 10.0958 53.2565 9.45847 53.2173 8.69363L53.1128 7.29143H45.0519V12.76L46.6327 12.8365L46.6197 17.0686C46.6197 19.4013 46.6197 21.3644 46.6197 21.4409C46.6197 21.5174 46.2669 21.5684 45.8358 21.5684H45.0519V27.0497H55.373L55.3469 24.3345L55.3077 21.6321L54.0012 21.5046V18.4453C54.0012 14.7741 54.0535 14.3789 54.6675 13.6906C55.4775 12.76 56.6533 12.6708 57.4894 13.4611C57.8553 13.818 57.9598 14.022 58.0251 14.5829C58.0774 14.9525 58.1165 17.9099 58.1165 21.1604V27.0497L62.5977 27.0242L67.0658 26.9859V21.6321L65.4981 21.5046L65.4197 16.2145C65.3674 12.4923 65.3021 10.7587 65.1845 10.3508C64.675 8.6044 63.5514 7.48264 61.7877 6.96C60.9254 6.70506 59.1095 6.62857 58.1819 6.81978Z" fill="#F4F4F4"/>
<path d="M195.36 6.80704C194.028 6.94726 192.565 7.34242 191.585 7.82682C190.566 8.32396 189.351 9.47121 188.893 10.3508C188.475 11.1666 188.07 12.6835 188.136 13.2189L188.175 13.6013L191.519 13.6396L194.864 13.6651L194.942 13.2317C195.243 11.4215 196.85 10.6822 198.208 11.7402C198.509 11.9824 198.666 12.6453 198.705 13.7798L198.731 14.7358L197.96 14.6976C196.745 14.6466 193.897 14.9398 192.813 15.2075C190.592 15.7684 188.867 16.9793 188.149 18.4963C187.509 19.873 187.43 20.1917 187.43 21.4409C187.43 23.4677 187.966 24.9846 189.05 26.0044C190.017 26.9222 191.219 27.3684 193.022 27.5086C194.995 27.6488 196.811 26.9987 198.182 25.6602L198.927 24.9336L199.11 27.0497H207.576V21.5684H205.877V17.1323C205.877 13.2826 205.838 12.5815 205.629 11.7275C204.95 8.93583 202.363 7.26594 197.973 6.78154C197.333 6.71781 196.706 6.66682 196.602 6.66682C196.497 6.67956 195.935 6.7433 195.36 6.80704ZM198.692 19.6563C198.692 20.9055 198.653 21.135 198.365 21.6831C197.634 23.1108 195.752 23.3147 195.086 22.04C194.733 21.4026 194.707 20.4211 195.008 19.7583C195.465 18.7385 196.353 18.3051 198.012 18.2668L198.692 18.2541V19.6563Z" fill="#F4F4F4"/>
<path d="M32.4446 6.85802C29.2307 7.18945 26.3173 9.0378 25.1676 11.4853C24.5405 12.8237 24.4229 13.1807 24.1616 14.4044C23.7174 16.4822 23.8481 19.5798 24.4621 21.4536C24.6973 22.2057 25.4681 23.6462 26.0168 24.3728C28.1855 27.2409 34.0123 28.3881 38.3759 26.8075C40.2964 26.1064 42.1646 24.309 42.8048 22.5499C43.0138 21.9635 43.3405 20.7015 43.3535 20.4466C43.3535 20.3319 42.5827 20.2936 39.9175 20.2936H36.4815L36.2464 21.0075C35.8806 22.1292 35.0444 22.7156 33.7772 22.7156C33.1501 22.7156 32.6536 22.4734 32.1441 21.8998C31.6476 21.3517 31.4778 20.7908 31.3733 19.4906L31.2949 18.509H43.7455V17.2598C43.7455 14.9525 43.1837 12.5943 42.2561 10.9881C42.034 10.6057 41.4461 9.87912 40.9366 9.38198C39.3557 7.81407 37.0825 6.94725 34.3389 6.85802C33.5812 6.83253 32.732 6.83253 32.4446 6.85802ZM34.953 11.9059C35.3972 12.1099 36.0112 12.6963 36.1549 13.0659C36.2202 13.2189 36.3117 13.6396 36.364 14.0092L36.4554 14.6721L34.0907 14.7103C32.7842 14.7358 31.6738 14.7358 31.6215 14.7103C31.4647 14.6593 31.6476 13.3846 31.8828 12.964C32.1049 12.556 32.536 12.1354 32.9672 11.9059C33.3199 11.7147 34.5088 11.7147 34.953 11.9059Z" fill="#F4F4F4"/>
<path d="M129.449 6.90901C128.313 7.02374 126.836 7.48264 125.765 8.05627C124.851 8.54066 123.191 10.1341 122.682 11.0264C120.748 14.3789 120.657 19.72 122.473 23.1108C123.139 24.3473 124.615 25.775 125.883 26.3996C128.3 27.5851 131.997 27.8528 134.845 27.0497C137.301 26.3613 139.169 24.7934 140.006 22.7156C140.241 22.1037 140.685 20.5996 140.685 20.3701C140.685 20.3191 139.117 20.3064 137.197 20.3191L133.708 20.3574L133.617 20.778C133.382 21.9125 132.35 22.7156 131.109 22.7156C129.698 22.7156 128.901 21.7468 128.705 19.7965C128.639 19.1591 128.613 18.5982 128.652 18.5728C128.679 18.5345 131.461 18.509 134.832 18.509H140.946V16.9156C140.946 12.6708 139.209 9.39473 136.217 7.96704C135.616 7.6866 134.871 7.39341 134.545 7.29143C134.218 7.2022 133.787 7.08747 133.565 7.01099C133.003 6.84528 130.599 6.78154 129.449 6.90901ZM132.506 12.0462C133.147 12.3903 133.604 13.2189 133.656 14.0857L133.682 14.6976H131.278C129.802 14.6976 128.848 14.6466 128.822 14.5701C128.705 14.2259 129.084 12.9385 129.436 12.5178C130.09 11.7275 131.54 11.498 132.506 12.0462Z" fill="#F4F4F4"/>
<path d="M175.241 6.90901C173.425 7.12572 172.079 7.64836 170.511 8.78286C169.989 9.15253 169.558 9.50945 169.558 9.56044C169.558 9.62418 169.453 9.77715 169.336 9.91737C167.48 11.9059 166.566 15.8321 167.115 19.4013C167.676 22.9961 169.1 25.0994 171.883 26.4633C174.47 27.7253 178.494 27.8655 181.433 26.8075C183.863 25.9279 185.588 24.0031 186.202 21.5046C186.32 21.0075 186.45 20.5358 186.476 20.4466C186.516 20.3319 185.771 20.2936 183.04 20.2936H179.539L179.356 20.8928C179.265 21.2369 179.056 21.6576 178.912 21.8615C178.35 22.6009 176.822 22.9578 175.986 22.5372C175.594 22.3332 175.019 21.7723 174.81 21.3644C174.627 21.0202 174.339 18.9679 174.431 18.713C174.509 18.5345 175.175 18.509 180.663 18.509H186.803V17.0558C186.803 14.8251 186.346 12.8747 185.405 11.0901C184.896 10.1086 183.158 8.46418 182.1 7.96704C179.97 6.94726 177.762 6.61583 175.241 6.90901ZM178.167 11.9442C178.951 12.3393 179.487 13.2826 179.487 14.2642V14.6848H177.201C175.946 14.6848 174.875 14.6976 174.823 14.7103C174.653 14.7741 174.627 13.971 174.784 13.4229C174.966 12.76 175.594 12.0462 176.142 11.8932C176.782 11.7147 177.762 11.7402 178.167 11.9442Z" fill="#F4F4F4"/>
<path d="M115.941 7.2277C114.569 7.59737 113.419 8.68088 112.975 10.0321C112.805 10.5292 112.805 10.5165 112.661 8.94858L112.531 7.35517L108.585 7.31693L104.627 7.29143V12.7728H106.325L106.299 17.1323L106.26 21.5046L104.627 21.5811V27.0497L110.218 27.0242L115.797 26.9859L115.836 24.2835L115.862 21.5811L113.445 21.5046L113.484 19.1464C113.511 17.8462 113.589 16.4695 113.667 16.087C113.85 15.1182 114.451 14.4299 115.575 13.8945C116.411 13.4866 116.502 13.4739 118.044 13.4739H119.651V7.29143L119.311 7.16396C118.841 6.9855 116.698 7.02374 115.941 7.2277Z" fill="#F4F4F4"/>
<path d="M81.2017 7.38066C81.0842 7.48264 81.0842 12.2884 81.1887 12.5688C81.254 12.7218 81.45 12.7728 82.0248 12.7728H82.7826L82.8479 17.8334C82.9001 22.4862 82.9393 22.9833 83.1745 23.7736C83.6579 25.3161 84.494 26.2721 86.0356 27.0242C87.6818 27.8273 90.5952 27.6743 92.581 26.68C92.8946 26.527 93.4825 26.0809 93.8875 25.6985C94.2925 25.3161 94.6322 25.0101 94.6583 25.0101C94.6844 25.0101 94.6975 25.469 94.6975 26.0299V27.0497H103.059V21.5684H101.36V7.29143L96.9577 7.31692L92.5418 7.35517L92.5026 9.77715C92.4896 11.1029 92.5026 12.3266 92.5418 12.4796C92.5941 12.7218 92.7117 12.76 93.2996 12.7982L93.9789 12.8365V16.342C93.9789 19.6435 93.9659 19.873 93.7046 20.3574C93.1689 21.3517 92.0976 21.7213 91.2092 21.1859C90.2947 20.6378 90.3339 20.9437 90.2555 13.7925L90.1902 7.35517L85.7352 7.31692C83.2921 7.30418 81.254 7.32967 81.2017 7.38066Z" fill="#F4F4F4"/>
<path d="M7.86 86.7389C6.86 86.7389 5.94 86.5589 5.1 86.1989C4.27333 85.8256 3.55333 85.3056 2.94 84.6389C2.32667 83.9589 1.84667 83.1656 1.5 82.2589C1.16667 81.3523 1 80.3589 1 79.2789C1 77.8523 1.29333 76.5856 1.88 75.4789C2.46667 74.3723 3.27333 73.5056 4.3 72.8789C5.34 72.2523 6.52 71.9389 7.84 71.9389C9.18667 71.9389 10.3733 72.2523 11.4 72.8789C12.44 73.5056 13.2533 74.3723 13.84 75.4789C14.4267 76.5856 14.72 77.8589 14.72 79.2989C14.72 80.3789 14.5467 81.3723 14.2 82.2789C13.8667 83.1856 13.3933 83.9723 12.78 84.6389C12.1667 85.3056 11.44 85.8256 10.6 86.1989C9.76 86.5589 8.84667 86.7389 7.86 86.7389ZM7.84 85.2589C8.86667 85.2589 9.76667 85.0056 10.54 84.4989C11.3267 83.9789 11.94 83.2656 12.38 82.3589C12.82 81.4523 13.04 80.4189 13.04 79.2589C13.04 78.1123 12.82 77.0989 12.38 76.2189C11.9533 75.3389 11.3467 74.6523 10.56 74.1589C9.78667 73.6656 8.88 73.4189 7.84 73.4189C6.8 73.4189 5.89333 73.6656 5.12 74.1589C4.34667 74.6523 3.74667 75.3389 3.32 76.2189C2.89333 77.0856 2.68 78.0989 2.68 79.2589C2.68 80.4323 2.89333 81.4723 3.32 82.3789C3.76 83.2723 4.36667 83.9789 5.14 84.4989C5.91333 85.0056 6.81333 85.2589 7.84 85.2589ZM22.3627 86.7189C21.4027 86.7189 20.596 86.4856 19.9427 86.0189C19.2893 85.5523 18.8427 84.8923 18.6027 84.0389L18.9227 83.9989V90.6389H17.3227V76.3389H18.8227V78.7189L18.6027 78.6589C18.856 77.8723 19.336 77.2589 20.0427 76.8189C20.7493 76.3656 21.5693 76.1389 22.5027 76.1389C23.4093 76.1389 24.196 76.3589 24.8627 76.7989C25.5427 77.2389 26.0693 77.8523 26.4427 78.6389C26.816 79.4256 27.0027 80.3456 27.0027 81.3989C27.0027 82.4656 26.8093 83.3989 26.4227 84.1989C26.036 84.9989 25.496 85.6189 24.8027 86.0589C24.1093 86.4989 23.296 86.7189 22.3627 86.7189ZM22.1227 85.3189C23.136 85.3189 23.9293 84.9723 24.5027 84.2789C25.076 83.5723 25.3627 82.6123 25.3627 81.3989C25.3627 80.1989 25.076 79.2589 24.5027 78.5789C23.9293 77.8856 23.136 77.5389 22.1227 77.5389C21.1093 77.5389 20.3093 77.8923 19.7227 78.5989C19.136 79.2923 18.8427 80.2456 18.8427 81.4589C18.8427 82.6456 19.136 83.5856 19.7227 84.2789C20.3093 84.9723 21.1093 85.3189 22.1227 85.3189ZM33.6316 86.7389C32.6582 86.7389 31.7982 86.5123 31.0516 86.0589C30.3049 85.5923 29.7182 84.9589 29.2916 84.1589C28.8649 83.3589 28.6516 82.4389 28.6516 81.3989C28.6516 80.3589 28.8582 79.4456 29.2716 78.6589C29.6982 77.8589 30.2916 77.2389 31.0516 76.7989C31.8116 76.3589 32.6849 76.1389 33.6716 76.1389C34.6182 76.1389 35.4382 76.3456 36.1316 76.7589C36.8382 77.1723 37.3782 77.7523 37.7516 78.4989C38.1382 79.2456 38.3316 80.1256 38.3316 81.1389C38.3316 81.2723 38.3249 81.3989 38.3116 81.5189C38.3116 81.6389 38.2982 81.7723 38.2716 81.9189H29.8516V80.5789H37.2916L36.7716 81.3189C36.7716 80.0923 36.4982 79.1523 35.9516 78.4989C35.4182 77.8323 34.6582 77.4989 33.6716 77.4989C32.6582 77.4989 31.8382 77.8523 31.2116 78.5589C30.5982 79.2523 30.2916 80.1923 30.2916 81.3789C30.2916 82.5923 30.5982 83.5656 31.2116 84.2989C31.8382 85.0189 32.6716 85.3789 33.7116 85.3789C34.3649 85.3789 34.9382 85.2389 35.4316 84.9589C35.9249 84.6656 36.2849 84.2523 36.5116 83.7189H38.0316C37.6982 84.6523 37.1382 85.3923 36.3516 85.9389C35.5782 86.4723 34.6716 86.7389 33.6316 86.7389ZM40.7406 86.5389V76.3389H42.2406V78.7389H42.3406V86.5389H40.7406ZM48.0406 86.5389V79.8589C48.0406 79.0856 47.8473 78.5056 47.4606 78.1189C47.074 77.7323 46.5006 77.5389 45.7406 77.5389C45.074 77.5389 44.4806 77.6856 43.9606 77.9789C43.454 78.2723 43.054 78.6789 42.7606 79.1989C42.4806 79.7189 42.3406 80.3256 42.3406 81.0189L42.0806 78.5989C42.4273 77.8389 42.954 77.2389 43.6606 76.7989C44.3806 76.3589 45.194 76.1389 46.1006 76.1389C47.1673 76.1389 48.0206 76.4456 48.6606 77.0589C49.314 77.6589 49.6406 78.4523 49.6406 79.4389V86.5389H48.0406ZM52.8333 86.5389V72.1389H54.4733V86.5389H52.8333ZM57.7914 86.5389V76.3389H59.2914V78.7389H59.3914V86.5389H57.7914ZM65.0914 86.5389V79.8589C65.0914 79.0856 64.8981 78.5056 64.5114 78.1189C64.1247 77.7323 63.5514 77.5389 62.7914 77.5389C62.1247 77.5389 61.5314 77.6856 61.0114 77.9789C60.5047 78.2723 60.1047 78.6789 59.8114 79.1989C59.5314 79.7189 59.3914 80.3256 59.3914 81.0189L59.1314 78.5989C59.4781 77.8389 60.0047 77.2389 60.7114 76.7989C61.4314 76.3589 62.2447 76.1389 63.1514 76.1389C64.2181 76.1389 65.0714 76.4456 65.7114 77.0589C66.3647 77.6589 66.6914 78.4523 66.6914 79.4389V86.5389H65.0914ZM70.3306 86.5389V74.8989C70.3306 73.9656 70.5973 73.2389 71.1306 72.7189C71.6773 72.1989 72.504 71.9389 73.6106 71.9389C73.8773 71.9389 74.084 71.9523 74.2306 71.9789C74.3906 72.0056 74.524 72.0389 74.6306 72.0789V73.3389C74.5373 73.3123 74.404 73.2856 74.2306 73.2589C74.0706 73.2323 73.8973 73.2189 73.7106 73.2189C73.0973 73.2189 72.644 73.3723 72.3506 73.6789C72.0706 73.9856 71.9306 74.4189 71.9306 74.9789V86.5389H70.3306ZM68.2306 77.6989V76.3389H74.4106V77.6989H68.2306ZM80.3503 86.7389C79.377 86.7389 78.517 86.5123 77.7703 86.0589C77.0236 85.5923 76.437 84.9589 76.0103 84.1589C75.5836 83.3589 75.3703 82.4389 75.3703 81.3989C75.3703 80.3589 75.577 79.4456 75.9903 78.6589C76.417 77.8589 77.0103 77.2389 77.7703 76.7989C78.5303 76.3589 79.4036 76.1389 80.3903 76.1389C81.337 76.1389 82.157 76.3456 82.8503 76.7589C83.557 77.1723 84.097 77.7523 84.4703 78.4989C84.857 79.2456 85.0503 80.1256 85.0503 81.1389C85.0503 81.2723 85.0436 81.3989 85.0303 81.5189C85.0303 81.6389 85.017 81.7723 84.9903 81.9189H76.5703V80.5789H84.0103L83.4903 81.3189C83.4903 80.0923 83.217 79.1523 82.6703 78.4989C82.137 77.8323 81.377 77.4989 80.3903 77.4989C79.377 77.4989 78.557 77.8523 77.9303 78.5589C77.317 79.2523 77.0103 80.1923 77.0103 81.3789C77.0103 82.5923 77.317 83.5656 77.9303 84.2989C78.557 85.0189 79.3903 85.3789 80.4303 85.3789C81.0836 85.3789 81.657 85.2389 82.1503 84.9589C82.6436 84.6656 83.0036 84.2523 83.2303 83.7189H84.7503C84.417 84.6523 83.857 85.3923 83.0703 85.9389C82.297 86.4723 81.3903 86.7389 80.3503 86.7389ZM87.4594 86.5389V76.3389H88.9594V78.9389H89.0594V86.5389H87.4594ZM89.0594 81.2189L88.7994 78.7989C89.0394 77.9323 89.466 77.2723 90.0794 76.8189C90.6927 76.3656 91.3994 76.1389 92.1994 76.1389C92.5327 76.1389 92.7594 76.1656 92.8794 76.2189V77.7589C92.8127 77.7323 92.7194 77.7189 92.5994 77.7189C92.4794 77.7056 92.3327 77.6989 92.1594 77.6989C91.146 77.6989 90.3727 78.0056 89.8394 78.6189C89.3194 79.2189 89.0594 80.0856 89.0594 81.2189ZM99.0833 86.5389V72.1389H100.723V86.5389H99.0833ZM99.9233 80.3589V78.9189H107.683V80.3589H99.9233ZM99.9233 73.5789V72.1389H108.243V73.5789H99.9233ZM114.491 86.7389C113.518 86.7389 112.658 86.5123 111.911 86.0589C111.164 85.5923 110.578 84.9589 110.151 84.1589C109.724 83.3589 109.511 82.4389 109.511 81.3989C109.511 80.3589 109.718 79.4456 110.131 78.6589C110.558 77.8589 111.151 77.2389 111.911 76.7989C112.671 76.3589 113.544 76.1389 114.531 76.1389C115.478 76.1389 116.298 76.3456 116.991 76.7589C117.698 77.1723 118.238 77.7523 118.611 78.4989C118.998 79.2456 119.191 80.1256 119.191 81.1389C119.191 81.2723 119.184 81.3989 119.171 81.5189C119.171 81.6389 119.158 81.7723 119.131 81.9189H110.711V80.5789H118.151L117.631 81.3189C117.631 80.0923 117.358 79.1523 116.811 78.4989C116.278 77.8323 115.518 77.4989 114.531 77.4989C113.518 77.4989 112.698 77.8523 112.071 78.5589C111.458 79.2523 111.151 80.1923 111.151 81.3789C111.151 82.5923 111.458 83.5656 112.071 84.2989C112.698 85.0189 113.531 85.3789 114.571 85.3789C115.224 85.3789 115.798 85.2389 116.291 84.9589C116.784 84.6656 117.144 84.2523 117.371 83.7189H118.891C118.558 84.6523 117.998 85.3923 117.211 85.9389C116.438 86.4723 115.531 86.7389 114.491 86.7389ZM127.801 86.5389C127.748 86.3123 127.708 86.0523 127.681 85.7589C127.668 85.4656 127.661 85.0923 127.661 84.6389H127.561V79.7589C127.561 78.9856 127.381 78.4189 127.021 78.0589C126.675 77.6856 126.108 77.4989 125.321 77.4989C124.548 77.4989 123.928 77.6589 123.461 77.9789C123.008 78.2856 122.755 78.7256 122.701 79.2989H121.161C121.228 78.3123 121.641 77.5389 122.401 76.9789C123.161 76.4189 124.155 76.1389 125.381 76.1389C126.648 76.1389 127.588 76.4389 128.201 77.0389C128.815 77.6389 129.121 78.5389 129.121 79.7389V84.6389C129.121 84.9323 129.141 85.2389 129.181 85.5589C129.221 85.8656 129.275 86.1923 129.341 86.5389H127.801ZM124.301 86.7389C123.248 86.7389 122.408 86.4856 121.781 85.9789C121.168 85.4589 120.861 84.7523 120.861 83.8589C120.861 82.9656 121.168 82.2723 121.781 81.7789C122.395 81.2856 123.288 80.9389 124.461 80.7389L128.021 80.1389V81.4589L124.701 81.9789C123.955 82.0989 123.388 82.2989 123.001 82.5789C122.615 82.8589 122.421 83.2656 122.421 83.7989C122.421 84.3189 122.595 84.7123 122.941 84.9789C123.301 85.2456 123.828 85.3789 124.521 85.3789C125.415 85.3789 126.141 85.1789 126.701 84.7789C127.275 84.3656 127.561 83.8323 127.561 83.1789L127.821 84.5989C127.608 85.2789 127.188 85.8056 126.561 86.1789C125.948 86.5523 125.195 86.7389 124.301 86.7389ZM136.012 86.7189C134.879 86.7189 134.052 86.4656 133.532 85.9589C133.025 85.4389 132.772 84.6923 132.772 83.7189V73.9589L134.372 73.3589V83.6989C134.372 84.2723 134.519 84.6923 134.812 84.9589C135.105 85.2256 135.585 85.3589 136.252 85.3589C136.519 85.3589 136.745 85.3456 136.932 85.3189C137.132 85.2789 137.292 85.2323 137.412 85.1789V86.5389C137.279 86.5923 137.085 86.6323 136.832 86.6589C136.592 86.6989 136.319 86.7189 136.012 86.7189ZM130.672 77.6989V76.3389H137.412V77.6989H130.672ZM142.693 86.7389C142.027 86.7389 141.433 86.6056 140.913 86.3389C140.393 86.0589 139.987 85.6723 139.693 85.1789C139.4 84.6723 139.253 84.0923 139.253 83.4389V76.3389H140.853V83.0189C140.853 83.7923 141.04 84.3723 141.413 84.7589C141.8 85.1456 142.347 85.3389 143.053 85.3389C143.693 85.3389 144.26 85.1923 144.753 84.8989C145.247 84.6056 145.633 84.1989 145.913 83.6789C146.207 83.1456 146.353 82.5389 146.353 81.8589L146.613 84.2789C146.28 85.0389 145.76 85.6389 145.053 86.0789C144.347 86.5189 143.56 86.7389 142.693 86.7389ZM146.453 86.5389V84.1389H146.353V76.3389H147.953V86.5389H146.453ZM151.151 86.5389V76.3389H152.651V78.9389H152.751V86.5389H151.151ZM152.751 81.2189L152.491 78.7989C152.731 77.9323 153.157 77.2723 153.771 76.8189C154.384 76.3656 155.091 76.1389 155.891 76.1389C156.224 76.1389 156.451 76.1656 156.571 76.2189V77.7589C156.504 77.7323 156.411 77.7189 156.291 77.7189C156.171 77.7056 156.024 77.6989 155.851 77.6989C154.837 77.6989 154.064 78.0056 153.531 78.6189C153.011 79.2189 152.751 80.0856 152.751 81.2189ZM162.479 86.7389C161.506 86.7389 160.646 86.5123 159.899 86.0589C159.153 85.5923 158.566 84.9589 158.139 84.1589C157.713 83.3589 157.499 82.4389 157.499 81.3989C157.499 80.3589 157.706 79.4456 158.119 78.6589C158.546 77.8589 159.139 77.2389 159.899 76.7989C160.659 76.3589 161.533 76.1389 162.519 76.1389C163.466 76.1389 164.286 76.3456 164.979 76.7589C165.686 77.1723 166.226 77.7523 166.599 78.4989C166.986 79.2456 167.179 80.1256 167.179 81.1389C167.179 81.2723 167.173 81.3989 167.159 81.5189C167.159 81.6389 167.146 81.7723 167.119 81.9189H158.699V80.5789H166.139L165.619 81.3189C165.619 80.0923 165.346 79.1523 164.799 78.4989C164.266 77.8323 163.506 77.4989 162.519 77.4989C161.506 77.4989 160.686 77.8523 160.059 78.5589C159.446 79.2523 159.139 80.1923 159.139 81.3789C159.139 82.5923 159.446 83.5656 160.059 84.2989C160.686 85.0189 161.519 85.3789 162.559 85.3789C163.213 85.3789 163.786 85.2389 164.279 84.9589C164.773 84.6656 165.133 84.2523 165.359 83.7189H166.879C166.546 84.6523 165.986 85.3923 165.199 85.9389C164.426 86.4723 163.519 86.7389 162.479 86.7389ZM177.008 86.5389V84.1589L177.208 84.2189C176.955 84.9923 176.488 85.6056 175.808 86.0589C175.142 86.5123 174.342 86.7389 173.408 86.7389C172.488 86.7389 171.682 86.5189 170.988 86.0789C170.308 85.6389 169.775 85.0256 169.388 84.2389C169.015 83.4523 168.828 82.5323 168.828 81.4789C168.828 80.4123 169.022 79.4789 169.408 78.6789C169.795 77.8789 170.335 77.2589 171.028 76.8189C171.722 76.3789 172.535 76.1589 173.468 76.1589C174.428 76.1589 175.235 76.3923 175.888 76.8589C176.542 77.3256 176.988 77.9856 177.228 78.8389L176.908 78.8789V72.1389H178.508V86.5389H177.008ZM173.708 85.3389C174.735 85.3389 175.535 84.9923 176.108 84.2989C176.695 83.5923 176.988 82.6323 176.988 81.4189C176.988 80.2323 176.695 79.2923 176.108 78.5989C175.522 77.9056 174.722 77.5589 173.708 77.5589C172.695 77.5589 171.902 77.9056 171.328 78.5989C170.755 79.2923 170.468 80.2523 170.468 81.4789C170.468 82.6789 170.755 83.6256 171.328 84.3189C171.902 84.9989 172.695 85.3389 173.708 85.3389ZM185.721 86.5389V76.3389H187.321V86.5389H185.721ZM185.601 74.0189V72.1389H187.441V74.0189H185.601ZM190.526 86.5389V76.3389H192.026V78.7389H192.126V86.5389H190.526ZM197.826 86.5389V79.8589C197.826 79.0856 197.632 78.5056 197.246 78.1189C196.859 77.7323 196.286 77.5389 195.526 77.5389C194.859 77.5389 194.266 77.6856 193.746 77.9789C193.239 78.2723 192.839 78.6789 192.546 79.1989C192.266 79.7189 192.126 80.3256 192.126 81.0189L191.866 78.5989C192.212 77.8389 192.739 77.2389 193.446 76.7989C194.166 76.3589 194.979 76.1389 195.886 76.1389C196.952 76.1389 197.806 76.4456 198.446 77.0589C199.099 77.6589 199.426 78.4523 199.426 79.4389V86.5389H197.826ZM211.182 86.5389L205.622 72.1389H207.382L212.542 85.8189H211.942L217.082 72.1389H218.742L213.182 86.5389H211.182ZM223.807 86.7389C222.834 86.7389 221.974 86.5123 221.227 86.0589C220.481 85.5923 219.894 84.9589 219.467 84.1589C219.041 83.3589 218.827 82.4389 218.827 81.3989C218.827 80.3589 219.034 79.4456 219.447 78.6589C219.874 77.8589 220.467 77.2389 221.227 76.7989C221.987 76.3589 222.861 76.1389 223.847 76.1389C224.794 76.1389 225.614 76.3456 226.307 76.7589C227.014 77.1723 227.554 77.7523 227.927 78.4989C228.314 79.2456 228.507 80.1256 228.507 81.1389C228.507 81.2723 228.501 81.3989 228.487 81.5189C228.487 81.6389 228.474 81.7723 228.447 81.9189H220.027V80.5789H227.467L226.947 81.3189C226.947 80.0923 226.674 79.1523 226.127 78.4989C225.594 77.8323 224.834 77.4989 223.847 77.4989C222.834 77.4989 222.014 77.8523 221.387 78.5589C220.774 79.2523 220.467 80.1923 220.467 81.3789C220.467 82.5923 220.774 83.5656 221.387 84.2989C222.014 85.0189 222.847 85.3789 223.887 85.3789C224.541 85.3789 225.114 85.2389 225.607 84.9589C226.101 84.6656 226.461 84.2523 226.687 83.7189H228.207C227.874 84.6523 227.314 85.3923 226.527 85.9389C225.754 86.4723 224.847 86.7389 223.807 86.7389ZM230.916 86.5389V76.3389H232.416V78.7389H232.516V86.5389H230.916ZM238.216 86.5389V79.8589C238.216 79.0856 238.023 78.5056 237.636 78.1189C237.25 77.7323 236.676 77.5389 235.916 77.5389C235.25 77.5389 234.656 77.6856 234.136 77.9789C233.63 78.2723 233.23 78.6789 232.936 79.1989C232.656 79.7189 232.516 80.3256 232.516 81.0189L232.256 78.5989C232.603 77.8389 233.13 77.2389 233.836 76.7989C234.556 76.3589 235.37 76.1389 236.276 76.1389C237.343 76.1389 238.196 76.4456 238.836 77.0589C239.49 77.6589 239.816 78.4523 239.816 79.4389V86.5389H238.216ZM246.696 86.7189C245.562 86.7189 244.736 86.4656 244.216 85.9589C243.709 85.4389 243.456 84.6923 243.456 83.7189V73.9589L245.056 73.3589V83.6989C245.056 84.2723 245.202 84.6923 245.496 84.9589C245.789 85.2256 246.269 85.3589 246.936 85.3589C247.202 85.3589 247.429 85.3456 247.616 85.3189C247.816 85.2789 247.976 85.2323 248.096 85.1789V86.5389C247.962 86.5923 247.769 86.6323 247.516 86.6589C247.276 86.6989 247.002 86.7189 246.696 86.7189ZM241.356 77.6989V76.3389H248.096V77.6989H241.356ZM253.377 86.7389C252.71 86.7389 252.117 86.6056 251.597 86.3389C251.077 86.0589 250.67 85.6723 250.377 85.1789C250.084 84.6723 249.937 84.0923 249.937 83.4389V76.3389H251.537V83.0189C251.537 83.7923 251.724 84.3723 252.097 84.7589C252.484 85.1456 253.03 85.3389 253.737 85.3389C254.377 85.3389 254.944 85.1923 255.437 84.8989C255.93 84.6056 256.317 84.1989 256.597 83.6789C256.89 83.1456 257.037 82.5389 257.037 81.8589L257.297 84.2789C256.964 85.0389 256.444 85.6389 255.737 86.0789C255.03 86.5189 254.244 86.7389 253.377 86.7389ZM257.137 86.5389V84.1389H257.037V76.3389H258.637V86.5389H257.137ZM261.834 86.5389V76.3389H263.334V78.9389H263.434V86.5389H261.834ZM263.434 81.2189L263.174 78.7989C263.414 77.9323 263.841 77.2723 264.454 76.8189C265.068 76.3656 265.774 76.1389 266.574 76.1389C266.908 76.1389 267.134 76.1656 267.254 76.2189V77.7589C267.188 77.7323 267.094 77.7189 266.974 77.7189C266.854 77.7056 266.708 77.6989 266.534 77.6989C265.521 77.6989 264.748 78.0056 264.214 78.6189C263.694 79.2189 263.434 80.0856 263.434 81.2189ZM273.163 86.7389C272.189 86.7389 271.329 86.5123 270.583 86.0589C269.836 85.5923 269.249 84.9589 268.823 84.1589C268.396 83.3589 268.183 82.4389 268.183 81.3989C268.183 80.3589 268.389 79.4456 268.803 78.6589C269.229 77.8589 269.823 77.2389 270.583 76.7989C271.343 76.3589 272.216 76.1389 273.203 76.1389C274.149 76.1389 274.969 76.3456 275.663 76.7589C276.369 77.1723 276.909 77.7523 277.283 78.4989C277.669 79.2456 277.863 80.1256 277.863 81.1389C277.863 81.2723 277.856 81.3989 277.843 81.5189C277.843 81.6389 277.829 81.7723 277.803 81.9189H269.383V80.5789H276.823L276.303 81.3189C276.303 80.0923 276.029 79.1523 275.483 78.4989C274.949 77.8323 274.189 77.4989 273.203 77.4989C272.189 77.4989 271.369 77.8523 270.743 78.5589C270.129 79.2523 269.823 80.1923 269.823 81.3789C269.823 82.5923 270.129 83.5656 270.743 84.2989C271.369 85.0189 272.203 85.3789 273.243 85.3789C273.896 85.3789 274.469 85.2389 274.963 84.9589C275.456 84.6656 275.816 84.2523 276.043 83.7189H277.563C277.229 84.6523 276.669 85.3923 275.883 85.9389C275.109 86.4723 274.203 86.7389 273.163 86.7389ZM281.355 86.5389V85.1789H285.955C286.835 85.1789 287.535 84.9389 288.055 84.4589C288.575 83.9789 288.835 83.3323 288.835 82.5189C288.835 81.6523 288.561 80.9589 288.015 80.4389C287.468 79.9189 286.735 79.6589 285.815 79.6589H281.355V78.3389H285.595C286.501 78.3389 287.208 78.1189 287.715 77.6789C288.221 77.2389 288.475 76.6189 288.475 75.8189C288.475 75.0723 288.235 74.4989 287.755 74.0989C287.288 73.6989 286.601 73.4989 285.695 73.4989H281.355V72.1389H285.835C287.155 72.1389 288.195 72.4523 288.955 73.0789C289.728 73.7056 290.115 74.5589 290.115 75.6389C290.115 76.3189 289.961 76.9256 289.655 77.4589C289.348 77.9923 288.928 78.4123 288.395 78.7189C287.861 79.0123 287.248 79.1589 286.555 79.1589L286.655 78.7389C287.388 78.7389 288.041 78.9123 288.615 79.2589C289.201 79.6056 289.661 80.0789 289.995 80.6789C290.341 81.2656 290.515 81.9389 290.515 82.6989C290.515 83.4589 290.328 84.1323 289.955 84.7189C289.595 85.2923 289.081 85.7389 288.415 86.0589C287.748 86.3789 286.975 86.5389 286.095 86.5389H281.355ZM280.275 86.5389V72.1389H281.915V86.5389H280.275ZM297.05 86.7389C296.076 86.7389 295.216 86.5123 294.47 86.0589C293.723 85.5923 293.136 84.9589 292.71 84.1589C292.283 83.3589 292.07 82.4389 292.07 81.3989C292.07 80.3589 292.276 79.4456 292.69 78.6589C293.116 77.8589 293.71 77.2389 294.47 76.7989C295.23 76.3589 296.103 76.1389 297.09 76.1389C298.036 76.1389 298.856 76.3456 299.55 76.7589C300.256 77.1723 300.796 77.7523 301.17 78.4989C301.556 79.2456 301.75 80.1256 301.75 81.1389C301.75 81.2723 301.743 81.3989 301.73 81.5189C301.73 81.6389 301.716 81.7723 301.69 81.9189H293.27V80.5789H300.71L300.19 81.3189C300.19 80.0923 299.916 79.1523 299.37 78.4989C298.836 77.8323 298.076 77.4989 297.09 77.4989C296.076 77.4989 295.256 77.8523 294.63 78.5589C294.016 79.2523 293.71 80.1923 293.71 81.3789C293.71 82.5923 294.016 83.5656 294.63 84.2989C295.256 85.0189 296.09 85.3789 297.13 85.3789C297.783 85.3789 298.356 85.2389 298.85 84.9589C299.343 84.6656 299.703 84.2523 299.93 83.7189H301.45C301.116 84.6523 300.556 85.3923 299.77 85.9389C298.996 86.4723 298.09 86.7389 297.05 86.7389ZM310.36 86.5389C310.307 86.3123 310.267 86.0523 310.24 85.7589C310.227 85.4656 310.22 85.0923 310.22 84.6389H310.12V79.7589C310.12 78.9856 309.94 78.4189 309.58 78.0589C309.233 77.6856 308.667 77.4989 307.88 77.4989C307.107 77.4989 306.487 77.6589 306.02 77.9789C305.567 78.2856 305.313 78.7256 305.26 79.2989H303.72C303.787 78.3123 304.2 77.5389 304.96 76.9789C305.72 76.4189 306.713 76.1389 307.94 76.1389C309.207 76.1389 310.147 76.4389 310.76 77.0389C311.373 77.6389 311.68 78.5389 311.68 79.7389V84.6389C311.68 84.9323 311.7 85.2389 311.74 85.5589C311.78 85.8656 311.833 86.1923 311.9 86.5389H310.36ZM306.86 86.7389C305.807 86.7389 304.967 86.4856 304.34 85.9789C303.727 85.4589 303.42 84.7523 303.42 83.8589C303.42 82.9656 303.727 82.2723 304.34 81.7789C304.953 81.2856 305.847 80.9389 307.02 80.7389L310.58 80.1389V81.4589L307.26 81.9789C306.513 82.0989 305.947 82.2989 305.56 82.5789C305.173 82.8589 304.98 83.2656 304.98 83.7989C304.98 84.3189 305.153 84.7123 305.5 84.9789C305.86 85.2456 306.387 85.3789 307.08 85.3789C307.973 85.3789 308.7 85.1789 309.26 84.7789C309.833 84.3656 310.12 83.8323 310.12 83.1789L310.38 84.5989C310.167 85.2789 309.747 85.8056 309.12 86.1789C308.507 86.5523 307.753 86.7389 306.86 86.7389ZM318.571 86.7189C317.437 86.7189 316.611 86.4656 316.091 85.9589C315.584 85.4389 315.331 84.6923 315.331 83.7189V73.9589L316.931 73.3589V83.6989C316.931 84.2723 317.077 84.6923 317.371 84.9589C317.664 85.2256 318.144 85.3589 318.811 85.3589C319.077 85.3589 319.304 85.3456 319.491 85.3189C319.691 85.2789 319.851 85.2323 319.971 85.1789V86.5389C319.837 86.5923 319.644 86.6323 319.391 86.6589C319.151 86.6989 318.877 86.7189 318.571 86.7189ZM313.231 77.6989V76.3389H319.971V77.6989H313.231ZM321.95 86.5389V84.4789H324.01V86.5389H321.95ZM321.95 78.9389V76.8789H324.01V78.9389H321.95ZM5.56 96.6189V93.9389H6.88V96.6189H5.56ZM6.88 110.139V112.719H5.56V110.139H6.88ZM6.6 110.719C4.92 110.719 3.58 110.306 2.58 109.479C1.59333 108.652 1.01333 107.472 0.84 105.939H2.44C2.58667 107.046 3.00667 107.879 3.7 108.439C4.39333 108.999 5.35333 109.279 6.58 109.279C7.62 109.279 8.4 109.086 8.92 108.699C9.45333 108.299 9.72 107.719 9.72 106.959C9.72 106.306 9.54 105.786 9.18 105.399C8.82 105.012 8.26 104.692 7.5 104.439L5.08 103.599C3.85333 103.172 2.94667 102.659 2.36 102.059C1.77333 101.446 1.48 100.672 1.48 99.7389C1.48 98.9656 1.67333 98.2989 2.06 97.7389C2.44667 97.1656 2.99333 96.7189 3.7 96.3989C4.40667 96.0789 5.22667 95.9189 6.16 95.9189C7.6 95.9189 8.75333 96.2989 9.62 97.0589C10.4867 97.8056 10.9867 98.8723 11.12 100.259H9.52C9.34667 99.2589 8.98667 98.5256 8.44 98.0589C7.90667 97.5923 7.13333 97.3589 6.12 97.3589C5.16 97.3589 4.41333 97.5523 3.88 97.9389C3.34667 98.3256 3.08 98.8723 3.08 99.5789C3.08 100.179 3.26667 100.659 3.64 101.019C4.01333 101.379 4.59333 101.692 5.38 101.959L7.96 102.859C9.08 103.246 9.92 103.772 10.48 104.439C11.04 105.092 11.32 105.926 11.32 106.939C11.32 108.139 10.9067 109.072 10.08 109.739C9.26667 110.392 8.10667 110.719 6.6 110.719ZM18.4763 110.739C17.4629 110.739 16.5829 110.559 15.8363 110.199C15.1029 109.839 14.5363 109.346 14.1363 108.719C13.7363 108.092 13.5363 107.392 13.5363 106.619C13.5363 105.899 13.6963 105.246 14.0163 104.659C14.3363 104.072 14.7629 103.606 15.2962 103.259C15.8429 102.912 16.4429 102.739 17.0963 102.739L17.1363 103.159C16.5229 103.159 15.9696 103.012 15.4763 102.719C14.9829 102.412 14.5963 101.999 14.3163 101.479C14.0363 100.959 13.8963 100.386 13.8963 99.7589C13.8963 99.0123 14.0896 98.3523 14.4763 97.7789C14.8629 97.2056 15.4029 96.7589 16.0963 96.4389C16.7896 96.1056 17.5896 95.9389 18.4963 95.9389C19.4029 95.9389 20.1963 96.1056 20.8763 96.4389C21.5563 96.7589 22.0896 97.2056 22.4763 97.7789C22.8629 98.3523 23.0563 99.0056 23.0563 99.7389C23.0563 100.379 22.9163 100.959 22.6363 101.479C22.3563 101.986 21.9696 102.392 21.4763 102.699C20.9829 103.006 20.4229 103.159 19.7963 103.159L19.8563 102.739C20.5229 102.739 21.1229 102.912 21.6563 103.259C22.1896 103.606 22.6163 104.072 22.9362 104.659C23.2563 105.246 23.4163 105.899 23.4163 106.619C23.4163 107.392 23.2163 108.092 22.8163 108.719C22.4163 109.346 21.8429 109.839 21.0963 110.199C20.3629 110.559 19.4896 110.739 18.4763 110.739ZM18.4763 109.299C19.4496 109.299 20.2163 109.039 20.7763 108.519C21.3496 107.999 21.6363 107.312 21.6363 106.459C21.6363 105.606 21.3563 104.932 20.7963 104.439C20.2363 103.946 19.4629 103.699 18.4763 103.699C17.4896 103.699 16.7163 103.946 16.1563 104.439C15.5963 104.932 15.3163 105.606 15.3163 106.459C15.3163 107.312 15.5963 107.999 16.1563 108.519C16.7296 109.039 17.5029 109.299 18.4763 109.299ZM18.4763 102.299C19.3563 102.299 20.0429 102.079 20.5363 101.639C21.0429 101.199 21.2963 100.612 21.2963 99.8789C21.2963 99.1189 21.0363 98.5123 20.5163 98.0589C19.9963 97.6056 19.3163 97.3789 18.4763 97.3789C17.6229 97.3789 16.9363 97.6056 16.4163 98.0589C15.9096 98.5123 15.6563 99.1189 15.6563 99.8789C15.6563 100.612 15.9096 101.199 16.4163 101.639C16.9229 102.079 17.6096 102.299 18.4763 102.299ZM26.0169 110.539V96.1389H28.5369L33.7369 110.019H32.9769L38.1369 96.1389H40.6969V110.539H39.0769V96.9989H39.2969L34.2769 110.539H32.3169L27.2969 97.1189H27.5169V110.539H26.0169ZM52.1058 110.719C50.9724 110.719 50.1458 110.466 49.6258 109.959C49.1191 109.439 48.8658 108.692 48.8658 107.719V97.9589L50.4658 97.3589V107.699C50.4658 108.272 50.6124 108.692 50.9058 108.959C51.1991 109.226 51.6791 109.359 52.3458 109.359C52.6124 109.359 52.8391 109.346 53.0258 109.319C53.2258 109.279 53.3858 109.232 53.5058 109.179V110.539C53.3724 110.592 53.1791 110.632 52.9258 110.659C52.6858 110.699 52.4124 110.719 52.1058 110.719ZM46.7658 101.699V100.339H53.5058V101.699H46.7658ZM59.5705 110.739C58.5705 110.739 57.6905 110.506 56.9305 110.039C56.1705 109.572 55.5771 108.939 55.1505 108.139C54.7371 107.326 54.5305 106.412 54.5305 105.399C54.5305 104.372 54.7438 103.466 55.1705 102.679C55.5971 101.892 56.1838 101.272 56.9305 100.819C57.6905 100.366 58.5705 100.139 59.5705 100.139C60.5838 100.139 61.4638 100.366 62.2105 100.819C62.9705 101.272 63.5571 101.892 63.9705 102.679C64.3971 103.466 64.6105 104.372 64.6105 105.399C64.6105 106.412 64.3971 107.326 63.9705 108.139C63.5571 108.939 62.9705 109.572 62.2105 110.039C61.4638 110.506 60.5838 110.739 59.5705 110.739ZM59.5705 109.379C60.2638 109.379 60.8638 109.212 61.3705 108.879C61.8771 108.532 62.2705 108.059 62.5505 107.459C62.8305 106.859 62.9705 106.166 62.9705 105.379C62.9705 104.206 62.6571 103.266 62.0305 102.559C61.4171 101.852 60.5971 101.499 59.5705 101.499C58.5571 101.499 57.7371 101.852 57.1105 102.559C56.4838 103.266 56.1705 104.206 56.1705 105.379C56.1705 106.166 56.3105 106.859 56.5905 107.459C56.8705 108.059 57.2638 108.532 57.7705 108.879C58.2905 109.212 58.8905 109.379 59.5705 109.379ZM71.1341 110.539V96.1389H76.4541C77.4807 96.1389 78.3541 96.3056 79.0741 96.6389C79.7941 96.9723 80.3407 97.4389 80.7141 98.0389C81.1007 98.6256 81.2941 99.3256 81.2941 100.139C81.2941 100.952 81.1007 101.666 80.7141 102.279C80.3407 102.879 79.7941 103.352 79.0741 103.699C78.3541 104.032 77.4807 104.199 76.4541 104.199H72.3341V102.759H76.3941C77.4607 102.759 78.2674 102.526 78.8141 102.059C79.3741 101.592 79.6541 100.952 79.6541 100.139C79.6541 99.3389 79.3807 98.7123 78.8341 98.2589C78.2874 97.8056 77.4741 97.5789 76.3941 97.5789H72.7741V110.539H71.1341ZM79.5741 110.539L71.9141 103.399H74.1541L82.0541 110.539H79.5741ZM87.7136 110.739C86.7403 110.739 85.8803 110.512 85.1336 110.059C84.3869 109.592 83.8003 108.959 83.3736 108.159C82.9469 107.359 82.7336 106.439 82.7336 105.399C82.7336 104.359 82.9403 103.446 83.3536 102.659C83.7803 101.859 84.3736 101.239 85.1336 100.799C85.8936 100.359 86.7669 100.139 87.7536 100.139C88.7003 100.139 89.5203 100.346 90.2136 100.759C90.9203 101.172 91.4603 101.752 91.8336 102.499C92.2203 103.246 92.4136 104.126 92.4136 105.139C92.4136 105.272 92.4069 105.399 92.3936 105.519C92.3936 105.639 92.3803 105.772 92.3536 105.919H83.9336V104.579H91.3736L90.8536 105.319C90.8536 104.092 90.5803 103.152 90.0336 102.499C89.5003 101.832 88.7403 101.499 87.7536 101.499C86.7403 101.499 85.9203 101.852 85.2936 102.559C84.6803 103.252 84.3736 104.192 84.3736 105.379C84.3736 106.592 84.6803 107.566 85.2936 108.299C85.9203 109.019 86.7536 109.379 87.7936 109.379C88.4469 109.379 89.0203 109.239 89.5136 108.959C90.0069 108.666 90.3669 108.252 90.5936 107.719H92.1136C91.7803 108.652 91.2203 109.392 90.4336 109.939C89.6603 110.472 88.7536 110.739 87.7136 110.739ZM97.5683 110.539L93.3483 100.339H95.0683L98.5883 109.459H97.9483L101.448 100.339H103.088L98.8683 110.539H97.5683ZM109.043 110.739C108.043 110.739 107.163 110.506 106.403 110.039C105.643 109.572 105.05 108.939 104.623 108.139C104.21 107.326 104.003 106.412 104.003 105.399C104.003 104.372 104.216 103.466 104.643 102.679C105.07 101.892 105.656 101.272 106.403 100.819C107.163 100.366 108.043 100.139 109.043 100.139C110.056 100.139 110.936 100.366 111.683 100.819C112.443 101.272 113.03 101.892 113.443 102.679C113.87 103.466 114.083 104.372 114.083 105.399C114.083 106.412 113.87 107.326 113.443 108.139C113.03 108.939 112.443 109.572 111.683 110.039C110.936 110.506 110.056 110.739 109.043 110.739ZM109.043 109.379C109.736 109.379 110.336 109.212 110.843 108.879C111.35 108.532 111.743 108.059 112.023 107.459C112.303 106.859 112.443 106.166 112.443 105.379C112.443 104.206 112.13 103.266 111.503 102.559C110.89 101.852 110.07 101.499 109.043 101.499C108.03 101.499 107.21 101.852 106.583 102.559C105.956 103.266 105.643 104.206 105.643 105.379C105.643 106.166 105.783 106.859 106.063 107.459C106.343 108.059 106.736 108.532 107.243 108.879C107.763 109.212 108.363 109.379 109.043 109.379ZM116.483 110.539V96.1389H118.083V110.539H116.483ZM124.608 110.739C123.941 110.739 123.348 110.606 122.828 110.339C122.308 110.059 121.901 109.672 121.608 109.179C121.314 108.672 121.168 108.092 121.168 107.439V100.339H122.768V107.019C122.768 107.792 122.954 108.372 123.328 108.759C123.714 109.146 124.261 109.339 124.967 109.339C125.608 109.339 126.174 109.192 126.668 108.899C127.161 108.606 127.548 108.199 127.828 107.679C128.121 107.146 128.268 106.539 128.268 105.859L128.528 108.279C128.194 109.039 127.674 109.639 126.968 110.079C126.261 110.519 125.474 110.739 124.608 110.739ZM128.368 110.539V108.139H128.268V100.339H129.868V110.539H128.368ZM137.086 110.719C135.953 110.719 135.126 110.466 134.606 109.959C134.1 109.439 133.846 108.692 133.846 107.719V97.9589L135.446 97.3589V107.699C135.446 108.272 135.593 108.692 135.886 108.959C136.18 109.226 136.66 109.359 137.326 109.359C137.593 109.359 137.82 109.346 138.006 109.319C138.206 109.279 138.366 109.232 138.486 109.179V110.539C138.353 110.592 138.16 110.632 137.906 110.659C137.666 110.699 137.393 110.719 137.086 110.719ZM131.746 101.699V100.339H138.486V101.699H131.746ZM140.545 110.539V100.339H142.145V110.539H140.545ZM140.425 98.0189V96.1389H142.265V98.0189H140.425ZM149.551 110.739C148.551 110.739 147.671 110.506 146.911 110.039C146.151 109.572 145.558 108.939 145.131 108.139C144.718 107.326 144.511 106.412 144.511 105.399C144.511 104.372 144.724 103.466 145.151 102.679C145.578 101.892 146.164 101.272 146.911 100.819C147.671 100.366 148.551 100.139 149.551 100.139C150.564 100.139 151.444 100.366 152.191 100.819C152.951 101.272 153.538 101.892 153.951 102.679C154.378 103.466 154.591 104.372 154.591 105.399C154.591 106.412 154.378 107.326 153.951 108.139C153.538 108.939 152.951 109.572 152.191 110.039C151.444 110.506 150.564 110.739 149.551 110.739ZM149.551 109.379C150.244 109.379 150.844 109.212 151.351 108.879C151.858 108.532 152.251 108.059 152.531 107.459C152.811 106.859 152.951 106.166 152.951 105.379C152.951 104.206 152.638 103.266 152.011 102.559C151.398 101.852 150.578 101.499 149.551 101.499C148.538 101.499 147.718 101.852 147.091 102.559C146.464 103.266 146.151 104.206 146.151 105.379C146.151 106.166 146.291 106.859 146.571 107.459C146.851 108.059 147.244 108.532 147.751 108.879C148.271 109.212 148.871 109.379 149.551 109.379ZM156.991 110.539V100.339H158.491V102.739H158.591V110.539H156.991ZM164.291 110.539V103.859C164.291 103.086 164.097 102.506 163.711 102.119C163.324 101.732 162.751 101.539 161.991 101.539C161.324 101.539 160.731 101.686 160.211 101.979C159.704 102.272 159.304 102.679 159.011 103.199C158.731 103.719 158.591 104.326 158.591 105.019L158.331 102.599C158.677 101.839 159.204 101.239 159.911 100.799C160.631 100.359 161.444 100.139 162.351 100.139C163.417 100.139 164.271 100.446 164.911 101.059C165.564 101.659 165.891 102.452 165.891 103.439V110.539H164.291ZM168.963 110.539V100.339H170.563V110.539H168.963ZM168.843 98.0189V96.1389H170.683V98.0189H168.843ZM172.975 110.539V109.379L179.175 100.959L179.775 101.699H173.175V100.339H180.695V101.499L174.495 109.919L173.895 109.179H180.895V110.539H172.975ZM187.128 110.739C186.154 110.739 185.294 110.512 184.548 110.059C183.801 109.592 183.214 108.959 182.788 108.159C182.361 107.359 182.148 106.439 182.148 105.399C182.148 104.359 182.354 103.446 182.768 102.659C183.194 101.859 183.788 101.239 184.548 100.799C185.308 100.359 186.181 100.139 187.168 100.139C188.114 100.139 188.934 100.346 189.628 100.759C190.334 101.172 190.874 101.752 191.248 102.499C191.634 103.246 191.828 104.126 191.828 105.139C191.828 105.272 191.821 105.399 191.808 105.519C191.808 105.639 191.794 105.772 191.768 105.919H183.348V104.579H190.788L190.268 105.319C190.268 104.092 189.994 103.152 189.448 102.499C188.914 101.832 188.154 101.499 187.168 101.499C186.154 101.499 185.334 101.852 184.708 102.559C184.094 103.252 183.788 104.192 183.788 105.379C183.788 106.592 184.094 107.566 184.708 108.299C185.334 109.019 186.168 109.379 187.208 109.379C187.861 109.379 188.434 109.239 188.928 108.959C189.421 108.666 189.781 108.252 190.008 107.719H191.528C191.194 108.652 190.634 109.392 189.848 109.939C189.074 110.472 188.168 110.739 187.128 110.739ZM197.361 110.539L202.921 96.1389H204.361L198.941 110.539H197.361ZM208.801 110.539L203.381 96.1389H204.921L210.481 110.539H208.801ZM200.121 104.719H207.641V106.159H200.121V104.719ZM212.911 110.539V96.1389H214.551V110.539H212.911ZM221.993 110.539V96.1389H223.633V110.539H221.993ZM226.952 110.539V100.339H228.452V102.739H228.552V110.539H226.952ZM234.252 110.539V103.859C234.252 103.086 234.058 102.506 233.672 102.119C233.285 101.732 232.712 101.539 231.952 101.539C231.285 101.539 230.692 101.686 230.172 101.979C229.665 102.272 229.265 102.679 228.972 103.199C228.692 103.719 228.552 104.326 228.552 105.019L228.292 102.599C228.638 101.839 229.165 101.239 229.872 100.799C230.592 100.359 231.405 100.139 232.312 100.139C233.378 100.139 234.232 100.446 234.872 101.059C235.525 101.659 235.852 102.452 235.852 103.439V110.539H234.252ZM239.491 110.539V98.8989C239.491 97.9656 239.757 97.2389 240.291 96.7189C240.837 96.1989 241.664 95.9389 242.771 95.9389C243.037 95.9389 243.244 95.9523 243.391 95.9789C243.551 96.0056 243.684 96.0389 243.791 96.0789V97.3389C243.697 97.3123 243.564 97.2856 243.391 97.2589C243.231 97.2323 243.057 97.2189 242.871 97.2189C242.257 97.2189 241.804 97.3723 241.511 97.6789C241.231 97.9856 241.091 98.4189 241.091 98.9789V110.539H239.491ZM237.391 101.699V100.339H243.571V101.699H237.391ZM249.51 110.739C248.537 110.739 247.677 110.512 246.93 110.059C246.184 109.592 245.597 108.959 245.17 108.159C244.744 107.359 244.53 106.439 244.53 105.399C244.53 104.359 244.737 103.446 245.15 102.659C245.577 101.859 246.17 101.239 246.93 100.799C247.69 100.359 248.564 100.139 249.55 100.139C250.497 100.139 251.317 100.346 252.01 100.759C252.717 101.172 253.257 101.752 253.63 102.499C254.017 103.246 254.21 104.126 254.21 105.139C254.21 105.272 254.204 105.399 254.19 105.519C254.19 105.639 254.177 105.772 254.15 105.919H245.73V104.579H253.17L252.65 105.319C252.65 104.092 252.377 103.152 251.83 102.499C251.297 101.832 250.537 101.499 249.55 101.499C248.537 101.499 247.717 101.852 247.09 102.559C246.477 103.252 246.17 104.192 246.17 105.379C246.17 106.592 246.477 107.566 247.09 108.299C247.717 109.019 248.55 109.379 249.59 109.379C250.244 109.379 250.817 109.239 251.31 108.959C251.804 108.666 252.164 108.252 252.39 107.719H253.91C253.577 108.652 253.017 109.392 252.23 109.939C251.457 110.472 250.55 110.739 249.51 110.739ZM256.62 110.539V100.339H258.12V102.939H258.22V110.539H256.62ZM258.22 105.219L257.96 102.799C258.2 101.932 258.626 101.272 259.24 100.819C259.853 100.366 260.56 100.139 261.36 100.139C261.693 100.139 261.92 100.166 262.04 100.219V101.759C261.973 101.732 261.88 101.719 261.76 101.719C261.64 101.706 261.493 101.699 261.32 101.699C260.306 101.699 259.533 102.006 259 102.619C258.48 103.219 258.22 104.086 258.22 105.219ZM267.948 110.739C266.975 110.739 266.115 110.512 265.368 110.059C264.621 109.592 264.035 108.959 263.608 108.159C263.181 107.359 262.968 106.439 262.968 105.399C262.968 104.359 263.175 103.446 263.588 102.659C264.015 101.859 264.608 101.239 265.368 100.799C266.128 100.359 267.001 100.139 267.988 100.139C268.935 100.139 269.755 100.346 270.448 100.759C271.155 101.172 271.695 101.752 272.068 102.499C272.455 103.246 272.648 104.126 272.648 105.139C272.648 105.272 272.641 105.399 272.628 105.519C272.628 105.639 272.615 105.772 272.588 105.919H264.168V104.579H271.608L271.088 105.319C271.088 104.092 270.815 103.152 270.268 102.499C269.735 101.832 268.975 101.499 267.988 101.499C266.975 101.499 266.155 101.852 265.528 102.559C264.915 103.252 264.608 104.192 264.608 105.379C264.608 106.592 264.915 107.566 265.528 108.299C266.155 109.019 266.988 109.379 268.028 109.379C268.681 109.379 269.255 109.239 269.748 108.959C270.241 108.666 270.601 108.252 270.828 107.719H272.348C272.015 108.652 271.455 109.392 270.668 109.939C269.895 110.472 268.988 110.739 267.948 110.739ZM275.057 110.539V100.339H276.557V102.739H276.657V110.539H275.057ZM282.357 110.539V103.859C282.357 103.086 282.164 102.506 281.777 102.119C281.39 101.732 280.817 101.539 280.057 101.539C279.39 101.539 278.797 101.686 278.277 101.979C277.77 102.272 277.37 102.679 277.077 103.199C276.797 103.719 276.657 104.326 276.657 105.019L276.397 102.599C276.744 101.839 277.27 101.239 277.977 100.799C278.697 100.359 279.51 100.139 280.417 100.139C281.484 100.139 282.337 100.446 282.977 101.059C283.63 101.659 283.957 102.452 283.957 103.439V110.539H282.357ZM291.07 110.739C290.136 110.739 289.303 110.512 288.57 110.059C287.85 109.592 287.276 108.959 286.85 108.159C286.436 107.346 286.23 106.426 286.23 105.399C286.23 104.372 286.436 103.466 286.85 102.679C287.276 101.892 287.85 101.272 288.57 100.819C289.303 100.366 290.13 100.139 291.05 100.139C291.81 100.139 292.49 100.286 293.09 100.579C293.703 100.872 294.203 101.292 294.59 101.839C294.99 102.372 295.243 102.999 295.35 103.719H293.87C293.736 103.066 293.43 102.532 292.95 102.119C292.47 101.706 291.85 101.499 291.09 101.499C290.436 101.499 289.87 101.659 289.39 101.979C288.91 102.299 288.536 102.752 288.27 103.339C288.003 103.926 287.87 104.612 287.87 105.399C287.87 106.186 288.003 106.879 288.27 107.479C288.536 108.079 288.91 108.546 289.39 108.879C289.883 109.212 290.456 109.379 291.11 109.379C291.843 109.379 292.456 109.179 292.95 108.779C293.443 108.366 293.756 107.832 293.89 107.179H295.37C295.25 107.886 294.983 108.512 294.57 109.059C294.17 109.592 293.67 110.006 293.07 110.299C292.47 110.592 291.803 110.739 291.07 110.739ZM301.835 110.739C300.861 110.739 300.001 110.512 299.255 110.059C298.508 109.592 297.921 108.959 297.495 108.159C297.068 107.359 296.855 106.439 296.855 105.399C296.855 104.359 297.061 103.446 297.475 102.659C297.901 101.859 298.495 101.239 299.255 100.799C300.015 100.359 300.888 100.139 301.875 100.139C302.821 100.139 303.641 100.346 304.335 100.759C305.041 101.172 305.581 101.752 305.955 102.499C306.341 103.246 306.535 104.126 306.535 105.139C306.535 105.272 306.528 105.399 306.515 105.519C306.515 105.639 306.501 105.772 306.475 105.919H298.055V104.579H305.495L304.975 105.319C304.975 104.092 304.701 103.152 304.155 102.499C303.621 101.832 302.861 101.499 301.875 101.499C300.861 101.499 300.041 101.852 299.415 102.559C298.801 103.252 298.495 104.192 298.495 105.379C298.495 106.592 298.801 107.566 299.415 108.299C300.041 109.019 300.875 109.379 301.915 109.379C302.568 109.379 303.141 109.239 303.635 108.959C304.128 108.666 304.488 108.252 304.715 107.719H306.235C305.901 108.652 305.341 109.392 304.555 109.939C303.781 110.472 302.875 110.739 301.835 110.739ZM319.208 110.539C319.154 110.312 319.114 110.052 319.088 109.759C319.074 109.466 319.068 109.092 319.068 108.639H318.968V103.759C318.968 102.986 318.788 102.419 318.428 102.059C318.081 101.686 317.514 101.499 316.728 101.499C315.954 101.499 315.334 101.659 314.868 101.979C314.414 102.286 314.161 102.726 314.108 103.299H312.568C312.634 102.312 313.048 101.539 313.808 100.979C314.568 100.419 315.561 100.139 316.788 100.139C318.054 100.139 318.994 100.439 319.608 101.039C320.221 101.639 320.528 102.539 320.528 103.739V108.639C320.528 108.932 320.548 109.239 320.588 109.559C320.628 109.866 320.681 110.192 320.748 110.539H319.208ZM315.708 110.739C314.654 110.739 313.814 110.486 313.188 109.979C312.574 109.459 312.268 108.752 312.268 107.859C312.268 106.966 312.574 106.272 313.188 105.779C313.801 105.286 314.694 104.939 315.868 104.739L319.428 104.139V105.459L316.108 105.979C315.361 106.099 314.794 106.299 314.408 106.579C314.021 106.859 313.828 107.266 313.828 107.799C313.828 108.319 314.001 108.712 314.348 108.979C314.708 109.246 315.234 109.379 315.928 109.379C316.821 109.379 317.548 109.179 318.108 108.779C318.681 108.366 318.968 107.832 318.968 107.179L319.228 108.599C319.014 109.279 318.594 109.806 317.968 110.179C317.354 110.552 316.601 110.739 315.708 110.739ZM327.418 110.719C326.285 110.719 325.458 110.466 324.938 109.959C324.432 109.439 324.178 108.692 324.178 107.719V97.9589L325.778 97.3589V107.699C325.778 108.272 325.925 108.692 326.218 108.959C326.512 109.226 326.992 109.359 327.658 109.359C327.925 109.359 328.152 109.346 328.338 109.319C328.538 109.279 328.698 109.232 328.818 109.179V110.539C328.685 110.592 328.492 110.632 328.238 110.659C327.998 110.699 327.725 110.719 327.418 110.719ZM322.078 101.699V100.339H328.818V101.699H322.078ZM338.961 110.719C337.828 110.719 337.001 110.466 336.481 109.959C335.975 109.439 335.721 108.692 335.721 107.719V97.9589L337.321 97.3589V107.699C337.321 108.272 337.468 108.692 337.761 108.959C338.055 109.226 338.535 109.359 339.201 109.359C339.468 109.359 339.695 109.346 339.881 109.319C340.081 109.279 340.241 109.232 340.361 109.179V110.539C340.228 110.592 340.035 110.632 339.781 110.659C339.541 110.699 339.268 110.719 338.961 110.719ZM333.621 101.699V100.339H340.361V101.699H333.621ZM342.42 110.539V96.1389H344.02V110.539H342.42ZM349.72 110.539V103.859C349.72 103.086 349.527 102.506 349.14 102.119C348.754 101.732 348.18 101.539 347.42 101.539C346.754 101.539 346.16 101.686 345.64 101.979C345.134 102.272 344.734 102.679 344.44 103.199C344.16 103.719 344.02 104.326 344.02 105.019L343.76 102.599C344.107 101.839 344.634 101.239 345.34 100.799C346.06 100.359 346.874 100.139 347.78 100.139C348.847 100.139 349.7 100.446 350.34 101.059C350.994 101.659 351.32 102.452 351.32 103.439V110.539H349.72ZM358.573 110.739C357.6 110.739 356.74 110.512 355.993 110.059C355.246 109.592 354.66 108.959 354.233 108.159C353.806 107.359 353.593 106.439 353.593 105.399C353.593 104.359 353.8 103.446 354.213 102.659C354.64 101.859 355.233 101.239 355.993 100.799C356.753 100.359 357.626 100.139 358.613 100.139C359.56 100.139 360.38 100.346 361.073 100.759C361.78 101.172 362.32 101.752 362.693 102.499C363.08 103.246 363.273 104.126 363.273 105.139C363.273 105.272 363.266 105.399 363.253 105.519C363.253 105.639 363.24 105.772 363.213 105.919H354.793V104.579H362.233L361.713 105.319C361.713 104.092 361.44 103.152 360.893 102.499C360.36 101.832 359.6 101.499 358.613 101.499C357.6 101.499 356.78 101.852 356.153 102.559C355.54 103.252 355.233 104.192 355.233 105.379C355.233 106.592 355.54 107.566 356.153 108.299C356.78 109.019 357.613 109.379 358.653 109.379C359.306 109.379 359.88 109.239 360.373 108.959C360.866 108.666 361.226 108.252 361.453 107.719H362.973C362.64 108.652 362.08 109.392 361.293 109.939C360.52 110.472 359.613 110.739 358.573 110.739ZM369.806 110.539V96.1389H371.446V110.539H369.806ZM370.646 110.539V109.099H379.446V110.539H370.646ZM370.646 103.759V102.319H378.726V103.759H370.646ZM370.646 97.5789V96.1389H379.286V97.5789H370.646ZM389 110.539V108.159L389.2 108.219C388.947 108.992 388.48 109.606 387.8 110.059C387.134 110.512 386.334 110.739 385.4 110.739C384.48 110.739 383.674 110.519 382.98 110.079C382.3 109.639 381.767 109.026 381.38 108.239C381.007 107.452 380.82 106.532 380.82 105.479C380.82 104.412 381.014 103.479 381.4 102.679C381.787 101.879 382.327 101.259 383.02 100.819C383.714 100.379 384.527 100.159 385.46 100.159C386.42 100.159 387.227 100.392 387.88 100.859C388.534 101.326 388.98 101.986 389.22 102.839L388.9 102.879V96.1389H390.5V110.539H389ZM385.7 109.339C386.727 109.339 387.527 108.992 388.1 108.299C388.687 107.592 388.98 106.632 388.98 105.419C388.98 104.232 388.687 103.292 388.1 102.599C387.514 101.906 386.714 101.559 385.7 101.559C384.687 101.559 383.894 101.906 383.32 102.599C382.747 103.292 382.46 104.252 382.46 105.479C382.46 106.679 382.747 107.626 383.32 108.319C383.894 108.999 384.687 109.339 385.7 109.339ZM397.769 114.839C396.556 114.839 395.543 114.552 394.729 113.979C393.929 113.419 393.443 112.672 393.269 111.739H394.789C394.936 112.272 395.263 112.692 395.769 112.999C396.289 113.319 396.989 113.479 397.869 113.479C398.909 113.479 399.696 113.192 400.229 112.619C400.763 112.059 401.029 111.232 401.029 110.139V107.959L401.229 107.999C401.003 108.772 400.549 109.392 399.869 109.859C399.189 110.312 398.383 110.539 397.449 110.539C396.556 110.539 395.769 110.326 395.089 109.899C394.409 109.459 393.883 108.852 393.509 108.079C393.136 107.306 392.949 106.406 392.949 105.379C392.949 104.339 393.143 103.426 393.529 102.639C393.916 101.852 394.456 101.246 395.149 100.819C395.856 100.379 396.676 100.159 397.609 100.159C398.569 100.159 399.369 100.392 400.009 100.859C400.663 101.326 401.096 101.992 401.309 102.859L401.129 102.879V100.339H402.629V110.139C402.629 111.592 402.196 112.739 401.329 113.579C400.463 114.419 399.276 114.839 397.769 114.839ZM397.849 109.159C398.849 109.159 399.643 108.812 400.229 108.119C400.816 107.426 401.109 106.486 401.109 105.299C401.109 104.139 400.816 103.226 400.229 102.559C399.643 101.879 398.849 101.539 397.849 101.539C396.836 101.539 396.036 101.879 395.449 102.559C394.876 103.239 394.589 104.172 394.589 105.359C394.589 106.519 394.883 107.446 395.469 108.139C396.056 108.819 396.849 109.159 397.849 109.159ZM410.018 110.739C409.045 110.739 408.185 110.512 407.438 110.059C406.692 109.592 406.105 108.959 405.678 108.159C405.252 107.359 405.038 106.439 405.038 105.399C405.038 104.359 405.245 103.446 405.658 102.659C406.085 101.859 406.678 101.239 407.438 100.799C408.198 100.359 409.072 100.139 410.058 100.139C411.005 100.139 411.825 100.346 412.518 100.759C413.225 101.172 413.765 101.752 414.138 102.499C414.525 103.246 414.718 104.126 414.718 105.139C414.718 105.272 414.712 105.399 414.698 105.519C414.698 105.639 414.685 105.772 414.658 105.919H406.238V104.579H413.678L413.158 105.319C413.158 104.092 412.885 103.152 412.338 102.499C411.805 101.832 411.045 101.499 410.058 101.499C409.045 101.499 408.225 101.852 407.598 102.559C406.985 103.252 406.678 104.192 406.678 105.379C406.678 106.592 406.985 107.566 407.598 108.299C408.225 109.019 409.058 109.379 410.098 109.379C410.752 109.379 411.325 109.239 411.818 108.959C412.312 108.666 412.672 108.252 412.898 107.719H414.418C414.085 108.652 413.525 109.392 412.738 109.939C411.965 110.472 411.058 110.739 410.018 110.739Z" fill="#F4F4F4"/>
<path d="M0 90.5189H16.5603V91.2789H0V90.5189ZM19.6819 90.5189H325.53V91.2789H19.6819V90.5189ZM0 114.519H395.006V115.279H0V114.519ZM400.573 114.519H415.518V115.279H400.573V114.519Z" fill="#F4F4F4"/>
</svg>
