<svg width="14" height="14" viewBox="0 0 14 14" fill="none" xmlns="http://www.w3.org/2000/svg">
<path d="M6.87927 2.64571V6.87903H10.0543M13.2292 6.87903C13.2292 7.71292 13.065 8.53864 12.7459 9.30906C12.4268 10.0795 11.959 10.7795 11.3694 11.3691C10.7797 11.9588 10.0797 12.4265 9.3093 12.7456C8.53889 13.0648 7.71316 13.229 6.87927 13.229C6.04538 13.229 5.21966 13.0648 4.44924 12.7456C3.67883 12.4265 2.97881 11.9588 2.38916 11.3691C1.79951 10.7795 1.33178 10.0795 1.01266 9.30906C0.693544 8.53864 0.529297 7.71292 0.529297 6.87903C0.529297 5.19491 1.19831 3.57977 2.38916 2.38892C3.58001 1.19807 5.19515 0.529053 6.87927 0.529053C8.56339 0.529053 10.1785 1.19807 11.3694 2.38892C12.5602 3.57977 13.2292 5.19491 13.2292 6.87903Z" stroke="#6E6E6E" stroke-width="1.05833" stroke-linecap="round" stroke-linejoin="round"/>
</svg>
