<svg width="392" height="155" viewBox="0 0 392 155" fill="none" xmlns="http://www.w3.org/2000/svg">
<path d="M0.270144 105.536L0 117.319L195.763 154.485L196.054 142.826L0.270144 105.536Z" fill="#D1D3D4"/>
<path d="M196.054 142.826L195.764 154.484L390.964 89.4506L391.236 77.6689L196.054 142.826Z" fill="#D1D3D4"/>
<path d="M391.236 77.6687L195.46 40.3899L0.270508 105.536L196.054 142.825L391.236 77.6687Z" fill="#E6E7E8"/>
<path d="M0.285404 99.2424L0.270508 105.649L13.319 108.127L13.3377 101.728L0.285404 99.2424Z" fill="#D1D3D4"/>
<path d="M13.337 101.728L13.3184 108.127L26.3259 103.792L26.3445 97.3853L13.337 101.728Z" fill="#D1D3D4"/>
<path d="M26.3449 97.3853L13.2964 94.9019L0.285156 99.2427L13.3374 101.728L26.3449 97.3853Z" fill="#F1F2F2"/>
<path d="M183.034 134.06L183.016 140.471L196.064 142.947L196.081 136.547L183.034 134.06Z" fill="#D1D3D4"/>
<path d="M196.081 136.547L196.064 142.947L209.072 138.613L209.091 132.205L196.081 136.547Z" fill="#D1D3D4"/>
<path d="M209.09 132.205L196.042 129.719L183.034 134.06L196.081 136.547L209.09 132.205Z" fill="#F1F2F2"/>
<path d="M182.429 38.5422L182.41 44.9491L195.459 47.4269L195.481 41.0275L182.429 38.5422Z" fill="#D1D3D4"/>
<path d="M195.481 41.0274L195.459 47.4268L208.472 43.0916L208.487 36.6829L195.481 41.0274Z" fill="#D1D3D4"/>
<path d="M208.486 36.6828L195.437 34.1995L182.428 38.5421L195.48 41.0274L208.486 36.6828Z" fill="#F1F2F2"/>
<path d="M365.175 73.3599L365.16 79.7686L378.209 82.2464L378.227 75.8451L365.175 73.3599Z" fill="#D1D3D4"/>
<path d="M378.227 75.8447L378.208 82.246L391.217 77.9127L391.234 71.5039L378.227 75.8447Z" fill="#D1D3D4"/>
<path d="M391.235 71.504L378.186 69.0188L365.175 73.3596L378.227 75.8449L391.235 71.504Z" fill="#F1F2F2"/>
<path d="M30.5402 76.0312L30.3223 84.7967L210.24 118.422L210.477 109.759L30.5402 76.0312Z" fill="#D1D3D4"/>
<path d="M210.477 109.759L210.24 118.422L368.272 65.7736L368.49 57.01L210.477 109.759Z" fill="#D1D3D4"/>
<path d="M368.49 57.01L188.558 23.2952L30.541 76.0313L210.478 109.759L368.49 57.01Z" fill="#F1F2F2"/>
<path d="M119.858 78.0434L111.745 76.5232L103.645 79.2599L111.76 80.782L119.858 78.0434Z" fill="#D1D3D4"/>
<path d="M136.506 72.4394L128.394 70.9192L120.292 73.6541L128.405 75.178L136.506 72.4394Z" fill="#D1D3D4"/>
<path d="M153.152 66.8354L145.039 65.3152L136.938 68.052L145.054 69.5722L153.152 66.8354Z" fill="#D1D3D4"/>
<path d="M169.801 61.2335L161.685 59.7114L153.587 62.4482L161.7 63.9684L169.801 61.2335Z" fill="#D1D3D4"/>
<path d="M186.448 55.6295L178.333 54.1074L170.232 56.8442L178.348 58.3644L186.448 55.6295Z" fill="#D1D3D4"/>
<path d="M203.095 50.0239L194.981 48.5037L186.881 51.2404L194.994 52.7625L203.095 50.0239Z" fill="#D1D3D4"/>
<path d="M219.741 44.4199L211.626 42.9016L203.527 45.6365L211.641 47.1586L219.741 44.4199Z" fill="#D1D3D4"/>
<path d="M236.388 38.8159L228.274 37.2957L220.174 40.0343L228.287 41.5545L236.388 38.8159Z" fill="#D1D3D4"/>
<path d="M138.812 81.6149L130.699 80.0928L122.599 82.8314L130.712 84.3535L138.812 81.6149Z" fill="#D1D3D4"/>
<path d="M155.46 76.0088L147.345 74.4905L139.246 77.2272L147.36 78.7493L155.46 76.0088Z" fill="#D1D3D4"/>
<path d="M172.105 70.4052L163.992 68.885L155.892 71.6255L164.007 73.1457L172.105 70.4052Z" fill="#D1D3D4"/>
<path d="M188.754 64.8033L180.639 63.2812L172.54 66.0199L180.653 67.542L188.754 64.8033Z" fill="#D1D3D4"/>
<path d="M205.4 59.1993L197.287 57.6772L189.187 60.4158L197.302 61.9361L205.4 59.1993Z" fill="#D1D3D4"/>
<path d="M222.048 53.5954L213.933 52.0752L205.834 54.8119L213.947 56.334L222.048 53.5954Z" fill="#D1D3D4"/>
<path d="M238.694 47.9912L230.579 46.4709L222.479 49.2077L230.594 50.7298L238.694 47.9912Z" fill="#D1D3D4"/>
<path d="M255.341 42.3874L247.227 40.8672L239.127 43.604L247.24 45.126L255.341 42.3874Z" fill="#D1D3D4"/>
<path d="M157.771 85.1862L149.654 83.666L141.558 86.4009L149.667 87.9248L157.771 85.1862Z" fill="#D1D3D4"/>
<path d="M174.42 79.5822L166.304 78.062L158.2 80.7969L166.315 82.319L174.42 79.5822Z" fill="#D1D3D4"/>
<path d="M191.065 73.9785L182.952 72.4583L174.848 75.195L182.961 76.7152L191.065 73.9785Z" fill="#D1D3D4"/>
<path d="M207.71 68.3763L199.598 66.8542L191.494 69.591L199.609 71.1112L207.71 68.3763Z" fill="#D1D3D4"/>
<path d="M224.354 62.7704L216.241 61.2483L208.141 63.9869L216.256 65.5071L224.354 62.7704Z" fill="#D1D3D4"/>
<path d="M241.003 57.1648L232.888 55.6465L224.789 58.3833L232.902 59.9053L241.003 57.1648Z" fill="#D1D3D4"/>
<path d="M257.649 51.5606L249.536 50.0422L241.436 52.779L249.551 54.3011L257.649 51.5606Z" fill="#D1D3D4"/>
<path d="M274.297 45.9568L266.181 44.4365L258.083 47.177L266.196 48.6972L274.297 45.9568Z" fill="#D1D3D4"/>
<path d="M176.724 88.7556L168.609 87.2354L160.507 89.974L168.62 91.4961L176.724 88.7556Z" fill="#D1D3D4"/>
<path d="M193.366 83.1518L185.256 81.6316L177.152 84.3702L185.271 85.8923L193.366 83.1518Z" fill="#D1D3D4"/>
<path d="M210.014 77.5478L201.902 76.0276L193.804 78.7662L201.917 80.2864L210.014 77.5478Z" fill="#D1D3D4"/>
<path d="M226.66 71.9459L218.547 70.4238L210.45 73.1625L218.562 74.6827L226.66 71.9459Z" fill="#D1D3D4"/>
<path d="M243.308 66.3416L235.193 64.8196L227.095 67.5582L235.208 69.0784L243.308 66.3416Z" fill="#D1D3D4"/>
<path d="M259.959 60.7379L251.842 59.2158L243.741 61.9544L251.856 63.4765L259.959 60.7379Z" fill="#D1D3D4"/>
<path d="M276.601 55.134L268.492 53.6138L260.388 56.3486L268.503 57.8707L276.601 55.134Z" fill="#D1D3D4"/>
<path d="M293.25 49.53L285.135 48.0098L277.036 50.7465L285.15 52.2667L293.25 49.53Z" fill="#D1D3D4"/>
<path d="M195.676 92.329L187.564 90.8088L179.466 93.5437L187.579 95.0658L195.676 92.329Z" fill="#D1D3D4"/>
<path d="M212.326 86.7251L204.209 85.2048L196.112 87.9397L204.228 89.4618L212.326 86.7251Z" fill="#D1D3D4"/>
<path d="M228.974 81.1174L220.859 79.5991L212.761 82.3377L220.87 83.8579L228.974 81.1174Z" fill="#D1D3D4"/>
<path d="M245.62 75.5153L237.506 73.9951L229.402 76.7337L237.518 78.254L245.62 75.5153Z" fill="#D1D3D4"/>
<path d="M262.268 69.9113L254.153 68.3911L246.051 71.1297L254.164 72.6499L262.268 69.9113Z" fill="#D1D3D4"/>
<path d="M278.91 64.3077L270.8 62.7893L262.696 65.5261L270.812 67.0482L278.91 64.3077Z" fill="#D1D3D4"/>
<path d="M295.558 58.7036L287.442 57.1833L279.344 59.922L287.457 61.4441L295.558 58.7036Z" fill="#D1D3D4"/>
<path d="M312.207 53.0996L304.09 51.5793L295.993 54.318L304.105 55.84L312.207 53.0996Z" fill="#D1D3D4"/>
<path d="M214.632 95.8984L206.518 94.3782L198.418 97.1149L206.53 98.6389L214.632 95.8984Z" fill="#D1D3D4"/>
<path d="M231.279 90.2944L223.164 88.7742L215.065 91.5109L223.175 93.033L231.279 90.2944Z" fill="#D1D3D4"/>
<path d="M247.927 84.6906L239.812 83.1704L231.71 85.909L239.827 87.4292L247.927 84.6906Z" fill="#D1D3D4"/>
<path d="M264.573 79.0887L256.46 77.5667L248.359 80.3053L256.473 81.8255L264.573 79.0887Z" fill="#D1D3D4"/>
<path d="M281.218 73.4845L273.106 71.9624L265.008 74.701L273.121 76.2212L281.218 73.4845Z" fill="#D1D3D4"/>
<path d="M297.866 67.8805L289.749 66.3584L281.652 69.0952L289.764 70.6173L297.866 67.8805Z" fill="#D1D3D4"/>
<path d="M314.514 62.2747L306.395 60.7563L298.297 63.4912L306.41 65.0133L314.514 62.2747Z" fill="#D1D3D4"/>
<path d="M331.161 56.6709L323.047 55.1526L314.943 57.8894L323.059 59.4096L331.161 56.6709Z" fill="#D1D3D4"/>
<path d="M30.7627 66.8838L30.541 76.1374L62.4636 82.0133L62.7002 72.4728L30.7627 66.8838Z" fill="#D1D3D4"/>
<path d="M62.6995 72.4729L62.4629 82.0133L220.491 28.9754L220.709 19.7256L62.6995 72.4729Z" fill="#D1D3D4"/>
<path d="M220.709 19.7256L188.781 14.144L30.7627 66.8839L62.7002 72.4729L220.709 19.7256Z" fill="#F1F2F2"/>
<path d="M30.7627 73.3337L30.541 82.0135L62.4636 88.7445V77.9484L30.7627 73.3337Z" fill="#D1D3D4"/>
<path d="M82.5474 46.1245L82.3574 54.4689L220.967 80.7839L221.174 72.527L82.5474 46.1245Z" fill="#48554D"/>
<path d="M221.174 72.5269L220.967 80.7837L359.174 34.7358L359.371 26.3914L221.174 72.5269Z" fill="#66746C"/>
<path d="M359.372 26.3914L220.755 0L82.5479 46.1243L221.174 72.5269L359.372 26.3914Z" fill="#798A80"/>
<path d="M315.091 25.3592C315.087 25.3704 315.08 25.3853 315.076 25.3964C315.054 25.4635 315.022 25.5268 314.985 25.5939C314.97 25.6181 314.951 25.6423 314.938 25.6647C314.897 25.7225 314.854 25.7783 314.808 25.8342C314.786 25.8566 314.769 25.8789 314.743 25.8976C314.677 25.974 314.597 26.0466 314.502 26.1193C314.487 26.1342 314.463 26.1491 314.448 26.1584C314.364 26.2199 314.277 26.2814 314.182 26.3429C314.148 26.3634 314.113 26.3838 314.076 26.4043C313.966 26.4714 313.85 26.5329 313.724 26.5981C313.709 26.6074 313.694 26.6148 313.677 26.6223C313.535 26.695 313.375 26.7639 313.2 26.8347C313.15 26.8589 313.09 26.8757 313.036 26.8999C312.88 26.9595 312.727 27.0173 312.556 27.0769L231.938 53.6676C231.727 53.7402 231.498 53.8035 231.276 53.8706C231.17 53.9023 231.062 53.9321 230.948 53.9619C230.811 54.001 230.673 54.0327 230.525 54.0681C230.347 54.111 230.17 54.1557 229.983 54.1948C229.86 54.2227 229.728 54.2488 229.605 54.273C229.288 54.3382 228.953 54.3979 228.616 54.4556C228.499 54.4743 228.387 54.4947 228.266 54.5115C227.735 54.5935 227.181 54.6643 226.617 54.7239C226.494 54.7369 226.369 54.7518 226.246 54.763C225.67 54.8189 225.085 54.8692 224.489 54.9027C224.15 54.9232 223.809 54.94 223.467 54.9549C223.437 54.9549 223.416 54.9549 223.39 54.9568C223.344 54.9568 223.295 54.9568 223.249 54.9586C222.924 54.9698 222.593 54.9772 222.27 54.9828C222.19 54.9847 222.114 54.9847 222.034 54.9847C221.678 54.9922 221.317 54.9922 220.95 54.9847C220.899 54.9847 220.851 54.9847 220.797 54.9828C220.419 54.9772 220.04 54.9698 219.67 54.9549C219.627 54.9549 219.586 54.9512 219.547 54.9493C219.165 54.9326 218.783 54.9158 218.401 54.8934C218.379 54.8897 218.354 54.8878 218.325 54.886C217.95 54.8636 217.585 54.8357 217.222 54.8021C217.188 54.7984 217.164 54.7984 217.134 54.7947C216.771 54.7593 216.409 54.722 216.057 54.6792C216.003 54.6717 215.94 54.6661 215.886 54.6587C215.547 54.6196 215.213 54.5711 214.886 54.5227C214.805 54.5096 214.733 54.4985 214.66 54.4854C214.336 54.4351 214.012 54.3792 213.699 54.3215L137.14 40.2148C136.729 40.1384 136.347 40.0527 135.987 39.9633C135.885 39.9409 135.797 39.9167 135.7 39.8906C135.449 39.8254 135.205 39.7621 134.979 39.6932C134.881 39.6634 134.793 39.6354 134.704 39.6056C134.5 39.5422 134.303 39.4733 134.12 39.4044C134.04 39.3708 133.953 39.341 133.873 39.3056C133.683 39.2293 133.506 39.1473 133.338 39.0653C133.299 39.043 133.243 39.0225 133.196 39.0001C133.001 38.8939 132.826 38.7896 132.673 38.6815C132.634 38.6499 132.6 38.6219 132.563 38.5921C132.457 38.512 132.36 38.4282 132.283 38.3481C132.246 38.309 132.215 38.2717 132.177 38.2307C132.112 38.1506 132.06 38.0723 132.017 37.9941C131.998 37.9568 131.976 37.9214 131.963 37.8842C131.92 37.7705 131.887 37.655 131.887 37.5414L131.825 42.5659C131.825 42.6833 131.862 42.7951 131.905 42.9106C131.92 42.946 131.943 42.9814 131.959 43.0168C132.002 43.0987 132.054 43.1788 132.12 43.2589C132.153 43.2962 132.185 43.3316 132.226 43.3726C132.306 43.4546 132.405 43.5403 132.509 43.6222C132.546 43.6502 132.574 43.6763 132.611 43.7042C132.768 43.816 132.947 43.9203 133.139 44.0246C133.185 44.047 133.23 44.0656 133.269 44.0898C133.44 44.1699 133.619 44.2538 133.815 44.3302C133.895 44.3674 133.983 44.3954 134.063 44.4289C134.245 44.4978 134.433 44.5649 134.638 44.6282C134.73 44.6618 134.827 44.6916 134.925 44.7233C134.979 44.7363 135.02 44.7531 135.071 44.7661C135.227 44.8127 135.406 44.8537 135.57 44.8928C135.7 44.93 135.821 44.9617 135.956 44.9971C135.982 45.0027 136 45.0102 136.021 45.0139C136.283 45.0754 136.559 45.1368 136.842 45.1946C136.922 45.2114 137.003 45.2263 137.079 45.2393L213.641 59.3479C213.812 59.3795 213.991 59.4112 214.165 59.441C214.325 59.4708 214.481 59.4913 214.645 59.5193C214.695 59.5286 214.744 59.536 214.794 59.5435C214.828 59.5509 214.859 59.5547 214.897 59.5602C215.126 59.5938 215.362 59.6273 215.599 59.6571C215.657 59.6664 215.72 59.672 215.782 59.6795C215.873 59.6907 215.96 59.7056 216.046 59.713C216.134 59.7242 216.21 59.7354 216.29 59.7428C216.516 59.7689 216.741 59.7913 216.978 59.8136C216.996 59.8136 217.019 59.8155 217.035 59.8192C217.097 59.8248 217.162 59.8304 217.225 59.836C217.371 59.849 217.52 59.8639 217.661 59.8751C217.857 59.89 218.054 59.9049 218.254 59.9142C218.284 59.9179 218.315 59.9198 218.349 59.9217C218.353 59.9217 218.353 59.9217 218.356 59.9217C218.589 59.9366 218.822 59.9496 219.055 59.9589C219.165 59.9645 219.28 59.9683 219.39 59.972C219.482 59.9757 219.577 59.9813 219.662 59.9832C219.696 59.9869 219.724 59.9888 219.75 59.9888C219.979 59.9943 220.208 60.0036 220.445 60.0074C220.525 60.0092 220.605 60.0093 220.685 60.0093C220.765 60.013 220.849 60.013 220.929 60.013C220.998 60.0167 221.063 60.0185 221.132 60.0185C221.369 60.0204 221.602 60.0204 221.831 60.0185C221.877 60.0185 221.926 60.0167 221.972 60.0167C222.045 60.0167 222.121 60.013 222.194 60.013C222.315 60.0092 222.438 60.0092 222.557 60.0074C222.801 60.0018 223.045 59.9943 223.29 59.9869C223.297 59.9869 223.308 59.9869 223.319 59.9832C223.323 59.9832 223.331 59.9832 223.334 59.9832C223.673 59.972 224.011 59.9552 224.342 59.9366C224.364 59.9366 224.379 59.9366 224.392 59.9366C225.018 59.8993 225.629 59.849 226.229 59.7875C226.332 59.7782 226.425 59.7689 226.527 59.7577C227.112 59.6944 227.688 59.6217 228.241 59.536C228.268 59.5323 228.299 59.5304 228.318 59.5248C228.379 59.5155 228.431 59.5025 228.493 59.4951C228.864 59.4336 229.221 59.3684 229.562 59.2994C229.631 59.2845 229.708 59.2771 229.773 59.2603C229.823 59.251 229.872 59.2379 229.922 59.2268C230.101 59.1876 230.272 59.1467 230.442 59.1038C230.548 59.0777 230.656 59.0572 230.758 59.0312C230.805 59.0163 230.85 59.0014 230.896 58.992C231.01 58.9604 231.118 58.9306 231.228 58.897C231.315 58.871 231.414 58.8467 231.5 58.8188C231.626 58.7815 231.755 58.7405 231.874 58.6996L312.492 32.1107C312.565 32.0846 312.637 32.0585 312.71 32.0325C312.805 31.9989 312.885 31.9654 312.973 31.9319C313.031 31.9058 313.09 31.889 313.144 31.8648C313.163 31.8573 313.178 31.8499 313.194 31.8443C313.332 31.7865 313.468 31.7251 313.591 31.6636C313.595 31.6617 313.599 31.6617 313.606 31.658C313.64 31.6412 313.668 31.6226 313.701 31.6077C313.781 31.5686 313.858 31.5313 313.927 31.4903C313.964 31.468 313.988 31.4531 314.022 31.4363C314.051 31.4139 314.091 31.3972 314.12 31.373C314.15 31.3543 314.186 31.3357 314.215 31.3171C314.281 31.2724 314.338 31.2258 314.398 31.1829C314.417 31.1736 314.428 31.1606 314.445 31.1531C314.448 31.1494 314.452 31.1438 314.463 31.1382C314.532 31.0805 314.601 31.019 314.663 30.9594C314.674 30.9482 314.681 30.937 314.689 30.9258C314.711 30.9072 314.73 30.8867 314.743 30.8681C314.776 30.8364 314.8 30.8047 314.823 30.7768C314.849 30.747 314.86 30.7228 314.881 30.693C314.895 30.6706 314.914 30.6464 314.923 30.6203C314.935 30.6091 314.942 30.5942 314.949 30.583C314.979 30.5327 314.996 30.4768 315.015 30.4265C315.018 30.4116 315.03 30.4005 315.033 30.3874C315.033 30.3818 315.033 30.3819 315.033 30.3781C315.056 30.3092 315.067 30.2365 315.071 30.1639C315.071 30.1564 315.071 30.1452 315.071 30.1322L315.128 25.1077C315.128 25.1896 315.117 25.2754 315.091 25.3592Z" fill="#D1D3D4"/>
<path d="M215.083 8.98158C219.378 7.51912 227.543 7.22848 233.317 8.32579L309.875 22.4325C315.652 23.5354 316.85 25.6163 312.556 27.0751L231.938 53.6658C227.634 55.1301 219.473 55.4226 213.697 54.3216L137.139 40.2149C131.364 39.112 130.167 37.0347 134.464 35.5723L215.083 8.98158Z" fill="#E6E7E8"/>
<path d="M223.479 3.42406C223.479 4.16926 222.329 4.77844 220.913 4.77844C219.501 4.77844 218.355 4.17112 218.355 3.42406C218.355 2.67513 219.501 2.06592 220.913 2.06592C222.327 2.06778 223.479 2.67513 223.479 3.42406Z" fill="white"/>
<path d="M99.8797 46.0664C99.8797 47.0445 98.3762 47.8419 96.5281 47.8419C94.6726 47.8419 93.1729 47.0445 93.1729 46.0664C93.1729 45.0865 94.6726 44.2947 96.5281 44.2947C98.3762 44.2947 99.8797 45.0846 99.8797 46.0664Z" fill="white"/>
<path d="M346.896 27.876C346.896 28.856 345.397 29.6515 343.541 29.6515C341.689 29.6515 340.189 28.856 340.189 27.876C340.189 26.8942 341.689 26.1006 343.541 26.1006C345.397 26.1006 346.896 26.8942 346.896 27.876Z" fill="white"/>
<path d="M221.018 69.0392C223.228 69.0392 225.018 68.0916 225.018 66.9228C225.018 65.7539 223.228 64.8064 221.018 64.8064C218.809 64.8064 217.019 65.7539 217.019 66.9228C217.019 68.0916 218.809 69.0392 221.018 69.0392Z" fill="#F1F2F2"/>
<path opacity="0.4" d="M252.795 11.9138L235.387 52.5292L231.937 53.6675C227.634 55.1318 219.472 55.4243 213.696 54.3233L211.138 53.8538L230.81 7.95679C231.68 8.05553 232.524 8.17476 233.318 8.32566L252.795 11.9138ZM216.107 8.69641C215.761 8.78956 215.394 8.87524 215.084 8.97957L177.576 21.3518L167.123 45.7404L197.805 51.3928L216.107 8.69641Z" fill="white"/>
</svg>
