<svg width="1065" height="70" viewBox="0 0 1065 70" fill="none" xmlns="http://www.w3.org/2000/svg">
<path d="M839.333 35C839.333 36.4728 840.527 37.6667 842 37.6667C843.473 37.6667 844.667 36.4728 844.667 35C844.667 33.5272 843.473 32.3333 842 32.3333C840.527 32.3333 839.333 33.5272 839.333 35ZM889.333 35C889.333 36.4728 890.527 37.6667 892 37.6667C893.473 37.6667 894.667 36.4728 894.667 35C894.667 33.5272 893.473 32.3333 892 32.3333C890.527 32.3333 889.333 33.5272 889.333 35ZM842 35V35.5H892V35V34.5H842V35Z" fill="#F4F4F4" fill-opacity="0.25"/>
<path d="M616.333 35C616.333 36.4728 617.527 37.6667 619 37.6667C620.473 37.6667 621.667 36.4728 621.667 35C621.667 33.5272 620.473 32.3333 619 32.3333C617.527 32.3333 616.333 33.5272 616.333 35ZM666.333 35C666.333 36.4728 667.527 37.6667 669 37.6667C670.473 37.6667 671.667 36.4728 671.667 35C671.667 33.5272 670.473 32.3333 669 32.3333C667.527 32.3333 666.333 33.5272 666.333 35ZM619 35V35.5H669V35V34.5H619V35Z" fill="#F4F4F4" fill-opacity="0.25"/>
<path d="M393.333 35C393.333 36.4728 394.527 37.6667 396 37.6667C397.473 37.6667 398.667 36.4728 398.667 35C398.667 33.5272 397.473 32.3333 396 32.3333C394.527 32.3333 393.333 33.5272 393.333 35ZM443.333 35C443.333 36.4728 444.527 37.6667 446 37.6667C447.473 37.6667 448.667 36.4728 448.667 35C448.667 33.5272 447.473 32.3333 446 32.3333C444.527 32.3333 443.333 33.5272 443.333 35ZM396 35V35.5H446V35V34.5H396V35Z" fill="#F4F4F4" fill-opacity="0.25"/>
<path d="M170.333 35C170.333 36.4728 171.527 37.6667 173 37.6667C174.473 37.6667 175.667 36.4728 175.667 35C175.667 33.5272 174.473 32.3333 173 32.3333C171.527 32.3333 170.333 33.5272 170.333 35ZM220.333 35C220.333 36.4728 221.527 37.6667 223 37.6667C224.473 37.6667 225.667 36.4728 225.667 35C225.667 33.5272 224.473 32.3333 223 32.3333C221.527 32.3333 220.333 33.5272 220.333 35ZM173 35V35.5H223V35V34.5H173V35Z" fill="#F4F4F4" fill-opacity="0.25"/>
<rect width="173" height="70" rx="25" fill="#5D6C63"/>
<rect x="0.5" y="0.5" width="172" height="69" rx="24.5" stroke="#F4F4F4" stroke-opacity="0.25"/>
<path d="M41.7913 33.15C41.0513 33.15 40.3663 33.015 39.7363 32.745C39.1163 32.465 38.5763 32.08 38.1163 31.59C37.6563 31.09 37.3013 30.505 37.0513 29.835C36.8013 29.155 36.6763 28.41 36.6763 27.6C36.6763 26.79 36.8013 26.05 37.0513 25.38C37.3013 24.7 37.6513 24.115 38.1013 23.625C38.5613 23.125 39.1013 22.74 39.7213 22.47C40.3513 22.19 41.0363 22.05 41.7763 22.05C42.5863 22.05 43.3113 22.215 43.9513 22.545C44.6013 22.875 45.1313 23.34 45.5413 23.94C45.9613 24.54 46.2213 25.24 46.3213 26.04H45.0913C44.9713 25.15 44.6163 24.45 44.0263 23.94C43.4463 23.42 42.7013 23.16 41.7913 23.16C41.0213 23.16 40.3463 23.35 39.7663 23.73C39.1863 24.1 38.7363 24.62 38.4163 25.29C38.0963 25.95 37.9363 26.72 37.9363 27.6C37.9363 28.48 38.0963 29.255 38.4163 29.925C38.7363 30.585 39.1863 31.105 39.7663 31.485C40.3463 31.855 41.0163 32.04 41.7763 32.04C42.7063 32.04 43.4663 31.78 44.0563 31.26C44.6563 30.74 45.0113 30.04 45.1213 29.16H46.3513C46.2513 29.96 45.9913 30.66 45.5713 31.26C45.1613 31.86 44.6313 32.325 43.9813 32.655C43.3413 32.985 42.6113 33.15 41.7913 33.15ZM51.3805 33.15C50.6305 33.15 49.9705 32.975 49.4005 32.625C48.8305 32.275 48.3855 31.8 48.0655 31.2C47.7555 30.59 47.6005 29.905 47.6005 29.145C47.6005 28.375 47.7605 27.695 48.0805 27.105C48.4005 26.515 48.8405 26.05 49.4005 25.71C49.9705 25.37 50.6305 25.2 51.3805 25.2C52.1405 25.2 52.8005 25.37 53.3605 25.71C53.9305 26.05 54.3705 26.515 54.6805 27.105C55.0005 27.695 55.1605 28.375 55.1605 29.145C55.1605 29.905 55.0005 30.59 54.6805 31.2C54.3705 31.8 53.9305 32.275 53.3605 32.625C52.8005 32.975 52.1405 33.15 51.3805 33.15ZM51.3805 32.13C51.9005 32.13 52.3505 32.005 52.7305 31.755C53.1105 31.495 53.4055 31.14 53.6155 30.69C53.8255 30.24 53.9305 29.72 53.9305 29.13C53.9305 28.25 53.6955 27.545 53.2255 27.015C52.7655 26.485 52.1505 26.22 51.3805 26.22C50.6205 26.22 50.0055 26.485 49.5355 27.015C49.0655 27.545 48.8305 28.25 48.8305 29.13C48.8305 29.72 48.9355 30.24 49.1455 30.69C49.3555 31.14 49.6505 31.495 50.0305 31.755C50.4205 32.005 50.8705 32.13 51.3805 32.13ZM56.9603 33V25.35H58.0853V27.15H58.1603V33H56.9603ZM62.1203 33V27.93C62.1203 27.35 61.9903 26.925 61.7303 26.655C61.4703 26.385 61.0953 26.25 60.6053 26.25C60.1453 26.25 59.7303 26.36 59.3603 26.58C58.9903 26.8 58.6953 27.105 58.4753 27.495C58.2653 27.885 58.1603 28.34 58.1603 28.86L57.9653 27.045C58.2253 26.475 58.6153 26.025 59.1353 25.695C59.6553 25.365 60.2203 25.2 60.8303 25.2C61.5703 25.2 62.1703 25.42 62.6303 25.86C63.0903 26.29 63.3203 26.875 63.3203 27.615V33H62.1203ZM67.2803 33V27.93C67.2803 27.35 67.1503 26.925 66.8903 26.655C66.6303 26.385 66.2553 26.25 65.7653 26.25C65.3053 26.25 64.8903 26.36 64.5203 26.58C64.1503 26.8 63.8553 27.105 63.6353 27.495C63.4253 27.885 63.3203 28.34 63.3203 28.86L63.0203 27.045C63.2803 26.475 63.6803 26.025 64.2203 25.695C64.7603 25.365 65.3403 25.2 65.9603 25.2C66.7003 25.2 67.3053 25.42 67.7753 25.86C68.2453 26.29 68.4803 26.875 68.4803 27.615V33H67.2803ZM74.5684 33.135C73.8484 33.135 73.2434 32.96 72.7534 32.61C72.2634 32.26 71.9284 31.765 71.7484 31.125L71.9884 31.095V36.075H70.7884V25.35H71.9134V27.135L71.7484 27.09C71.9384 26.5 72.2984 26.04 72.8284 25.71C73.3584 25.37 73.9734 25.2 74.6734 25.2C75.3534 25.2 75.9434 25.365 76.4434 25.695C76.9534 26.025 77.3484 26.485 77.6284 27.075C77.9084 27.665 78.0484 28.355 78.0484 29.145C78.0484 29.945 77.9034 30.645 77.6134 31.245C77.3234 31.845 76.9184 32.31 76.3984 32.64C75.8784 32.97 75.2684 33.135 74.5684 33.135ZM74.3884 32.085C75.1484 32.085 75.7434 31.825 76.1734 31.305C76.6034 30.775 76.8184 30.055 76.8184 29.145C76.8184 28.245 76.6034 27.54 76.1734 27.03C75.7434 26.51 75.1484 26.25 74.3884 26.25C73.6284 26.25 73.0284 26.515 72.5884 27.045C72.1484 27.565 71.9284 28.28 71.9284 29.19C71.9284 30.08 72.1484 30.785 72.5884 31.305C73.0284 31.825 73.6284 32.085 74.3884 32.085ZM79.8851 33V22.2H81.0851V33H79.8851ZM86.6236 33.15C85.8936 33.15 85.2486 32.98 84.6886 32.64C84.1286 32.29 83.6886 31.815 83.3686 31.215C83.0486 30.615 82.8886 29.925 82.8886 29.145C82.8886 28.365 83.0436 27.68 83.3536 27.09C83.6736 26.49 84.1186 26.025 84.6886 25.695C85.2586 25.365 85.9136 25.2 86.6536 25.2C87.3636 25.2 87.9786 25.355 88.4986 25.665C89.0286 25.975 89.4336 26.41 89.7136 26.97C90.0036 27.53 90.1486 28.19 90.1486 28.95C90.1486 29.05 90.1436 29.145 90.1336 29.235C90.1336 29.325 90.1236 29.425 90.1036 29.535H83.7886V28.53H89.3686L88.9786 29.085C88.9786 28.165 88.7736 27.46 88.3636 26.97C87.9636 26.47 87.3936 26.22 86.6536 26.22C85.8936 26.22 85.2786 26.485 84.8086 27.015C84.3486 27.535 84.1186 28.24 84.1186 29.13C84.1186 30.04 84.3486 30.77 84.8086 31.32C85.2786 31.86 85.9036 32.13 86.6836 32.13C87.1736 32.13 87.6036 32.025 87.9736 31.815C88.3436 31.595 88.6136 31.285 88.7836 30.885H89.9236C89.6736 31.585 89.2536 32.14 88.6636 32.55C88.0836 32.95 87.4036 33.15 86.6236 33.15ZM96.618 33L94.083 29.445L91.053 25.35H92.448L94.788 28.635L98.013 33H96.618ZM94.158 28.695L96.558 25.35H97.908L94.788 29.505L94.158 28.695ZM94.668 29.52L92.073 33H90.708L94.083 28.665L94.668 29.52ZM102.783 33V22.2H104.013V33H102.783ZM103.413 33V31.92H110.013V33H103.413ZM103.413 27.915V26.835H109.473V27.915H103.413ZM103.413 23.28V22.2H109.893V23.28H103.413ZM117.179 33V31.215L117.329 31.26C117.139 31.84 116.789 32.3 116.279 32.64C115.779 32.98 115.179 33.15 114.479 33.15C113.789 33.15 113.184 32.985 112.664 32.655C112.154 32.325 111.754 31.865 111.464 31.275C111.184 30.685 111.044 29.995 111.044 29.205C111.044 28.405 111.189 27.705 111.479 27.105C111.769 26.505 112.174 26.04 112.694 25.71C113.214 25.38 113.824 25.215 114.524 25.215C115.244 25.215 115.849 25.39 116.339 25.74C116.829 26.09 117.164 26.585 117.344 27.225L117.104 27.255V22.2H118.304V33H117.179ZM114.704 32.1C115.474 32.1 116.074 31.84 116.504 31.32C116.944 30.79 117.164 30.07 117.164 29.16C117.164 28.27 116.944 27.565 116.504 27.045C116.064 26.525 115.464 26.265 114.704 26.265C113.944 26.265 113.349 26.525 112.919 27.045C112.489 27.565 112.274 28.285 112.274 29.205C112.274 30.105 112.489 30.815 112.919 31.335C113.349 31.845 113.944 32.1 114.704 32.1ZM123.755 36.225C122.845 36.225 122.085 36.01 121.475 35.58C120.875 35.16 120.51 34.6 120.38 33.9H121.52C121.63 34.3 121.875 34.615 122.255 34.845C122.645 35.085 123.17 35.205 123.83 35.205C124.61 35.205 125.2 34.99 125.6 34.56C126 34.14 126.2 33.52 126.2 32.7V31.065L126.35 31.095C126.18 31.675 125.84 32.14 125.33 32.49C124.82 32.83 124.215 33 123.515 33C122.845 33 122.255 32.84 121.745 32.52C121.235 32.19 120.84 31.735 120.56 31.155C120.28 30.575 120.14 29.9 120.14 29.13C120.14 28.35 120.285 27.665 120.575 27.075C120.865 26.485 121.27 26.03 121.79 25.71C122.32 25.38 122.935 25.215 123.635 25.215C124.355 25.215 124.955 25.39 125.435 25.74C125.925 26.09 126.25 26.59 126.41 27.24L126.275 27.255V25.35H127.4V32.7C127.4 33.79 127.075 34.65 126.425 35.28C125.775 35.91 124.885 36.225 123.755 36.225ZM123.815 31.965C124.565 31.965 125.16 31.705 125.6 31.185C126.04 30.665 126.26 29.96 126.26 29.07C126.26 28.2 126.04 27.515 125.6 27.015C125.16 26.505 124.565 26.25 123.815 26.25C123.055 26.25 122.455 26.505 122.015 27.015C121.585 27.525 121.37 28.225 121.37 29.115C121.37 29.985 121.59 30.68 122.03 31.2C122.47 31.71 123.065 31.965 123.815 31.965ZM132.942 33.15C132.212 33.15 131.567 32.98 131.007 32.64C130.447 32.29 130.007 31.815 129.687 31.215C129.367 30.615 129.207 29.925 129.207 29.145C129.207 28.365 129.362 27.68 129.672 27.09C129.992 26.49 130.437 26.025 131.007 25.695C131.577 25.365 132.232 25.2 132.972 25.2C133.682 25.2 134.297 25.355 134.817 25.665C135.347 25.975 135.752 26.41 136.032 26.97C136.322 27.53 136.467 28.19 136.467 28.95C136.467 29.05 136.462 29.145 136.452 29.235C136.452 29.325 136.442 29.425 136.422 29.535H130.107V28.53H135.687L135.297 29.085C135.297 28.165 135.092 27.46 134.682 26.97C134.282 26.47 133.712 26.22 132.972 26.22C132.212 26.22 131.597 26.485 131.127 27.015C130.667 27.535 130.437 28.24 130.437 29.13C130.437 30.04 130.667 30.77 131.127 31.32C131.597 31.86 132.222 32.13 133.002 32.13C133.492 32.13 133.922 32.025 134.292 31.815C134.662 31.595 134.932 31.285 135.102 30.885H136.242C135.992 31.585 135.572 32.14 134.982 32.55C134.402 32.95 133.722 33.15 132.942 33.15ZM53.0765 48V38.28H49.3715V37.2H58.0115V38.28H54.3065V48H53.0765ZM61.3414 48.15C60.5914 48.15 59.9314 47.975 59.3614 47.625C58.7914 47.275 58.3464 46.8 58.0264 46.2C57.7164 45.59 57.5614 44.905 57.5614 44.145C57.5614 43.375 57.7214 42.695 58.0414 42.105C58.3614 41.515 58.8014 41.05 59.3614 40.71C59.9314 40.37 60.5914 40.2 61.3414 40.2C62.1014 40.2 62.7614 40.37 63.3214 40.71C63.8914 41.05 64.3314 41.515 64.6414 42.105C64.9614 42.695 65.1214 43.375 65.1214 44.145C65.1214 44.905 64.9614 45.59 64.6414 46.2C64.3314 46.8 63.8914 47.275 63.3214 47.625C62.7614 47.975 62.1014 48.15 61.3414 48.15ZM61.3414 47.13C61.8614 47.13 62.3114 47.005 62.6914 46.755C63.0714 46.495 63.3664 46.14 63.5764 45.69C63.7864 45.24 63.8914 44.72 63.8914 44.13C63.8914 43.25 63.6564 42.545 63.1864 42.015C62.7264 41.485 62.1114 41.22 61.3414 41.22C60.5814 41.22 59.9664 41.485 59.4964 42.015C59.0264 42.545 58.7914 43.25 58.7914 44.13C58.7914 44.72 58.8964 45.24 59.1064 45.69C59.3164 46.14 59.6114 46.495 59.9914 46.755C60.3814 47.005 60.8314 47.13 61.3414 47.13ZM70.7012 48.135C69.9812 48.135 69.3762 47.96 68.8862 47.61C68.3962 47.26 68.0612 46.765 67.8812 46.125L68.1212 46.095V51.075H66.9212V40.35H68.0462V42.135L67.8812 42.09C68.0712 41.5 68.4312 41.04 68.9612 40.71C69.4912 40.37 70.1062 40.2 70.8062 40.2C71.4862 40.2 72.0762 40.365 72.5762 40.695C73.0862 41.025 73.4812 41.485 73.7612 42.075C74.0412 42.665 74.1812 43.355 74.1812 44.145C74.1812 44.945 74.0362 45.645 73.7462 46.245C73.4562 46.845 73.0512 47.31 72.5312 47.64C72.0112 47.97 71.4012 48.135 70.7012 48.135ZM70.5212 47.085C71.2812 47.085 71.8762 46.825 72.3062 46.305C72.7362 45.775 72.9512 45.055 72.9512 44.145C72.9512 43.245 72.7362 42.54 72.3062 42.03C71.8762 41.51 71.2812 41.25 70.5212 41.25C69.7612 41.25 69.1612 41.515 68.7212 42.045C68.2812 42.565 68.0612 43.28 68.0612 44.19C68.0612 45.08 68.2812 45.785 68.7212 46.305C69.1612 46.825 69.7612 47.085 70.5212 47.085ZM79.1979 48.15C78.4479 48.15 77.7879 47.975 77.2179 47.625C76.6479 47.275 76.2029 46.8 75.8829 46.2C75.5729 45.59 75.4179 44.905 75.4179 44.145C75.4179 43.375 75.5779 42.695 75.8979 42.105C76.2179 41.515 76.6579 41.05 77.2179 40.71C77.7879 40.37 78.4479 40.2 79.1979 40.2C79.9579 40.2 80.6179 40.37 81.1779 40.71C81.7479 41.05 82.1879 41.515 82.4979 42.105C82.8179 42.695 82.9779 43.375 82.9779 44.145C82.9779 44.905 82.8179 45.59 82.4979 46.2C82.1879 46.8 81.7479 47.275 81.1779 47.625C80.6179 47.975 79.9579 48.15 79.1979 48.15ZM79.1979 47.13C79.7179 47.13 80.1679 47.005 80.5479 46.755C80.9279 46.495 81.2229 46.14 81.4329 45.69C81.6429 45.24 81.7479 44.72 81.7479 44.13C81.7479 43.25 81.5129 42.545 81.0429 42.015C80.5829 41.485 79.9679 41.22 79.1979 41.22C78.4379 41.22 77.8229 41.485 77.3529 42.015C76.8829 42.545 76.6479 43.25 76.6479 44.13C76.6479 44.72 76.7529 45.24 76.9629 45.69C77.1729 46.14 77.4679 46.495 77.8479 46.755C78.2379 47.005 78.6879 47.13 79.1979 47.13ZM84.7776 48V37.2H85.9776V48H84.7776ZM91.5612 48.15C90.8112 48.15 90.1512 47.975 89.5812 47.625C89.0112 47.275 88.5662 46.8 88.2462 46.2C87.9362 45.59 87.7812 44.905 87.7812 44.145C87.7812 43.375 87.9412 42.695 88.2612 42.105C88.5812 41.515 89.0212 41.05 89.5812 40.71C90.1512 40.37 90.8112 40.2 91.5612 40.2C92.3212 40.2 92.9812 40.37 93.5412 40.71C94.1112 41.05 94.5512 41.515 94.8612 42.105C95.1812 42.695 95.3412 43.375 95.3412 44.145C95.3412 44.905 95.1812 45.59 94.8612 46.2C94.5512 46.8 94.1112 47.275 93.5412 47.625C92.9812 47.975 92.3212 48.15 91.5612 48.15ZM91.5612 47.13C92.0812 47.13 92.5312 47.005 92.9112 46.755C93.2912 46.495 93.5862 46.14 93.7962 45.69C94.0062 45.24 94.1112 44.72 94.1112 44.13C94.1112 43.25 93.8762 42.545 93.4062 42.015C92.9462 41.485 92.3312 41.22 91.5612 41.22C90.8012 41.22 90.1862 41.485 89.7162 42.015C89.2462 42.545 89.0112 43.25 89.0112 44.13C89.0112 44.72 89.1162 45.24 89.3262 45.69C89.5362 46.14 89.8312 46.495 90.2112 46.755C90.6012 47.005 91.0512 47.13 91.5612 47.13ZM100.186 51.225C99.2759 51.225 98.5159 51.01 97.9059 50.58C97.3059 50.16 96.9409 49.6 96.8109 48.9H97.9509C98.0609 49.3 98.3059 49.615 98.6859 49.845C99.0759 50.085 99.6009 50.205 100.261 50.205C101.041 50.205 101.631 49.99 102.031 49.56C102.431 49.14 102.631 48.52 102.631 47.7V46.065L102.781 46.095C102.611 46.675 102.271 47.14 101.761 47.49C101.251 47.83 100.646 48 99.9459 48C99.2759 48 98.6859 47.84 98.1759 47.52C97.6659 47.19 97.2709 46.735 96.9909 46.155C96.7109 45.575 96.5709 44.9 96.5709 44.13C96.5709 43.35 96.7159 42.665 97.0059 42.075C97.2959 41.485 97.7009 41.03 98.2209 40.71C98.7509 40.38 99.3659 40.215 100.066 40.215C100.786 40.215 101.386 40.39 101.866 40.74C102.356 41.09 102.681 41.59 102.841 42.24L102.706 42.255V40.35H103.831V47.7C103.831 48.79 103.506 49.65 102.856 50.28C102.206 50.91 101.316 51.225 100.186 51.225ZM100.246 46.965C100.996 46.965 101.591 46.705 102.031 46.185C102.471 45.665 102.691 44.96 102.691 44.07C102.691 43.2 102.471 42.515 102.031 42.015C101.591 41.505 100.996 41.25 100.246 41.25C99.4859 41.25 98.8859 41.505 98.4459 42.015C98.0159 42.525 97.8009 43.225 97.8009 44.115C97.8009 44.985 98.0209 45.68 98.4609 46.2C98.9009 46.71 99.4959 46.965 100.246 46.965ZM106.238 48V40.35H107.438V48H106.238ZM106.148 38.61V37.2H107.528V38.61H106.148ZM112.947 48.15C112.217 48.15 111.572 47.98 111.012 47.64C110.452 47.29 110.012 46.815 109.692 46.215C109.372 45.615 109.212 44.925 109.212 44.145C109.212 43.365 109.367 42.68 109.677 42.09C109.997 41.49 110.442 41.025 111.012 40.695C111.582 40.365 112.237 40.2 112.977 40.2C113.687 40.2 114.302 40.355 114.822 40.665C115.352 40.975 115.757 41.41 116.037 41.97C116.327 42.53 116.472 43.19 116.472 43.95C116.472 44.05 116.467 44.145 116.457 44.235C116.457 44.325 116.447 44.425 116.427 44.535H110.112V43.53H115.692L115.302 44.085C115.302 43.165 115.097 42.46 114.687 41.97C114.287 41.47 113.717 41.22 112.977 41.22C112.217 41.22 111.602 41.485 111.132 42.015C110.672 42.535 110.442 43.24 110.442 44.13C110.442 45.04 110.672 45.77 111.132 46.32C111.602 46.86 112.227 47.13 113.007 47.13C113.497 47.13 113.927 47.025 114.297 46.815C114.667 46.595 114.937 46.285 115.107 45.885H116.247C115.997 46.585 115.577 47.14 114.987 47.55C114.407 47.95 113.727 48.15 112.947 48.15ZM120.874 48.15C119.934 48.15 119.184 47.935 118.624 47.505C118.064 47.065 117.744 46.445 117.664 45.645H118.819C118.889 46.135 119.104 46.51 119.464 46.77C119.824 47.03 120.304 47.16 120.904 47.16C121.434 47.16 121.849 47.06 122.149 46.86C122.449 46.66 122.599 46.375 122.599 46.005C122.599 45.745 122.514 45.52 122.344 45.33C122.174 45.13 121.834 44.965 121.324 44.835L120.094 44.52C119.394 44.34 118.869 44.065 118.519 43.695C118.169 43.315 117.994 42.865 117.994 42.345C117.994 41.685 118.239 41.165 118.729 40.785C119.219 40.395 119.884 40.2 120.724 40.2C121.554 40.2 122.229 40.4 122.749 40.8C123.269 41.2 123.564 41.755 123.634 42.465H122.479C122.409 42.055 122.219 41.74 121.909 41.52C121.599 41.3 121.189 41.19 120.679 41.19C120.189 41.19 119.809 41.285 119.539 41.475C119.269 41.655 119.134 41.915 119.134 42.255C119.134 42.515 119.229 42.74 119.419 42.93C119.619 43.12 119.949 43.28 120.409 43.41L121.609 43.74C122.319 43.93 122.854 44.22 123.214 44.61C123.574 45 123.754 45.47 123.754 46.02C123.754 46.69 123.499 47.215 122.989 47.595C122.479 47.965 121.774 48.15 120.874 48.15Z" fill="#F4F4F4"/>
<rect x="223" width="173" height="70" rx="25" fill="#5D6C63"/>
<rect x="223.5" y="0.5" width="172" height="69" rx="24.5" stroke="#F4F4F4" stroke-opacity="0.25"/>
<path d="M279.918 33.15C278.618 33.15 277.603 32.755 276.873 31.965C276.153 31.165 275.793 30.05 275.793 28.62V22.2H277.023V28.68C277.023 29.76 277.273 30.59 277.773 31.17C278.273 31.75 278.988 32.04 279.918 32.04C280.868 32.04 281.593 31.755 282.093 31.185C282.593 30.605 282.843 29.77 282.843 28.68V22.2H284.073V28.635C284.073 30.055 283.708 31.165 282.978 31.965C282.248 32.755 281.228 33.15 279.918 33.15ZM286.471 33V25.35H287.596V27.15H287.671V33H286.471ZM291.946 33V27.99C291.946 27.41 291.801 26.975 291.511 26.685C291.221 26.395 290.791 26.25 290.221 26.25C289.721 26.25 289.276 26.36 288.886 26.58C288.506 26.8 288.206 27.105 287.986 27.495C287.776 27.885 287.671 28.34 287.671 28.86L287.476 27.045C287.736 26.475 288.131 26.025 288.661 25.695C289.201 25.365 289.811 25.2 290.491 25.2C291.291 25.2 291.931 25.43 292.411 25.89C292.901 26.34 293.146 26.935 293.146 27.675V33H291.946ZM295.451 33V25.35H296.576V27.3H296.651V33H295.451ZM296.651 29.01L296.456 27.195C296.636 26.545 296.956 26.05 297.416 25.71C297.876 25.37 298.406 25.2 299.006 25.2C299.256 25.2 299.426 25.22 299.516 25.26V26.415C299.466 26.395 299.396 26.385 299.306 26.385C299.216 26.375 299.106 26.37 298.976 26.37C298.216 26.37 297.636 26.6 297.236 27.06C296.846 27.51 296.651 28.16 296.651 29.01ZM303.947 33.15C303.217 33.15 302.572 32.98 302.012 32.64C301.452 32.29 301.012 31.815 300.692 31.215C300.372 30.615 300.212 29.925 300.212 29.145C300.212 28.365 300.367 27.68 300.677 27.09C300.997 26.49 301.442 26.025 302.012 25.695C302.582 25.365 303.237 25.2 303.977 25.2C304.687 25.2 305.302 25.355 305.822 25.665C306.352 25.975 306.757 26.41 307.037 26.97C307.327 27.53 307.472 28.19 307.472 28.95C307.472 29.05 307.467 29.145 307.457 29.235C307.457 29.325 307.447 29.425 307.427 29.535H301.112V28.53H306.692L306.302 29.085C306.302 28.165 306.097 27.46 305.687 26.97C305.287 26.47 304.717 26.22 303.977 26.22C303.217 26.22 302.602 26.485 302.132 27.015C301.672 27.535 301.442 28.24 301.442 29.13C301.442 30.04 301.672 30.77 302.132 31.32C302.602 31.86 303.227 32.13 304.007 32.13C304.497 32.13 304.927 32.025 305.297 31.815C305.667 31.595 305.937 31.285 306.107 30.885H307.247C306.997 31.585 306.577 32.14 305.987 32.55C305.407 32.95 304.727 33.15 303.947 33.15ZM309.279 33V22.2H310.479V33H309.279ZM312.883 33V25.35H314.083V33H312.883ZM312.793 23.61V22.2H314.173V23.61H312.793ZM321.137 33C321.097 32.83 321.067 32.635 321.047 32.415C321.037 32.195 321.032 31.915 321.032 31.575H320.957V27.915C320.957 27.335 320.822 26.91 320.552 26.64C320.292 26.36 319.867 26.22 319.277 26.22C318.697 26.22 318.232 26.34 317.882 26.58C317.542 26.81 317.352 27.14 317.312 27.57H316.157C316.207 26.83 316.517 26.25 317.087 25.83C317.657 25.41 318.402 25.2 319.322 25.2C320.272 25.2 320.977 25.425 321.437 25.875C321.897 26.325 322.127 27 322.127 27.9V31.575C322.127 31.795 322.142 32.025 322.172 32.265C322.202 32.495 322.242 32.74 322.292 33H321.137ZM318.512 33.15C317.722 33.15 317.092 32.96 316.622 32.58C316.162 32.19 315.932 31.66 315.932 30.99C315.932 30.32 316.162 29.8 316.622 29.43C317.082 29.06 317.752 28.8 318.632 28.65L321.302 28.2V29.19L318.812 29.58C318.252 29.67 317.827 29.82 317.537 30.03C317.247 30.24 317.102 30.545 317.102 30.945C317.102 31.335 317.232 31.63 317.492 31.83C317.762 32.03 318.157 32.13 318.677 32.13C319.347 32.13 319.892 31.98 320.312 31.68C320.742 31.37 320.957 30.97 320.957 30.48L321.152 31.545C320.992 32.055 320.677 32.45 320.207 32.73C319.747 33.01 319.182 33.15 318.512 33.15ZM328.22 33.135C327.5 33.135 326.895 32.96 326.405 32.61C325.915 32.26 325.58 31.765 325.4 31.125L325.565 31.095V33H324.44V22.2H325.64V27.135L325.475 27.09C325.665 26.5 326.01 26.04 326.51 25.71C327.02 25.37 327.625 25.2 328.325 25.2C329.005 25.2 329.595 25.365 330.095 25.695C330.605 26.025 331 26.485 331.28 27.075C331.56 27.665 331.7 28.355 331.7 29.145C331.7 29.945 331.555 30.645 331.265 31.245C330.975 31.845 330.57 32.31 330.05 32.64C329.53 32.97 328.92 33.135 328.22 33.135ZM328.04 32.085C328.8 32.085 329.395 31.825 329.825 31.305C330.255 30.775 330.47 30.055 330.47 29.145C330.47 28.245 330.255 27.54 329.825 27.03C329.395 26.51 328.8 26.25 328.04 26.25C327.28 26.25 326.68 26.515 326.24 27.045C325.8 27.565 325.58 28.28 325.58 29.19C325.58 30.08 325.8 30.785 326.24 31.305C326.68 31.825 327.28 32.085 328.04 32.085ZM333.537 33V22.2H334.737V33H333.537ZM340.275 33.15C339.545 33.15 338.9 32.98 338.34 32.64C337.78 32.29 337.34 31.815 337.02 31.215C336.7 30.615 336.54 29.925 336.54 29.145C336.54 28.365 336.695 27.68 337.005 27.09C337.325 26.49 337.77 26.025 338.34 25.695C338.91 25.365 339.565 25.2 340.305 25.2C341.015 25.2 341.63 25.355 342.15 25.665C342.68 25.975 343.085 26.41 343.365 26.97C343.655 27.53 343.8 28.19 343.8 28.95C343.8 29.05 343.795 29.145 343.785 29.235C343.785 29.325 343.775 29.425 343.755 29.535H337.44V28.53H343.02L342.63 29.085C342.63 28.165 342.425 27.46 342.015 26.97C341.615 26.47 341.045 26.22 340.305 26.22C339.545 26.22 338.93 26.485 338.46 27.015C338 27.535 337.77 28.24 337.77 29.13C337.77 30.04 338 30.77 338.46 31.32C338.93 31.86 339.555 32.13 340.335 32.13C340.825 32.13 341.255 32.025 341.625 31.815C341.995 31.595 342.265 31.285 342.435 30.885H343.575C343.325 31.585 342.905 32.14 342.315 32.55C341.735 32.95 341.055 33.15 340.275 33.15ZM271.178 48.15C270.438 48.15 269.753 48.015 269.123 47.745C268.503 47.465 267.963 47.08 267.503 46.59C267.043 46.09 266.688 45.505 266.438 44.835C266.188 44.155 266.063 43.41 266.063 42.6C266.063 41.79 266.188 41.05 266.438 40.38C266.688 39.7 267.038 39.115 267.488 38.625C267.948 38.125 268.488 37.74 269.108 37.47C269.738 37.19 270.423 37.05 271.163 37.05C271.973 37.05 272.698 37.215 273.338 37.545C273.988 37.875 274.518 38.34 274.928 38.94C275.348 39.54 275.608 40.24 275.708 41.04H274.478C274.358 40.15 274.003 39.45 273.413 38.94C272.833 38.42 272.088 38.16 271.178 38.16C270.408 38.16 269.733 38.35 269.153 38.73C268.573 39.1 268.123 39.62 267.803 40.29C267.483 40.95 267.323 41.72 267.323 42.6C267.323 43.48 267.483 44.255 267.803 44.925C268.123 45.585 268.573 46.105 269.153 46.485C269.733 46.855 270.403 47.04 271.163 47.04C272.093 47.04 272.853 46.78 273.443 46.26C274.043 45.74 274.398 45.04 274.508 44.16H275.738C275.638 44.96 275.378 45.66 274.958 46.26C274.548 46.86 274.018 47.325 273.368 47.655C272.728 47.985 271.998 48.15 271.178 48.15ZM280.767 48.15C280.017 48.15 279.357 47.975 278.787 47.625C278.217 47.275 277.772 46.8 277.452 46.2C277.142 45.59 276.987 44.905 276.987 44.145C276.987 43.375 277.147 42.695 277.467 42.105C277.787 41.515 278.227 41.05 278.787 40.71C279.357 40.37 280.017 40.2 280.767 40.2C281.527 40.2 282.187 40.37 282.747 40.71C283.317 41.05 283.757 41.515 284.067 42.105C284.387 42.695 284.547 43.375 284.547 44.145C284.547 44.905 284.387 45.59 284.067 46.2C283.757 46.8 283.317 47.275 282.747 47.625C282.187 47.975 281.527 48.15 280.767 48.15ZM280.767 47.13C281.287 47.13 281.737 47.005 282.117 46.755C282.497 46.495 282.792 46.14 283.002 45.69C283.212 45.24 283.317 44.72 283.317 44.13C283.317 43.25 283.082 42.545 282.612 42.015C282.152 41.485 281.537 41.22 280.767 41.22C280.007 41.22 279.392 41.485 278.922 42.015C278.452 42.545 278.217 43.25 278.217 44.13C278.217 44.72 278.322 45.24 278.532 45.69C278.742 46.14 279.037 46.495 279.417 46.755C279.807 47.005 280.257 47.13 280.767 47.13ZM286.347 48V40.35H287.472V42.15H287.547V48H286.347ZM291.822 48V42.99C291.822 42.41 291.677 41.975 291.387 41.685C291.097 41.395 290.667 41.25 290.097 41.25C289.597 41.25 289.152 41.36 288.762 41.58C288.382 41.8 288.082 42.105 287.862 42.495C287.652 42.885 287.547 43.34 287.547 43.86L287.352 42.045C287.612 41.475 288.007 41.025 288.537 40.695C289.077 40.365 289.687 40.2 290.367 40.2C291.167 40.2 291.807 40.43 292.287 40.89C292.777 41.34 293.022 41.935 293.022 42.675V48H291.822ZM295.326 48V40.35H296.451V42.15H296.526V48H295.326ZM300.801 48V42.99C300.801 42.41 300.656 41.975 300.366 41.685C300.076 41.395 299.646 41.25 299.076 41.25C298.576 41.25 298.131 41.36 297.741 41.58C297.361 41.8 297.061 42.105 296.841 42.495C296.631 42.885 296.526 43.34 296.526 43.86L296.331 42.045C296.591 41.475 296.986 41.025 297.516 40.695C298.056 40.365 298.666 40.2 299.346 40.2C300.146 40.2 300.786 40.43 301.266 40.89C301.756 41.34 302.001 41.935 302.001 42.675V48H300.801ZM307.441 48.15C306.711 48.15 306.066 47.98 305.506 47.64C304.946 47.29 304.506 46.815 304.186 46.215C303.866 45.615 303.706 44.925 303.706 44.145C303.706 43.365 303.861 42.68 304.171 42.09C304.491 41.49 304.936 41.025 305.506 40.695C306.076 40.365 306.731 40.2 307.471 40.2C308.181 40.2 308.796 40.355 309.316 40.665C309.846 40.975 310.251 41.41 310.531 41.97C310.821 42.53 310.966 43.19 310.966 43.95C310.966 44.05 310.961 44.145 310.951 44.235C310.951 44.325 310.941 44.425 310.921 44.535H304.606V43.53H310.186L309.796 44.085C309.796 43.165 309.591 42.46 309.181 41.97C308.781 41.47 308.211 41.22 307.471 41.22C306.711 41.22 306.096 41.485 305.626 42.015C305.166 42.535 304.936 43.24 304.936 44.13C304.936 45.04 305.166 45.77 305.626 46.32C306.096 46.86 306.721 47.13 307.501 47.13C307.991 47.13 308.421 47.025 308.791 46.815C309.161 46.595 309.431 46.285 309.601 45.885H310.741C310.491 46.585 310.071 47.14 309.481 47.55C308.901 47.95 308.221 48.15 307.441 48.15ZM315.803 48.15C315.103 48.15 314.478 47.98 313.928 47.64C313.388 47.29 312.958 46.815 312.638 46.215C312.328 45.605 312.173 44.915 312.173 44.145C312.173 43.375 312.328 42.695 312.638 42.105C312.958 41.515 313.388 41.05 313.928 40.71C314.478 40.37 315.098 40.2 315.788 40.2C316.358 40.2 316.868 40.31 317.318 40.53C317.778 40.75 318.153 41.065 318.443 41.475C318.743 41.875 318.933 42.345 319.013 42.885H317.903C317.803 42.395 317.573 41.995 317.213 41.685C316.853 41.375 316.388 41.22 315.818 41.22C315.328 41.22 314.903 41.34 314.543 41.58C314.183 41.82 313.903 42.16 313.703 42.6C313.503 43.04 313.403 43.555 313.403 44.145C313.403 44.735 313.503 45.255 313.703 45.705C313.903 46.155 314.183 46.505 314.543 46.755C314.913 47.005 315.343 47.13 315.833 47.13C316.383 47.13 316.843 46.98 317.213 46.68C317.583 46.37 317.818 45.97 317.918 45.48H319.028C318.938 46.01 318.738 46.48 318.428 46.89C318.128 47.29 317.753 47.6 317.303 47.82C316.853 48.04 316.353 48.15 315.803 48.15ZM323.802 48.135C322.952 48.135 322.332 47.945 321.942 47.565C321.562 47.175 321.372 46.615 321.372 45.885V38.565L322.572 38.115V45.87C322.572 46.3 322.682 46.615 322.902 46.815C323.122 47.015 323.482 47.115 323.982 47.115C324.182 47.115 324.352 47.105 324.492 47.085C324.642 47.055 324.762 47.02 324.852 46.98V48C324.752 48.04 324.607 48.07 324.417 48.09C324.237 48.12 324.032 48.135 323.802 48.135ZM319.797 41.37V40.35H324.852V41.37H319.797ZM326.396 48V40.35H327.596V48H326.396ZM326.306 38.61V37.2H327.686V38.61H326.306ZM332.132 48L328.967 40.35H330.257L332.897 47.19H332.417L335.042 40.35H336.272L333.107 48H332.132ZM337.646 48V40.35H338.846V48H337.646ZM337.556 38.61V37.2H338.936V38.61H337.556ZM344.28 48.135C343.43 48.135 342.81 47.945 342.42 47.565C342.04 47.175 341.85 46.615 341.85 45.885V38.565L343.05 38.115V45.87C343.05 46.3 343.16 46.615 343.38 46.815C343.6 47.015 343.96 47.115 344.46 47.115C344.66 47.115 344.83 47.105 344.97 47.085C345.12 47.055 345.24 47.02 345.33 46.98V48C345.23 48.04 345.085 48.07 344.895 48.09C344.715 48.12 344.51 48.135 344.28 48.135ZM340.275 41.37V40.35H345.33V41.37H340.275ZM347.695 51.075L349.405 47.1L349.675 46.68L352.18 40.35H353.41L348.97 51.075H347.695ZM349.54 48.075L346.105 40.35H347.425L350.38 47.265L349.54 48.075Z" fill="#F4F4F4"/>
<rect x="446" width="173" height="70" rx="25" fill="#5D6C63"/>
<rect x="446.5" y="0.5" width="172" height="69" rx="24.5" stroke="#F4F4F4" stroke-opacity="0.25"/>
<path d="M470.091 33V22.2H471.321V33H470.091ZM470.721 33V31.92H476.871V33H470.721ZM478.409 33V25.35H479.609V33H478.409ZM478.319 23.61V22.2H479.699V23.61H478.319ZM482.013 33V25.35H483.138V27.15H483.213V33H482.013ZM487.173 33V27.93C487.173 27.35 487.043 26.925 486.783 26.655C486.523 26.385 486.148 26.25 485.658 26.25C485.198 26.25 484.783 26.36 484.413 26.58C484.043 26.8 483.748 27.105 483.528 27.495C483.318 27.885 483.213 28.34 483.213 28.86L483.018 27.045C483.278 26.475 483.668 26.025 484.188 25.695C484.708 25.365 485.273 25.2 485.883 25.2C486.623 25.2 487.223 25.42 487.683 25.86C488.143 26.29 488.373 26.875 488.373 27.615V33H487.173ZM492.333 33V27.93C492.333 27.35 492.203 26.925 491.943 26.655C491.683 26.385 491.308 26.25 490.818 26.25C490.358 26.25 489.943 26.36 489.573 26.58C489.203 26.8 488.908 27.105 488.688 27.495C488.478 27.885 488.373 28.34 488.373 28.86L488.073 27.045C488.333 26.475 488.733 26.025 489.273 25.695C489.813 25.365 490.393 25.2 491.013 25.2C491.753 25.2 492.358 25.42 492.828 25.86C493.298 26.29 493.533 26.875 493.533 27.615V33H492.333ZM495.841 33V25.35H497.041V33H495.841ZM495.751 23.61V22.2H497.131V23.61H495.751ZM502.475 33.135C501.625 33.135 501.005 32.945 500.615 32.565C500.235 32.175 500.045 31.615 500.045 30.885V23.565L501.245 23.115V30.87C501.245 31.3 501.355 31.615 501.575 31.815C501.795 32.015 502.155 32.115 502.655 32.115C502.855 32.115 503.025 32.105 503.165 32.085C503.315 32.055 503.435 32.02 503.525 31.98V33C503.425 33.04 503.28 33.07 503.09 33.09C502.91 33.12 502.705 33.135 502.475 33.135ZM498.47 26.37V25.35H503.525V26.37H498.47ZM508.043 33.15C507.313 33.15 506.668 32.98 506.108 32.64C505.548 32.29 505.108 31.815 504.788 31.215C504.468 30.615 504.308 29.925 504.308 29.145C504.308 28.365 504.463 27.68 504.773 27.09C505.093 26.49 505.538 26.025 506.108 25.695C506.678 25.365 507.333 25.2 508.073 25.2C508.783 25.2 509.398 25.355 509.918 25.665C510.448 25.975 510.853 26.41 511.133 26.97C511.423 27.53 511.568 28.19 511.568 28.95C511.568 29.05 511.563 29.145 511.553 29.235C511.553 29.325 511.543 29.425 511.523 29.535H505.208V28.53H510.788L510.398 29.085C510.398 28.165 510.193 27.46 509.783 26.97C509.383 26.47 508.813 26.22 508.073 26.22C507.313 26.22 506.698 26.485 506.228 27.015C505.768 27.535 505.538 28.24 505.538 29.13C505.538 30.04 505.768 30.77 506.228 31.32C506.698 31.86 507.323 32.13 508.103 32.13C508.593 32.13 509.023 32.025 509.393 31.815C509.763 31.595 510.033 31.285 510.203 30.885H511.343C511.093 31.585 510.673 32.14 510.083 32.55C509.503 32.95 508.823 33.15 508.043 33.15ZM518.94 33V31.215L519.09 31.26C518.9 31.84 518.55 32.3 518.04 32.64C517.54 32.98 516.94 33.15 516.24 33.15C515.55 33.15 514.945 32.985 514.425 32.655C513.915 32.325 513.515 31.865 513.225 31.275C512.945 30.685 512.805 29.995 512.805 29.205C512.805 28.405 512.95 27.705 513.24 27.105C513.53 26.505 513.935 26.04 514.455 25.71C514.975 25.38 515.585 25.215 516.285 25.215C517.005 25.215 517.61 25.39 518.1 25.74C518.59 26.09 518.925 26.585 519.105 27.225L518.865 27.255V22.2H520.065V33H518.94ZM516.465 32.1C517.235 32.1 517.835 31.84 518.265 31.32C518.705 30.79 518.925 30.07 518.925 29.16C518.925 28.27 518.705 27.565 518.265 27.045C517.825 26.525 517.225 26.265 516.465 26.265C515.705 26.265 515.11 26.525 514.68 27.045C514.25 27.565 514.035 28.285 514.035 29.205C514.035 30.105 514.25 30.815 514.68 31.335C515.11 31.845 515.705 32.1 516.465 32.1ZM528.655 33.15C527.905 33.15 527.245 32.975 526.675 32.625C526.105 32.275 525.66 31.8 525.34 31.2C525.03 30.59 524.875 29.905 524.875 29.145C524.875 28.375 525.035 27.695 525.355 27.105C525.675 26.515 526.115 26.05 526.675 25.71C527.245 25.37 527.905 25.2 528.655 25.2C529.415 25.2 530.075 25.37 530.635 25.71C531.205 26.05 531.645 26.515 531.955 27.105C532.275 27.695 532.435 28.375 532.435 29.145C532.435 29.905 532.275 30.59 531.955 31.2C531.645 31.8 531.205 32.275 530.635 32.625C530.075 32.975 529.415 33.15 528.655 33.15ZM528.655 32.13C529.175 32.13 529.625 32.005 530.005 31.755C530.385 31.495 530.68 31.14 530.89 30.69C531.1 30.24 531.205 29.72 531.205 29.13C531.205 28.25 530.97 27.545 530.5 27.015C530.04 26.485 529.425 26.22 528.655 26.22C527.895 26.22 527.28 26.485 526.81 27.015C526.34 27.545 526.105 28.25 526.105 29.13C526.105 29.72 526.21 30.24 526.42 30.69C526.63 31.14 526.925 31.495 527.305 31.755C527.695 32.005 528.145 32.13 528.655 32.13ZM534.235 33V25.35H535.36V27.15H535.435V33H534.235ZM539.71 33V27.99C539.71 27.41 539.565 26.975 539.275 26.685C538.985 26.395 538.555 26.25 537.985 26.25C537.485 26.25 537.04 26.36 536.65 26.58C536.27 26.8 535.97 27.105 535.75 27.495C535.54 27.885 535.435 28.34 535.435 28.86L535.24 27.045C535.5 26.475 535.895 26.025 536.425 25.695C536.965 25.365 537.575 25.2 538.255 25.2C539.055 25.2 539.695 25.43 540.175 25.89C540.665 26.34 540.91 26.935 540.91 27.675V33H539.71ZM542.54 29.49V28.35H547.73V29.49H542.54ZM550.953 33V31.92H553.848C554.748 31.92 555.523 31.74 556.173 31.38C556.823 31.01 557.323 30.495 557.673 29.835C558.023 29.175 558.198 28.41 558.198 27.54C558.198 26.68 558.023 25.93 557.673 25.29C557.323 24.65 556.823 24.155 556.173 23.805C555.533 23.455 554.758 23.28 553.848 23.28H550.953V22.2H553.848C554.978 22.2 555.963 22.425 556.803 22.875C557.643 23.315 558.293 23.94 558.753 24.75C559.223 25.55 559.458 26.49 559.458 27.57C559.458 28.65 559.223 29.6 558.753 30.42C558.283 31.23 557.628 31.865 556.788 32.325C555.958 32.775 554.983 33 553.863 33H550.953ZM550.218 33V22.2H551.448V33H550.218ZM564.484 33.15C563.754 33.15 563.109 32.98 562.549 32.64C561.989 32.29 561.549 31.815 561.229 31.215C560.909 30.615 560.749 29.925 560.749 29.145C560.749 28.365 560.904 27.68 561.214 27.09C561.534 26.49 561.979 26.025 562.549 25.695C563.119 25.365 563.774 25.2 564.514 25.2C565.224 25.2 565.839 25.355 566.359 25.665C566.889 25.975 567.294 26.41 567.574 26.97C567.864 27.53 568.009 28.19 568.009 28.95C568.009 29.05 568.004 29.145 567.994 29.235C567.994 29.325 567.984 29.425 567.964 29.535H561.649V28.53H567.229L566.839 29.085C566.839 28.165 566.634 27.46 566.224 26.97C565.824 26.47 565.254 26.22 564.514 26.22C563.754 26.22 563.139 26.485 562.669 27.015C562.209 27.535 561.979 28.24 561.979 29.13C561.979 30.04 562.209 30.77 562.669 31.32C563.139 31.86 563.764 32.13 564.544 32.13C565.034 32.13 565.464 32.025 565.834 31.815C566.204 31.595 566.474 31.285 566.644 30.885H567.784C567.534 31.585 567.114 32.14 566.524 32.55C565.944 32.95 565.264 33.15 564.484 33.15ZM571.875 33L568.71 25.35H570L572.64 32.19H572.16L574.785 25.35H576.015L572.85 33H571.875ZM577.389 33V25.35H578.589V33H577.389ZM577.299 23.61V22.2H578.679V23.61H577.299ZM583.993 33.15C583.293 33.15 582.668 32.98 582.118 32.64C581.578 32.29 581.148 31.815 580.828 31.215C580.518 30.605 580.363 29.915 580.363 29.145C580.363 28.375 580.518 27.695 580.828 27.105C581.148 26.515 581.578 26.05 582.118 25.71C582.668 25.37 583.288 25.2 583.978 25.2C584.548 25.2 585.058 25.31 585.508 25.53C585.968 25.75 586.343 26.065 586.633 26.475C586.933 26.875 587.123 27.345 587.203 27.885H586.093C585.993 27.395 585.763 26.995 585.403 26.685C585.043 26.375 584.578 26.22 584.008 26.22C583.518 26.22 583.093 26.34 582.733 26.58C582.373 26.82 582.093 27.16 581.893 27.6C581.693 28.04 581.593 28.555 581.593 29.145C581.593 29.735 581.693 30.255 581.893 30.705C582.093 31.155 582.373 31.505 582.733 31.755C583.103 32.005 583.533 32.13 584.023 32.13C584.573 32.13 585.033 31.98 585.403 31.68C585.773 31.37 586.008 30.97 586.108 30.48H587.218C587.128 31.01 586.928 31.48 586.618 31.89C586.318 32.29 585.943 32.6 585.493 32.82C585.043 33.04 584.543 33.15 583.993 33.15ZM592.067 33.15C591.337 33.15 590.692 32.98 590.132 32.64C589.572 32.29 589.132 31.815 588.812 31.215C588.492 30.615 588.332 29.925 588.332 29.145C588.332 28.365 588.487 27.68 588.797 27.09C589.117 26.49 589.562 26.025 590.132 25.695C590.702 25.365 591.357 25.2 592.097 25.2C592.807 25.2 593.422 25.355 593.942 25.665C594.472 25.975 594.877 26.41 595.157 26.97C595.447 27.53 595.592 28.19 595.592 28.95C595.592 29.05 595.587 29.145 595.577 29.235C595.577 29.325 595.567 29.425 595.547 29.535H589.232V28.53H594.812L594.422 29.085C594.422 28.165 594.217 27.46 593.807 26.97C593.407 26.47 592.837 26.22 592.097 26.22C591.337 26.22 590.722 26.485 590.252 27.015C589.792 27.535 589.562 28.24 589.562 29.13C589.562 30.04 589.792 30.77 590.252 31.32C590.722 31.86 591.347 32.13 592.127 32.13C592.617 32.13 593.047 32.025 593.417 31.815C593.787 31.595 594.057 31.285 594.227 30.885H595.367C595.117 31.585 594.697 32.14 594.107 32.55C593.527 32.95 592.847 33.15 592.067 33.15ZM503.59 48.15C502.85 48.15 502.165 48.015 501.535 47.745C500.915 47.465 500.375 47.08 499.915 46.59C499.455 46.09 499.1 45.505 498.85 44.835C498.6 44.155 498.475 43.41 498.475 42.6C498.475 41.79 498.6 41.05 498.85 40.38C499.1 39.7 499.45 39.115 499.9 38.625C500.36 38.125 500.9 37.74 501.52 37.47C502.15 37.19 502.835 37.05 503.575 37.05C504.385 37.05 505.11 37.215 505.75 37.545C506.4 37.875 506.93 38.34 507.34 38.94C507.76 39.54 508.02 40.24 508.12 41.04H506.89C506.77 40.15 506.415 39.45 505.825 38.94C505.245 38.42 504.5 38.16 503.59 38.16C502.82 38.16 502.145 38.35 501.565 38.73C500.985 39.1 500.535 39.62 500.215 40.29C499.895 40.95 499.735 41.72 499.735 42.6C499.735 43.48 499.895 44.255 500.215 44.925C500.535 45.585 500.985 46.105 501.565 46.485C502.145 46.855 502.815 47.04 503.575 47.04C504.505 47.04 505.265 46.78 505.855 46.26C506.455 45.74 506.81 45.04 506.92 44.16H508.15C508.05 44.96 507.79 45.66 507.37 46.26C506.96 46.86 506.43 47.325 505.78 47.655C505.14 47.985 504.41 48.15 503.59 48.15ZM514.533 48C514.493 47.83 514.463 47.635 514.443 47.415C514.433 47.195 514.428 46.915 514.428 46.575H514.353V42.915C514.353 42.335 514.218 41.91 513.948 41.64C513.688 41.36 513.263 41.22 512.673 41.22C512.093 41.22 511.628 41.34 511.278 41.58C510.938 41.81 510.748 42.14 510.708 42.57H509.553C509.603 41.83 509.913 41.25 510.483 40.83C511.053 40.41 511.798 40.2 512.718 40.2C513.668 40.2 514.373 40.425 514.833 40.875C515.293 41.325 515.523 42 515.523 42.9V46.575C515.523 46.795 515.538 47.025 515.568 47.265C515.598 47.495 515.638 47.74 515.688 48H514.533ZM511.908 48.15C511.118 48.15 510.488 47.96 510.018 47.58C509.558 47.19 509.328 46.66 509.328 45.99C509.328 45.32 509.558 44.8 510.018 44.43C510.478 44.06 511.148 43.8 512.028 43.65L514.698 43.2V44.19L512.208 44.58C511.648 44.67 511.223 44.82 510.933 45.03C510.643 45.24 510.498 45.545 510.498 45.945C510.498 46.335 510.628 46.63 510.888 46.83C511.158 47.03 511.553 47.13 512.073 47.13C512.743 47.13 513.288 46.98 513.708 46.68C514.138 46.37 514.353 45.97 514.353 45.48L514.548 46.545C514.388 47.055 514.073 47.45 513.603 47.73C513.143 48.01 512.578 48.15 511.908 48.15ZM521.616 48.135C520.896 48.135 520.291 47.96 519.801 47.61C519.311 47.26 518.976 46.765 518.796 46.125L519.036 46.095V51.075H517.836V40.35H518.961V42.135L518.796 42.09C518.986 41.5 519.346 41.04 519.876 40.71C520.406 40.37 521.021 40.2 521.721 40.2C522.401 40.2 522.991 40.365 523.491 40.695C524.001 41.025 524.396 41.485 524.676 42.075C524.956 42.665 525.096 43.355 525.096 44.145C525.096 44.945 524.951 45.645 524.661 46.245C524.371 46.845 523.966 47.31 523.446 47.64C522.926 47.97 522.316 48.135 521.616 48.135ZM521.436 47.085C522.196 47.085 522.791 46.825 523.221 46.305C523.651 45.775 523.866 45.055 523.866 44.145C523.866 43.245 523.651 42.54 523.221 42.03C522.791 41.51 522.196 41.25 521.436 41.25C520.676 41.25 520.076 41.515 519.636 42.045C519.196 42.565 518.976 43.28 518.976 44.19C518.976 45.08 519.196 45.785 519.636 46.305C520.076 46.825 520.676 47.085 521.436 47.085ZM531.657 48C531.617 47.83 531.587 47.635 531.567 47.415C531.557 47.195 531.552 46.915 531.552 46.575H531.477V42.915C531.477 42.335 531.342 41.91 531.072 41.64C530.812 41.36 530.387 41.22 529.797 41.22C529.217 41.22 528.752 41.34 528.402 41.58C528.062 41.81 527.872 42.14 527.832 42.57H526.677C526.727 41.83 527.037 41.25 527.607 40.83C528.177 40.41 528.922 40.2 529.842 40.2C530.792 40.2 531.497 40.425 531.957 40.875C532.417 41.325 532.647 42 532.647 42.9V46.575C532.647 46.795 532.662 47.025 532.692 47.265C532.722 47.495 532.762 47.74 532.812 48H531.657ZM529.032 48.15C528.242 48.15 527.612 47.96 527.142 47.58C526.682 47.19 526.452 46.66 526.452 45.99C526.452 45.32 526.682 44.8 527.142 44.43C527.602 44.06 528.272 43.8 529.152 43.65L531.822 43.2V44.19L529.332 44.58C528.772 44.67 528.347 44.82 528.057 45.03C527.767 45.24 527.622 45.545 527.622 45.945C527.622 46.335 527.752 46.63 528.012 46.83C528.282 47.03 528.677 47.13 529.197 47.13C529.867 47.13 530.412 46.98 530.832 46.68C531.262 46.37 531.477 45.97 531.477 45.48L531.672 46.545C531.512 47.055 531.197 47.45 530.727 47.73C530.267 48.01 529.702 48.15 529.032 48.15ZM538.74 48.135C538.02 48.135 537.415 47.96 536.925 47.61C536.435 47.26 536.1 46.765 535.92 46.125L536.085 46.095V48H534.96V37.2H536.16V42.135L535.995 42.09C536.185 41.5 536.53 41.04 537.03 40.71C537.54 40.37 538.145 40.2 538.845 40.2C539.525 40.2 540.115 40.365 540.615 40.695C541.125 41.025 541.52 41.485 541.8 42.075C542.08 42.665 542.22 43.355 542.22 44.145C542.22 44.945 542.075 45.645 541.785 46.245C541.495 46.845 541.09 47.31 540.57 47.64C540.05 47.97 539.44 48.135 538.74 48.135ZM538.56 47.085C539.32 47.085 539.915 46.825 540.345 46.305C540.775 45.775 540.99 45.055 540.99 44.145C540.99 43.245 540.775 42.54 540.345 42.03C539.915 41.51 539.32 41.25 538.56 41.25C537.8 41.25 537.2 41.515 536.76 42.045C536.32 42.565 536.1 43.28 536.1 44.19C536.1 45.08 536.32 45.785 536.76 46.305C537.2 46.825 537.8 47.085 538.56 47.085ZM544.027 48V40.35H545.227V48H544.027ZM543.937 38.61V37.2H545.317V38.61H543.937ZM547.631 48V37.2H548.831V48H547.631ZM551.234 48V40.35H552.434V48H551.234ZM551.144 38.61V37.2H552.524V38.61H551.144ZM557.868 48.135C557.018 48.135 556.398 47.945 556.008 47.565C555.628 47.175 555.438 46.615 555.438 45.885V38.565L556.638 38.115V45.87C556.638 46.3 556.748 46.615 556.968 46.815C557.188 47.015 557.548 47.115 558.048 47.115C558.248 47.115 558.418 47.105 558.558 47.085C558.708 47.055 558.828 47.02 558.918 46.98V48C558.818 48.04 558.673 48.07 558.483 48.09C558.303 48.12 558.098 48.135 557.868 48.135ZM553.863 41.37V40.35H558.918V41.37H553.863ZM561.284 51.075L562.994 47.1L563.264 46.68L565.769 40.35H566.999L562.559 51.075H561.284ZM563.129 48.075L559.694 40.35H561.014L563.969 47.265L563.129 48.075Z" fill="#F4F4F4"/>
<rect x="669" width="173" height="70" rx="25" fill="#5D6C63"/>
<rect x="669.5" y="0.5" width="172" height="69" rx="24.5" stroke="#F4F4F4" stroke-opacity="0.25"/>
<path d="M691.678 33V22.2H692.908V33H691.678ZM698.908 33V22.2H700.138V33H698.908ZM692.308 26.835H699.448V27.915H692.308V26.835ZM702.633 33V25.35H703.833V33H702.633ZM702.543 23.61V22.2H703.923V23.61H702.543ZM709.252 36.225C708.342 36.225 707.582 36.01 706.972 35.58C706.372 35.16 706.007 34.6 705.877 33.9H707.017C707.127 34.3 707.372 34.615 707.752 34.845C708.142 35.085 708.667 35.205 709.327 35.205C710.107 35.205 710.697 34.99 711.097 34.56C711.497 34.14 711.697 33.52 711.697 32.7V31.065L711.847 31.095C711.677 31.675 711.337 32.14 710.827 32.49C710.317 32.83 709.712 33 709.012 33C708.342 33 707.752 32.84 707.242 32.52C706.732 32.19 706.337 31.735 706.057 31.155C705.777 30.575 705.637 29.9 705.637 29.13C705.637 28.35 705.782 27.665 706.072 27.075C706.362 26.485 706.767 26.03 707.287 25.71C707.817 25.38 708.432 25.215 709.132 25.215C709.852 25.215 710.452 25.39 710.932 25.74C711.422 26.09 711.747 26.59 711.907 27.24L711.772 27.255V25.35H712.897V32.7C712.897 33.79 712.572 34.65 711.922 35.28C711.272 35.91 710.382 36.225 709.252 36.225ZM709.312 31.965C710.062 31.965 710.657 31.705 711.097 31.185C711.537 30.665 711.757 29.96 711.757 29.07C711.757 28.2 711.537 27.515 711.097 27.015C710.657 26.505 710.062 26.25 709.312 26.25C708.552 26.25 707.952 26.505 707.512 27.015C707.082 27.525 706.867 28.225 706.867 29.115C706.867 29.985 707.087 30.68 707.527 31.2C707.967 31.71 708.562 31.965 709.312 31.965ZM715.304 33V22.2H716.504V33H715.304ZM720.779 33V27.99C720.779 27.41 720.634 26.975 720.344 26.685C720.054 26.395 719.624 26.25 719.054 26.25C718.554 26.25 718.109 26.36 717.719 26.58C717.339 26.8 717.039 27.105 716.819 27.495C716.609 27.885 716.504 28.34 716.504 28.86L716.309 27.045C716.569 26.475 716.964 26.025 717.494 25.695C718.034 25.365 718.644 25.2 719.324 25.2C720.124 25.2 720.764 25.43 721.244 25.89C721.734 26.34 721.979 26.935 721.979 27.675V33H720.779ZM727.376 33V22.2H728.606V33H727.376ZM731.095 33V25.35H732.22V27.15H732.295V33H731.095ZM736.57 33V27.99C736.57 27.41 736.425 26.975 736.135 26.685C735.845 26.395 735.415 26.25 734.845 26.25C734.345 26.25 733.9 26.36 733.51 26.58C733.13 26.8 732.83 27.105 732.61 27.495C732.4 27.885 732.295 28.34 732.295 28.86L732.1 27.045C732.36 26.475 732.755 26.025 733.285 25.695C733.825 25.365 734.435 25.2 735.115 25.2C735.915 25.2 736.555 25.43 737.035 25.89C737.525 26.34 737.77 26.935 737.77 27.675V33H736.57ZM740.499 33V24.27C740.499 23.57 740.699 23.025 741.099 22.635C741.509 22.245 742.129 22.05 742.959 22.05C743.159 22.05 743.314 22.06 743.424 22.08C743.544 22.1 743.644 22.125 743.724 22.155V23.1C743.654 23.08 743.554 23.06 743.424 23.04C743.304 23.02 743.174 23.01 743.034 23.01C742.574 23.01 742.234 23.125 742.014 23.355C741.804 23.585 741.699 23.91 741.699 24.33V33H740.499ZM738.924 26.37V25.35H743.559V26.37H738.924ZM745.172 33V25.35H746.297V27.3H746.372V33H745.172ZM746.372 29.01L746.177 27.195C746.357 26.545 746.677 26.05 747.137 25.71C747.597 25.37 748.127 25.2 748.727 25.2C748.977 25.2 749.147 25.22 749.237 25.26V26.415C749.187 26.395 749.117 26.385 749.027 26.385C748.937 26.375 748.827 26.37 748.697 26.37C747.937 26.37 747.357 26.6 746.957 27.06C746.567 27.51 746.372 28.16 746.372 29.01ZM755.272 33C755.232 32.83 755.202 32.635 755.182 32.415C755.172 32.195 755.167 31.915 755.167 31.575H755.092V27.915C755.092 27.335 754.957 26.91 754.687 26.64C754.427 26.36 754.002 26.22 753.412 26.22C752.832 26.22 752.367 26.34 752.017 26.58C751.677 26.81 751.487 27.14 751.447 27.57H750.292C750.342 26.83 750.652 26.25 751.222 25.83C751.792 25.41 752.537 25.2 753.457 25.2C754.407 25.2 755.112 25.425 755.572 25.875C756.032 26.325 756.262 27 756.262 27.9V31.575C756.262 31.795 756.277 32.025 756.307 32.265C756.337 32.495 756.377 32.74 756.427 33H755.272ZM752.647 33.15C751.857 33.15 751.227 32.96 750.757 32.58C750.297 32.19 750.067 31.66 750.067 30.99C750.067 30.32 750.297 29.8 750.757 29.43C751.217 29.06 751.887 28.8 752.767 28.65L755.437 28.2V29.19L752.947 29.58C752.387 29.67 751.962 29.82 751.672 30.03C751.382 30.24 751.237 30.545 751.237 30.945C751.237 31.335 751.367 31.63 751.627 31.83C751.897 32.03 752.292 32.13 752.812 32.13C753.482 32.13 754.027 31.98 754.447 31.68C754.877 31.37 755.092 30.97 755.092 30.48L755.287 31.545C755.127 32.055 754.812 32.45 754.342 32.73C753.882 33.01 753.317 33.15 752.647 33.15ZM761.141 33.15C760.201 33.15 759.451 32.935 758.891 32.505C758.331 32.065 758.011 31.445 757.931 30.645H759.086C759.156 31.135 759.371 31.51 759.731 31.77C760.091 32.03 760.571 32.16 761.171 32.16C761.701 32.16 762.116 32.06 762.416 31.86C762.716 31.66 762.866 31.375 762.866 31.005C762.866 30.745 762.781 30.52 762.611 30.33C762.441 30.13 762.101 29.965 761.591 29.835L760.361 29.52C759.661 29.34 759.136 29.065 758.786 28.695C758.436 28.315 758.261 27.865 758.261 27.345C758.261 26.685 758.506 26.165 758.996 25.785C759.486 25.395 760.151 25.2 760.991 25.2C761.821 25.2 762.496 25.4 763.016 25.8C763.536 26.2 763.831 26.755 763.901 27.465H762.746C762.676 27.055 762.486 26.74 762.176 26.52C761.866 26.3 761.456 26.19 760.946 26.19C760.456 26.19 760.076 26.285 759.806 26.475C759.536 26.655 759.401 26.915 759.401 27.255C759.401 27.515 759.496 27.74 759.686 27.93C759.886 28.12 760.216 28.28 760.676 28.41L761.876 28.74C762.586 28.93 763.121 29.22 763.481 29.61C763.841 30 764.021 30.47 764.021 31.02C764.021 31.69 763.766 32.215 763.256 32.595C762.746 32.965 762.041 33.15 761.141 33.15ZM768.696 33.135C767.846 33.135 767.226 32.945 766.836 32.565C766.456 32.175 766.266 31.615 766.266 30.885V23.565L767.466 23.115V30.87C767.466 31.3 767.576 31.615 767.796 31.815C768.016 32.015 768.376 32.115 768.876 32.115C769.076 32.115 769.246 32.105 769.386 32.085C769.536 32.055 769.656 32.02 769.746 31.98V33C769.646 33.04 769.501 33.07 769.311 33.09C769.131 33.12 768.926 33.135 768.696 33.135ZM764.691 26.37V25.35H769.746V26.37H764.691ZM771.29 33V25.35H772.415V27.3H772.49V33H771.29ZM772.49 29.01L772.295 27.195C772.475 26.545 772.795 26.05 773.255 25.71C773.715 25.37 774.245 25.2 774.845 25.2C775.095 25.2 775.265 25.22 775.355 25.26V26.415C775.305 26.395 775.235 26.385 775.145 26.385C775.055 26.375 774.945 26.37 774.815 26.37C774.055 26.37 773.475 26.6 773.075 27.06C772.685 27.51 772.49 28.16 772.49 29.01ZM779.288 33.15C778.788 33.15 778.343 33.05 777.953 32.85C777.563 32.64 777.258 32.35 777.038 31.98C776.818 31.6 776.708 31.165 776.708 30.675V25.35H777.908V30.36C777.908 30.94 778.048 31.375 778.328 31.665C778.618 31.955 779.028 32.1 779.558 32.1C780.038 32.1 780.463 31.99 780.833 31.77C781.203 31.55 781.493 31.245 781.703 30.855C781.923 30.455 782.033 30 782.033 29.49L782.228 31.305C781.978 31.875 781.588 32.325 781.058 32.655C780.528 32.985 779.938 33.15 779.288 33.15ZM782.108 33V31.2H782.033V25.35H783.233V33H782.108ZM788.631 33.15C787.931 33.15 787.306 32.98 786.756 32.64C786.216 32.29 785.786 31.815 785.466 31.215C785.156 30.605 785.001 29.915 785.001 29.145C785.001 28.375 785.156 27.695 785.466 27.105C785.786 26.515 786.216 26.05 786.756 25.71C787.306 25.37 787.926 25.2 788.616 25.2C789.186 25.2 789.696 25.31 790.146 25.53C790.606 25.75 790.981 26.065 791.271 26.475C791.571 26.875 791.761 27.345 791.841 27.885H790.731C790.631 27.395 790.401 26.995 790.041 26.685C789.681 26.375 789.216 26.22 788.646 26.22C788.156 26.22 787.731 26.34 787.371 26.58C787.011 26.82 786.731 27.16 786.531 27.6C786.331 28.04 786.231 28.555 786.231 29.145C786.231 29.735 786.331 30.255 786.531 30.705C786.731 31.155 787.011 31.505 787.371 31.755C787.741 32.005 788.171 32.13 788.661 32.13C789.211 32.13 789.671 31.98 790.041 31.68C790.411 31.37 790.646 30.97 790.746 30.48H791.856C791.766 31.01 791.566 31.48 791.256 31.89C790.956 32.29 790.581 32.6 790.131 32.82C789.681 33.04 789.181 33.15 788.631 33.15ZM796.63 33.135C795.78 33.135 795.16 32.945 794.77 32.565C794.39 32.175 794.2 31.615 794.2 30.885V23.565L795.4 23.115V30.87C795.4 31.3 795.51 31.615 795.73 31.815C795.95 32.015 796.31 32.115 796.81 32.115C797.01 32.115 797.18 32.105 797.32 32.085C797.47 32.055 797.59 32.02 797.68 31.98V33C797.58 33.04 797.435 33.07 797.245 33.09C797.065 33.12 796.86 33.135 796.63 33.135ZM792.625 26.37V25.35H797.68V26.37H792.625ZM801.641 33.15C801.141 33.15 800.696 33.05 800.306 32.85C799.916 32.64 799.611 32.35 799.391 31.98C799.171 31.6 799.061 31.165 799.061 30.675V25.35H800.261V30.36C800.261 30.94 800.401 31.375 800.681 31.665C800.971 31.955 801.381 32.1 801.911 32.1C802.391 32.1 802.816 31.99 803.186 31.77C803.556 31.55 803.846 31.245 804.056 30.855C804.276 30.455 804.386 30 804.386 29.49L804.581 31.305C804.331 31.875 803.941 32.325 803.411 32.655C802.881 32.985 802.291 33.15 801.641 33.15ZM804.461 33V31.2H804.386V25.35H805.586V33H804.461ZM807.984 33V25.35H809.109V27.3H809.184V33H807.984ZM809.184 29.01L808.989 27.195C809.169 26.545 809.489 26.05 809.949 25.71C810.409 25.37 810.939 25.2 811.539 25.2C811.789 25.2 811.959 25.22 812.049 25.26V26.415C811.999 26.395 811.929 26.385 811.839 26.385C811.749 26.375 811.639 26.37 811.509 26.37C810.749 26.37 810.169 26.6 809.769 27.06C809.379 27.51 809.184 28.16 809.184 29.01ZM816.481 33.15C815.751 33.15 815.106 32.98 814.546 32.64C813.986 32.29 813.546 31.815 813.226 31.215C812.906 30.615 812.746 29.925 812.746 29.145C812.746 28.365 812.901 27.68 813.211 27.09C813.531 26.49 813.976 26.025 814.546 25.695C815.116 25.365 815.771 25.2 816.511 25.2C817.221 25.2 817.836 25.355 818.356 25.665C818.886 25.975 819.291 26.41 819.571 26.97C819.861 27.53 820.006 28.19 820.006 28.95C820.006 29.05 820.001 29.145 819.991 29.235C819.991 29.325 819.981 29.425 819.961 29.535H813.646V28.53H819.226L818.836 29.085C818.836 28.165 818.631 27.46 818.221 26.97C817.821 26.47 817.251 26.22 816.511 26.22C815.751 26.22 815.136 26.485 814.666 27.015C814.206 27.535 813.976 28.24 813.976 29.13C813.976 30.04 814.206 30.77 814.666 31.32C815.136 31.86 815.761 32.13 816.541 32.13C817.031 32.13 817.461 32.025 817.831 31.815C818.201 31.595 818.471 31.285 818.641 30.885H819.781C819.531 31.585 819.111 32.14 818.521 32.55C817.941 32.95 817.261 33.15 816.481 33.15ZM745.076 48.15C744.336 48.15 743.651 48.015 743.021 47.745C742.401 47.465 741.861 47.08 741.401 46.59C740.941 46.09 740.586 45.505 740.336 44.835C740.086 44.155 739.961 43.41 739.961 42.6C739.961 41.79 740.086 41.05 740.336 40.38C740.586 39.7 740.936 39.115 741.386 38.625C741.846 38.125 742.386 37.74 743.006 37.47C743.636 37.19 744.321 37.05 745.061 37.05C745.871 37.05 746.596 37.215 747.236 37.545C747.886 37.875 748.416 38.34 748.826 38.94C749.246 39.54 749.506 40.24 749.606 41.04H748.376C748.256 40.15 747.901 39.45 747.311 38.94C746.731 38.42 745.986 38.16 745.076 38.16C744.306 38.16 743.631 38.35 743.051 38.73C742.471 39.1 742.021 39.62 741.701 40.29C741.381 40.95 741.221 41.72 741.221 42.6C741.221 43.48 741.381 44.255 741.701 44.925C742.021 45.585 742.471 46.105 743.051 46.485C743.631 46.855 744.301 47.04 745.061 47.04C745.991 47.04 746.751 46.78 747.341 46.26C747.941 45.74 748.296 45.04 748.406 44.16H749.636C749.536 44.96 749.276 45.66 748.856 46.26C748.446 46.86 747.916 47.325 747.266 47.655C746.626 47.985 745.896 48.15 745.076 48.15ZM754.665 48.15C753.915 48.15 753.255 47.975 752.685 47.625C752.115 47.275 751.67 46.8 751.35 46.2C751.04 45.59 750.885 44.905 750.885 44.145C750.885 43.375 751.045 42.695 751.365 42.105C751.685 41.515 752.125 41.05 752.685 40.71C753.255 40.37 753.915 40.2 754.665 40.2C755.425 40.2 756.085 40.37 756.645 40.71C757.215 41.05 757.655 41.515 757.965 42.105C758.285 42.695 758.445 43.375 758.445 44.145C758.445 44.905 758.285 45.59 757.965 46.2C757.655 46.8 757.215 47.275 756.645 47.625C756.085 47.975 755.425 48.15 754.665 48.15ZM754.665 47.13C755.185 47.13 755.635 47.005 756.015 46.755C756.395 46.495 756.69 46.14 756.9 45.69C757.11 45.24 757.215 44.72 757.215 44.13C757.215 43.25 756.98 42.545 756.51 42.015C756.05 41.485 755.435 41.22 754.665 41.22C753.905 41.22 753.29 41.485 752.82 42.015C752.35 42.545 752.115 43.25 752.115 44.13C752.115 44.72 752.22 45.24 752.43 45.69C752.64 46.14 752.935 46.495 753.315 46.755C753.705 47.005 754.155 47.13 754.665 47.13ZM762.84 48.15C761.9 48.15 761.15 47.935 760.59 47.505C760.03 47.065 759.71 46.445 759.63 45.645H760.785C760.855 46.135 761.07 46.51 761.43 46.77C761.79 47.03 762.27 47.16 762.87 47.16C763.4 47.16 763.815 47.06 764.115 46.86C764.415 46.66 764.565 46.375 764.565 46.005C764.565 45.745 764.48 45.52 764.31 45.33C764.14 45.13 763.8 44.965 763.29 44.835L762.06 44.52C761.36 44.34 760.835 44.065 760.485 43.695C760.135 43.315 759.96 42.865 759.96 42.345C759.96 41.685 760.205 41.165 760.695 40.785C761.185 40.395 761.85 40.2 762.69 40.2C763.52 40.2 764.195 40.4 764.715 40.8C765.235 41.2 765.53 41.755 765.6 42.465H764.445C764.375 42.055 764.185 41.74 763.875 41.52C763.565 41.3 763.155 41.19 762.645 41.19C762.155 41.19 761.775 41.285 761.505 41.475C761.235 41.655 761.1 41.915 761.1 42.255C761.1 42.515 761.195 42.74 761.385 42.93C761.585 43.12 761.915 43.28 762.375 43.41L763.575 43.74C764.285 43.93 764.82 44.22 765.18 44.61C765.54 45 765.72 45.47 765.72 46.02C765.72 46.69 765.465 47.215 764.955 47.595C764.445 47.965 763.74 48.15 762.84 48.15ZM770.395 48.135C769.545 48.135 768.925 47.945 768.535 47.565C768.155 47.175 767.965 46.615 767.965 45.885V38.565L769.165 38.115V45.87C769.165 46.3 769.275 46.615 769.495 46.815C769.715 47.015 770.075 47.115 770.575 47.115C770.775 47.115 770.945 47.105 771.085 47.085C771.235 47.055 771.355 47.02 771.445 46.98V48C771.345 48.04 771.2 48.07 771.01 48.09C770.83 48.12 770.625 48.135 770.395 48.135ZM766.39 41.37V40.35H771.445V41.37H766.39Z" fill="#F4F4F4"/>
<rect x="892" width="173" height="70" rx="25" fill="#5D6C63"/>
<rect x="892.5" y="0.5" width="172" height="69" rx="24.5" stroke="#F4F4F4" stroke-opacity="0.25"/>
<path d="M954.412 33V22.2H955.642V33H954.412ZM961.642 33V22.2H962.872V33H961.642ZM955.042 26.835H962.182V27.915H955.042V26.835ZM970.062 33C970.022 32.83 969.992 32.635 969.972 32.415C969.962 32.195 969.957 31.915 969.957 31.575H969.882V27.915C969.882 27.335 969.747 26.91 969.477 26.64C969.217 26.36 968.792 26.22 968.202 26.22C967.622 26.22 967.157 26.34 966.807 26.58C966.467 26.81 966.277 27.14 966.237 27.57H965.082C965.132 26.83 965.442 26.25 966.012 25.83C966.582 25.41 967.327 25.2 968.247 25.2C969.197 25.2 969.902 25.425 970.362 25.875C970.822 26.325 971.052 27 971.052 27.9V31.575C971.052 31.795 971.067 32.025 971.097 32.265C971.127 32.495 971.167 32.74 971.217 33H970.062ZM967.437 33.15C966.647 33.15 966.017 32.96 965.547 32.58C965.087 32.19 964.857 31.66 964.857 30.99C964.857 30.32 965.087 29.8 965.547 29.43C966.007 29.06 966.677 28.8 967.557 28.65L970.227 28.2V29.19L967.737 29.58C967.177 29.67 966.752 29.82 966.462 30.03C966.172 30.24 966.027 30.545 966.027 30.945C966.027 31.335 966.157 31.63 966.417 31.83C966.687 32.03 967.082 32.13 967.602 32.13C968.272 32.13 968.817 31.98 969.237 31.68C969.667 31.37 969.882 30.97 969.882 30.48L970.077 31.545C969.917 32.055 969.602 32.45 969.132 32.73C968.672 33.01 968.107 33.15 967.437 33.15ZM973.365 33V25.35H974.49V27.3H974.565V33H973.365ZM974.565 29.01L974.37 27.195C974.55 26.545 974.87 26.05 975.33 25.71C975.79 25.37 976.32 25.2 976.92 25.2C977.17 25.2 977.34 25.22 977.43 25.26V26.415C977.38 26.395 977.31 26.385 977.22 26.385C977.13 26.375 977.02 26.37 976.89 26.37C976.13 26.37 975.55 26.6 975.15 27.06C974.76 27.51 974.565 28.16 974.565 29.01ZM984.306 33V31.215L984.456 31.26C984.266 31.84 983.916 32.3 983.406 32.64C982.906 32.98 982.306 33.15 981.606 33.15C980.916 33.15 980.311 32.985 979.791 32.655C979.281 32.325 978.881 31.865 978.591 31.275C978.311 30.685 978.171 29.995 978.171 29.205C978.171 28.405 978.316 27.705 978.606 27.105C978.896 26.505 979.301 26.04 979.821 25.71C980.341 25.38 980.951 25.215 981.651 25.215C982.371 25.215 982.976 25.39 983.466 25.74C983.956 26.09 984.291 26.585 984.471 27.225L984.231 27.255V22.2H985.431V33H984.306ZM981.831 32.1C982.601 32.1 983.201 31.84 983.631 31.32C984.071 30.79 984.291 30.07 984.291 29.16C984.291 28.27 984.071 27.565 983.631 27.045C983.191 26.525 982.591 26.265 981.831 26.265C981.071 26.265 980.476 26.525 980.046 27.045C979.616 27.565 979.401 28.285 979.401 29.205C979.401 30.105 979.616 30.815 980.046 31.335C980.476 31.845 981.071 32.1 981.831 32.1ZM993.9 33.135C993.05 33.135 992.43 32.945 992.04 32.565C991.66 32.175 991.47 31.615 991.47 30.885V23.565L992.67 23.115V30.87C992.67 31.3 992.78 31.615 993 31.815C993.22 32.015 993.58 32.115 994.08 32.115C994.28 32.115 994.45 32.105 994.59 32.085C994.74 32.055 994.86 32.02 994.95 31.98V33C994.85 33.04 994.705 33.07 994.515 33.09C994.335 33.12 994.13 33.135 993.9 33.135ZM989.895 26.37V25.35H994.95V26.37H989.895ZM999.499 33.15C998.749 33.15 998.089 32.975 997.519 32.625C996.949 32.275 996.504 31.8 996.184 31.2C995.874 30.59 995.719 29.905 995.719 29.145C995.719 28.375 995.879 27.695 996.199 27.105C996.519 26.515 996.959 26.05 997.519 25.71C998.089 25.37 998.749 25.2 999.499 25.2C1000.26 25.2 1000.92 25.37 1001.48 25.71C1002.05 26.05 1002.49 26.515 1002.8 27.105C1003.12 27.695 1003.28 28.375 1003.28 29.145C1003.28 29.905 1003.12 30.59 1002.8 31.2C1002.49 31.8 1002.05 32.275 1001.48 32.625C1000.92 32.975 1000.26 33.15 999.499 33.15ZM999.499 32.13C1000.02 32.13 1000.47 32.005 1000.85 31.755C1001.23 31.495 1001.52 31.14 1001.73 30.69C1001.94 30.24 1002.05 29.72 1002.05 29.13C1002.05 28.25 1001.81 27.545 1001.34 27.015C1000.88 26.485 1000.27 26.22 999.499 26.22C998.739 26.22 998.124 26.485 997.654 27.015C997.184 27.545 996.949 28.25 996.949 29.13C996.949 29.72 997.054 30.24 997.264 30.69C997.474 31.14 997.769 31.495 998.149 31.755C998.539 32.005 998.989 32.13 999.499 32.13ZM956.143 48V46.92H959.038C959.938 46.92 960.713 46.74 961.363 46.38C962.013 46.01 962.513 45.495 962.863 44.835C963.213 44.175 963.388 43.41 963.388 42.54C963.388 41.68 963.213 40.93 962.863 40.29C962.513 39.65 962.013 39.155 961.363 38.805C960.723 38.455 959.948 38.28 959.038 38.28H956.143V37.2H959.038C960.168 37.2 961.153 37.425 961.993 37.875C962.833 38.315 963.483 38.94 963.943 39.75C964.413 40.55 964.648 41.49 964.648 42.57C964.648 43.65 964.413 44.6 963.943 45.42C963.473 46.23 962.818 46.865 961.978 47.325C961.148 47.775 960.173 48 959.053 48H956.143ZM955.408 48V37.2H956.638V48H955.408ZM969.673 48.15C968.943 48.15 968.298 47.98 967.738 47.64C967.178 47.29 966.738 46.815 966.418 46.215C966.098 45.615 965.938 44.925 965.938 44.145C965.938 43.365 966.093 42.68 966.403 42.09C966.723 41.49 967.168 41.025 967.738 40.695C968.308 40.365 968.963 40.2 969.703 40.2C970.413 40.2 971.028 40.355 971.548 40.665C972.078 40.975 972.483 41.41 972.763 41.97C973.053 42.53 973.198 43.19 973.198 43.95C973.198 44.05 973.193 44.145 973.183 44.235C973.183 44.325 973.173 44.425 973.153 44.535H966.838V43.53H972.418L972.028 44.085C972.028 43.165 971.823 42.46 971.413 41.97C971.013 41.47 970.443 41.22 969.703 41.22C968.943 41.22 968.328 41.485 967.858 42.015C967.398 42.535 967.168 43.24 967.168 44.13C967.168 45.04 967.398 45.77 967.858 46.32C968.328 46.86 968.953 47.13 969.733 47.13C970.223 47.13 970.653 47.025 971.023 46.815C971.393 46.595 971.663 46.285 971.833 45.885H972.973C972.723 46.585 972.303 47.14 971.713 47.55C971.133 47.95 970.453 48.15 969.673 48.15ZM978.785 48.135C978.065 48.135 977.46 47.96 976.97 47.61C976.48 47.26 976.145 46.765 975.965 46.125L976.205 46.095V51.075H975.005V40.35H976.13V42.135L975.965 42.09C976.155 41.5 976.515 41.04 977.045 40.71C977.575 40.37 978.19 40.2 978.89 40.2C979.57 40.2 980.16 40.365 980.66 40.695C981.17 41.025 981.565 41.485 981.845 42.075C982.125 42.665 982.265 43.355 982.265 44.145C982.265 44.945 982.12 45.645 981.83 46.245C981.54 46.845 981.135 47.31 980.615 47.64C980.095 47.97 979.485 48.135 978.785 48.135ZM978.605 47.085C979.365 47.085 979.96 46.825 980.39 46.305C980.82 45.775 981.035 45.055 981.035 44.145C981.035 43.245 980.82 42.54 980.39 42.03C979.96 41.51 979.365 41.25 978.605 41.25C977.845 41.25 977.245 41.515 976.805 42.045C976.365 42.565 976.145 43.28 976.145 44.19C976.145 45.08 976.365 45.785 976.805 46.305C977.245 46.825 977.845 47.085 978.605 47.085ZM984.102 48V37.2H985.302V48H984.102ZM990.885 48.15C990.135 48.15 989.475 47.975 988.905 47.625C988.335 47.275 987.89 46.8 987.57 46.2C987.26 45.59 987.105 44.905 987.105 44.145C987.105 43.375 987.265 42.695 987.585 42.105C987.905 41.515 988.345 41.05 988.905 40.71C989.475 40.37 990.135 40.2 990.885 40.2C991.645 40.2 992.305 40.37 992.865 40.71C993.435 41.05 993.875 41.515 994.185 42.105C994.505 42.695 994.665 43.375 994.665 44.145C994.665 44.905 994.505 45.59 994.185 46.2C993.875 46.8 993.435 47.275 992.865 47.625C992.305 47.975 991.645 48.15 990.885 48.15ZM990.885 47.13C991.405 47.13 991.855 47.005 992.235 46.755C992.615 46.495 992.91 46.14 993.12 45.69C993.33 45.24 993.435 44.72 993.435 44.13C993.435 43.25 993.2 42.545 992.73 42.015C992.27 41.485 991.655 41.22 990.885 41.22C990.125 41.22 989.51 41.485 989.04 42.015C988.57 42.545 988.335 43.25 988.335 44.13C988.335 44.72 988.44 45.24 988.65 45.69C988.86 46.14 989.155 46.495 989.535 46.755C989.925 47.005 990.375 47.13 990.885 47.13ZM996.891 51.075L998.601 47.1L998.871 46.68L1001.38 40.35H1002.61L998.166 51.075H996.891ZM998.736 48.075L995.301 40.35H996.621L999.576 47.265L998.736 48.075Z" fill="#F4F4F4"/>
</svg>
