<svg width="59" height="46" viewBox="0 0 59 46" fill="none" xmlns="http://www.w3.org/2000/svg">
<path d="M11.9535 0.176376C4.61006 1.5795 -0.359877 7.9001 0.0204082 15.3747C0.440034 23.859 7.27206 33.5104 17.7496 40.4473C20.5952 42.3356 23.2047 43.7781 26.4699 45.2337L27.8337 45.85L28.8959 45.4041C29.8532 44.9976 33.538 43.188 33.656 43.07C33.6822 43.0437 33.3806 42.6241 32.9741 42.152C30.3252 39.0311 29.0664 35.6478 29.0664 31.6614C29.0795 27.2553 30.7055 23.4 33.8789 20.3315C36.5934 17.7088 39.8848 16.1877 43.5697 15.873C47.3201 15.5583 50.9262 16.5287 54.0341 18.6923C54.8864 19.2824 55.0569 19.3611 55.1094 19.1644C55.6732 17.3548 55.8568 14.2076 55.5159 12.1882C55.0044 9.0803 53.7718 6.60189 51.6212 4.37263C49.8247 2.49743 47.4905 1.13365 44.8941 0.438641C43.1369 -0.0203247 40.134 -0.138344 38.285 0.176376C34.5346 0.832043 31.2563 2.81215 29.1188 5.7233C28.214 6.96906 27.6501 7.0084 26.7584 5.89377C24.4111 2.95639 21.9458 1.30412 18.6151 0.425529C17.566 0.15015 16.989 0.0845833 15.1269 0.0452423C13.6058 0.0190163 12.5961 0.0583572 11.9535 0.176376Z" fill="#5D6C63"/>
<path d="M43.5829 17.9711C37.6426 18.4826 32.6464 23.0067 31.3875 29.0388C31.0728 30.5468 31.099 33.0383 31.44 34.5726C33.2365 42.7422 41.7208 47.4761 49.5757 44.6698C56.2503 42.2832 60.0401 35.1496 58.2829 28.2913C57.6272 25.7342 56.5126 23.8328 54.48 21.8265C51.5164 18.9153 47.8447 17.6171 43.5829 17.9711ZM48.3561 22.2985C48.5791 22.3772 48.8282 22.5477 48.8938 22.6788C48.9725 22.81 49.0249 23.9639 49.0249 25.2228V27.5307H51.2673C53.5228 27.5307 53.8899 27.5963 54.2309 28.0422C54.3489 28.1995 54.3882 29.1961 54.4014 31.7008V35.1496L54.0735 35.4643C53.7588 35.7921 53.7326 35.7921 51.3853 35.7921H49.0249V38.1525C49.0249 40.4998 49.0249 40.526 48.6971 40.8407L48.3824 41.1686H44.9729C43.0977 41.1686 41.4716 41.1292 41.3536 41.0899C40.8684 40.8932 40.7635 40.3555 40.7635 38.0214V35.7921H38.4031C36.2394 35.7921 36.0165 35.7659 35.7936 35.543C35.4133 35.1627 35.374 34.7037 35.4133 31.2943L35.4526 28.1602L35.8198 27.8455C36.1739 27.5439 36.2526 27.5307 38.4818 27.5307H40.7635V25.2621C40.7635 22.8362 40.8291 22.5346 41.4716 22.2854C41.8913 22.1149 47.8578 22.1281 48.3561 22.2985Z" fill="#5D6C63"/>
<path d="M42.953 24.3442C42.9006 24.3835 42.8612 25.4457 42.8612 26.6915C42.8612 29.76 43.0711 29.5502 39.9501 29.6289L37.5504 29.6944L37.511 31.6877L37.4717 33.694H39.7141C42.0482 33.694 42.5859 33.7989 42.7826 34.2841C42.8219 34.4021 42.8612 35.5298 42.8612 36.7887V39.0704H44.8938H46.9264V36.7625V34.4546L47.3067 34.0743L47.6869 33.694H49.9949H52.3028V31.6614V29.6289H50.0211C48.7622 29.6289 47.6345 29.5895 47.5165 29.5502C47.0313 29.3535 46.9264 28.8158 46.9264 26.4817V24.2524H44.9856C43.9103 24.2524 42.9924 24.2918 42.953 24.3442Z" fill="#5D6C63"/>
</svg>
