<svg width="46" height="46" viewBox="0 0 46 46" fill="none" xmlns="http://www.w3.org/2000/svg">
<path d="M7.41307 0.185779C7.20075 0.291938 7.00612 0.495409 6.89112 0.725419C6.72303 1.05274 6.70534 1.20313 6.74073 2.2028C6.77611 3.50324 6.91766 3.91018 7.51922 4.51175C8.05886 5.05139 8.57197 5.26371 9.377 5.26371C10.182 5.26371 10.6951 5.05139 11.2348 4.51175C11.8363 3.91018 11.9779 3.50324 12.0133 2.2028C12.0487 1.20313 12.031 1.05274 11.8629 0.725419C11.5356 0.0796199 11.2525 9.53674e-07 9.35931 9.53674e-07C7.92617 0.00884771 7.705 0.0265408 7.41307 0.185779Z" fill="#5D6C63"/>
<path d="M28.6455 0.185779C28.4332 0.291938 28.2385 0.495409 28.1235 0.725419C27.9555 1.05274 27.9378 1.20313 27.9731 2.2028C28.0085 3.50324 28.1501 3.91018 28.7516 4.51175C29.2913 5.05139 29.8044 5.26371 30.6094 5.26371C31.4145 5.26371 31.9276 5.05139 32.4672 4.51175C33.0688 3.91018 33.2103 3.50324 33.2457 2.2028C33.2811 1.20313 33.2634 1.05274 33.0953 0.725419C32.768 0.0796199 32.4849 9.53674e-07 30.5917 9.53674e-07C29.1586 0.00884771 28.9374 0.0265408 28.6455 0.185779Z" fill="#5D6C63"/>
<path d="M3.49439 2.70717C2.0701 3.00796 1.0262 3.75991 0.451175 4.90112C0.0619259 5.67962 0 6.13964 0 8.50167V10.616H19.949H39.898V8.50167C39.898 6.18387 39.8361 5.69731 39.4645 4.90997C38.8895 3.69799 37.7571 2.8841 36.3859 2.69833L35.917 2.6364V2.89295C35.917 3.02565 35.8551 3.4149 35.7844 3.75991C35.2801 6.14849 33.0508 7.96203 30.6091 7.96203C28.1675 7.96203 25.9381 6.14849 25.4339 3.75991C25.3631 3.4149 25.3012 3.0345 25.3012 2.89295V2.65409H19.9932H14.6853V2.89295C14.6853 3.0345 14.6234 3.4149 14.5526 3.75991C14.0483 6.14849 11.819 7.96203 9.37736 7.96203C6.93571 7.96203 4.70637 6.14849 4.20212 3.75991C4.13135 3.4149 4.06942 3.0345 4.06942 2.89295C4.06942 2.64525 3.96326 2.60986 3.49439 2.70717Z" fill="#5D6C63"/>
<path d="M0 23.3904C0 29.7688 0.0353863 33.679 0.0884656 33.9797C0.28309 35.0325 1.05274 36.0852 2.03471 36.6602C3.01668 37.2264 2.36203 37.191 12.4206 37.2264L21.6033 37.253L21.5502 37.0495C21.5237 36.9345 21.4529 36.3418 21.391 35.7225C21.0283 31.8035 22.4703 27.9198 25.3631 25.1155C27.6013 22.9392 30.1668 21.7361 33.3073 21.3999C35.2713 21.1965 37.7748 21.5503 39.4734 22.2846L39.898 22.4615V17.8701V13.2699H19.949H0V23.3904ZM12.6506 16.1893C13.0487 16.3928 13.3583 16.897 13.3583 17.3393C13.3583 17.7817 13.0487 18.2859 12.6506 18.4894C12.3233 18.6575 12.1375 18.6663 9.37736 18.6663C6.61723 18.6663 6.43145 18.6575 6.10413 18.4894C5.70603 18.2859 5.3964 17.7817 5.3964 17.3393C5.3964 16.9147 5.70603 16.3928 6.08644 16.1981C6.39607 16.0301 6.59954 16.0212 9.35966 16.0124C12.1375 16.0124 12.3233 16.0212 12.6506 16.1893ZM23.2665 16.1893C23.6646 16.3928 23.9742 16.897 23.9742 17.3393C23.9742 17.7817 23.6646 18.2859 23.2665 18.4894C22.9391 18.6575 22.7534 18.6663 19.9932 18.6663C17.2331 18.6663 17.0473 18.6575 16.72 18.4894C16.3219 18.2859 16.0123 17.7817 16.0123 17.3393C16.0123 16.9147 16.3219 16.3928 16.7023 16.1981C17.0119 16.0301 17.2154 16.0212 19.9755 16.0124C22.7534 16.0124 22.9391 16.0212 23.2665 16.1893ZM33.8823 16.1893C34.2804 16.3928 34.5901 16.897 34.5901 17.3393C34.5901 17.7817 34.2804 18.2859 33.8823 18.4894C33.555 18.6575 33.3692 18.6663 30.6091 18.6663C27.849 18.6663 27.6632 18.6575 27.3359 18.4894C26.9378 18.2859 26.6282 17.7817 26.6282 17.3393C26.6282 16.9147 26.9378 16.3928 27.3182 16.1981C27.6278 16.0301 27.8313 16.0212 30.5914 16.0124C33.3692 16.0124 33.555 16.0212 33.8823 16.1893ZM12.6506 21.4972C13.0487 21.7007 13.3583 22.205 13.3583 22.6473C13.3583 23.0896 13.0487 23.5939 12.6506 23.7973C12.3233 23.9654 12.1375 23.9743 9.37736 23.9743C6.61723 23.9743 6.43145 23.9654 6.10413 23.7973C5.70603 23.5939 5.3964 23.0896 5.3964 22.6473C5.3964 22.2227 5.70603 21.7007 6.08644 21.5061C6.39607 21.338 6.59954 21.3292 9.35966 21.3203C12.1375 21.3203 12.3233 21.3292 12.6506 21.4972ZM23.2665 21.4972C23.6646 21.7007 23.9742 22.205 23.9742 22.6473C23.9742 23.0896 23.6646 23.5939 23.2665 23.7973C22.9391 23.9654 22.7534 23.9743 19.9932 23.9743C17.2331 23.9743 17.0473 23.9654 16.72 23.7973C16.3219 23.5939 16.0123 23.0896 16.0123 22.6473C16.0123 22.2227 16.3219 21.7007 16.7023 21.5061C17.0119 21.338 17.2154 21.3292 19.9755 21.3203C22.7534 21.3203 22.9391 21.3292 23.2665 21.4972ZM12.6506 26.8052C13.0487 27.0086 13.3583 27.5129 13.3583 27.9552C13.3583 28.3976 13.0487 28.9018 12.6506 29.1053C12.3233 29.2734 12.1375 29.2822 9.37736 29.2822C6.61723 29.2822 6.43145 29.2734 6.10413 29.1053C5.70603 28.9018 5.3964 28.3976 5.3964 27.9552C5.3964 27.5306 5.70603 27.0086 6.08644 26.814C6.39607 26.6459 6.59954 26.6371 9.35966 26.6282C12.1375 26.6282 12.3233 26.6371 12.6506 26.8052Z" fill="#5D6C63"/>
<path d="M33.4836 24.0361C31.5992 24.2661 29.9096 24.9208 28.441 25.9647C24.2831 28.9283 22.8146 34.4928 24.9909 39.093C27.3883 44.1355 32.8997 46.4799 38.1192 44.6663C41.1093 43.6313 43.6394 41.1012 44.6745 38.0845C46.4703 32.9004 44.1171 27.3713 39.0923 25.0004C37.4114 24.2042 35.1821 23.8238 33.4836 24.0361ZM35.2086 28.1321C35.4387 28.2471 35.6244 28.4329 35.7394 28.6629C35.8987 28.9814 35.9164 29.176 35.9164 31.1399V33.2631H38.0395C40.0035 33.2631 40.1981 33.2808 40.5166 33.44C40.9147 33.6435 41.2243 34.1478 41.2243 34.5901C41.2243 35.0324 40.9147 35.5367 40.5166 35.7401C40.1893 35.9082 40.0035 35.9171 37.2434 35.9171C34.4832 35.9171 34.2974 35.9082 33.9701 35.7401C33.7401 35.6251 33.5543 35.4394 33.4393 35.2093C33.2712 34.882 33.2624 34.6962 33.2624 31.9361C33.2624 29.176 33.2712 28.9902 33.4393 28.6629C33.7667 28.0171 34.5363 27.7871 35.2086 28.1321Z" fill="#5D6C63"/>
</svg>
