<svg width="46" height="46" viewBox="0 0 46 46" fill="none" xmlns="http://www.w3.org/2000/svg">
<path d="M9.66562 0.0525217C6.66836 0.501623 4.11044 2.77642 3.32939 5.69557C3.00721 6.88666 3.02674 8.97596 3.38797 10.6064C3.4856 11.0653 3.52465 11.1238 3.70039 11.075C3.81754 11.0457 4.07138 10.9872 4.26664 10.9579C4.59859 10.8993 4.63764 10.8602 4.68646 10.538C4.79385 9.87416 5.13556 8.91738 5.47726 8.37065C5.84826 7.75558 6.84409 6.77927 7.39082 6.48638C7.72277 6.30088 7.74229 6.28135 7.78135 5.64676C7.84969 4.76808 8.24021 3.91869 8.84552 3.35244C9.31415 2.9131 10.1928 2.42495 10.515 2.42495C10.72 2.42495 11.1691 3.8113 10.9836 3.86988C10.9153 3.89917 10.6419 4.02609 10.3686 4.17253C9.96827 4.37756 9.81206 4.54353 9.58751 4.96334C9.34344 5.42221 9.31415 5.57841 9.3532 6.02752C9.42154 6.65235 9.74372 7.18932 10.2709 7.5115L10.6419 7.74581L14.7424 7.79463L18.8429 7.84344L19.497 8.15586C20.3757 8.56591 20.9615 9.13217 21.3813 9.97179C21.5668 10.3428 21.723 10.704 21.723 10.7724C21.723 10.8407 21.9085 10.9188 22.1428 10.9579C22.3674 10.9872 22.6407 11.036 22.7579 11.075C22.9336 11.1238 22.9727 11.0653 23.0703 10.6064C23.2949 9.6008 23.4022 8.2242 23.3534 7.25766C23.1679 3.96751 20.9127 1.17527 17.6713 0.218494C17.1636 0.0720482 16.5779 0.0427589 13.522 0.0329962C11.5597 0.0134697 9.83159 0.0232325 9.66562 0.0525217Z" fill="#5D6C63"/>
<path d="M30.2845 0.13051C28.1269 0.54056 26.2816 1.51686 24.7684 3.0399L24.0557 3.75261L24.2607 4.22123C24.5243 4.84607 24.8465 6.08598 24.8465 6.49603C24.8465 6.67176 24.8953 6.81821 24.9441 6.81821C25.0027 6.81821 25.0417 6.77916 25.0417 6.73034C25.0417 6.59366 26.2133 5.69546 26.7015 5.45138L27.1506 5.23659L26.8772 4.44578C26.7307 4.00645 26.5843 3.35232 26.5452 2.98133L26.4769 2.3272H27.2482H28.0195L28.1464 3.07895C28.3709 4.51413 29.318 5.93953 30.5188 6.64247C31.4365 7.17944 32.0223 7.30636 34.4436 7.45281C37.5385 7.64807 37.6458 7.66759 38.4074 8.04835C39.2275 8.4584 39.7937 9.04419 40.2038 9.92286L40.5162 10.577L40.5455 12.5882C40.5845 14.9313 40.4478 15.976 39.9402 17.2354C39.3056 18.7877 37.968 20.4182 36.6695 21.2187C36.3376 21.4237 36.074 21.6288 36.074 21.6776C36.074 21.7459 36.4743 23.4349 36.5036 23.4838C36.5231 23.513 39.3251 23.9036 39.5204 23.9036C40.0085 23.9036 41.4144 21.414 41.844 19.8031C42.0588 19.0025 42.0685 18.7877 42.1076 14.3358C42.1466 9.32731 42.0978 8.53651 41.6682 7.15991C41.346 6.15432 40.7114 4.88512 40.1354 4.11384C39.0615 2.68843 37.3139 1.34113 35.7518 0.726057C34.0628 0.06217 31.9052 -0.172144 30.2845 0.13051Z" fill="#5D6C63"/>
<path d="M27.4834 6.79865C26.7414 7.15988 25.8334 8.08738 25.4527 8.86842C24.984 9.81544 24.9157 10.3817 24.9645 13.0177C25.0036 15.2339 25.0231 15.3999 25.2672 16.1419C25.6382 17.2647 26.1556 18.0848 27.0441 18.9732C27.9325 19.8616 28.7526 20.3791 29.8753 20.7501C30.5685 20.9746 30.8126 21.0039 31.9744 21.0039C33.1362 21.0039 33.3803 20.9746 34.0735 20.7501C35.1962 20.3791 36.0163 19.8616 36.9047 18.9732C37.8029 18.075 38.3106 17.2647 38.6816 16.1419C38.9159 15.4292 38.9355 15.1949 38.9843 13.3301C39.0331 10.8503 38.9843 10.5965 38.2716 9.88378C37.637 9.24918 37.4417 9.20036 34.4249 9.01487C31.8865 8.85866 31.2129 8.73174 30.2854 8.27287C29.5239 7.89211 29.1919 7.66756 28.5573 7.05249L28.0204 6.53505L27.4834 6.79865ZM29.5727 11.0358C30.1097 11.192 30.92 12.0024 31.0762 12.5393C31.291 13.2618 31.2812 13.2618 30.4416 13.2618C29.6801 13.2618 29.6801 13.2618 29.5336 12.9396C29.3579 12.5686 28.9674 12.4026 28.5866 12.5393C28.4304 12.5881 28.2547 12.7639 28.1668 12.9396C28.0204 13.2618 28.0204 13.2618 27.2686 13.2618C26.4192 13.2618 26.4095 13.2618 26.6242 12.5393C26.7707 12.0414 27.5908 11.2018 28.0692 11.0456C28.5378 10.8991 29.0943 10.8991 29.5727 11.0358ZM35.821 11.0358C36.358 11.192 37.1683 12.0024 37.3246 12.5393C37.5393 13.2618 37.5296 13.2618 36.69 13.2618C35.9284 13.2618 35.9284 13.2618 35.782 12.9396C35.6063 12.5686 35.2157 12.4026 34.835 12.5393C34.6788 12.5881 34.503 12.7639 34.4152 12.9396C34.2687 13.2618 34.2687 13.2618 33.517 13.2618C32.6676 13.2618 32.6578 13.2618 32.8726 12.5393C33.019 12.0414 33.8391 11.2018 34.3175 11.0456C34.7862 10.8991 35.3427 10.8991 35.821 11.0358ZM29.8265 16.6496C30.6759 18.2605 32.9702 18.3679 33.9954 16.8448C34.1613 16.6008 34.3175 16.3372 34.3371 16.2688C34.4054 16.0833 35.782 16.5715 35.782 16.7765C35.782 17.0499 35.1864 17.9578 34.7276 18.3972C33.2045 19.8519 30.7443 19.8519 29.2212 18.3972C28.7624 17.9578 28.1668 17.0499 28.1668 16.7765C28.1668 16.6398 29.065 16.2395 29.436 16.2005C29.5141 16.2005 29.6898 16.3957 29.8265 16.6496Z" fill="#5D6C63"/>
<path d="M7.76171 8.12633C7.01972 8.66329 6.51204 9.46387 6.29725 10.4304C6.21915 10.8112 6.18986 11.7289 6.21915 13.5546C6.26796 16.3078 6.29725 16.503 6.85375 17.7429L7.08806 18.2897L7.69337 17.1181C8.19129 16.1613 8.38655 15.888 8.81612 15.5365C9.66551 14.8433 9.91935 14.8043 13.4438 14.8433L16.4997 14.8726L17.0366 15.1362C17.7981 15.5072 18.1496 15.9172 18.8037 17.1864L19.37 18.2897L19.6238 17.7137C20.1315 16.5714 20.1901 16.1906 20.2389 13.7596C20.2877 11.1333 20.2389 10.8502 19.6434 10.1766C18.9502 9.39552 19.0771 9.41505 14.4982 9.35647L10.4466 9.30766L9.85101 9.03429C9.5093 8.87808 9.05044 8.54614 8.77707 8.27277C8.52323 8.00917 8.27915 7.79438 8.24987 7.79438C8.22058 7.79438 8.00579 7.94083 7.76171 8.12633ZM10.8273 11.0357C11.3643 11.1919 12.1746 12.0023 12.3308 12.5392C12.5456 13.2617 12.5358 13.2617 11.6962 13.2617C10.9347 13.2617 10.9347 13.2617 10.7883 12.9395C10.7004 12.7638 10.5247 12.588 10.3782 12.5392C9.98769 12.4025 9.59717 12.5685 9.42143 12.9395C9.27499 13.2617 9.27499 13.2617 8.52323 13.2617C7.67384 13.2617 7.66408 13.2617 7.87887 12.5392C8.02532 12.0413 8.84541 11.2017 9.3238 11.0455C9.79243 10.899 10.3489 10.899 10.8273 11.0357ZM17.0757 11.0357C17.6126 11.1919 18.423 12.0023 18.5792 12.5392C18.794 13.2617 18.7842 13.2617 17.9446 13.2617C17.1831 13.2617 17.1831 13.2617 17.0366 12.9395C16.9488 12.7638 16.773 12.588 16.6266 12.5392C16.236 12.4025 15.8455 12.5685 15.6698 12.9395C15.5233 13.2617 15.5233 13.2617 14.7716 13.2617C13.9222 13.2617 13.9124 13.2617 14.1272 12.5392C14.2737 12.0413 15.0938 11.2017 15.5722 11.0455C16.0408 10.899 16.5973 10.899 17.0757 11.0357Z" fill="#5D6C63"/>
<path d="M4.00248 12.6175C2.79186 13.1447 2.80163 14.9606 4.02201 15.4683C4.64684 15.7319 4.63708 15.771 4.63708 14.0429C4.63708 12.3149 4.64684 12.3344 4.00248 12.6175Z" fill="#5D6C63"/>
<path d="M21.8203 14.0429V15.6245L22.1425 15.5659C22.5135 15.4976 22.8552 15.2633 23.1286 14.8825C23.4117 14.5018 23.4117 13.584 23.1286 13.2033C22.8552 12.8225 22.5135 12.5882 22.1425 12.5199L21.8203 12.4515V14.0429Z" fill="#5D6C63"/>
<path d="M10.2026 16.4935C9.75349 16.679 9.49965 17.0109 8.82599 18.3582L8.15234 19.6957L8.6405 20.1156C9.33367 20.7306 10.0757 21.1504 11.052 21.4921C11.8525 21.7753 11.999 21.7948 13.2291 21.7948C14.3909 21.7948 14.6448 21.7557 15.3282 21.5312C16.2166 21.2383 17.0953 20.7404 17.8178 20.1156L18.3059 19.6957L17.6323 18.3582C16.9391 16.9914 16.7048 16.6692 16.2264 16.4935C15.8652 16.3568 10.5443 16.3568 10.2026 16.4935ZM11.8135 17.9774C12.0478 18.3582 12.7507 18.7292 13.2291 18.7292C13.854 18.7194 14.6448 18.2215 14.8205 17.7236C14.8498 17.6455 15.0841 17.7138 15.5527 17.9384C15.9433 18.1239 16.2557 18.3094 16.2557 18.3387C16.2557 18.4754 15.6016 19.3052 15.3087 19.5493C14.7131 20.0472 14.1371 20.2425 13.2291 20.2425C12.536 20.2425 12.3114 20.2034 11.8623 19.9886C11.5694 19.8422 11.1887 19.5981 11.0227 19.4419C10.7005 19.1392 10.144 18.3582 10.2123 18.2996C10.31 18.2118 11.4327 17.665 11.5206 17.665C11.5792 17.665 11.7061 17.8017 11.8135 17.9774Z" fill="#5D6C63"/>
<path d="M23.3336 16.7473C23.1188 16.8742 22.6892 17.0206 22.367 17.089L21.791 17.2159L21.8594 18.1043C21.9277 19.1392 22.1815 20.1839 22.5721 21.1407L22.8552 21.8045L24.1146 21.8631C25.4912 21.9315 25.9696 22.0193 26.9557 22.3903C27.3071 22.527 27.6196 22.6344 27.6293 22.6344C27.6586 22.6344 27.8734 21.8045 27.8734 21.6776C27.8734 21.6288 27.6098 21.4238 27.2779 21.2188C25.9794 20.4182 24.6516 18.8073 24.0268 17.2745L23.7241 16.5227L23.3336 16.7473Z" fill="#5D6C63"/>
<path d="M29.2011 22.8784L29.0352 23.5423L29.699 24.2355C30.07 24.6162 30.4703 25.0751 30.607 25.2508C31.3295 26.2076 33.7702 25.7194 34.7661 24.421L35.0297 24.0695L34.8051 23.1518C34.6001 22.2926 34.5708 22.234 34.3756 22.2926C33.7995 22.4586 32.628 22.6245 31.9738 22.6245C31.3197 22.6245 30.1481 22.4586 29.5721 22.2926C29.3866 22.234 29.3476 22.2926 29.2011 22.8784Z" fill="#5D6C63"/>
<path d="M10.3982 23.5424C10.1737 24.6456 10.0858 24.5187 11.6674 25.4754C12.4485 25.9538 13.1417 26.3346 13.21 26.3444C13.5224 26.3541 14.2351 25.7976 14.5866 25.2802C14.7916 24.9775 15.2114 24.4796 15.5239 24.1672C16.0218 23.6693 16.0706 23.5912 16.012 23.308C15.9534 23.0444 15.9144 23.0152 15.6801 23.064C13.7567 23.5131 12.7023 23.5131 10.7692 23.064C10.5252 23.0054 10.5056 23.0249 10.3982 23.5424Z" fill="#5D6C63"/>
<path d="M19.6829 23.5619C17.9548 23.9427 16.2951 25.2314 15.4945 26.8325C15.0064 27.7991 14.7916 28.7168 14.7916 29.8103C14.7916 31.0697 14.5475 31.7922 13.6298 33.2371C13.415 33.5788 13.2978 33.901 13.2588 34.2817C13.21 34.7894 13.2392 34.8968 13.7079 35.9024C14.1277 36.7811 14.2253 37.074 14.2253 37.5133C14.2351 38.4799 13.8934 39.0559 12.9268 39.671C12.2434 40.1103 11.9408 40.4715 12.1751 40.5399C12.2434 40.5692 12.5265 40.6082 12.7901 40.6375C13.0635 40.6668 13.5517 40.8328 13.8836 40.989L14.4889 41.2916L15.0552 40.8621C15.3676 40.618 15.885 40.2958 16.2072 40.1298C16.5294 39.9638 16.9004 39.6807 17.0371 39.4952C17.164 39.3097 17.4374 39.0461 17.6326 38.8899L18.0036 38.6165L17.5643 38.0112C16.5977 36.6444 16.3537 35.7072 16.3537 33.2176C16.3537 31.1966 16.4318 30.6304 16.8418 29.8005C17.3788 28.6973 18.5503 27.6624 19.5559 27.389C20.0148 27.2621 20.0148 27.3012 19.6829 26.4713L19.4778 25.9636L19.8977 25.8562C20.1222 25.7976 20.376 25.7293 20.4541 25.7098C20.5322 25.6903 20.6885 25.6512 20.8056 25.6219C20.9716 25.5731 21.0302 25.6219 21.1278 25.9343C21.3426 26.5689 21.9479 27.3402 22.5825 27.7795C23.3147 28.2775 23.5881 28.3653 25.1404 28.5508C25.8141 28.6289 26.5658 28.7559 26.8197 28.8437C27.4445 29.0487 28.1963 29.7419 28.5282 30.4253C28.7918 30.9721 28.8016 31.0306 28.8309 32.8759C28.8504 34.0181 28.8211 35.0237 28.7527 35.4143C28.6063 36.2636 28.1963 37.2302 27.6495 37.9917L27.2004 38.6165L27.5714 38.8899C27.7667 39.0461 28.04 39.3097 28.167 39.4952C28.3036 39.671 28.6746 39.9541 28.9968 40.1201C29.319 40.286 29.8364 40.618 30.1489 40.8523L30.7151 41.2916L31.3204 40.989C31.6524 40.8328 32.1503 40.6668 32.4139 40.6375C32.6873 40.6082 32.9606 40.5692 33.029 40.5399C33.2633 40.4715 32.9704 40.1298 32.2479 39.6514C31.34 39.0461 30.9787 38.4506 30.9787 37.5621C30.9787 37.0642 31.0471 36.8299 31.4181 36.0684C31.6621 35.5705 31.8867 35.014 31.9257 34.8382C32.0429 34.2817 31.8965 33.735 31.379 32.9247C30.6468 31.7629 30.5003 31.2845 30.4125 29.7615C30.2758 27.6624 29.8072 26.5201 28.5087 25.2216C27.7081 24.4113 26.5561 23.7865 25.4821 23.5619C24.5546 23.3666 20.5811 23.3764 19.6829 23.5619Z" fill="#5D6C63"/>
<path d="M35.664 25.7C34.7853 26.6665 33.3404 27.3109 32.0614 27.3206H31.6123L31.749 27.8283C31.8173 28.1114 31.915 28.9218 31.9638 29.6247C32.0614 30.9818 32.1493 31.2649 32.7741 32.1729C33.2037 32.8075 33.4478 33.4616 33.5063 34.1645C33.5747 34.926 33.4087 35.5509 32.862 36.6932C32.3933 37.6597 32.4226 37.8745 33.0963 38.3236C33.3501 38.4896 33.7309 38.7922 33.9261 38.9875L34.2874 39.339L34.8536 39.173C35.9959 38.8508 37.0015 39.1339 38.0266 40.0712L38.5929 40.5984H39.579H40.565V35.9121V31.2258H41.3461H42.1271V33.569V35.9121H43.6892H45.2513V33.608C45.2513 30.9525 45.1537 30.3472 44.5484 29.1073C43.8259 27.6233 42.42 26.3931 40.8189 25.8464C40.1355 25.6121 36.9136 25.0556 36.3767 25.0849C36.2888 25.0849 35.9666 25.368 35.664 25.7Z" fill="#5D6C63"/>
<path d="M8.57221 25.9245C8.44529 25.944 8.34766 26.0221 8.34766 26.0905C8.34766 26.276 9.5778 29.0877 9.66567 29.0975C9.77306 29.117 11.7647 27.5159 11.7647 27.4182C11.7647 27.3792 11.1985 27.0082 10.5151 26.5981C9.3142 25.8854 9.11894 25.8171 8.57221 25.9245Z" fill="#5D6C63"/>
<path d="M5.42826 26.6469C4.03214 26.969 3.28039 27.2912 2.42124 27.9454C1.39612 28.7264 0.634599 29.8199 0.22455 31.1281C0 31.8603 0 31.8799 0 37.0836V42.3068L0.312418 42.9609C0.741993 43.8689 1.28872 44.4352 2.17716 44.8745L2.91916 45.2357L4.55935 45.2748L6.19954 45.3041V43.7322V42.1604H3.85641H1.51327V41.3793V40.5983H2.29432H3.07536V35.912V31.2257H3.85641H4.63745V35.912V40.5983H5.62352H6.60959L7.17585 40.0711C8.19121 39.1338 9.20657 38.8507 10.3391 39.1729L10.9053 39.3388L11.374 38.919C11.6278 38.6847 12.0183 38.3821 12.2429 38.2356C12.5846 38.0013 12.6432 37.9134 12.6432 37.6205C12.6432 37.4253 12.5065 36.9957 12.3112 36.615C11.4911 34.9748 11.4618 33.7641 12.2234 32.5242C13.1411 31.0402 13.1411 31.0305 13.2289 29.6344C13.2778 28.9217 13.2973 28.3359 13.2875 28.3164C13.268 28.3066 12.321 29.0388 11.1787 29.9565C10.0364 30.8645 9.07965 31.6163 9.04059 31.6163C9.01131 31.6163 8.4841 30.4545 7.86903 29.0291C7.26372 27.6036 6.73651 26.4223 6.69746 26.4028C6.66817 26.3833 6.09215 26.4907 5.42826 26.6469Z" fill="#5D6C63"/>
<path d="M20.3559 28.7752C19.2722 29.1267 18.6474 29.6442 18.2178 30.5424C17.9737 31.05 17.9639 31.177 17.9346 32.905C17.9151 34.0375 17.9444 34.9455 18.0128 35.2774C18.374 37.0055 19.7506 38.4309 21.4982 38.8898C23.9292 39.5244 26.4871 37.972 27.1412 35.4532C27.2486 35.0627 27.2877 34.389 27.2877 33.1686C27.2877 31.5675 27.2681 31.421 27.0631 31.0305C26.7507 30.435 26.3699 30.269 24.9152 30.103C24.2513 30.0249 23.4117 29.8687 23.07 29.7613C22.4745 29.5758 21.342 28.9315 21.1955 28.6971C21.1076 28.5605 21.0003 28.5702 20.3559 28.7752ZM20.7952 32.2509C21.2834 32.7293 20.9417 33.5689 20.2583 33.5689C20.0728 33.5689 19.8677 33.481 19.7213 33.3248C19.5651 33.1784 19.4772 32.9734 19.4772 32.7879C19.4772 32.6024 19.5651 32.3973 19.7213 32.2509C19.8677 32.0947 20.0728 32.0068 20.2583 32.0068C20.4438 32.0068 20.6488 32.0947 20.7952 32.2509ZM25.4815 32.2509C25.9696 32.7293 25.6279 33.5689 24.9445 33.5689C24.5442 33.5689 24.1635 33.1881 24.1635 32.7879C24.1635 32.3876 24.5442 32.0068 24.9445 32.0068C25.13 32.0068 25.335 32.0947 25.4815 32.2509ZM21.1857 35.1603C21.4201 35.541 22.123 35.912 22.6014 35.912C23.2262 35.9023 24.017 35.4044 24.1928 34.9064C24.2221 34.8283 24.4564 34.8967 24.925 35.1212C25.3155 35.3067 25.6279 35.4922 25.6279 35.5215C25.6279 35.6582 24.9738 36.4881 24.6809 36.7321C24.0854 37.2301 23.5094 37.4253 22.6014 37.4253C21.9082 37.4253 21.6837 37.3863 21.2346 37.1715C20.9417 37.025 20.5609 36.781 20.3949 36.6247C20.0728 36.3221 19.5163 35.541 19.5846 35.4825C19.6822 35.3946 20.805 34.8479 20.8929 34.8479C20.9514 34.8479 21.0784 34.9846 21.1857 35.1603Z" fill="#5D6C63"/>
<path d="M42.127 39.0363V40.5984H42.9081H43.6891V41.3794V42.1605H40.7797H37.8703L37.1967 41.4771C36.7573 41.0377 36.3863 40.7448 36.152 40.6765C35.4003 40.4519 34.6973 40.8229 34.2678 41.6723L34.0334 42.1409L33.106 42.18C32.364 42.1995 32.1296 42.2483 31.9149 42.4143C31.3974 42.7951 31.2412 43.1075 31.2412 43.7226C31.2412 44.3376 31.3974 44.6501 31.9149 45.0308C32.1785 45.2358 32.2859 45.2358 37.226 45.2358H42.2735L42.9276 44.9234C43.8356 44.4938 44.4018 43.9471 44.8412 43.0587L45.2024 42.3167L45.2317 39.8954L45.2707 37.4742H43.6989H42.127V39.0363Z" fill="#5D6C63"/>
<path d="M18.8425 39.954C17.9052 40.364 17.6318 41.6235 18.3153 42.4045C18.6765 42.8146 19.1549 42.9805 19.7309 42.8927C20.2191 42.8243 20.3362 42.7072 20.1312 42.4729C19.77 42.053 19.5454 41.4282 19.4966 40.6276C19.4478 39.7392 19.4087 39.7001 18.8425 39.954Z" fill="#5D6C63"/>
<path d="M25.7061 40.6179C25.6573 41.4282 25.4425 42.0531 25.0617 42.4827C24.8274 42.7463 25.052 42.8829 25.7159 42.8927C26.3407 42.8927 26.6531 42.7365 27.0339 42.219C27.317 41.8383 27.317 40.9206 27.0339 40.5398C26.7605 40.1688 26.4188 39.9247 26.0576 39.8564L25.7549 39.7978L25.7061 40.6179Z" fill="#5D6C63"/>
<path d="M21.0683 40.8034C21.1269 41.2525 21.3417 41.604 21.7615 41.9067C22.1423 42.1898 23.06 42.1898 23.4408 41.9067C23.8606 41.604 24.0754 41.2525 24.1339 40.8034L24.1925 40.3934L23.8118 40.4715C23.6067 40.5106 23.06 40.5496 22.6011 40.5496C22.1423 40.5496 21.5955 40.5106 21.3905 40.4715L21.0098 40.3934L21.0683 40.8034Z" fill="#5D6C63"/>
<path d="M8.93329 40.7058C8.7966 40.7644 8.48419 41.0085 8.23035 41.2623L7.76172 41.7114V43.5078V45.2944L10.388 45.2651C12.8678 45.2359 13.0338 45.2261 13.2876 45.0308C13.8051 44.6501 13.9613 44.3377 13.9613 43.7226C13.9613 43.1075 13.8051 42.7951 13.2876 42.4143C13.0728 42.2484 12.8385 42.1995 12.0965 42.18L11.169 42.141L10.9445 41.6919C10.4758 40.7644 9.71433 40.3934 8.93329 40.7058Z" fill="#5D6C63"/>
<path d="M15.8263 42.2288C15.4651 42.512 15.3772 42.6291 15.4261 42.7853C15.6408 43.5176 15.5627 44.3279 15.221 45.1577C15.1722 45.2554 15.6604 45.2847 17.4665 45.2847C18.7357 45.2847 19.7706 45.2651 19.7706 45.2359C19.7706 45.2163 19.7023 45.0406 19.6144 44.8649C19.4777 44.572 19.3899 44.5134 19.0286 44.4646C18.4624 44.3865 17.7106 44.0057 17.2713 43.5664C16.91 43.2051 16.4512 42.346 16.4512 42.0336C16.4512 41.7895 16.3438 41.8285 15.8263 42.2288Z" fill="#5D6C63"/>
<path d="M28.7521 42.0336C28.7521 42.346 28.2932 43.2051 27.932 43.5664C27.4926 44.0057 26.7409 44.3865 26.1746 44.4646C25.8134 44.5134 25.7255 44.572 25.5888 44.8649C25.501 45.0406 25.4326 45.2163 25.4326 45.2359C25.4326 45.2651 26.4675 45.2847 27.7367 45.2847C29.5429 45.2847 30.031 45.2554 29.9822 45.1577C29.6307 44.3279 29.5624 43.5176 29.7869 42.7853C29.8358 42.6096 29.7479 42.5022 29.3769 42.2191C28.8595 41.8285 28.7521 41.7895 28.7521 42.0336Z" fill="#5D6C63"/>
<path d="M20.9414 43.6445C20.9512 44.5036 21.7322 45.2847 22.6011 45.2847C23.47 45.2847 24.2511 44.5036 24.2608 43.6445V43.2344L23.8508 43.4492C23.5091 43.6249 23.2748 43.664 22.6011 43.664C21.9275 43.664 21.6932 43.6249 21.3612 43.4492L20.9414 43.2344V43.6445Z" fill="#5D6C63"/>
</svg>
