<svg width="46" height="43" viewBox="0 0 46 43" fill="none" xmlns="http://www.w3.org/2000/svg">
<path d="M4.20228 0.0745344C4.14035 0.109921 4.02534 0.410704 3.95457 0.72918C3.83957 1.22459 3.74225 1.40152 3.32647 1.87039C2.64528 2.62234 2.38873 3.21506 2.37988 4.01126C2.37988 4.78091 2.63643 5.40017 3.238 6.08135C3.74225 6.63868 3.89265 6.93062 3.97226 7.43488C4.04304 7.92144 4.14035 8.04529 4.45883 8.04529C4.86577 8.04529 5.00731 7.82412 4.95423 7.27564C4.89231 6.66522 4.65345 6.17866 4.08727 5.52402C3.53878 4.88706 3.38839 4.5509 3.38839 4.0201C3.38839 3.47161 3.54763 3.14429 4.09612 2.51619C4.6446 1.89693 4.89231 1.40152 4.95423 0.75572C4.98962 0.393011 4.97193 0.260313 4.84807 0.145307C4.68884 -0.0139313 4.38805 -0.0493174 4.20228 0.0745344Z" fill="#5D6C63"/>
<path d="M8.80188 0.0744743C8.73996 0.109861 8.62495 0.410644 8.55418 0.72912C8.43918 1.22453 8.34186 1.40146 7.92607 1.87033C7.24489 2.62228 6.98834 3.215 6.97949 4.01119C6.97949 4.78085 7.23604 5.40011 7.8553 6.09898C8.31532 6.62093 8.59841 7.16057 8.60726 7.53213C8.60726 7.99215 9.12921 8.21331 9.44768 7.89484C9.57154 7.77983 9.58923 7.64713 9.55384 7.28442C9.49192 6.65632 9.24421 6.15206 8.69573 5.52396C8.14724 4.887 7.988 4.55968 7.988 4.02004C7.988 3.47155 8.14724 3.14423 8.69573 2.51613C9.24421 1.89687 9.49192 1.40146 9.55384 0.75566C9.58923 0.392951 9.57154 0.260252 9.44768 0.145247C9.28845 -0.0139914 8.98766 -0.0493774 8.80188 0.0744743Z" fill="#5D6C63"/>
<path d="M13.4025 0.0744743C13.3405 0.109861 13.2255 0.410644 13.1548 0.72912C13.0398 1.22453 12.9424 1.40146 12.5267 1.87033C11.8455 2.62228 11.5889 3.215 11.5801 4.01119C11.5801 4.78085 11.8366 5.40011 12.4559 6.09898C12.9159 6.62093 13.199 7.16057 13.2078 7.53213C13.2078 7.99215 13.7298 8.21331 14.0483 7.89484C14.1721 7.77983 14.1898 7.64713 14.1544 7.28442C14.0925 6.65632 13.8448 6.15206 13.2963 5.52396C12.7478 4.887 12.5886 4.55968 12.5886 4.02004C12.5886 3.47155 12.7478 3.14423 13.2963 2.51613C13.8448 1.89687 14.0925 1.40146 14.1544 0.75566C14.1898 0.392951 14.1721 0.260252 14.0483 0.145247C13.889 -0.0139914 13.5882 -0.0493774 13.4025 0.0744743Z" fill="#5D6C63"/>
<path d="M0.0615741 11.7342C-0.0091984 12.7339 0.0704207 16.2195 0.203119 17.9534C0.441976 21.0585 1.02585 24.8095 1.6628 27.3927C2.27322 29.8697 2.84824 31.5682 4.09561 34.6292C4.82103 36.4162 4.76795 36.3542 5.45798 36.3542H6.01531L5.97108 35.7527C5.90031 34.6822 6.22763 33.7887 7.30691 32.1698C7.63423 31.6744 7.89963 31.1701 7.93502 30.9755C8.03233 30.3828 9.41239 28.9585 11.1286 27.6758C11.571 27.3573 12.0929 26.8796 12.3052 26.6319C12.606 26.278 12.8626 26.0922 13.4995 25.7914C14.5169 25.3049 15.4634 24.9864 16.5073 24.7918C16.9585 24.7122 17.3301 24.6325 17.3478 24.6325C17.392 24.5971 17.6397 23.1021 17.852 21.5362C18.2943 18.2895 18.5155 14.4059 18.3828 12.0881L18.3209 10.8761H9.22661H0.132347L0.0615741 11.7342Z" fill="#5D6C63"/>
<path d="M33.1476 14.4148C31.9976 14.5741 31.1572 14.9279 30.1663 15.6622C29.6355 16.0603 28.9455 16.883 28.3793 17.7765C28.2555 17.98 28.0697 18.1127 27.7247 18.2277C26.2208 18.7497 25.0973 20.2447 24.7611 22.1733L24.708 22.4652H33.8642H43.0204L42.9673 22.0848C42.6931 20.2801 41.543 18.7673 39.9949 18.21C39.526 18.0331 39.4552 17.9712 39.0925 17.3873C38.5617 16.538 38.0752 15.9984 37.4028 15.5207C36.1555 14.6272 34.5896 14.2202 33.1476 14.4148ZM34.7046 15.963C34.7666 16.0338 34.8196 16.193 34.8196 16.3168C34.8196 16.768 34.3242 16.9715 33.9792 16.653C33.8023 16.4938 33.7669 16.0957 33.9261 15.9364C34.0765 15.7861 34.5719 15.8037 34.7046 15.963ZM31.2722 17.5731C31.6172 17.8827 31.3341 18.44 30.8475 18.3781C30.6883 18.3604 30.5467 18.2631 30.4671 18.1215C30.3521 17.9092 30.3521 17.865 30.4848 17.6527C30.6617 17.3873 31.0245 17.3431 31.2722 17.5731ZM37.217 17.9181C37.5267 18.2277 37.3232 18.7497 36.8897 18.7497C36.527 18.7497 36.3855 18.617 36.3855 18.2631C36.3855 18.1127 36.4297 17.9446 36.4916 17.8827C36.642 17.7323 37.0578 17.75 37.217 17.9181ZM34.2358 19.5105C34.3685 19.7228 34.3685 19.767 34.2534 19.9793C34.0146 20.404 33.2892 20.2624 33.2892 19.7847C33.2892 19.2893 33.9615 19.1035 34.2358 19.5105ZM28.8836 19.6078C29.3259 20.0059 28.7863 20.7224 28.282 20.3951C28.0078 20.2093 27.937 19.9351 28.1051 19.6785C28.2732 19.422 28.6359 19.3866 28.8836 19.6078ZM40.3664 19.5901C40.5434 19.8024 40.4991 20.1828 40.278 20.3597C39.8002 20.749 39.2164 20.0766 39.6322 19.6166C39.8091 19.422 40.216 19.4043 40.3664 19.5901Z" fill="#5D6C63"/>
<path d="M22.5861 23.6064C22.3649 24.0222 22.533 24.5353 22.9134 24.6326C23.0461 24.6592 23.3823 24.9069 23.6653 25.1723C24.2934 25.7738 24.4615 25.7827 24.9746 25.2431C25.4789 24.7299 25.7531 24.5884 26.2574 24.5884C26.7616 24.5884 27.0359 24.7299 27.5401 25.2431C28.0532 25.7738 28.2302 25.765 28.7698 25.2077C29.2475 24.7123 29.5041 24.5884 30.0703 24.5884C30.5745 24.5884 30.8576 24.7388 31.3176 25.2431C31.7953 25.7738 31.99 25.7738 32.4942 25.2431C32.9542 24.7653 33.3169 24.5884 33.8212 24.5884C34.2989 24.5884 34.7766 24.845 35.1305 25.2873C35.5197 25.7738 35.7851 25.7738 36.254 25.2873C36.7052 24.8273 37.174 24.5884 37.6252 24.5884C38.0852 24.5884 38.2622 24.6857 38.8372 25.2165C39.4211 25.765 39.598 25.765 40.1023 25.2431C40.5977 24.7388 40.8808 24.5884 41.3408 24.5884C41.8273 24.5884 42.1989 24.7742 42.6678 25.2519C43.1809 25.7738 43.4374 25.7827 43.8267 25.2961C43.9859 25.1015 44.3221 24.8361 44.5875 24.7123C45.1094 24.4557 45.2244 24.2345 45.0829 23.7657L45.0033 23.4826L33.8389 23.456C22.878 23.4384 22.6834 23.4384 22.5861 23.6064Z" fill="#5D6C63"/>
<path d="M17.6574 25.6499C16.295 25.8002 14.9592 26.1895 13.8269 26.7557C13.1811 27.083 13.0041 27.2422 12.8095 27.7111C12.5618 28.3127 12.6591 29.2239 13.2076 31.1613C13.703 32.9217 14.393 34.293 15.2423 35.2218C15.6139 35.6199 15.7908 35.7526 15.9943 35.7615C16.3039 35.7792 18.374 35.6642 18.9844 35.5934L19.4002 35.5403V35.0449C19.4002 34.2399 19.5683 32.5679 19.7187 31.8159C19.8868 30.9755 20.2672 29.8343 20.5945 29.1885C20.913 28.5515 21.8065 27.2511 22.293 26.7114L22.6823 26.278L22.0542 26.0922C20.6652 25.6764 18.9313 25.4995 17.6574 25.6499Z" fill="#5D6C63"/>
<path d="M25.5577 26.0656C25.248 26.3487 24.9827 26.5964 24.9827 26.623C24.9738 26.6495 25.2215 26.8087 25.5311 26.968C26.6193 27.5607 27.1766 28.0207 27.6012 28.6842C27.8224 29.0204 28.2647 29.56 28.5744 29.8873L29.1405 30.4712L29.0875 30.0289C29.0609 29.7812 29.0167 29.4627 28.9901 29.3035C28.9017 28.8258 29.3971 28.4896 29.7775 28.7638C29.8925 28.8523 30.0075 29.3389 30.2375 30.7366C30.4498 32.0371 30.6091 32.7625 30.7772 33.1694C31.0956 33.9125 31.1664 34.9387 30.9452 35.4164C30.7683 35.7968 30.4144 36.0622 29.9013 36.2303C29.5829 36.3276 30.211 36.3453 34.0858 36.3453C37.1555 36.3542 38.7568 36.3188 38.9956 36.2569C39.1902 36.2038 39.491 36.0092 39.6679 35.8322C39.9599 35.5403 40.0926 35.1776 41.4284 31.1789C42.2246 28.7904 42.8881 26.7999 42.9058 26.7557C42.9235 26.7026 42.8085 26.6141 42.6581 26.5433C42.5165 26.4814 42.1981 26.2337 41.9592 25.9949C41.7204 25.756 41.455 25.5614 41.3753 25.5614C41.2957 25.5614 40.9772 25.8002 40.6676 26.0833C39.7741 26.9149 39.1814 26.9061 38.2348 26.0391C37.9429 25.7737 37.6509 25.5614 37.5713 25.5614C37.4917 25.5614 37.244 25.7472 37.014 25.9683C36.0674 26.9061 35.4039 26.9326 34.4839 26.0833C34.1831 25.7914 33.8646 25.5614 33.785 25.5614C33.7054 25.5614 33.4223 25.7737 33.1569 26.0391C32.7057 26.4991 32.2899 26.7114 31.8476 26.7114C31.5291 26.7114 31.0691 26.446 30.6533 26.0125C30.4144 25.7648 30.1402 25.5614 30.0429 25.5614C29.9544 25.5614 29.6979 25.7472 29.4856 25.9683C28.5655 26.9149 27.7693 26.9414 26.8847 26.0479C26.6193 25.7825 26.3362 25.5614 26.2654 25.5614C26.1858 25.5614 25.8673 25.7914 25.5577 26.0656ZM34.2096 27.5607C34.3335 27.6845 34.3512 28.1534 34.3512 31.4443C34.3512 35.5138 34.36 35.4695 33.8646 35.4695C33.3692 35.4695 33.378 35.5138 33.378 31.4443C33.378 27.3749 33.3692 27.4192 33.8646 27.4192C33.9796 27.4192 34.1388 27.4811 34.2096 27.5607ZM38.6152 28.8081C38.7037 28.8877 38.7744 29.0381 38.7744 29.1354C38.7744 29.6043 37.8102 35.2218 37.7129 35.3368C37.5448 35.5403 37.1201 35.5049 36.9697 35.2661C36.8459 35.0891 36.8813 34.7795 37.3236 32.0194C37.6686 29.8696 37.8456 28.9319 37.9517 28.8169C38.1286 28.6223 38.4029 28.6134 38.6152 28.8081Z" fill="#5D6C63"/>
<path d="M22.9218 27.5696C21.4621 29.1178 20.5951 31.3383 20.4094 34.0276C20.374 34.5142 20.374 35.0538 20.4094 35.2219L20.4624 35.5227L21.9929 35.4962C22.8245 35.4785 23.6826 35.4431 23.8772 35.4165L24.2488 35.3723L24.3107 34.7796C24.4965 32.9307 25.1776 31.1967 26.3365 29.6574C26.5931 29.3213 26.7258 29.0647 26.6904 28.9762C26.6639 28.9055 26.4339 28.702 26.1862 28.5428C25.5846 28.1447 23.6207 27.0654 23.4968 27.0654C23.4526 27.0654 23.1872 27.2954 22.9218 27.5696Z" fill="#5D6C63"/>
<path d="M10.8458 29.1355C9.32422 30.3033 8.87305 30.8694 8.87305 31.586C8.87305 32.4707 9.29768 33.948 9.96117 35.3989C10.2443 36.0181 10.3504 36.1774 10.5008 36.1774C10.8016 36.1774 14.4021 35.8943 14.4287 35.8677C14.4464 35.85 14.3137 35.6554 14.1456 35.4254C13.0132 33.948 12.1551 31.7541 11.8278 29.5071C11.7482 28.9674 11.6774 28.5251 11.6686 28.5162C11.6686 28.5162 11.297 28.7905 10.8458 29.1355Z" fill="#5D6C63"/>
<path d="M27.0262 30.4005C26.1504 31.5063 25.4692 33.3022 25.2923 34.9122L25.248 35.3811H26.9377C27.8666 35.3811 28.8928 35.3369 29.2113 35.2838C29.9456 35.1599 30.1048 35.0007 30.1048 34.3726C30.1048 33.833 29.804 33.1429 29.1494 32.1786C28.6717 31.4798 27.4774 30.0732 27.3624 30.0732C27.3181 30.0732 27.1678 30.2236 27.0262 30.4005Z" fill="#5D6C63"/>
<path d="M7.662 33.488C7.19313 34.293 6.92773 35.0273 6.92773 35.5138C6.92773 36.0535 7.14005 36.2392 7.86547 36.31C8.39626 36.3719 9.22784 36.31 9.22784 36.2127C9.22784 36.1862 9.13938 36.0004 9.04206 35.7969C8.9359 35.5934 8.66166 34.8592 8.43165 34.1603L8.00702 32.8775L7.662 33.488Z" fill="#5D6C63"/>
<path d="M0.0619259 37.7873C0.194624 38.7781 0.858117 39.7955 1.71623 40.3086C2.7159 40.9013 1.33583 40.8659 21.6299 40.8659C34.7405 40.8659 40.1369 40.8394 40.473 40.7686C41.9239 40.4678 43.1182 39.1939 43.2597 37.8139L43.3128 37.3273H21.6564H0L0.0619259 37.7873Z" fill="#5D6C63"/>
<path d="M4.53809 42.1488C4.53809 42.3434 4.60886 42.5292 4.71502 42.6353C4.89195 42.8123 5.00695 42.8123 21.7447 42.8123C38.4823 42.8123 38.5974 42.8123 38.7743 42.6353C38.8804 42.5292 38.9512 42.3434 38.9512 42.1488V41.8391H21.7447H4.53809V42.1488Z" fill="#5D6C63"/>
</svg>
