<svg width="16" height="16" viewBox="0 0 16 16" fill="none" xmlns="http://www.w3.org/2000/svg">
<path d="M5.92275 0.0453258C5.37547 0.14605 4.70397 0.43815 4.27085 0.763825C3.98882 0.975346 3.55234 1.43196 3.36768 1.70392C3.15279 2.01952 2.90769 2.55336 2.80697 2.93275C2.68946 3.37594 2.65924 4.12466 2.73646 4.57792C2.87412 5.36021 3.21994 6.04849 3.76386 6.61926C4.52938 7.42505 5.51985 7.85145 6.62447 7.85145C7.26912 7.85145 7.81639 7.72387 8.38381 7.43848C9.31049 6.97515 10.0324 6.13914 10.3614 5.14869C10.6132 4.37982 10.6132 3.45652 10.3614 2.69773C10.2439 2.3452 9.98535 1.84493 9.78054 1.57298C9.57238 1.29766 9.11575 0.854477 8.85387 0.676531C8.40396 0.374358 7.81975 0.135978 7.29933 0.0453258C6.95351 -0.0151086 6.2585 -0.0151086 5.92275 0.0453258ZM7.19189 1.11636C7.7526 1.23387 8.22601 1.4924 8.63898 1.90537C9.19969 2.46942 9.47501 3.12749 9.47501 3.92321C9.47501 4.71893 9.19969 5.37699 8.63898 5.94105C8.07828 6.49839 7.41685 6.7737 6.63454 6.77706C6.03019 6.77706 5.52992 6.62933 5.04308 6.30366C4.40851 5.87726 3.97203 5.23598 3.81423 4.49398C3.75379 4.21195 3.75379 3.63447 3.81423 3.35244C4.04925 2.24111 4.91885 1.36481 6.03355 1.11972C6.30215 1.05928 6.91993 1.05928 7.19189 1.11636Z" fill="#F4F4F4"/>
<path d="M4.89191 8.61359C2.77331 8.88554 1.01733 10.299 0.308892 12.3001C0.0872956 12.9279 0.0369327 13.2536 0.0167876 14.1736L0 15.0062L0.083938 15.1338C0.238384 15.3688 0.543918 15.4393 0.792375 15.295C1.04419 15.1539 1.06098 15.0868 1.08784 14.2139C1.10462 13.6196 1.12477 13.3745 1.17513 13.1562C1.37994 12.2967 1.76606 11.5984 2.39056 10.9739C2.9244 10.4401 3.51532 10.0774 4.20362 9.86592C4.83819 9.66783 4.91205 9.66447 7.33954 9.66447H9.56222L9.70995 9.58725C9.93155 9.47646 10.0222 9.32537 10.0054 9.09035C9.98863 8.87211 9.89797 8.72438 9.7301 8.6438C9.62937 8.5968 9.3742 8.59008 7.30261 8.59344C6.03347 8.5968 4.94899 8.60687 4.89191 8.61359Z" fill="#F4F4F4"/>
<path d="M12.1605 9.3321C12.0631 9.37239 11.9355 9.48318 11.8818 9.58055C11.855 9.6242 11.8348 9.99688 11.8247 10.7221L11.8079 11.7965L10.7268 11.8133C9.70278 11.8301 9.64235 11.8334 9.55505 11.9006C9.22602 12.1423 9.23273 12.5855 9.56512 12.7903C9.69271 12.8709 9.70614 12.8709 10.7604 12.8809L11.8247 12.891V13.9352C11.8247 14.8249 11.8315 14.9928 11.8785 15.0902C11.959 15.258 12.1068 15.3487 12.325 15.3655C12.5466 15.3789 12.6977 15.2983 12.8118 15.1036C12.879 14.9928 12.8824 14.9256 12.8924 13.9352L12.9025 12.8877H13.9165C14.9036 12.8877 14.9372 12.8843 15.0815 12.8104C15.3031 12.6996 15.3938 12.5486 15.377 12.3135C15.3602 12.0953 15.2696 11.9476 15.1017 11.867C15.0043 11.82 14.8364 11.8133 13.9467 11.8133H12.9025L12.8924 10.7456C12.8824 9.69471 12.8824 9.68128 12.8018 9.55369C12.6708 9.33881 12.3854 9.24145 12.1605 9.3321Z" fill="#F4F4F4"/>
</svg>
