<svg width="34" height="46" viewBox="0 0 34 46" fill="none" xmlns="http://www.w3.org/2000/svg">
<path d="M11.4124 0.1593C10.8374 0.442389 10.7843 0.601627 9.99696 4.52065C9.59002 6.53767 9.2627 8.33352 9.2627 8.51045C9.2627 8.68739 9.35116 8.97048 9.45732 9.13856C9.83772 9.75782 9.49271 9.73128 17.0034 9.73128C23.541 9.73128 23.7622 9.72243 24.0365 9.55435C24.3815 9.34203 24.5849 9.05009 24.6469 8.652C24.7088 8.2716 23.3287 1.25627 23.0899 0.734326C22.966 0.468929 22.8156 0.309691 22.5679 0.176992C22.2229 0.00890827 22.0725 6.10352e-05 16.9681 6.10352e-05C12.1467 6.10352e-05 11.6955 0.00890827 11.4124 0.1593Z" fill="#5D6C63"/>
<path d="M4.09604 5.75914C2.55673 6.01569 1.15013 7.07727 0.486637 8.46619C-0.0176171 9.54547 7.6079e-05 8.70504 7.6079e-05 25.487C7.6079e-05 40.6058 7.60825e-05 40.9419 0.177007 41.6143C0.398171 42.5078 0.78742 43.1713 1.45091 43.8436C2.12325 44.5071 2.78674 44.8963 3.68025 45.1175C4.34374 45.2856 4.67991 45.2944 16.9324 45.2944C27.4952 45.2944 29.6007 45.2679 30.1049 45.1617C31.6531 44.8344 33.0597 43.5959 33.6436 42.0654L33.8382 41.5346L33.8647 25.6551C33.8824 8.16541 33.9267 9.44815 33.3428 8.30695C33.0331 7.68769 32.2635 6.83842 31.6708 6.45802C31.4319 6.29878 30.9454 6.07761 30.5915 5.94492C30.0165 5.75029 29.7688 5.7149 28.4241 5.67952C27.5748 5.66183 26.8936 5.67067 26.8936 5.7149C26.8936 5.75914 26.9909 6.28993 27.1148 6.90034C27.3713 8.19194 27.389 8.70504 27.2033 9.42162C26.9025 10.554 26.0797 11.5359 24.9739 12.0579L24.3724 12.341L17.2066 12.3675C9.18281 12.3941 9.41282 12.4118 8.42201 11.766C7.78505 11.359 7.30734 10.8105 6.98002 10.1293C6.71462 9.56316 6.54653 8.65197 6.60846 8.13886C6.65269 7.77615 6.98002 6.04223 7.04194 5.81222C7.08617 5.67067 6.98886 5.66183 5.82112 5.67067C5.12224 5.67952 4.35259 5.7149 4.09604 5.75914ZM19.1175 15.7734C19.5156 16.0388 19.7721 16.6581 19.6837 17.127C19.6129 17.5428 19.0821 18.0824 18.6663 18.1709C18.5071 18.1974 16.1008 18.2239 13.323 18.2239H8.26277L7.87352 18.0205C7.13041 17.6578 6.90924 16.8439 7.35157 16.1362C7.70543 15.5611 7.53735 15.57 13.4557 15.57H18.8167L19.1175 15.7734ZM9.02357 22.8065C10.1117 23.3461 9.89054 25.0446 8.71394 25.2658C8.28931 25.3454 7.90006 25.2304 7.55504 24.9296C6.43153 23.9388 7.67005 22.1253 9.02357 22.8065ZM26.0621 22.7888C26.5309 23.0099 26.7609 23.3992 26.7609 23.9742C26.7609 24.3369 26.7079 24.5315 26.5663 24.735C26.1505 25.3189 26.3098 25.3012 20.5064 25.3012C14.6588 25.3012 14.8623 25.3189 14.4465 24.6908C14.0219 24.0627 14.2696 23.1426 14.9508 22.8065C15.2339 22.6561 15.685 22.6472 20.5064 22.6472C25.1686 22.6472 25.7967 22.6649 26.0621 22.7888ZM9.16512 29.9987C9.70476 30.326 9.89938 31.1753 9.55437 31.7415C9.32435 32.1219 8.88203 32.3784 8.46624 32.3784C6.97117 32.3784 6.60846 30.3526 8.00622 29.8572C8.41316 29.7156 8.76702 29.7599 9.16512 29.9987ZM26.1594 29.9545C26.9909 30.5738 27.0086 31.6353 26.1948 32.175L25.894 32.3784H20.533C15.34 32.3784 15.1631 32.3696 14.88 32.2015C13.8892 31.6 14.0838 30.158 15.2073 29.8041C15.3312 29.7687 17.7905 29.7422 20.6745 29.751C25.832 29.7687 25.9117 29.7687 26.1594 29.9545ZM9.09434 37.0671C10.2179 37.7483 9.74899 39.4822 8.44854 39.4822C7.42234 39.4822 6.79424 38.3587 7.32503 37.4918C7.68774 36.9167 8.51047 36.7133 9.09434 37.0671ZM26.1948 37.0937C27.0086 37.6333 26.9909 38.6949 26.1594 39.3142C25.9117 39.4999 25.8497 39.4999 20.5418 39.4999H15.1719L14.8535 39.2965C14.0307 38.7922 14.0484 37.5714 14.88 37.0671C15.1631 36.899 15.34 36.8902 20.533 36.8902H25.894L26.1948 37.0937Z" fill="#5D6C63"/>
</svg>
