<svg width="12" height="14" viewBox="0 0 12 14" fill="none" xmlns="http://www.w3.org/2000/svg">
<path d="M7.61965 5.5879C7.61965 6.12682 7.40556 6.64366 7.02449 7.02474C6.64342 7.40581 6.12657 7.61989 5.58766 7.61989C5.04874 7.61989 4.53189 7.40581 4.15082 7.02474C3.76975 6.64366 3.55566 6.12682 3.55566 5.5879C3.55566 5.04898 3.76975 4.53214 4.15082 4.15106C4.53189 3.76999 5.04874 3.55591 5.58766 3.55591C6.12657 3.55591 6.64342 3.76999 7.02449 4.15106C7.40556 4.53214 7.61965 5.04898 7.61965 5.5879Z" stroke="#6E6E6E" stroke-width="1.016" stroke-linecap="round" stroke-linejoin="round"/>
<path d="M10.6678 5.58804C10.6678 10.4255 5.58779 13.208 5.58779 13.208C5.58779 13.208 0.507812 10.4255 0.507812 5.58804C0.507812 4.24074 1.04302 2.94863 1.9957 1.99595C2.94839 1.04327 4.2405 0.508057 5.58779 0.508057C6.93509 0.508057 8.2272 1.04327 9.17988 1.99595C10.1326 2.94863 10.6678 4.24074 10.6678 5.58804Z" stroke="#6E6E6E" stroke-width="1.016" stroke-linecap="round" stroke-linejoin="round"/>
</svg>
