<svg xmlns="http://www.w3.org/2000/svg" fill="none" viewBox="0 0 40 45"><path fill="#5d6c63" d="M24.268.03C21.26.26 18.5 2.147 17.141 4.908c-1.253 2.55-1.253 5.302 0 7.851a8.88 8.88 0 0 0 6.201 4.755c.926.194 2.54.185 3.546-.026a8.65 8.65 0 0 0 4.252-2.259c.688-.661.759-.758.627-.855-.08-.062-.389-.291-.697-.512-1.076-.776-2.02-2.214-2.33-3.564-.079-.344-.14-.997-.14-1.464 0-1.059.176-1.87.626-2.779.538-1.103 1.411-2.055 2.523-2.752.15-.088.115-.15-.406-.688C29.508.727 27.012-.182 24.268.03m1.297 2.32c.194.185.22.291.22.9v.697l.424.114c.838.221 1.694.97 1.694 1.491 0 .115-.124.327-.265.477-.353.344-.67.29-1.2-.186-.423-.397-.793-.502-1.464-.423-1.085.132-1.64 1.244-1.04 2.09.264.371.634.539 1.375.627 1.068.115 1.862.662 2.303 1.561.211.424.247.618.247 1.209 0 .59-.036.785-.247 1.208-.291.591-.874 1.147-1.438 1.359l-.388.15v.74c0 .671-.018.76-.22.954-.265.273-.645.282-.962.035-.212-.168-.23-.23-.23-.918v-.732l-.44-.106c-.521-.123-1.157-.529-1.456-.926-.38-.494-.23-1.12.3-1.235.282-.062.75.133.829.335.08.22.794.503 1.252.503.918 0 1.544-.564 1.544-1.376 0-.847-.459-1.244-1.552-1.367-.389-.044-.812-.16-1.077-.291-.555-.283-1.164-.962-1.367-1.518-.185-.538-.194-1.376-.009-1.914.194-.565.83-1.253 1.456-1.57l.52-.256v-.723c0-.618.027-.75.194-.927.265-.282.715-.273.997.018"/><path fill="#5d6c63" d="M33.645 4.123C31.59 4.67 30.02 6.69 30.02 8.78c0 2.214 1.544 4.216 3.68 4.772 1.613.423 3.422-.08 4.604-1.27 1.623-1.623 1.923-3.996.759-5.964-.6-1.014-1.774-1.905-2.912-2.205-.643-.168-1.87-.159-2.505.009m3.908 2.779c.177.132.23.255.23.502 0 .3-.115.442-1.527 1.888-.829.856-1.605 1.588-1.72 1.615-.38.105-.59-.027-1.588-1.041-1.058-1.085-1.146-1.253-.811-1.676.229-.283.555-.362.864-.203.133.07.477.37.768.661l.52.538 1.244-1.235c1.358-1.35 1.526-1.437 2.02-1.05M23.14 20.434v1.456h-2.78l2.364 2.355 2.356 2.364 2.355-2.364L29.8 21.89H27.02v-2.911l-.546.07c-.724.08-2.18.08-2.823-.008l-.512-.062zM14.414 27.015c-.617.123-1.5.432-2.17.767-.767.38-5.442 2.92-5.53 3.008-.054.044 4.922 8.822 5.098 8.998.018.018.362-.08.759-.211.626-.212.873-.247 1.702-.247 1.094-.01 1.182.008 3.838.873 1.702.547 1.87.59 2.822.626 1.235.053 1.8-.062 2.956-.626.44-.212 3.89-2.073 7.674-4.129 7.666-4.172 7.657-4.172 7.948-5.151.53-1.835-1.067-3.555-2.867-3.088-.29.08-1.746.812-3.59 1.817l-3.096 1.676.088.486c.203 1.085-.212 2.337-1.04 3.21-.848.892-1.88 1.306-3.044 1.218-.52-.035-1.297-.247-3.661-1.014-1.94-.636-3.035-1.032-3.114-1.138-.283-.38.07-1.174.53-1.174.096 0 1.472.424 3.06.936 2.329.767 2.973.943 3.405.943a2.4 2.4 0 0 0 2.214-1.393c.53-1.12.036-2.63-1.04-3.185-.45-.23-9.245-3.043-9.934-3.176-.705-.132-2.381-.15-3.008-.026"/><path fill="#5d6c63" d="M30.196 27.473c-.22.062-.865.38-1.447.697l-1.05.582.37.194c.204.097.574.38.821.627l.459.432 1.5-.812c2.02-1.085 1.896-.97 1.534-1.252-.635-.477-1.49-.662-2.187-.468M1.94 30.429c-.908.53-1.72 1.023-1.799 1.102A.63.63 0 0 0 0 31.92c0 .167 1.19 2.328 3.6 6.51 1.984 3.449 3.66 6.334 3.73 6.413.265.317.636.194 2.197-.688 1.906-1.094 2.056-1.209 2.056-1.553 0-.194-.989-1.993-3.582-6.501-1.976-3.423-3.67-6.316-3.767-6.43a.65.65 0 0 0-.405-.195c-.124 0-.97.432-1.888.953"/></svg>