<svg width="13" height="14" viewBox="0 0 13 14" fill="none" xmlns="http://www.w3.org/2000/svg">
<path d="M8.78019 5.90759V2.95374C8.78019 2.30089 8.52085 1.67479 8.05922 1.21316C7.59759 0.751528 6.97148 0.492188 6.31864 0.492188C5.6658 0.492188 5.03969 0.751528 4.57806 1.21316C4.11643 1.67479 3.85709 2.30089 3.85709 2.95374V5.90759M11.3113 4.59936L12.1404 12.4763C12.1863 12.9128 11.845 13.2922 11.4058 13.2922H1.23144C1.12787 13.2923 1.02542 13.2707 0.930772 13.2286C0.83612 13.1865 0.751375 13.125 0.682041 13.0481C0.612707 12.9711 0.560336 12.8805 0.52833 12.782C0.496323 12.6835 0.485397 12.5793 0.496261 12.4763L1.32597 4.59936C1.34511 4.4179 1.43075 4.24995 1.56638 4.1279C1.70201 4.00584 1.87803 3.93832 2.06049 3.93835H10.5768C10.9549 3.93835 11.2719 4.22389 11.3113 4.59936ZM4.10325 5.90759C4.10325 5.97288 4.07731 6.03549 4.03115 6.08165C3.98499 6.12781 3.92238 6.15375 3.85709 6.15375C3.79181 6.15375 3.7292 6.12781 3.68304 6.08165C3.63687 6.03549 3.61094 5.97288 3.61094 5.90759C3.61094 5.84231 3.63687 5.7797 3.68304 5.73354C3.7292 5.68737 3.79181 5.66144 3.85709 5.66144C3.92238 5.66144 3.98499 5.68737 4.03115 5.73354C4.07731 5.7797 4.10325 5.84231 4.10325 5.90759ZM9.02634 5.90759C9.02634 5.97288 9.00041 6.03549 8.95425 6.08165C8.90808 6.12781 8.84547 6.15375 8.78019 6.15375C8.71491 6.15375 8.65229 6.12781 8.60613 6.08165C8.55997 6.03549 8.53403 5.97288 8.53403 5.90759C8.53403 5.84231 8.55997 5.7797 8.60613 5.73354C8.65229 5.68737 8.71491 5.66144 8.78019 5.66144C8.84547 5.66144 8.90808 5.68737 8.95425 5.73354C9.00041 5.7797 9.02634 5.84231 9.02634 5.90759Z" stroke="#6E6E6E" stroke-width="0.984619" stroke-linecap="round" stroke-linejoin="round"/>
</svg>
