<svg xmlns="http://www.w3.org/2000/svg" fill="none" viewBox="0 0 37 41"><path fill="#5d6c63" d="M17.356.12c-.634.17-.922.338-1.462.854a3.1 3.1 0 0 0-.718.98c-.229.482-.245.6-.245 1.53v1.013l-4.352 2.518c-2.391 1.377-4.436 2.552-4.537 2.61-.16.085-.228.06-.55-.202-.92-.76-2.145-1.005-3.185-.65C.702 9.312-.185 10.75.035 12.43c.168 1.259.954 2.138 2.45 2.746l.236.101v10.477l-.228.102c-1.149.465-1.8 1.005-2.18 1.808-.54 1.14-.371 2.577.431 3.557 1.166 1.42 3.27 1.597 4.749.389.32-.262.388-.288.549-.203.101.06 2.146 1.234 4.537 2.61l4.352 2.519v1.014c0 .929.016 1.047.245 1.537.32.693 1.106 1.445 1.8 1.716.684.261 1.731.261 2.416 0 .693-.27 1.478-1.023 1.8-1.716.228-.49.244-.608.244-1.537l.009-1.006L23 35.641c.861-.498 2.839-1.64 4.393-2.535 1.555-.895 2.89-1.673 2.966-1.715.11-.067.228-.017.515.22.203.169.6.414.879.54.43.203.6.237 1.301.237.77 0 .845-.017 1.453-.321 1.336-.65 2.02-1.96 1.826-3.456-.161-1.276-.93-2.137-2.45-2.754l-.237-.102V15.278l.236-.101c.76-.313 1.175-.55 1.538-.921 1.183-1.183 1.267-3.143.203-4.444-1.166-1.428-3.27-1.597-4.749-.389-.287.237-.405.287-.515.22-.076-.043-1.411-.82-2.966-1.715S23.861 5.89 23 5.393l-1.555-.904-.009-1.006c0-.946-.016-1.039-.262-1.554-.439-.913-1.216-1.564-2.188-1.809-.608-.16-1.04-.16-1.63 0M16.02 5.857c.313.254.938.583 1.428.744.127.05.144.211.144 1.833v1.775h1.183V8.434c0-1.622.017-1.782.152-1.833.482-.16 1.107-.49 1.428-.752.287-.237.414-.287.524-.237a738 738 0 0 1 4.596 2.645c4.335 2.51 4.444 2.577 4.385 2.788-.067.254-.084 1.462-.017 1.783.043.194-.067.27-1.436 1.065-.811.473-1.487.895-1.504.946-.017.06.406.879.532 1.014.017.017.719-.372 1.572-.862l1.546-.896.304.288c.305.304.964.667 1.378.769l.228.059v10.612l-.228.06c-.414.1-1.073.464-1.378.768l-.304.287-1.546-.895c-.853-.49-1.555-.879-1.572-.862-.126.135-.549.955-.532 1.014.017.05.693.473 1.504.946 1.369.794 1.479.87 1.436 1.065-.067.32-.05 1.529.017 1.782.06.212-.05.28-4.385 2.789a743 743 0 0 1-4.596 2.644c-.11.051-.237 0-.524-.236-.321-.262-.946-.592-1.428-.752-.135-.05-.152-.211-.152-1.834v-1.774h-1.183v1.774c0 1.623-.017 1.783-.144 1.834-.49.16-1.115.49-1.428.743-.194.16-.38.296-.405.296s-1.369-.76-2.983-1.698-3.667-2.121-4.562-2.636c-1.555-.896-1.623-.947-1.563-1.158.067-.245.084-1.462.017-1.774-.043-.186.067-.27 1.436-1.065.811-.473 1.487-.895 1.495-.938.026-.067-.397-.887-.523-1.022-.009-.017-.685.355-1.496.82-.811.473-1.53.853-1.588.853-.068 0-.237-.11-.38-.245-.271-.262-.947-.634-1.327-.727l-.237-.059V15.211l.237-.06c.38-.092 1.056-.464 1.326-.726.144-.135.313-.245.38-.245.06 0 .778.38 1.59.853.81.465 1.486.837 1.495.82.126-.135.549-.955.532-1.014-.017-.05-.693-.473-1.504-.946-1.369-.795-1.479-.87-1.436-1.065.067-.312.05-1.53-.017-1.774-.06-.212.008-.262 1.436-1.082.82-.473 2.864-1.664 4.537-2.627 1.673-.972 3.076-1.775 3.11-1.775.042-.008.236.127.43.287"/><path fill="#5d6c63" d="M17.085 11.316c-3.05.346-5.821 2.315-7.19 5.103-1.301 2.645-1.301 5.552 0 8.196 1.96 3.988 6.54 6.033 10.806 4.808 4.91-1.403 7.782-6.54 6.388-11.424a9.28 9.28 0 0 0-7.917-6.683c-.904-.101-1.174-.101-2.087 0m2.197 5.154v2.442h1.428c.794 0 1.453.034 1.479.068.05.084-5.61 8.12-5.712 8.128-.034 0-.076-1.36-.085-3.025l-.025-3.016-1.115-.026c-.617-.008-1.124-.042-1.124-.059 0-.05 4.698-6.692 4.884-6.903.067-.085.16-.127.194-.101.042.025.076 1.14.076 2.492"/></svg>