<svg width="22" height="15" viewBox="0 0 22 15" fill="none" xmlns="http://www.w3.org/2000/svg">
<path fill-rule="evenodd" clip-rule="evenodd" d="M10.6907 0C10.7024 3.40847e-07 17.3783 0.000353309 19.0443 0.447544C19.9643 0.69381 20.6889 1.4194 20.9347 2.34082C21.381 4.00849 21.3816 7.48539 21.3816 7.49549C21.3816 7.49549 21.3816 10.9801 20.9347 12.65C20.6889 13.5714 19.9643 14.2974 19.0443 14.5435C17.3783 14.9907 10.7024 14.991 10.6907 14.991C10.6907 14.991 4.00465 14.9911 2.33716 14.5435C1.41719 14.2974 0.69256 13.5716 0.446685 12.65C-7.70411e-06 10.9801 0 7.49549 0 7.49549C9.417e-07 7.48539 0.000640255 4.00849 0.446685 2.34082C0.692563 1.4194 1.4172 0.693809 2.33716 0.447544C4.00465 -3.0244e-05 10.6907 0 10.6907 0ZM8.55267 10.7079L14.1077 7.49549L8.55267 4.28295V10.7079Z" fill="#5D6C63"/>
</svg>
