<svg width="17" height="17" viewBox="0 0 17 17" fill="none" xmlns="http://www.w3.org/2000/svg">
<path d="M0.278013 5.53234H3.77827V16.6648H0.278013V5.53234ZM2.02873 0C3.14787 0 4.0551 0.898876 4.0551 2.00464C4.0551 3.11041 3.14787 4.01279 2.02873 4.01279C0.909595 4.01279 0 3.11216 0 2.00464C0 0.897123 0.906643 0 2.02873 0Z" fill="#5D6C63"/>
<path d="M5.88823 5.55197H9.21989V7.07226H9.26565C9.73028 6.19777 10.8631 5.27719 12.5551 5.27719C16.0715 5.27719 16.7204 7.57689 16.7204 10.5702V16.6648H13.2491V11.2621C13.2491 9.97225 13.2239 8.31545 11.4439 8.31545C9.66399 8.31545 9.3601 9.71907 9.3601 11.1682V16.6648H5.88823V5.55197Z" fill="#5D6C63"/>
</svg>
