<svg width="17" height="18" viewBox="0 0 17 18" fill="none" xmlns="http://www.w3.org/2000/svg">
<path d="M0.0192789 0.00871658C0.0229864 0.0139141 0.129021 0.168388 0.255075 0.352566C0.38113 0.536003 0.571694 0.813753 0.67847 0.968969C0.909817 1.30613 1.39253 2.00795 1.82408 2.63623C1.99685 2.88725 2.26231 3.27343 2.41357 3.494C2.66346 3.8579 2.87034 4.15868 3.44425 4.99417C3.55103 5.14938 3.78312 5.48655 3.9596 5.74425C4.13681 6.00121 4.29475 6.23217 4.31181 6.25668C4.34295 6.30198 4.3867 6.36511 5.16898 7.50434C5.40774 7.85116 5.78442 8.39925 6.00613 8.7223C6.22858 9.04461 6.42952 9.33796 6.45399 9.37361C6.49477 9.43377 6.497 9.43971 6.48662 9.45159C6.47994 9.45902 6.24711 9.73083 5.96905 10.0554C5.69099 10.3799 5.27427 10.8663 5.04292 11.1352C4.81232 11.4048 4.4994 11.7687 4.34888 11.9447C4.19762 12.1207 3.90102 12.4668 3.68895 12.7141C3.21142 13.2703 1.59718 15.1522 0.972103 15.8808C0.717028 16.1786 0.393735 16.5558 0.254334 16.7185C0.114191 16.8811 0 17.0155 0 17.0178C0 17.02 0.317361 17.0207 0.705905 17.02L1.41181 17.0178L1.70915 16.6717C2.53592 15.7085 2.74873 15.4604 3.02086 15.1426C3.18399 14.9524 3.37752 14.7267 3.45167 14.6413C3.52508 14.5551 4.2295 13.7352 5.01623 12.8181C5.80296 11.9009 6.59933 10.9733 6.7847 10.7572C6.97082 10.5403 7.12579 10.3643 7.13024 10.3651C7.13394 10.3658 7.15693 10.3962 7.1814 10.4319C7.2385 10.5143 7.61221 11.0587 8.0712 11.7263C8.26621 12.01 8.62361 12.5299 8.8646 12.8812C9.10633 13.2325 9.40663 13.6699 9.53343 13.8541C9.65948 14.0375 9.92568 14.4252 10.1251 14.7155C10.3246 15.0052 10.5011 15.2629 10.5181 15.2874C10.5352 15.3119 10.6939 15.5421 10.8703 15.7998C11.0468 16.0568 11.2433 16.3427 11.3063 16.4348C11.3701 16.5269 11.4732 16.6769 11.5362 16.769C11.6 16.8611 11.6645 16.9554 11.6815 16.9792L11.7112 17.0215H14.1574H16.6036L16.5903 17.0014C16.5836 16.9896 16.4531 16.8002 16.3018 16.5796C16.1506 16.359 15.9185 16.0211 15.7865 15.8295C15.2496 15.0482 14.8989 14.538 14.7202 14.2774C14.6157 14.1259 14.4021 13.8154 14.2449 13.5867C13.9372 13.1381 13.912 13.1017 13.3655 12.3071C13.166 12.016 12.9777 11.7427 12.9473 11.6981C12.9176 11.6543 12.8383 11.5399 12.7723 11.4441C12.7063 11.3483 12.5632 11.1389 12.4534 10.98C12.3444 10.8203 12.2377 10.6651 12.2162 10.6346C12.1947 10.6042 12.1035 10.4705 12.0123 10.3376C11.921 10.2046 11.8328 10.0762 11.8158 10.0517C11.7987 10.0271 11.6593 9.82515 11.5066 9.60235C11.3538 9.37955 11.0876 8.99189 10.9148 8.74087C10.4299 8.03609 10.2912 7.83408 10.0614 7.4984L9.84782 7.18797L10.0725 6.92656C10.1956 6.78248 10.5663 6.351 10.8956 5.96705C11.2255 5.58309 11.6637 5.0714 11.8706 4.83078C12.4876 4.11263 13.3566 3.09965 14.7039 1.52967C15.4031 0.714981 15.9852 0.0369358 15.9971 0.0243111L16.0178 -0.000196457H15.3097H14.6023L14.0017 0.695673C13.4641 1.31876 12.9169 1.9567 10.0124 5.34321C9.57792 5.84971 9.21978 6.26485 9.21755 6.26559C9.21533 6.26634 9.18641 6.22772 9.15452 6.18019C9.1219 6.13266 8.9039 5.81406 8.66884 5.47318C8.43453 5.1323 8.13645 4.69785 8.00595 4.50773C7.87544 4.31761 7.69971 4.06213 7.61518 3.9396C7.53139 3.81706 7.28076 3.45241 7.05905 3.1301C6.83735 2.80704 6.64233 2.52335 6.62528 2.49884C6.60822 2.47433 6.46882 2.27233 6.31607 2.04953C5.92975 1.48734 5.44036 0.774395 5.25499 0.50481C5.16898 0.380043 5.05627 0.215916 5.00362 0.13868L4.90797 -0.000196457H2.46103C0.50496 -0.000196457 0.0148299 0.00203133 0.0192789 0.00871658Z" fill="#5D6C63"/>
</svg>
